<svg id="svg" version="1.1" xmlns="http://www.w3.org/2000/svg" xmlns:xlink="http://www.w3.org/1999/xlink" width="400" height="400" viewBox="0, 0, 400,400"><g id="svgg"><path id="path0" d="M78.400 147.677 C 62.560 150.369,46.980 159.384,39.669 170.088 C 39.327 170.590,38.932 171.090,38.793 171.200 C 34.103 174.905,28.282 191.050,27.183 203.400 C 26.929 206.260,26.783 209.590,26.860 210.800 L 27.000 213.000 106.700 213.101 L 186.400 213.202 186.400 204.612 C 186.400 193.206,187.559 190.388,193.398 187.601 L 195.914 186.400 207.714 186.400 L 219.513 186.400 219.675 177.500 C 219.861 167.259,220.139 166.284,223.869 162.791 C 226.970 159.887,227.742 159.672,236.565 159.260 C 241.842 159.013,242.070 158.969,240.965 158.400 C 240.324 158.070,239.440 157.474,239.000 157.075 C 237.251 155.489,227.811 151.153,223.600 150.001 C 222.610 149.730,221.440 149.362,221.000 149.182 C 220.008 148.776,218.315 148.462,214.200 147.923 C 210.037 147.377,81.535 147.144,78.400 147.677 M266.800 214.786 C 266.800 266.176,266.839 269.192,267.500 269.537 C 269.279 270.465,281.940 271.192,285.150 270.550 L 286.400 270.300 286.400 215.350 L 286.400 160.400 276.600 160.400 L 266.800 160.400 266.800 214.786 M96.274 167.177 C 101.120 169.378,101.531 176.035,97.010 179.106 C 94.504 180.808,85.459 180.783,82.930 179.066 C 78.426 176.010,78.889 169.375,83.760 167.162 C 86.135 166.084,93.885 166.093,96.274 167.177 M176.246 167.165 C 181.252 169.438,181.589 176.000,176.865 179.236 C 174.734 180.697,165.277 180.704,163.150 179.246 C 158.525 176.078,158.860 169.388,163.754 167.165 C 165.056 166.574,166.361 166.418,170.000 166.418 C 173.639 166.418,174.944 166.574,176.246 167.165 M233.600 212.932 L 233.600 252.265 236.516 255.032 C 239.730 258.083,240.199 258.473,242.811 260.270 C 246.528 262.827,252.241 265.746,252.824 265.385 C 253.055 265.242,253.200 247.496,253.200 219.376 L 253.200 173.600 243.400 173.600 L 233.600 173.600 233.600 212.932 M300.000 220.576 C 300.000 252.151,300.134 267.636,300.409 267.806 C 301.032 268.191,304.659 266.930,310.000 264.471 C 312.048 263.529,317.656 260.063,318.700 259.095 L 319.600 258.261 319.600 215.930 L 319.600 173.600 309.800 173.600 L 300.000 173.600 300.000 220.576 M136.466 180.530 C 140.405 182.488,141.373 188.161,138.300 191.276 C 134.045 195.590,123.046 194.730,120.542 189.889 C 118.514 185.967,120.500 181.692,125.200 179.864 C 126.641 179.303,134.991 179.797,136.466 180.530 M333.874 193.860 C 333.723 194.010,333.600 204.939,333.600 218.147 C 333.600 232.783,333.744 242.012,333.968 241.780 C 334.332 241.405,335.451 239.205,338.825 232.231 C 341.637 226.417,346.459 221.017,351.230 218.335 C 353.300 217.172,353.243 217.584,353.112 204.800 L 353.000 193.800 343.574 193.693 C 338.389 193.634,334.024 193.709,333.874 193.860 M200.274 200.260 C 199.936 200.598,199.907 213.293,200.243 214.167 C 200.376 214.515,200.790 214.800,201.163 214.800 C 201.535 214.800,202.011 214.943,202.220 215.118 C 202.429 215.293,203.317 215.680,204.193 215.978 C 208.335 217.385,215.382 223.038,217.807 226.899 C 218.463 227.944,219.137 228.799,219.305 228.799 C 219.473 228.800,219.563 222.365,219.505 214.500 L 219.400 200.200 209.974 200.093 C 204.789 200.034,200.424 200.109,200.274 200.260 M46.980 227.309 C 46.872 227.588,46.833 231.953,46.892 237.009 L 47.000 246.200 60.400 246.424 L 73.800 246.647 76.199 247.781 C 78.280 248.764,80.866 251.180,95.759 266.057 C 105.197 275.486,113.115 283.200,113.354 283.200 C 113.593 283.200,121.531 275.468,130.994 266.018 C 152.390 244.651,148.822 246.732,164.600 246.425 C 174.177 246.239,176.179 246.104,176.082 245.647 C 176.018 245.343,175.787 243.813,175.569 242.247 C 175.352 240.681,175.006 238.320,174.800 237.000 C 174.594 235.680,174.247 233.307,174.027 231.727 C 173.808 230.146,173.513 228.391,173.371 227.827 L 173.113 226.800 110.144 226.800 C 59.566 226.800,47.136 226.900,46.980 227.309 M27.270 333.948 C 26.843 334.219,26.780 336.343,26.943 344.842 C 27.177 357.051,27.409 359.154,29.137 364.694 C 30.352 368.588,35.416 375.971,38.224 377.941 C 38.897 378.413,39.860 379.183,40.363 379.651 C 43.484 382.559,50.766 385.266,57.400 385.983 C 66.184 386.934,197.418 386.387,197.322 385.400 C 197.247 384.638,196.741 381.189,196.000 376.400 C 195.010 370.002,194.715 367.997,194.457 365.921 C 194.080 362.877,194.012 362.855,191.419 364.968 C 186.087 369.310,185.368 368.867,165.602 349.043 L 150.204 333.600 89.002 333.606 C 55.341 333.609,27.562 333.763,27.270 333.948 " stroke="none" fill="#fbaf11" fill-rule="evenodd"></path><path id="path1" d="M108.168 75.700 C 108.303 76.855,108.580 79.150,108.783 80.800 C 109.270 84.759,110.404 94.374,111.166 101.000 C 111.393 102.980,111.764 106.175,111.990 108.100 C 112.215 110.025,112.584 113.175,112.808 115.100 C 113.032 117.025,113.389 120.040,113.600 121.800 C 113.811 123.560,114.136 126.540,114.321 128.423 C 114.506 130.306,114.790 132.061,114.953 132.323 C 115.178 132.688,126.241 132.804,161.924 132.817 C 205.982 132.834,213.201 132.981,219.000 133.978 C 222.960 134.659,228.633 136.070,230.200 136.765 C 230.640 136.960,231.630 137.340,232.400 137.609 C 234.238 138.252,238.734 140.275,240.000 141.029 C 240.550 141.356,241.675 141.931,242.500 142.306 C 243.325 142.682,244.000 143.126,244.000 143.294 C 244.000 143.462,244.190 143.600,244.422 143.600 C 245.018 143.600,249.308 146.524,252.497 149.104 L 255.194 151.286 256.589 149.891 C 258.068 148.412,260.548 147.084,262.700 146.618 C 263.864 146.366,264.000 146.190,264.000 144.945 C 264.000 144.180,264.172 142.349,264.382 140.877 C 264.592 139.405,264.960 136.310,265.199 134.000 C 265.640 129.743,266.075 125.721,266.800 119.200 C 267.020 117.220,267.374 114.025,267.586 112.100 C 267.798 110.175,268.153 106.980,268.375 105.000 C 268.597 103.020,268.973 99.600,269.211 97.400 C 269.976 90.318,270.431 86.269,270.805 83.200 C 271.006 81.550,271.291 78.715,271.437 76.900 L 271.703 73.600 189.813 73.600 L 107.923 73.600 108.168 75.700 " stroke="none" fill="#2e99cb" fill-rule="evenodd"></path><path id="path2" d="M109.500 147.100 C 123.415 147.158,146.185 147.158,160.100 147.100 C 174.015 147.042,162.630 146.994,134.800 146.994 C 106.970 146.994,95.585 147.042,109.500 147.100 M211.200 147.598 C 211.741 147.949,216.365 148.200,215.967 147.856 C 215.875 147.777,214.630 147.598,213.200 147.460 C 211.451 147.290,210.796 147.335,211.200 147.598 M217.600 148.400 C 217.930 148.613,218.740 148.773,219.400 148.754 C 220.576 148.721,220.580 148.714,219.600 148.400 C 218.070 147.910,216.842 147.910,217.600 148.400 M220.974 149.157 C 221.124 149.401,221.588 149.600,222.005 149.600 C 222.421 149.600,223.176 149.757,223.681 149.949 C 224.187 150.141,225.320 150.522,226.200 150.795 C 228.342 151.461,236.506 155.342,238.115 156.459 C 239.380 157.338,239.389 157.338,238.653 156.493 C 238.243 156.020,236.263 154.840,234.253 153.870 C 228.791 151.232,228.030 150.911,225.200 150.049 C 220.773 148.699,220.678 148.680,220.974 149.157 M236.532 159.178 C 228.712 159.484,228.869 160.000,236.782 160.000 C 242.529 160.000,243.239 159.929,242.800 159.400 C 242.526 159.070,242.279 158.835,242.251 158.878 C 242.223 158.922,239.649 159.057,236.532 159.178 M227.000 160.400 C 226.864 160.620,227.023 160.800,227.353 160.800 C 227.683 160.800,228.064 160.620,228.200 160.400 C 228.336 160.180,228.177 160.000,227.847 160.000 C 227.517 160.000,227.136 160.180,227.000 160.400 M189.775 190.100 L 188.600 191.400 189.900 190.225 C 190.615 189.579,191.200 188.994,191.200 188.925 C 191.200 188.616,190.870 188.888,189.775 190.100 M128.311 193.893 C 129.251 193.978,130.691 193.977,131.511 193.891 C 132.330 193.805,131.560 193.736,129.800 193.737 C 128.040 193.739,127.370 193.809,128.311 193.893 M187.413 228.500 C 187.535 229.435,187.796 231.190,187.992 232.400 C 188.189 233.610,188.552 235.950,188.800 237.600 C 189.048 239.250,189.408 241.590,189.600 242.800 C 189.792 244.010,190.152 246.350,190.400 248.000 C 190.648 249.650,191.008 251.990,191.200 253.200 C 191.392 254.410,191.752 256.750,192.000 258.400 C 192.248 260.050,192.608 262.390,192.800 263.600 C 192.992 264.810,193.341 267.060,193.575 268.600 C 193.808 270.140,194.266 273.110,194.592 275.200 C 194.919 277.290,195.910 283.860,196.795 289.800 C 197.680 295.740,198.584 301.725,198.802 303.100 C 199.021 304.475,199.380 306.770,199.600 308.200 C 199.820 309.630,200.180 311.970,200.400 313.400 C 200.832 316.210,201.333 319.529,202.013 324.102 C 202.250 325.696,202.610 327.900,202.813 329.000 C 203.016 330.100,203.274 331.720,203.386 332.600 C 203.497 333.480,203.785 335.460,204.024 337.000 C 204.664 341.115,205.084 343.834,205.600 347.200 C 205.853 348.850,206.213 351.190,206.400 352.400 C 206.587 353.610,206.927 355.860,207.155 357.400 C 207.383 358.940,207.762 361.460,207.997 363.000 C 208.232 364.540,208.585 366.880,208.782 368.200 C 208.978 369.520,209.234 371.140,209.352 371.800 C 209.557 372.950,209.959 375.509,210.782 380.900 C 210.991 382.275,211.270 384.075,211.400 384.900 L 211.636 386.400 279.791 386.400 C 344.355 386.400,347.957 386.363,348.152 385.700 C 348.266 385.315,348.548 383.650,348.779 382.000 C 349.009 380.350,349.387 377.830,349.617 376.400 C 350.108 373.350,350.668 369.705,351.245 365.800 C 351.473 364.260,351.813 362.010,352.000 360.800 C 352.187 359.590,352.547 357.250,352.800 355.600 C 353.053 353.950,353.432 351.520,353.642 350.200 C 353.852 348.880,354.202 346.630,354.420 345.200 C 354.638 343.770,354.993 341.475,355.208 340.100 C 355.424 338.725,355.780 336.430,356.000 335.000 C 356.220 333.570,356.587 331.185,356.817 329.700 C 357.046 328.215,357.331 326.010,357.452 324.800 C 357.572 323.590,357.835 322.429,358.035 322.220 C 358.236 322.011,358.400 320.832,358.400 319.600 C 358.400 318.368,358.564 317.189,358.765 316.980 C 358.965 316.771,359.228 315.610,359.348 314.400 C 359.602 311.844,359.883 309.903,361.600 298.800 C 361.787 297.590,362.127 295.340,362.355 293.800 C 362.583 292.260,362.942 289.830,363.154 288.400 C 363.577 285.540,365.450 273.195,366.037 269.400 C 366.241 268.080,366.592 265.740,366.817 264.200 C 367.276 261.060,367.841 257.376,368.412 253.800 C 368.623 252.480,368.990 250.140,369.228 248.600 C 369.465 247.060,369.813 244.810,370.000 243.600 C 370.187 242.390,370.547 240.050,370.800 238.400 C 371.053 236.750,371.434 234.320,371.647 233.000 C 371.861 231.680,372.136 229.720,372.260 228.645 L 372.485 226.690 370.342 226.944 C 369.164 227.084,367.160 227.314,365.889 227.456 C 364.617 227.597,363.482 227.868,363.365 228.057 C 363.248 228.245,362.837 228.400,362.451 228.400 C 359.792 228.400,353.466 233.586,351.718 237.200 C 351.239 238.190,349.826 241.156,348.578 243.791 C 346.689 247.781,341.974 255.521,340.250 257.464 C 340.003 257.743,338.901 259.013,337.803 260.286 C 326.627 273.235,310.988 281.212,291.323 283.993 C 287.533 284.529,270.615 284.516,267.246 283.975 C 256.857 282.304,245.016 278.139,239.115 274.079 C 238.170 273.429,236.699 272.505,235.846 272.026 C 233.541 270.731,226.967 265.259,223.968 262.139 C 217.633 255.547,214.941 251.272,208.268 237.200 C 205.426 231.206,197.503 226.800,189.569 226.800 L 187.191 226.800 187.413 228.500 M287.000 301.390 C 296.016 304.066,304.280 310.556,308.426 318.218 C 309.135 319.528,309.852 320.780,310.020 321.000 C 310.188 321.220,310.872 323.110,311.540 325.200 C 317.248 343.052,309.708 361.006,292.863 369.671 C 291.227 370.512,289.565 371.200,289.168 371.200 C 288.772 371.200,288.349 371.359,288.229 371.554 C 288.108 371.749,287.423 372.025,286.705 372.169 C 285.987 372.313,284.500 372.613,283.400 372.837 C 274.026 374.744,263.818 372.535,255.400 366.779 C 252.566 364.841,246.006 358.066,246.001 357.072 C 246.001 356.892,245.460 355.959,244.800 355.000 C 244.140 354.041,243.600 353.151,243.600 353.024 C 243.600 352.896,243.261 352.028,242.847 351.096 C 230.418 323.093,257.479 292.627,287.000 301.390 M150.800 334.102 C 150.800 334.158,157.865 341.223,166.500 349.802 L 182.200 365.400 166.602 349.700 C 152.105 335.108,150.800 333.820,150.800 334.102 M54.100 385.876 C 54.485 385.976,55.115 385.976,55.500 385.876 C 55.885 385.775,55.570 385.693,54.800 385.693 C 54.030 385.693,53.715 385.775,54.100 385.876 " stroke="none" fill="#ec4032" fill-rule="evenodd"></path><path id="path3" d="M118.068 13.886 C 115.146 14.443,113.600 17.614,113.600 23.050 L 113.600 26.400 196.600 26.400 L 279.600 26.400 279.600 22.461 C 279.600 17.139,278.693 15.380,275.326 14.180 C 273.856 13.655,120.781 13.370,118.068 13.886 M98.242 40.564 C 94.314 41.785,93.541 43.911,93.690 53.079 L 93.800 59.800 196.700 59.901 L 299.600 60.002 299.600 52.788 C 299.600 43.572,299.042 42.025,295.242 40.705 C 293.168 39.984,100.552 39.847,98.242 40.564 M273.000 313.854 C 251.563 317.160,246.632 347.654,266.014 357.054 C 270.208 359.088,276.228 360.350,278.187 359.605 C 278.773 359.382,279.950 359.200,280.802 359.200 C 281.655 359.200,282.464 359.020,282.600 358.800 C 282.736 358.580,283.205 358.400,283.643 358.400 C 284.385 358.400,285.265 358.020,288.786 356.180 C 298.387 351.162,302.417 336.150,296.917 325.887 C 292.467 317.581,282.229 312.430,273.000 313.854 " stroke="none" fill="#edeeef" fill-rule="evenodd"></path><path id="path4" d="M113.203 0.294 C 112.435 0.388,111.715 0.585,111.603 0.733 C 111.492 0.880,110.995 1.225,110.500 1.500 C 110.005 1.775,109.208 2.225,108.729 2.500 C 106.548 3.752,101.935 8.988,101.329 10.900 C 101.207 11.285,100.948 11.600,100.753 11.600 C 100.559 11.600,100.400 12.230,100.400 13.000 C 100.400 13.770,100.220 14.400,100.000 14.400 C 99.752 14.400,99.600 16.600,99.600 20.200 L 99.600 26.000 97.728 26.000 C 95.942 26.000,93.803 26.493,92.305 27.249 C 91.923 27.442,91.338 27.600,91.005 27.600 C 90.672 27.600,90.400 27.780,90.400 28.000 C 90.400 28.220,90.175 28.400,89.900 28.401 C 89.625 28.401,88.770 28.941,88.000 29.600 C 87.230 30.259,86.457 30.799,86.282 30.799 C 85.758 30.801,84.000 32.723,84.000 33.294 C 84.000 33.585,83.640 34.083,83.200 34.400 C 82.760 34.717,82.396 35.162,82.391 35.388 C 82.386 35.615,82.030 36.250,81.600 36.800 C 81.170 37.350,80.814 38.205,80.809 38.700 C 80.804 39.195,80.620 39.600,80.400 39.600 C 80.180 39.600,80.000 40.140,80.000 40.800 C 80.000 41.460,79.820 42.000,79.600 42.000 C 78.970 42.000,79.065 68.350,79.700 69.717 C 79.975 70.309,80.335 70.795,80.500 70.797 C 80.665 70.799,80.800 71.046,80.800 71.347 C 80.800 72.979,83.799 74.000,88.591 74.000 L 93.200 74.000 93.200 75.576 C 93.200 76.443,93.380 77.264,93.600 77.400 C 93.820 77.536,94.000 79.066,94.000 80.800 C 94.000 82.534,94.180 84.064,94.400 84.200 C 94.620 84.336,94.800 85.877,94.800 87.624 C 94.800 89.475,94.967 90.800,95.200 90.800 C 95.435 90.800,95.600 92.192,95.600 94.176 C 95.600 96.033,95.780 97.664,96.000 97.800 C 96.220 97.936,96.400 99.477,96.400 101.224 C 96.400 103.075,96.567 104.400,96.800 104.400 C 97.035 104.400,97.200 105.800,97.200 107.800 C 97.200 109.800,97.365 111.200,97.600 111.200 C 97.835 111.200,98.000 112.592,98.000 114.576 C 98.000 116.433,98.180 118.064,98.400 118.200 C 98.620 118.336,98.800 119.787,98.800 121.424 C 98.800 123.141,98.969 124.400,99.200 124.400 C 99.437 124.400,99.600 125.867,99.600 128.000 C 99.600 130.133,99.763 131.600,100.000 131.600 C 100.220 131.600,100.400 131.780,100.400 132.000 C 100.400 132.255,97.008 132.400,91.024 132.400 C 85.204 132.400,81.553 132.552,81.400 132.800 C 81.264 133.020,79.723 133.200,77.976 133.200 C 76.125 133.200,74.800 133.367,74.800 133.600 C 74.800 133.822,73.733 134.000,72.400 134.000 C 71.067 134.000,70.000 134.178,70.000 134.400 C 70.000 134.620,69.381 134.800,68.624 134.800 C 67.867 134.800,67.136 134.980,67.000 135.200 C 66.864 135.420,66.234 135.600,65.600 135.600 C 64.966 135.600,64.336 135.780,64.200 136.000 C 64.064 136.220,63.513 136.400,62.976 136.400 C 62.439 136.400,62.000 136.580,62.000 136.800 C 62.000 137.020,61.561 137.200,61.024 137.200 C 60.487 137.200,59.936 137.380,59.800 137.600 C 59.664 137.820,59.113 138.000,58.576 138.000 C 58.039 138.000,57.600 138.180,57.600 138.400 C 57.600 138.620,57.240 138.800,56.800 138.800 C 56.360 138.800,56.000 138.980,56.000 139.200 C 56.000 139.420,55.640 139.600,55.200 139.600 C 54.760 139.600,54.400 139.780,54.400 140.000 C 54.400 140.220,54.040 140.400,53.600 140.400 C 53.160 140.400,52.800 140.580,52.800 140.800 C 52.800 141.020,52.440 141.200,52.000 141.200 C 51.560 141.200,51.200 141.380,51.200 141.600 C 51.200 141.820,50.851 142.000,50.424 142.000 C 49.997 142.000,49.548 142.160,49.427 142.356 C 49.306 142.552,48.305 143.184,47.204 143.760 C 45.142 144.838,44.154 145.541,42.512 147.100 C 41.990 147.595,41.408 148.000,41.217 148.000 C 41.026 148.000,39.813 149.035,38.521 150.300 C 37.229 151.565,35.503 153.104,34.686 153.720 C 33.869 154.337,33.200 155.023,33.200 155.245 C 33.200 155.467,32.120 156.693,30.800 157.969 C 29.480 159.244,28.400 160.478,28.400 160.711 C 28.400 160.943,28.249 161.193,28.064 161.267 C 27.535 161.476,24.800 165.533,24.800 166.108 C 24.800 166.391,24.440 166.883,24.000 167.200 C 23.560 167.517,23.200 168.097,23.200 168.488 C 23.200 168.880,23.020 169.200,22.800 169.200 C 22.580 169.200,22.400 169.436,22.400 169.725 C 22.400 170.013,22.040 170.636,21.600 171.108 C 21.160 171.580,20.800 172.233,20.800 172.560 C 20.800 172.886,20.620 173.264,20.400 173.400 C 20.180 173.536,20.000 173.997,20.000 174.424 C 20.000 174.851,19.820 175.200,19.600 175.200 C 19.380 175.200,19.200 175.560,19.200 176.000 C 19.200 176.440,19.020 176.800,18.800 176.800 C 18.580 176.800,18.400 177.160,18.400 177.600 C 18.400 178.040,18.220 178.400,18.000 178.400 C 17.780 178.400,17.600 178.940,17.600 179.600 C 17.600 180.260,17.420 180.800,17.200 180.800 C 16.980 180.800,16.800 181.149,16.800 181.576 C 16.800 182.003,16.620 182.464,16.400 182.600 C 16.180 182.736,16.000 183.467,16.000 184.224 C 16.000 184.981,15.840 185.600,15.644 185.600 C 15.448 185.600,15.191 186.185,15.073 186.900 C 14.954 187.615,14.646 189.010,14.388 190.000 C 14.129 190.990,13.831 192.790,13.724 194.000 C 13.617 195.210,13.365 196.371,13.165 196.580 C 12.655 197.111,12.689 217.884,13.200 218.200 C 13.420 218.336,13.600 218.797,13.600 219.224 C 13.600 219.651,13.780 220.000,14.000 220.000 C 14.220 220.000,14.400 220.289,14.400 220.643 C 14.400 221.494,18.372 225.200,19.285 225.200 C 19.678 225.200,20.000 225.380,20.000 225.600 C 20.000 225.820,20.360 226.000,20.800 226.000 C 21.240 226.000,21.600 226.180,21.600 226.400 C 21.600 226.620,22.500 226.800,23.600 226.800 C 24.700 226.800,25.600 226.980,25.600 227.200 C 25.600 227.420,26.140 227.600,26.800 227.600 C 27.460 227.600,28.000 227.420,28.000 227.200 C 28.000 226.973,29.160 226.800,30.680 226.800 C 32.764 226.800,33.253 226.907,32.880 227.280 C 32.533 227.627,32.400 230.453,32.400 237.480 C 32.400 246.955,32.380 247.200,31.595 247.200 C 31.152 247.200,30.477 247.368,30.095 247.574 C 29.713 247.779,28.815 248.183,28.100 248.471 C 27.385 248.760,26.800 249.131,26.800 249.298 C 26.800 249.464,26.530 249.600,26.200 249.600 C 25.870 249.600,25.600 249.780,25.600 250.000 C 25.600 250.220,25.316 250.400,24.969 250.400 C 24.621 250.400,23.646 251.120,22.800 252.000 C 21.954 252.880,21.063 253.600,20.819 253.600 C 20.575 253.600,20.256 253.915,20.110 254.300 C 19.964 254.685,19.160 255.661,18.322 256.469 C 17.485 257.276,16.800 258.221,16.800 258.569 C 16.800 258.916,16.620 259.200,16.400 259.200 C 16.180 259.200,16.000 259.470,16.000 259.800 C 16.000 260.130,15.820 260.400,15.600 260.400 C 15.380 260.400,15.200 260.760,15.200 261.200 C 15.200 261.640,15.020 262.000,14.800 262.000 C 14.580 262.000,14.400 262.540,14.400 263.200 C 14.400 263.860,14.220 264.400,14.000 264.400 C 13.780 264.400,13.600 264.929,13.600 265.576 C 13.600 266.223,13.420 266.864,13.200 267.000 C 12.665 267.330,12.665 279.070,13.200 279.400 C 13.420 279.536,13.600 280.089,13.600 280.629 C 13.600 281.169,13.768 281.923,13.974 282.305 C 14.179 282.687,14.583 283.585,14.871 284.300 C 15.160 285.015,15.531 285.600,15.698 285.600 C 15.864 285.600,16.000 285.960,16.000 286.400 C 16.000 286.840,16.180 287.200,16.400 287.200 C 16.620 287.200,16.800 287.520,16.800 287.912 C 16.800 288.303,17.160 288.883,17.600 289.200 C 18.040 289.517,18.400 289.922,18.400 290.099 C 18.400 290.593,21.919 294.000,22.429 294.000 C 22.677 294.000,23.356 294.507,23.940 295.127 C 24.523 295.747,25.585 296.511,26.300 296.825 C 27.015 297.138,27.600 297.531,27.600 297.698 C 27.600 297.864,27.960 298.000,28.400 298.000 C 28.840 298.000,29.200 298.180,29.200 298.400 C 29.200 298.620,29.663 298.800,30.229 298.800 C 32.331 298.800,32.400 299.142,32.400 309.571 L 32.400 319.200 27.800 319.200 C 25.000 319.200,23.200 319.357,23.200 319.600 C 23.200 319.820,22.660 320.000,22.000 320.000 C 21.340 320.000,20.800 320.180,20.800 320.400 C 20.800 320.620,20.480 320.800,20.088 320.800 C 19.697 320.800,19.117 321.160,18.800 321.600 C 18.483 322.040,17.980 322.400,17.683 322.400 C 17.019 322.400,16.377 323.057,15.632 324.500 C 15.320 325.105,14.915 325.600,14.732 325.600 C 14.550 325.600,14.400 325.870,14.400 326.200 C 14.400 326.530,14.220 326.800,14.000 326.800 C 13.780 326.800,13.600 327.124,13.600 327.520 C 13.600 327.916,13.416 328.424,13.191 328.649 C 12.267 329.573,13.094 365.200,14.040 365.200 C 14.238 365.200,14.400 365.920,14.400 366.800 C 14.400 367.680,14.580 368.400,14.800 368.400 C 15.020 368.400,15.200 368.839,15.200 369.376 C 15.200 369.913,15.380 370.464,15.600 370.600 C 15.820 370.736,16.000 371.197,16.000 371.624 C 16.000 372.051,16.180 372.400,16.400 372.400 C 16.620 372.400,16.800 372.760,16.800 373.200 C 16.800 373.640,16.980 374.000,17.200 374.000 C 17.420 374.000,17.600 374.270,17.600 374.600 C 17.600 374.930,17.780 375.200,18.000 375.200 C 18.220 375.200,18.400 375.560,18.400 376.000 C 18.400 376.440,18.580 376.800,18.800 376.800 C 19.020 376.800,19.200 377.160,19.200 377.600 C 19.200 378.040,19.350 378.400,19.532 378.400 C 19.715 378.400,20.119 378.895,20.430 379.500 C 20.740 380.105,21.311 380.891,21.697 381.247 C 22.084 381.603,22.400 382.071,22.400 382.288 C 22.400 382.504,22.940 383.246,23.600 383.937 C 24.260 384.628,24.800 385.284,24.800 385.396 C 24.800 385.508,20.570 385.600,15.400 385.600 C 9.400 385.600,6.000 385.745,6.000 386.000 C 6.000 386.220,5.356 386.400,4.569 386.400 C 3.417 386.400,2.831 386.719,1.569 388.033 L 0.000 389.665 0.000 393.419 L 0.000 397.173 1.413 398.587 L 2.827 400.000 200.000 400.000 L 397.173 400.000 398.587 398.587 L 400.000 397.173 400.000 393.419 L 400.000 389.665 398.431 388.033 C 397.169 386.719,396.583 386.400,395.431 386.400 C 394.644 386.400,394.000 386.220,394.000 386.000 C 394.000 385.740,388.533 385.600,378.400 385.600 C 363.067 385.600,362.800 385.586,362.800 384.800 C 362.800 384.360,362.980 384.000,363.200 384.000 C 363.422 384.000,363.600 382.933,363.600 381.600 C 363.600 380.267,363.778 379.200,364.000 379.200 C 364.225 379.200,364.400 378.075,364.400 376.624 C 364.400 375.207,364.580 373.936,364.800 373.800 C 365.020 373.664,365.200 372.584,365.200 371.400 C 365.200 370.216,365.380 369.136,365.600 369.000 C 365.820 368.864,366.000 367.593,366.000 366.176 C 366.000 364.725,366.175 363.600,366.400 363.600 C 366.622 363.600,366.800 362.541,366.800 361.224 C 366.800 359.917,366.980 358.736,367.200 358.600 C 367.420 358.464,367.600 357.283,367.600 355.976 C 367.600 354.659,367.778 353.600,368.000 353.600 C 368.222 353.600,368.400 352.541,368.400 351.224 C 368.400 349.917,368.580 348.736,368.800 348.600 C 369.020 348.464,369.200 347.193,369.200 345.776 C 369.200 344.325,369.375 343.200,369.600 343.200 C 369.822 343.200,370.000 342.141,370.000 340.824 C 370.000 339.517,370.180 338.336,370.400 338.200 C 370.620 338.064,370.800 336.919,370.800 335.656 C 370.800 334.393,370.964 333.189,371.165 332.980 C 371.365 332.771,371.631 331.610,371.756 330.400 C 371.880 329.190,372.084 327.210,372.210 326.000 C 372.336 324.790,372.602 323.440,372.801 323.000 C 373.001 322.560,373.255 321.210,373.366 320.000 C 373.559 317.883,373.839 315.823,374.750 309.800 C 374.983 308.260,375.180 306.055,375.187 304.900 C 375.194 303.745,375.380 302.800,375.600 302.800 C 375.825 302.800,376.000 301.675,376.000 300.224 C 376.000 298.807,376.180 297.536,376.400 297.400 C 376.620 297.264,376.800 296.083,376.800 294.776 C 376.800 293.459,376.978 292.400,377.200 292.400 C 377.422 292.400,377.600 291.341,377.600 290.024 C 377.600 288.717,377.780 287.536,378.000 287.400 C 378.220 287.264,378.400 286.083,378.400 284.776 C 378.400 283.459,378.578 282.400,378.800 282.400 C 379.025 282.400,379.200 281.275,379.200 279.824 C 379.200 278.407,379.380 277.136,379.600 277.000 C 379.820 276.864,380.000 275.784,380.000 274.600 C 380.000 273.416,380.180 272.336,380.400 272.200 C 380.620 272.064,380.800 270.793,380.800 269.376 C 380.800 267.925,380.975 266.800,381.200 266.800 C 381.422 266.800,381.600 265.733,381.600 264.400 C 381.600 263.067,381.778 262.000,382.000 262.000 C 382.225 262.000,382.400 260.875,382.400 259.424 C 382.400 258.007,382.580 256.736,382.800 256.600 C 383.020 256.464,383.200 255.384,383.200 254.200 C 383.200 253.016,383.380 251.936,383.600 251.800 C 383.820 251.664,384.000 250.393,384.000 248.976 C 384.000 247.525,384.175 246.400,384.400 246.400 C 384.622 246.400,384.800 245.333,384.800 244.000 C 384.800 242.667,384.978 241.600,385.200 241.600 C 385.426 241.600,385.600 240.467,385.600 239.000 C 385.600 237.533,385.774 236.400,386.000 236.400 C 386.222 236.400,386.400 235.341,386.400 234.024 C 386.400 232.717,386.580 231.536,386.800 231.400 C 387.033 231.256,387.200 228.996,387.200 225.976 C 387.200 222.792,387.046 220.800,386.800 220.800 C 386.580 220.800,386.400 220.440,386.400 220.000 C 386.400 219.560,386.220 219.200,386.000 219.200 C 385.780 219.200,385.600 218.925,385.600 218.589 C 385.600 217.796,382.204 214.400,381.411 214.400 C 381.075 214.400,380.800 214.220,380.800 214.000 C 380.800 213.780,380.440 213.600,380.000 213.600 C 379.560 213.600,379.200 213.420,379.200 213.200 C 379.200 212.952,377.004 212.800,373.412 212.800 L 367.623 212.800 367.466 201.100 C 367.312 189.625,367.069 186.400,366.356 186.400 C 366.160 186.400,366.000 186.126,366.000 185.791 C 366.000 184.999,361.801 180.800,361.009 180.800 C 360.674 180.800,360.400 180.620,360.400 180.400 C 360.400 180.180,359.860 180.000,359.200 180.000 C 358.540 180.000,358.000 179.820,358.000 179.600 C 358.000 179.342,353.733 179.200,346.000 179.200 L 334.000 179.200 334.000 171.400 C 334.000 166.467,333.853 163.600,333.600 163.600 C 333.380 163.600,333.200 163.322,333.200 162.982 C 333.200 161.676,330.407 159.600,328.650 159.600 C 328.098 159.600,327.536 159.420,327.400 159.200 C 327.243 158.946,322.263 158.800,313.776 158.800 L 300.400 158.800 300.400 156.383 C 300.400 154.519,300.217 153.770,299.600 153.108 C 299.160 152.636,298.800 152.013,298.800 151.725 C 298.800 151.436,298.620 151.200,298.400 151.200 C 298.180 151.200,298.000 150.924,298.000 150.587 C 298.000 150.251,297.685 149.857,297.300 149.712 C 296.915 149.567,296.123 148.943,295.540 148.325 C 294.956 147.706,294.290 147.200,294.058 147.200 C 292.295 147.200,291.600 146.278,291.600 143.936 C 291.600 142.645,291.779 141.600,292.000 141.600 C 292.235 141.600,292.400 140.200,292.400 138.200 C 292.400 136.200,292.565 134.800,292.800 134.800 C 293.035 134.800,293.200 133.408,293.200 131.424 C 293.200 129.567,293.380 127.936,293.600 127.800 C 293.820 127.664,294.000 126.224,294.000 124.600 C 294.000 122.976,294.180 121.536,294.400 121.400 C 294.620 121.264,294.800 119.633,294.800 117.776 C 294.800 115.792,294.965 114.400,295.200 114.400 C 295.433 114.400,295.600 113.067,295.600 111.200 C 295.600 109.333,295.767 108.000,296.000 108.000 C 296.235 108.000,296.400 106.600,296.400 104.600 C 296.400 102.600,296.565 101.200,296.800 101.200 C 297.035 101.200,297.200 99.808,297.200 97.824 C 297.200 95.967,297.380 94.336,297.600 94.200 C 297.820 94.064,298.000 92.624,298.000 91.000 C 298.000 89.376,298.180 87.936,298.400 87.800 C 298.620 87.664,298.800 86.033,298.800 84.176 C 298.800 82.287,298.969 80.800,299.184 80.800 C 299.395 80.800,299.620 79.315,299.684 77.500 L 299.800 74.200 304.400 74.098 C 307.048 74.040,309.424 73.786,310.000 73.500 C 311.850 72.582,313.600 70.356,313.600 68.922 C 313.600 68.195,313.780 67.600,314.000 67.600 C 314.257 67.600,314.400 63.741,314.400 56.824 C 314.400 50.071,314.251 45.955,314.000 45.800 C 313.780 45.664,313.600 44.494,313.600 43.200 C 313.600 41.906,313.420 40.736,313.200 40.600 C 312.980 40.464,312.800 39.823,312.800 39.176 C 312.800 38.529,312.620 38.000,312.400 38.000 C 312.180 38.000,312.000 37.764,312.000 37.475 C 312.000 37.187,311.640 36.564,311.200 36.092 C 310.760 35.620,310.400 35.052,310.400 34.831 C 310.400 34.218,305.521 29.200,304.924 29.200 C 304.636 29.200,304.400 29.020,304.400 28.800 C 304.400 28.580,304.040 28.400,303.600 28.400 C 303.160 28.400,302.800 28.220,302.800 28.000 C 302.800 27.780,302.451 27.600,302.024 27.600 C 301.597 27.600,301.136 27.420,301.000 27.200 C 300.864 26.980,300.324 26.800,299.800 26.800 C 299.276 26.800,298.736 26.620,298.600 26.400 C 298.464 26.180,297.373 26.000,296.176 26.000 L 294.000 26.000 294.000 21.000 C 294.000 17.933,293.845 16.000,293.600 16.000 C 293.380 16.000,293.200 15.280,293.200 14.400 C 293.200 13.520,293.020 12.800,292.800 12.800 C 292.580 12.800,292.400 12.350,292.400 11.800 C 292.400 11.250,292.240 10.800,292.043 10.800 C 291.847 10.800,291.570 10.334,291.427 9.766 C 291.284 9.197,290.725 8.288,290.184 7.747 C 289.643 7.206,289.200 6.619,289.200 6.443 C 289.200 5.958,287.761 4.400,287.312 4.400 C 287.096 4.400,286.354 3.860,285.663 3.200 C 284.972 2.540,284.136 2.000,283.804 2.000 C 283.472 2.000,283.200 1.820,283.200 1.600 C 283.200 1.380,282.855 1.200,282.433 1.200 C 282.012 1.200,281.592 0.975,281.500 0.700 C 281.339 0.218,117.057 -0.179,113.203 0.294 M276.746 14.019 C 279.411 15.518,280.124 17.170,280.325 22.300 L 280.501 26.800 196.850 26.800 L 113.200 26.800 113.200 22.354 C 113.200 17.209,113.843 15.513,116.343 14.063 L 117.800 13.218 196.546 13.209 C 275.155 13.200,275.294 13.201,276.746 14.019 M296.238 40.460 C 299.830 42.148,300.200 43.260,300.200 52.370 L 300.200 60.200 196.600 60.200 L 93.000 60.200 92.888 53.400 C 92.737 44.245,93.381 42.237,97.059 40.401 C 98.566 39.649,100.731 39.632,196.504 39.616 L 294.409 39.600 296.238 40.460 M286.000 74.393 C 286.000 75.048,285.824 76.803,285.608 78.293 C 285.392 79.782,285.032 82.575,284.808 84.500 C 284.584 86.425,284.225 89.485,284.012 91.300 C 283.798 93.115,283.441 96.220,283.218 98.200 C 282.995 100.180,282.630 103.330,282.407 105.200 C 282.185 107.070,281.371 114.180,280.599 121.000 C 278.616 138.508,278.414 140.225,277.939 143.657 L 277.516 146.714 270.258 146.885 C 262.083 147.078,260.214 147.597,257.050 150.552 C 255.115 152.359,255.297 152.378,252.521 150.075 C 249.897 147.898,245.088 144.616,242.400 143.169 C 241.410 142.636,240.510 142.110,240.400 141.999 C 240.290 141.889,239.750 141.597,239.200 141.350 C 238.650 141.103,237.300 140.496,236.200 140.000 C 233.954 138.988,233.210 138.690,231.200 138.000 C 230.430 137.736,229.440 137.371,229.000 137.190 C 227.862 136.722,221.838 135.298,219.000 134.827 C 217.680 134.608,215.970 134.306,215.200 134.156 C 214.430 134.007,191.390 133.775,164.000 133.642 L 114.200 133.400 113.949 131.400 C 113.573 128.411,112.798 121.845,112.366 118.000 C 111.959 114.378,111.425 109.807,110.800 104.600 C 110.589 102.840,110.232 99.825,110.008 97.900 C 109.784 95.975,109.420 92.870,109.200 91.000 C 108.980 89.130,108.620 86.070,108.400 84.200 C 107.641 77.749,107.299 73.799,107.473 73.500 C 107.569 73.335,147.777 73.200,196.824 73.200 L 286.000 73.200 286.000 74.393 M215.600 147.147 C 225.183 149.053,233.862 152.523,240.379 157.052 C 244.936 160.219,244.999 160.168,236.200 160.400 C 226.971 160.643,223.641 162.042,221.683 166.500 C 221.417 167.105,221.019 168.005,220.798 168.500 C 220.578 168.995,220.353 173.270,220.298 178.000 L 220.200 186.600 208.400 186.823 C 201.910 186.946,196.150 187.189,195.600 187.363 C 191.440 188.680,188.648 191.475,187.370 195.600 C 187.199 196.150,186.956 200.380,186.830 205.000 L 186.600 213.400 106.600 213.400 L 26.600 213.400 26.635 206.800 C 26.668 200.540,27.004 197.146,27.972 193.300 C 28.207 192.365,28.555 190.925,28.745 190.100 C 29.045 188.791,29.483 187.527,30.788 184.200 C 39.116 162.971,60.989 147.540,84.000 146.661 C 94.941 146.243,213.252 146.679,215.600 147.147 M286.701 215.500 L 286.600 271.000 279.200 270.980 C 275.130 270.970,270.630 270.790,269.200 270.580 L 266.600 270.200 266.499 215.100 L 266.397 160.000 276.600 160.000 L 286.803 160.000 286.701 215.500 M83.335 168.024 C 79.436 170.521,79.559 176.481,83.554 178.726 C 85.812 179.995,94.143 180.026,96.346 178.773 C 100.498 176.412,100.644 170.499,96.611 168.007 C 94.663 166.803,85.222 166.815,83.335 168.024 M163.514 167.822 C 159.513 169.993,159.565 176.484,163.602 178.753 C 167.734 181.076,176.927 179.647,178.753 176.398 C 180.498 173.294,179.397 169.388,176.320 167.768 C 174.777 166.957,165.033 166.997,163.514 167.822 M253.600 219.576 C 253.600 248.832,253.458 266.041,253.215 266.191 C 251.795 267.069,241.310 260.396,235.919 255.184 L 232.800 252.167 232.800 212.950 C 232.800 191.381,232.920 173.613,233.067 173.467 C 233.213 173.320,237.893 173.200,243.467 173.200 L 253.600 173.200 253.600 219.576 M320.400 215.777 L 320.400 258.353 318.198 260.073 C 313.095 264.058,300.768 269.621,299.938 268.313 C 299.550 267.702,299.480 173.853,299.867 173.467 C 300.013 173.320,304.693 173.200,310.267 173.200 L 320.400 173.200 320.400 215.777 M123.769 181.208 C 119.359 183.391,119.306 189.929,123.680 192.232 C 125.105 192.981,134.798 193.035,136.090 192.300 C 140.639 189.713,140.702 183.379,136.200 181.200 C 133.789 180.033,126.134 180.037,123.769 181.208 M353.120 193.280 C 353.659 193.819,353.823 216.652,353.294 217.435 C 353.132 217.674,352.110 218.387,351.021 219.019 C 349.038 220.171,344.320 224.576,342.258 227.200 C 341.654 227.970,340.167 230.670,338.955 233.200 C 337.744 235.730,336.376 238.520,335.916 239.400 C 335.457 240.280,334.883 241.404,334.640 241.897 C 334.398 242.390,333.885 242.795,333.500 242.797 C 332.667 242.801,332.390 195.113,333.214 193.574 C 333.722 192.624,352.192 192.352,353.120 193.280 M219.500 199.852 L 220.400 200.093 220.400 215.047 C 220.400 223.271,220.265 229.997,220.100 229.994 C 219.501 229.982,218.909 229.355,217.270 227.000 C 214.099 222.441,208.921 218.430,203.400 216.253 C 201.860 215.646,200.375 214.857,200.100 214.498 C 199.410 213.600,199.392 200.768,200.080 200.080 C 200.588 199.572,217.705 199.371,219.500 199.852 M173.777 227.300 C 173.926 227.795,174.231 229.460,174.454 231.000 C 174.677 232.540,175.032 234.880,175.242 236.200 C 176.247 242.513,176.441 243.914,176.518 245.400 L 176.600 247.000 164.600 247.200 L 152.600 247.400 150.341 248.510 C 148.478 249.424,145.062 252.639,130.897 266.810 C 121.445 276.264,113.557 284.000,113.367 284.000 C 113.176 284.000,105.276 276.280,95.810 266.845 C 74.150 245.256,77.688 247.214,60.333 247.206 C 53.366 247.203,47.381 247.091,47.033 246.957 C 46.374 246.704,46.024 227.310,46.667 226.667 C 46.813 226.520,75.412 226.400,110.220 226.400 L 173.507 226.400 173.777 227.300 M195.480 227.003 C 202.313 228.780,206.532 232.441,209.766 239.400 C 217.057 255.092,223.976 263.481,236.715 272.078 C 239.824 274.175,248.613 278.793,249.505 278.797 C 249.783 278.799,250.323 278.976,250.705 279.191 C 252.200 280.032,258.636 281.903,264.000 283.055 C 271.318 284.627,283.911 284.674,293.800 283.166 C 299.500 282.296,305.897 280.670,309.500 279.174 C 309.995 278.968,310.805 278.646,311.300 278.458 C 328.494 271.916,341.383 258.979,350.196 239.418 C 353.969 231.043,361.110 226.380,370.120 226.406 C 373.429 226.416,373.324 225.968,372.015 234.500 C 371.787 235.985,371.420 238.370,371.200 239.800 C 370.980 241.230,370.620 243.570,370.400 245.000 C 370.180 246.430,369.820 248.770,369.600 250.200 C 369.380 251.630,369.014 254.015,368.788 255.500 C 368.263 258.937,367.681 262.717,367.188 265.900 C 366.974 267.275,366.620 269.570,366.400 271.000 C 366.180 272.430,365.826 274.725,365.612 276.100 C 365.399 277.475,365.054 279.770,364.844 281.200 C 364.489 283.630,364.015 286.747,363.202 292.000 C 363.015 293.210,361.947 300.230,360.829 307.600 C 359.711 314.970,358.617 322.125,358.398 323.500 C 358.179 324.875,357.820 327.170,357.600 328.600 C 357.380 330.030,357.020 332.370,356.800 333.800 C 356.580 335.230,356.220 337.570,356.000 339.000 C 355.780 340.430,355.420 342.770,355.200 344.200 C 354.980 345.630,354.620 347.970,354.400 349.400 C 354.180 350.830,353.820 353.170,353.600 354.600 C 353.380 356.030,353.020 358.370,352.800 359.800 C 352.580 361.230,352.220 363.570,352.000 365.000 C 350.967 371.712,350.744 373.149,350.416 375.200 C 350.222 376.410,349.846 378.930,349.580 380.800 C 349.314 382.670,348.973 384.740,348.822 385.400 L 348.549 386.600 279.882 386.701 L 211.216 386.802 211.033 385.901 C 210.932 385.406,210.742 384.190,210.612 383.200 C 210.481 382.210,210.205 380.320,209.999 379.000 C 209.793 377.680,209.439 375.385,209.212 373.900 C 208.986 372.415,208.626 370.075,208.412 368.700 C 207.591 363.404,207.211 360.908,206.844 358.400 C 206.635 356.970,206.257 354.450,206.003 352.800 C 205.750 351.150,205.391 348.810,205.205 347.600 C 205.019 346.390,204.310 341.710,203.630 337.200 C 202.950 332.690,202.215 327.875,201.997 326.500 C 201.779 325.125,201.420 322.830,201.200 321.400 C 200.980 319.970,200.620 317.630,200.400 316.200 C 200.011 313.674,199.684 311.509,198.784 305.498 C 198.545 303.904,198.192 301.610,198.000 300.400 C 197.808 299.190,197.448 296.850,197.200 295.200 C 196.952 293.550,196.592 291.210,196.400 290.000 C 196.208 288.790,195.852 286.450,195.610 284.800 C 195.369 283.150,194.997 281.032,194.785 280.094 C 194.573 279.156,194.400 277.865,194.400 277.225 C 194.400 276.585,194.229 275.192,194.019 274.131 C 193.810 273.069,193.439 270.850,193.194 269.200 C 192.950 267.550,192.592 265.210,192.400 264.000 C 192.208 262.790,191.848 260.450,191.600 258.800 C 191.352 257.150,190.988 254.810,190.791 253.600 C 190.593 252.390,190.244 250.185,190.016 248.700 C 189.787 247.215,189.423 244.875,189.206 243.500 C 187.569 233.101,186.798 227.383,186.971 226.931 C 187.256 226.188,192.517 226.233,195.480 227.003 M83.698 273.098 C 90.904 280.301,96.800 286.331,96.800 286.498 C 96.800 287.135,39.172 286.843,37.034 286.195 C 26.443 282.982,23.209 270.790,31.047 263.627 C 34.972 260.039,34.937 260.045,53.998 260.021 L 70.596 260.000 83.698 273.098 M179.011 262.800 C 179.262 264.230,179.692 266.930,179.966 268.800 C 180.240 270.670,180.618 273.190,180.806 274.400 C 180.995 275.610,181.350 277.950,181.594 279.600 C 181.839 281.250,182.195 283.407,182.386 284.393 C 182.576 285.380,182.646 286.325,182.542 286.493 C 182.317 286.857,130.247 286.914,129.884 286.550 C 129.746 286.413,135.521 280.385,142.717 273.156 L 155.800 260.012 167.177 260.106 L 178.553 260.200 179.011 262.800 M185.281 302.400 C 185.436 303.610,185.746 305.770,185.969 307.200 C 186.192 308.630,186.561 311.015,186.788 312.500 C 187.014 313.985,187.374 316.325,187.588 317.700 C 187.801 319.075,188.161 321.415,188.388 322.900 C 188.614 324.385,188.974 326.725,189.188 328.100 C 189.401 329.475,189.761 331.815,189.988 333.300 C 190.214 334.785,190.591 337.215,190.825 338.700 C 191.058 340.185,191.352 342.361,191.477 343.535 L 191.705 345.671 189.365 348.035 C 188.078 349.336,186.845 350.400,186.625 350.400 C 186.405 350.400,179.919 344.120,172.213 336.445 C 160.171 324.452,157.875 322.343,155.888 321.445 L 153.576 320.400 100.468 320.400 C 59.695 320.400,47.249 320.289,46.880 319.920 C 46.359 319.399,46.158 300.775,46.668 300.266 C 46.815 300.118,78.000 300.043,115.968 300.099 L 185.000 300.200 185.281 302.400 M272.400 300.578 C 256.467 302.895,245.192 312.962,241.238 328.400 C 240.572 331.002,240.089 337.963,240.462 339.600 C 240.637 340.370,240.785 341.667,240.790 342.481 C 240.796 343.296,240.961 344.376,241.158 344.881 C 241.355 345.387,241.749 346.610,242.033 347.600 C 244.718 356.959,252.304 365.485,261.792 369.809 C 280.516 378.342,302.873 369.252,310.510 350.000 C 310.729 349.450,311.049 348.640,311.223 348.200 C 311.636 347.157,311.913 345.813,312.667 341.200 C 315.729 322.479,300.696 302.882,281.662 300.782 C 280.046 300.603,278.066 300.373,277.262 300.271 C 276.458 300.168,274.270 300.306,272.400 300.578 M283.516 314.061 C 300.380 319.469,305.885 340.459,293.722 352.973 C 291.854 354.895,288.749 357.200,288.028 357.200 C 287.793 357.200,287.600 357.380,287.600 357.600 C 287.600 357.820,287.240 358.000,286.800 358.000 C 286.360 358.000,286.000 358.180,286.000 358.400 C 286.000 358.620,285.638 358.800,285.195 358.800 C 284.752 358.800,284.077 358.959,283.695 359.153 C 280.533 360.758,272.667 360.758,269.505 359.153 C 269.123 358.959,268.448 358.800,268.005 358.800 C 267.562 358.800,267.200 358.664,267.200 358.498 C 267.200 358.331,266.615 357.946,265.900 357.642 C 264.489 357.041,260.568 354.263,259.600 353.179 C 257.257 350.555,254.400 345.725,254.400 344.390 C 254.400 343.981,254.250 343.555,254.067 343.442 C 252.720 342.609,252.710 331.304,254.055 329.820 C 254.245 329.611,254.400 329.121,254.400 328.732 C 254.400 328.093,254.814 327.220,256.462 324.385 C 261.614 315.524,273.699 310.912,283.516 314.061 M166.729 349.042 C 186.477 368.754,186.337 368.674,192.172 363.624 C 194.377 361.716,194.544 361.799,194.939 365.000 C 195.074 366.100,195.356 368.080,195.564 369.400 C 195.772 370.720,196.133 373.060,196.366 374.600 C 196.599 376.140,197.062 379.184,197.395 381.365 C 197.728 383.546,198.000 385.661,198.000 386.065 C 198.000 387.058,59.157 387.228,54.200 386.242 C 45.170 384.445,36.518 378.886,32.330 372.191 C 30.484 369.241,28.971 366.211,28.438 364.400 C 28.147 363.410,27.771 362.240,27.603 361.800 C 26.567 359.091,25.751 334.383,26.667 333.467 C 26.813 333.320,54.816 333.200,88.896 333.200 L 150.858 333.200 166.729 349.042 " stroke="none" fill="#040404" fill-rule="evenodd"></path><path id="path5" d="M116.784 14.121 C 113.976 15.606,113.147 17.614,113.287 22.588 L 113.400 26.600 196.600 26.600 L 279.800 26.600 279.823 22.400 L 279.846 18.200 279.709 22.300 L 279.572 26.400 196.542 26.400 L 113.512 26.400 113.659 22.098 C 113.819 17.415,114.325 16.156,116.690 14.553 C 117.982 13.677,271.595 13.137,274.790 13.997 C 276.661 14.501,278.340 15.790,278.841 17.108 C 279.051 17.660,279.328 18.005,279.457 17.877 C 280.004 17.330,277.881 14.832,276.197 14.040 L 274.409 13.200 196.467 13.200 L 118.526 13.200 116.784 14.121 M98.207 40.144 C 96.025 40.750,93.795 43.053,93.467 45.038 C 92.885 48.563,93.159 59.899,93.833 60.157 C 94.181 60.291,137.786 60.356,190.733 60.301 L 287.000 60.202 190.400 60.001 L 93.800 59.800 93.690 53.079 C 93.546 44.225,94.429 41.600,97.902 40.565 C 98.506 40.385,140.940 40.139,192.200 40.017 L 285.400 39.796 192.600 39.748 C 125.846 39.714,99.353 39.825,98.207 40.144 M293.000 40.176 C 293.220 40.275,294.157 40.551,295.082 40.789 C 296.007 41.027,297.051 41.508,297.401 41.858 C 297.751 42.209,298.130 42.403,298.242 42.291 C 298.687 41.847,296.014 40.415,294.358 40.211 C 293.391 40.092,292.780 40.076,293.000 40.176 M298.886 43.700 C 299.232 44.306,299.472 47.148,299.620 52.400 L 299.840 60.200 299.920 52.680 C 299.996 45.503,299.629 42.800,298.576 42.800 C 298.464 42.800,298.603 43.205,298.886 43.700 M94.100 146.699 C 96.905 146.768,101.495 146.768,104.300 146.699 C 107.105 146.630,104.810 146.574,99.200 146.574 C 93.590 146.574,91.295 146.630,94.100 146.699 M78.800 147.188 C 78.250 147.357,79.240 147.405,81.000 147.293 C 82.760 147.182,84.275 147.025,84.367 146.945 C 84.684 146.668,79.795 146.881,78.800 147.188 M186.400 147.056 C 189.261 147.305,215.717 147.390,214.581 147.147 C 213.931 147.008,207.010 146.904,199.200 146.915 C 191.390 146.926,185.630 146.989,186.400 147.056 M74.200 148.019 C 73.642 148.271,73.885 148.307,75.000 148.138 C 75.880 148.004,76.675 147.828,76.767 147.747 C 77.110 147.444,74.968 147.671,74.200 148.019 M216.033 147.744 C 216.125 147.823,217.100 148.001,218.200 148.141 C 219.565 148.314,220.010 148.270,219.600 148.003 C 219.059 147.650,215.636 147.401,216.033 147.744 M71.000 148.800 C 70.496 149.017,70.422 149.144,70.800 149.144 C 71.130 149.144,71.760 148.989,72.200 148.800 C 72.704 148.583,72.778 148.456,72.400 148.456 C 72.070 148.456,71.440 148.611,71.000 148.800 M221.000 148.800 C 222.196 149.314,223.195 149.314,222.400 148.800 C 222.070 148.587,221.440 148.422,221.000 148.434 L 220.200 148.456 221.000 148.800 M223.800 149.600 C 224.996 150.114,225.995 150.114,225.200 149.600 C 224.870 149.387,224.240 149.222,223.800 149.234 L 223.000 149.256 223.800 149.600 M226.800 150.481 C 229.950 151.828,230.874 152.241,233.600 153.528 C 235.250 154.306,237.744 155.766,239.142 156.772 C 244.055 160.306,244.371 159.972,236.095 159.987 C 232.077 159.994,228.477 160.159,228.095 160.353 C 227.713 160.548,226.884 160.950,226.252 161.246 C 221.297 163.577,219.866 167.194,219.668 177.894 L 219.511 186.388 208.255 186.503 L 197.000 186.619 208.600 186.610 L 220.200 186.600 220.400 177.600 C 220.729 162.775,222.896 160.406,236.133 160.394 C 243.366 160.387,244.529 160.182,243.309 159.127 C 240.166 156.409,228.208 149.954,226.450 150.027 C 226.041 150.044,226.170 150.212,226.800 150.481 M58.193 153.847 C 50.785 157.709,43.939 163.547,38.546 170.600 C 36.623 173.114,35.872 174.400,36.327 174.400 C 36.558 174.400,36.860 174.041,36.999 173.602 C 37.138 173.164,37.466 172.579,37.726 172.302 C 37.987 172.026,38.953 170.810,39.873 169.600 C 44.375 163.681,53.088 156.593,59.700 153.471 C 60.525 153.081,61.200 152.681,61.200 152.581 C 61.200 152.289,61.100 152.331,58.193 153.847 M266.400 214.720 C 266.400 256.747,266.511 269.551,266.880 269.920 C 267.144 270.184,268.179 270.377,269.180 270.350 L 271.000 270.300 269.400 270.036 C 268.520 269.891,267.575 269.633,267.300 269.462 C 266.904 269.217,266.800 257.846,266.800 214.776 L 266.800 160.400 276.600 160.400 L 286.400 160.400 286.400 215.375 L 286.400 270.351 284.517 270.633 C 283.482 270.789,280.017 270.821,276.817 270.705 C 273.011 270.568,271.447 270.620,272.294 270.857 C 273.006 271.057,276.516 271.170,280.094 271.110 L 286.600 271.000 286.701 215.500 L 286.803 160.000 276.601 160.000 L 266.400 160.000 266.400 214.720 M85.115 166.728 C 84.738 166.878,86.936 167.000,90.000 167.000 C 93.064 167.000,95.262 166.878,94.885 166.728 C 94.508 166.579,92.310 166.456,90.000 166.456 C 87.690 166.456,85.492 166.579,85.115 166.728 M164.586 166.914 C 157.869 169.602,158.609 178.667,165.657 180.028 C 176.014 182.029,183.034 176.647,179.014 169.787 C 177.286 166.839,168.930 165.175,164.586 166.914 M176.437 167.849 C 180.652 170.310,180.704 175.999,176.537 178.731 C 174.514 180.057,165.455 180.036,163.413 178.700 C 158.606 175.556,159.752 168.589,165.310 167.164 C 167.787 166.530,174.931 166.969,176.437 167.849 M81.939 168.541 C 80.409 170.071,79.342 173.227,79.982 174.326 C 80.290 174.854,80.378 174.672,80.388 173.487 C 80.405 171.360,81.278 169.511,82.852 168.271 C 83.593 167.687,83.993 167.207,83.740 167.204 C 83.487 167.202,82.676 167.804,81.939 168.541 M97.559 168.759 C 100.669 171.869,100.225 176.210,96.538 178.736 C 95.411 179.508,94.708 179.605,89.938 179.647 C 84.358 179.697,84.409 180.273,90.000 180.343 C 99.257 180.460,103.673 173.133,97.469 167.952 C 95.906 166.647,95.964 167.164,97.559 168.759 M233.473 173.460 C 233.323 173.610,233.200 191.460,233.200 213.126 L 233.200 252.518 235.500 254.761 C 238.755 257.936,247.173 264.021,248.270 263.991 C 248.682 263.980,246.719 262.421,246.278 262.409 C 245.962 262.400,241.864 259.703,240.254 258.443 C 239.802 258.089,238.120 256.555,236.516 255.032 L 233.600 252.265 233.600 212.932 L 233.600 173.600 243.400 173.600 L 253.200 173.600 253.200 219.376 C 253.200 248.379,253.058 265.240,252.814 265.392 C 252.601 265.523,251.684 265.251,250.775 264.787 C 249.866 264.324,249.035 264.032,248.928 264.139 C 248.609 264.457,252.513 266.042,253.081 265.824 C 253.508 265.661,253.585 257.170,253.502 219.512 L 253.400 173.400 243.573 173.293 C 238.169 173.234,233.624 173.309,233.473 173.460 M309.700 173.496 L 319.600 173.614 319.600 215.971 L 319.600 258.329 318.368 259.365 C 317.691 259.935,315.891 261.129,314.368 262.019 C 312.846 262.908,311.600 263.721,311.600 263.826 C 311.600 264.174,314.563 262.488,317.400 260.526 L 320.200 258.589 320.200 215.995 L 320.200 173.400 310.000 173.389 L 299.800 173.378 309.700 173.496 M34.656 176.469 C 29.152 185.862,26.168 197.574,26.469 208.600 L 26.600 213.400 106.600 213.400 L 186.600 213.400 186.613 205.300 L 186.625 197.199 186.504 205.200 L 186.383 213.200 106.592 213.200 L 26.800 213.200 26.800 209.098 C 26.800 197.127,30.401 183.213,35.295 176.277 C 35.731 175.659,35.994 175.060,35.879 174.946 C 35.764 174.831,35.214 175.516,34.656 176.469 M80.425 175.683 C 80.395 176.514,83.254 179.605,84.038 179.587 C 84.418 179.579,84.341 179.385,83.800 178.988 C 82.320 177.904,81.114 176.637,80.781 175.816 C 80.515 175.159,80.446 175.133,80.425 175.683 M125.600 180.000 C 125.196 180.261,126.633 180.381,130.000 180.366 C 133.161 180.352,134.706 180.217,134.200 180.000 C 133.094 179.525,126.335 179.525,125.600 180.000 M122.017 181.938 C 121.128 182.784,120.406 183.729,120.413 184.038 C 120.421 184.418,120.615 184.341,121.012 183.800 C 122.096 182.320,123.363 181.114,124.184 180.781 C 124.841 180.515,124.867 180.446,124.317 180.425 C 123.941 180.411,122.906 181.092,122.017 181.938 M135.613 180.728 C 140.288 182.800,140.995 188.780,136.932 191.879 C 134.667 193.606,125.337 193.609,123.074 191.884 C 121.187 190.444,120.682 189.494,120.371 186.800 L 120.118 184.600 120.059 186.546 C 119.908 191.540,122.605 193.400,130.000 193.400 C 136.128 193.400,137.535 192.870,139.181 189.946 C 141.139 186.467,138.782 180.267,135.562 180.428 C 135.122 180.450,135.133 180.515,135.613 180.728 M193.600 187.631 C 190.308 189.118,186.747 193.629,186.835 196.200 C 186.855 196.769,186.980 196.653,187.267 195.800 C 188.881 191.011,191.051 188.839,195.800 187.262 C 196.641 186.982,196.761 186.856,196.200 186.840 C 195.760 186.828,194.590 187.183,193.600 187.631 M333.473 193.460 C 332.929 194.005,333.153 242.882,333.700 242.706 C 333.975 242.617,335.820 239.313,337.800 235.364 C 342.523 225.945,344.592 223.346,350.706 219.158 L 353.612 217.168 353.506 205.284 L 353.400 193.400 343.573 193.293 C 338.169 193.234,333.624 193.309,333.473 193.460 M353.112 204.800 C 353.243 217.584,353.300 217.172,351.230 218.335 C 346.459 221.017,341.637 226.417,338.825 232.231 C 335.451 239.205,334.332 241.405,333.968 241.780 C 333.744 242.012,333.600 232.783,333.600 218.147 C 333.600 204.939,333.723 194.010,333.874 193.860 C 334.024 193.709,338.389 193.634,343.574 193.693 L 353.000 193.800 353.112 204.800 M219.510 214.400 C 219.570 222.320,219.480 228.800,219.310 228.799 C 219.139 228.799,218.463 227.944,217.807 226.899 C 215.164 222.692,205.823 215.509,203.142 215.623 C 202.844 215.636,203.522 216.065,204.648 216.577 C 209.875 218.955,213.760 222.149,217.490 227.137 C 218.800 228.889,219.832 229.928,220.048 229.712 C 220.558 229.202,220.315 200.305,219.800 200.133 C 219.537 200.045,219.438 204.929,219.510 214.400 M200.032 214.310 C 200.014 214.590,200.462 214.995,201.026 215.210 C 202.317 215.701,202.508 215.699,202.200 215.200 C 202.064 214.980,201.618 214.800,201.210 214.800 C 200.801 214.800,200.376 214.575,200.265 214.300 C 200.106 213.907,200.056 213.909,200.032 214.310 M46.580 226.907 C 46.473 227.187,46.433 231.732,46.493 237.008 L 46.600 246.600 58.800 246.612 L 71.000 246.624 59.000 246.412 L 47.000 246.200 47.000 236.600 L 47.000 227.000 110.070 226.899 C 169.885 226.803,173.152 226.834,173.347 227.499 C 173.509 228.046,173.536 228.024,173.472 227.400 C 173.368 226.391,46.967 225.900,46.580 226.907 M186.971 226.931 C 186.798 227.383,187.569 233.101,189.206 243.500 C 189.423 244.875,189.787 247.215,190.016 248.700 C 190.244 250.185,190.593 252.390,190.791 253.600 C 190.988 254.810,191.352 257.150,191.600 258.800 C 191.848 260.450,192.208 262.790,192.400 264.000 C 192.592 265.210,192.950 267.550,193.194 269.200 C 193.439 270.850,193.810 273.069,194.019 274.131 C 194.229 275.192,194.400 276.585,194.400 277.225 C 194.400 277.865,194.571 279.156,194.780 280.094 C 195.162 281.808,195.729 285.280,196.234 289.000 C 196.383 290.100,196.587 290.774,196.686 290.499 C 196.858 290.025,196.649 288.484,194.778 276.400 C 194.352 273.650,193.812 270.140,193.577 268.600 C 193.342 267.060,192.992 264.810,192.800 263.600 C 192.608 262.390,192.248 260.050,192.000 258.400 C 191.752 256.750,191.392 254.410,191.200 253.200 C 191.008 251.990,190.648 249.650,190.400 248.000 C 190.152 246.350,189.792 244.010,189.600 242.800 C 189.408 241.590,189.048 239.250,188.800 237.600 C 188.552 235.950,188.189 233.610,187.992 232.400 C 187.796 231.190,187.535 229.435,187.413 228.500 L 187.191 226.800 189.569 226.800 C 197.503 226.800,205.426 231.206,208.268 237.200 C 214.941 251.272,217.633 255.547,223.968 262.139 C 226.967 265.259,233.541 270.731,235.846 272.026 C 236.699 272.505,238.170 273.429,239.115 274.079 C 243.192 276.884,255.836 281.973,260.200 282.565 L 261.800 282.782 260.400 282.349 C 259.630 282.111,257.200 281.367,255.000 280.694 C 252.800 280.022,250.829 279.320,250.620 279.136 C 250.411 278.951,249.961 278.799,249.620 278.797 C 248.635 278.793,240.017 274.306,236.715 272.078 C 223.976 263.481,217.057 255.092,209.766 239.400 C 206.532 232.441,202.313 228.780,195.480 227.003 C 192.517 226.233,187.256 226.188,186.971 226.931 M365.200 226.989 C 357.836 228.686,353.360 232.393,350.196 239.418 C 341.337 259.081,328.976 271.473,311.200 278.511 C 310.650 278.729,309.840 279.056,309.400 279.238 C 308.960 279.420,307.618 279.879,306.418 280.257 C 305.218 280.636,304.436 281.012,304.680 281.093 C 305.303 281.301,312.302 278.647,316.600 276.573 C 323.957 273.023,332.422 266.520,337.803 260.286 C 338.901 259.013,340.003 257.743,340.250 257.464 C 341.974 255.521,346.689 247.781,348.578 243.791 C 349.826 241.156,351.239 238.190,351.718 237.200 C 353.466 233.586,359.792 228.400,362.451 228.400 C 362.837 228.400,363.248 228.245,363.365 228.057 C 363.482 227.868,364.617 227.597,365.889 227.456 C 367.160 227.314,369.164 227.084,370.342 226.944 L 372.485 226.690 372.260 228.645 C 372.136 229.720,371.861 231.680,371.647 233.000 C 371.434 234.320,371.053 236.750,370.800 238.400 C 370.547 240.050,370.187 242.390,370.000 243.600 C 369.813 244.810,369.465 247.060,369.228 248.600 C 368.990 250.140,368.623 252.480,368.412 253.800 C 367.841 257.376,367.276 261.060,366.817 264.200 C 366.592 265.740,366.241 268.080,366.037 269.400 C 365.450 273.195,363.577 285.540,363.154 288.400 C 362.942 289.830,362.583 292.260,362.355 293.800 C 362.127 295.340,361.787 297.590,361.600 298.800 C 359.883 309.903,359.602 311.844,359.348 314.400 C 359.228 315.610,358.965 316.771,358.765 316.980 C 358.564 317.189,358.400 318.368,358.400 319.600 C 358.400 320.832,358.236 322.011,358.035 322.220 C 357.835 322.429,357.572 323.590,357.452 324.800 C 357.246 326.871,356.915 329.204,355.992 335.100 C 355.776 336.475,355.420 338.770,355.200 340.200 C 354.539 344.498,354.045 347.667,353.642 350.200 C 353.432 351.520,353.053 353.950,352.800 355.600 C 352.547 357.250,352.187 359.590,352.000 360.800 C 351.813 362.010,351.473 364.260,351.245 365.800 C 350.668 369.705,350.108 373.350,349.617 376.400 C 349.387 377.830,349.009 380.350,348.779 382.000 C 348.548 383.650,348.266 385.315,348.152 385.700 C 347.957 386.363,344.355 386.400,279.791 386.400 L 211.636 386.400 211.400 384.900 C 211.270 384.075,210.991 382.275,210.782 380.900 C 209.962 375.530,209.555 372.913,209.209 370.800 C 209.012 369.590,208.648 367.250,208.400 365.600 C 208.152 363.950,207.786 361.610,207.587 360.400 C 207.387 359.190,207.131 357.480,207.017 356.600 C 206.904 355.720,206.615 353.740,206.376 352.200 C 205.381 345.807,205.243 344.871,204.874 342.077 C 204.661 340.470,204.378 339.045,204.244 338.910 C 203.852 338.519,203.958 340.000,204.611 344.030 C 205.446 349.186,205.894 352.068,206.411 355.600 C 206.652 357.250,207.007 359.590,207.200 360.800 C 207.392 362.010,207.752 364.350,208.000 366.000 C 208.248 367.650,208.608 369.990,208.800 371.200 C 208.992 372.410,209.350 374.750,209.594 376.400 C 209.839 378.050,210.210 380.269,210.419 381.331 C 210.629 382.392,210.803 383.832,210.806 384.531 C 210.809 385.229,210.955 386.026,211.130 386.301 C 211.384 386.700,225.423 386.782,279.999 386.701 L 348.549 386.600 348.822 385.400 C 348.973 384.740,349.314 382.670,349.580 380.800 C 349.846 378.930,350.222 376.410,350.416 375.200 C 350.744 373.149,350.967 371.712,352.000 365.000 C 352.220 363.570,352.580 361.230,352.800 359.800 C 353.020 358.370,353.380 356.030,353.600 354.600 C 353.820 353.170,354.180 350.830,354.400 349.400 C 354.620 347.970,354.980 345.630,355.200 344.200 C 355.420 342.770,355.780 340.430,356.000 339.000 C 356.220 337.570,356.580 335.230,356.800 333.800 C 357.020 332.370,357.380 330.030,357.600 328.600 C 357.820 327.170,358.179 324.875,358.398 323.500 C 358.617 322.125,359.711 314.970,360.829 307.600 C 361.947 300.230,363.015 293.210,363.202 292.000 C 364.015 286.747,364.489 283.630,364.844 281.200 C 365.054 279.770,365.399 277.475,365.612 276.100 C 366.106 272.917,366.687 269.137,367.212 265.700 C 367.439 264.215,367.794 261.920,368.000 260.600 C 368.206 259.280,368.561 256.985,368.788 255.500 C 369.014 254.015,369.386 251.585,369.612 250.100 C 369.839 248.615,370.194 246.320,370.400 245.000 C 370.606 243.680,370.966 241.340,371.200 239.800 C 371.434 238.260,371.806 235.830,372.027 234.400 C 372.998 228.119,373.088 227.001,372.644 226.706 C 371.966 226.257,367.666 226.421,365.200 226.989 M28.400 227.200 C 28.400 227.420,29.390 227.600,30.600 227.600 C 31.810 227.600,32.800 227.420,32.800 227.200 C 32.800 226.980,31.810 226.800,30.600 226.800 C 29.390 226.800,28.400 226.980,28.400 227.200 M173.847 230.200 C 174.023 232.051,174.281 233.820,175.216 239.600 C 175.649 242.273,176.093 245.727,176.040 246.000 C 176.019 246.110,171.366 246.295,165.701 246.410 L 155.400 246.620 165.867 246.710 C 177.393 246.809,176.866 246.935,176.373 244.206 C 176.046 242.396,175.478 238.841,174.806 234.400 C 174.117 229.846,173.597 227.567,173.847 230.200 M72.033 246.947 C 72.125 247.028,72.920 247.214,73.800 247.362 C 74.946 247.554,75.230 247.514,74.800 247.221 C 74.260 246.853,71.632 246.593,72.033 246.947 M152.000 247.200 C 151.236 247.694,152.058 247.694,153.600 247.200 L 154.600 246.880 153.600 246.846 C 153.050 246.827,152.330 246.987,152.000 247.200 M148.778 248.757 C 147.800 249.393,139.531 257.403,130.402 266.557 C 121.273 275.711,113.615 283.200,113.385 283.200 C 113.155 283.200,112.175 282.394,111.208 281.408 C 110.241 280.423,109.376 279.690,109.286 279.780 C 109.016 280.050,112.738 283.600,113.291 283.600 C 113.573 283.600,121.183 276.200,130.202 267.156 C 139.998 257.333,147.551 250.086,148.962 249.156 C 150.261 248.300,151.151 247.600,150.940 247.600 C 150.729 247.600,149.756 248.121,148.778 248.757 M78.392 249.504 C 79.158 250.107,81.107 251.921,82.722 253.537 C 84.338 255.152,85.743 256.391,85.843 256.290 C 86.111 256.023,78.006 248.399,77.461 248.404 C 77.207 248.407,77.627 248.902,78.392 249.504 M89.391 260.391 C 90.469 261.486,91.425 262.308,91.514 262.219 C 91.718 262.016,88.130 258.400,87.726 258.400 C 87.563 258.400,88.312 259.296,89.391 260.391 M38.178 260.397 C 25.082 262.320,22.955 278.895,34.979 285.332 C 36.594 286.197,68.283 286.754,90.764 286.313 L 96.529 286.200 85.144 274.800 C 78.883 268.530,72.918 262.635,71.889 261.700 L 70.018 260.000 55.109 260.050 C 46.909 260.077,39.290 260.233,38.178 260.397 M143.012 273.198 L 129.800 286.397 156.118 286.398 L 182.436 286.400 182.200 284.900 C 181.729 281.914,180.783 275.665,179.990 270.298 C 179.754 268.704,179.390 266.531,179.181 265.469 C 178.971 264.408,178.800 262.929,178.800 262.184 C 178.800 260.083,178.343 260.000,166.739 260.000 L 156.225 260.000 143.012 273.198 M93.600 264.111 C 93.600 264.508,102.819 273.715,103.018 273.516 C 103.103 273.430,101.019 271.212,98.386 268.586 C 95.754 265.961,93.600 263.947,93.600 264.111 M307.653 265.453 C 306.913 265.776,306.401 266.134,306.516 266.249 C 306.631 266.364,307.416 266.093,308.262 265.647 C 310.035 264.711,309.641 264.586,307.653 265.453 M303.400 267.234 C 302.300 267.659,301.920 267.905,302.556 267.781 C 303.814 267.537,306.450 266.466,305.800 266.464 C 305.580 266.463,304.500 266.809,303.400 267.234 M106.190 277.190 C 107.490 278.504,108.627 279.507,108.715 279.419 C 108.917 279.217,104.524 274.800,104.121 274.800 C 103.958 274.800,104.889 275.875,106.190 277.190 M301.800 281.600 L 301.000 281.944 301.800 281.944 C 302.240 281.944,302.960 281.789,303.400 281.600 L 304.200 281.256 303.400 281.256 C 302.960 281.256,302.240 281.411,301.800 281.600 M298.200 282.400 C 297.471 282.713,297.488 282.744,298.400 282.744 C 298.950 282.744,299.760 282.589,300.200 282.400 C 300.929 282.087,300.912 282.056,300.000 282.056 C 299.450 282.056,298.640 282.211,298.200 282.400 M262.600 283.200 C 263.040 283.389,264.030 283.535,264.800 283.525 L 266.200 283.505 265.000 283.200 C 263.203 282.743,261.536 282.743,262.600 283.200 M293.600 283.200 C 292.695 283.490,292.733 283.520,294.000 283.520 C 294.770 283.520,295.850 283.376,296.400 283.200 C 297.305 282.910,297.267 282.880,296.000 282.880 C 295.230 282.880,294.150 283.024,293.600 283.200 M267.800 283.978 C 268.997 284.305,274.283 284.536,273.967 284.248 C 273.875 284.165,272.180 283.996,270.200 283.873 C 268.038 283.739,267.079 283.781,267.800 283.978 M285.800 284.000 L 283.400 284.266 286.200 284.303 C 287.740 284.324,289.810 284.197,290.800 284.020 L 292.600 283.700 290.400 283.717 C 289.190 283.727,287.120 283.854,285.800 284.000 M196.886 292.600 C 196.883 293.480,197.024 294.650,197.200 295.200 L 197.520 296.200 197.537 295.200 C 197.546 294.650,197.405 293.480,197.223 292.600 L 196.892 291.000 196.886 292.600 M197.686 297.800 C 197.683 298.680,197.824 299.850,198.000 300.400 L 198.320 301.400 198.337 300.400 C 198.346 299.850,198.205 298.680,198.023 297.800 L 197.692 296.200 197.686 297.800 M270.200 300.400 C 269.143 300.854,270.943 300.863,273.800 300.418 L 275.800 300.107 273.400 300.082 C 272.080 300.068,270.640 300.211,270.200 300.400 M278.800 300.420 C 279.790 300.597,281.410 300.732,282.400 300.720 L 284.200 300.700 282.400 300.380 C 281.410 300.203,279.790 300.068,278.800 300.080 L 277.000 300.100 278.800 300.420 M264.864 301.821 C 244.579 308.730,234.277 331.788,242.847 351.096 C 243.261 352.028,243.600 352.896,243.600 353.024 C 243.600 353.151,244.140 354.041,244.800 355.000 C 245.460 355.959,246.001 356.892,246.001 357.072 C 246.006 358.066,252.566 364.841,255.400 366.779 C 263.818 372.535,274.026 374.744,283.400 372.837 C 284.500 372.613,285.987 372.313,286.705 372.169 C 287.423 372.025,288.108 371.749,288.229 371.554 C 288.349 371.359,288.772 371.200,289.168 371.200 C 289.565 371.200,291.227 370.512,292.863 369.671 C 309.708 361.006,317.248 343.052,311.540 325.200 C 310.872 323.110,310.188 321.220,310.020 321.000 C 309.852 320.780,309.135 319.528,308.426 318.218 C 305.457 312.732,300.031 307.489,294.000 304.277 C 290.769 302.557,284.954 300.513,284.521 300.945 C 284.410 301.056,285.102 301.358,286.060 301.614 C 300.763 305.558,310.979 317.693,312.820 333.400 C 313.332 337.768,312.533 344.983,311.170 348.300 C 310.966 348.795,310.646 349.605,310.457 350.100 C 303.221 369.075,280.433 378.304,261.792 369.809 C 252.304 365.485,244.718 356.959,242.033 347.600 C 241.749 346.610,241.355 345.387,241.158 344.881 C 240.961 344.376,240.796 343.296,240.790 342.481 C 240.785 341.667,240.637 340.370,240.462 339.600 C 240.089 337.963,240.572 331.002,241.238 328.400 C 243.423 319.868,248.158 312.577,254.747 307.600 C 257.738 305.340,262.239 303.034,265.600 302.038 C 268.929 301.052,269.402 300.863,268.600 300.842 C 268.160 300.830,266.479 301.271,264.864 301.821 M198.487 303.200 C 198.483 303.970,198.624 305.050,198.800 305.600 C 199.248 306.999,199.248 304.761,198.800 303.000 L 198.495 301.800 198.487 303.200 M199.295 308.400 C 199.295 309.170,199.432 310.340,199.600 311.000 L 199.905 312.200 199.905 310.800 C 199.905 310.030,199.768 308.860,199.600 308.200 L 199.295 307.000 199.295 308.400 M200.095 313.600 C 200.095 314.370,200.232 315.540,200.400 316.200 L 200.705 317.400 200.705 316.000 C 200.705 315.230,200.568 314.060,200.400 313.400 L 200.095 312.200 200.095 313.600 M272.409 313.556 C 271.864 313.708,273.394 313.834,275.809 313.837 C 280.153 313.842,283.619 314.499,286.600 315.882 C 287.704 316.394,287.737 316.389,287.018 315.816 C 284.750 314.007,275.773 312.619,272.409 313.556 M265.861 315.846 C 264.794 316.401,263.991 316.924,264.075 317.009 C 264.160 317.093,265.283 316.631,266.571 315.981 C 267.859 315.332,268.662 314.808,268.356 314.819 C 268.050 314.829,266.927 315.291,265.861 315.846 M288.220 316.721 C 288.429 316.898,289.622 317.810,290.871 318.748 C 292.121 319.686,293.407 320.846,293.730 321.327 C 294.052 321.807,294.654 322.560,295.066 323.000 C 295.479 323.440,296.353 324.833,297.008 326.096 C 297.664 327.359,298.248 328.251,298.306 328.078 C 298.754 326.750,293.793 320.291,290.427 317.820 C 288.772 316.605,287.094 315.770,288.220 316.721 M260.269 320.100 C 257.772 322.603,254.384 327.718,254.889 328.222 C 254.969 328.303,255.623 327.210,256.342 325.795 C 257.190 324.126,258.715 322.163,260.680 320.211 C 262.347 318.555,263.587 317.200,263.436 317.200 C 263.285 317.200,261.860 318.505,260.269 320.100 M200.895 318.800 C 200.895 319.570,201.032 320.740,201.200 321.400 L 201.505 322.600 201.505 321.200 C 201.505 320.430,201.368 319.260,201.200 318.600 L 200.895 317.400 200.895 318.800 M201.687 324.200 C 201.691 324.860,201.832 325.940,202.000 326.600 L 202.305 327.800 202.313 326.400 C 202.317 325.630,202.176 324.550,202.000 324.000 C 201.689 323.030,201.680 323.035,201.687 324.200 M202.451 329.200 C 202.448 329.750,202.595 330.920,202.777 331.800 L 203.108 333.400 203.126 331.600 C 203.136 330.610,202.989 329.440,202.800 329.000 C 202.486 328.270,202.456 328.287,202.451 329.200 M254.080 330.291 C 253.376 332.639,253.085 337.471,253.495 340.000 C 253.799 341.881,253.849 341.474,253.839 337.191 C 253.832 333.936,254.012 331.737,254.354 330.911 C 254.643 330.213,254.808 329.425,254.721 329.162 C 254.633 328.899,254.345 329.407,254.080 330.291 M298.555 329.600 C 299.322 332.409,299.651 335.745,299.461 338.800 C 299.333 340.867,299.382 341.808,299.585 341.200 C 300.434 338.665,299.711 329.899,298.566 328.859 C 298.410 328.716,298.405 329.050,298.555 329.600 M26.900 333.465 C 26.254 333.725,26.197 353.659,26.830 357.554 C 27.342 360.698,27.942 363.138,28.439 364.095 C 28.638 364.477,28.800 365.056,28.800 365.382 C 28.800 365.709,29.160 366.611,29.600 367.388 C 30.040 368.165,30.778 369.475,31.240 370.300 C 33.177 373.760,38.833 379.809,41.200 380.952 C 41.530 381.112,41.011 380.558,40.046 379.721 C 29.182 370.301,26.587 363.070,26.870 343.000 L 27.000 333.800 88.778 333.699 L 150.557 333.597 167.004 349.999 C 179.806 362.766,183.666 366.397,184.425 366.384 C 185.280 366.371,185.228 366.294,184.000 365.766 C 183.131 365.391,176.533 359.105,166.593 349.181 L 150.587 333.200 88.993 333.232 C 55.117 333.249,27.175 333.354,26.900 333.465 M203.251 334.400 C 203.248 334.950,203.395 336.120,203.577 337.000 L 203.908 338.600 203.926 336.800 C 203.936 335.810,203.789 334.640,203.600 334.200 C 203.286 333.470,203.256 333.487,203.251 334.400 M254.244 343.500 C 254.685 345.365,256.870 349.490,258.262 351.084 C 258.989 351.918,259.588 352.723,259.592 352.873 C 259.597 353.023,260.185 353.558,260.900 354.061 C 261.879 354.750,261.629 354.342,259.890 352.409 C 257.326 349.559,255.874 347.187,254.934 344.314 C 254.254 342.234,253.827 341.730,254.244 343.500 M298.271 344.298 C 296.859 348.617,292.278 354.355,288.786 356.180 C 285.265 358.020,284.385 358.400,283.643 358.400 C 283.205 358.400,282.736 358.580,282.600 358.800 C 282.464 359.020,281.598 359.213,280.676 359.228 C 279.754 359.244,278.640 359.423,278.200 359.627 C 276.670 360.335,281.734 359.560,284.193 358.710 C 290.063 356.679,294.138 353.226,297.300 347.600 C 298.404 345.635,299.391 342.857,299.091 342.558 C 298.987 342.454,298.618 343.237,298.271 344.298 M262.400 355.042 C 262.400 355.684,267.109 358.352,269.188 358.888 C 272.733 359.801,277.983 360.614,276.600 360.036 C 276.160 359.852,274.810 359.574,273.600 359.419 C 270.007 358.958,265.081 357.019,263.100 355.288 C 262.715 354.951,262.400 354.841,262.400 355.042 M191.868 363.846 C 191.025 364.629,190.407 365.340,190.493 365.427 C 190.580 365.513,191.296 364.975,192.085 364.231 C 193.718 362.691,194.400 362.932,194.400 365.049 C 194.400 365.759,194.571 367.208,194.781 368.269 C 194.990 369.331,195.361 371.550,195.606 373.200 C 195.850 374.850,196.213 377.190,196.411 378.400 C 196.610 379.610,196.898 381.500,197.053 382.600 C 197.207 383.700,197.406 384.291,197.494 383.913 C 197.582 383.535,197.185 380.205,196.613 376.513 C 196.040 372.821,195.383 368.540,195.153 367.000 C 194.344 361.582,194.324 361.563,191.868 363.846 M42.200 381.496 C 42.878 382.168,47.285 384.438,47.664 384.312 C 47.861 384.246,46.806 383.564,45.319 382.796 C 42.126 381.147,41.646 380.947,42.200 381.496 M48.400 384.554 C 48.400 384.821,52.317 386.002,53.075 385.964 C 53.474 385.943,52.720 385.586,51.400 385.169 C 48.949 384.395,48.400 384.282,48.400 384.554 M197.632 385.511 L 197.600 386.421 125.921 386.311 C 86.498 386.250,54.773 386.314,55.421 386.453 C 56.070 386.592,88.331 386.727,127.113 386.753 C 201.993 386.803,198.580 386.882,197.869 385.113 C 197.756 384.831,197.649 385.010,197.632 385.511 " stroke="none" fill="#764e40" fill-rule="evenodd"></path><path id="path6" d="M271.246 78.500 C 270.984 81.195,270.607 84.840,270.407 86.600 C 269.819 91.793,269.178 97.562,268.785 101.200 C 268.348 105.255,267.748 110.690,266.388 122.900 C 266.161 124.935,265.807 128.220,265.600 130.200 C 265.393 132.180,265.031 135.510,264.796 137.600 C 264.560 139.690,264.261 142.516,264.131 143.881 C 264.000 145.245,263.692 146.437,263.447 146.529 C 263.201 146.621,263.518 146.630,264.150 146.548 C 264.783 146.467,267.955 146.400,271.200 146.400 L 277.101 146.400 277.358 144.100 C 277.499 142.835,277.786 140.360,277.997 138.600 C 278.208 136.840,278.565 133.780,278.791 131.800 C 279.017 129.820,279.371 126.760,279.578 125.000 C 279.784 123.240,280.154 120.090,280.400 118.000 C 280.646 115.910,281.006 112.850,281.200 111.200 C 281.394 109.550,281.738 106.580,281.964 104.600 C 282.189 102.620,282.560 99.425,282.787 97.500 C 283.235 93.701,283.606 90.435,284.568 81.800 C 284.912 78.720,285.273 75.615,285.371 74.900 L 285.550 73.600 278.636 73.600 L 271.722 73.600 271.246 78.500 M108.232 79.400 C 108.380 80.720,108.568 81.875,108.650 81.967 C 109.011 82.368,108.746 78.139,108.376 77.600 C 108.086 77.176,108.043 77.704,108.232 79.400 M109.055 86.200 C 109.189 87.740,109.366 89.075,109.449 89.167 C 109.772 89.524,109.523 84.954,109.178 84.200 C 108.939 83.679,108.897 84.376,109.055 86.200 M109.872 93.000 C 110.002 94.540,110.175 95.875,110.255 95.967 C 110.567 96.325,110.323 91.753,109.989 91.000 C 109.765 90.495,109.722 91.234,109.872 93.000 M110.677 100.000 C 110.806 101.650,110.976 103.075,111.056 103.167 C 111.366 103.525,111.123 98.553,110.794 97.800 C 110.578 97.306,110.533 98.147,110.677 100.000 M111.489 106.800 C 111.611 108.450,111.776 109.875,111.856 109.967 C 112.142 110.297,111.913 105.777,111.594 104.800 C 111.401 104.208,111.358 105.024,111.489 106.800 M112.294 113.800 C 112.414 115.560,112.577 117.075,112.656 117.167 C 112.941 117.496,112.713 112.578,112.398 111.600 C 112.213 111.023,112.169 111.954,112.294 113.800 M113.094 120.600 C 113.214 122.360,113.377 123.875,113.456 123.967 C 113.741 124.296,113.513 119.378,113.198 118.400 C 113.013 117.823,112.969 118.754,113.094 120.600 M113.881 127.400 C 114.006 129.160,114.174 130.675,114.254 130.767 C 114.547 131.101,114.311 126.171,113.987 125.200 C 113.787 124.599,113.744 125.478,113.881 127.400 M114.504 132.000 L 114.600 133.000 164.600 133.231 C 209.282 133.437,214.962 133.533,218.000 134.136 C 221.554 134.841,228.424 136.523,229.800 137.026 C 230.345 137.225,230.473 137.187,230.200 136.906 C 229.644 136.333,223.773 134.798,219.000 133.978 C 213.200 132.981,205.980 132.834,161.887 132.817 L 115.174 132.800 114.791 131.900 C 114.414 131.013,114.409 131.015,114.504 132.000 M231.400 137.584 C 234.390 138.828,236.400 139.563,236.400 139.413 C 236.400 139.248,235.240 138.700,232.681 137.656 C 232.066 137.405,231.346 137.211,231.081 137.225 C 230.817 137.239,230.960 137.400,231.400 137.584 M236.833 139.752 C 237.337 140.211,241.243 141.993,241.046 141.674 C 240.916 141.464,240.000 140.912,239.009 140.446 C 237.364 139.673,236.414 139.370,236.833 139.752 M247.831 146.082 C 249.794 147.447,251.641 148.800,251.935 149.088 C 252.229 149.376,253.083 150.081,253.834 150.653 L 255.199 151.694 256.764 150.280 C 257.625 149.502,258.721 148.657,259.199 148.401 C 259.677 148.145,259.973 147.840,259.857 147.724 C 259.579 147.446,257.233 149.098,256.128 150.350 L 255.257 151.337 252.528 149.130 C 249.628 146.783,245.037 143.600,244.553 143.600 C 244.394 143.600,245.869 144.717,247.831 146.082 " stroke="none" fill="#1464c0" fill-rule="evenodd"></path><path id="path7" d="M279.997 23.082 C 279.889 25.107,279.943 26.620,280.117 26.445 C 280.292 26.269,280.380 24.612,280.314 22.763 L 280.194 19.400 279.997 23.082 M286.200 39.853 C 288.950 40.138,295.491 40.178,295.063 39.906 C 294.809 39.744,292.440 39.638,289.800 39.670 C 287.160 39.702,285.540 39.784,286.200 39.853 M298.715 42.958 C 299.312 43.925,299.871 44.648,299.959 44.566 C 300.135 44.399,298.093 41.200,297.810 41.200 C 297.711 41.200,298.119 41.991,298.715 42.958 M92.985 52.967 C 92.998 58.990,93.096 60.160,93.600 60.297 C 94.034 60.416,94.064 60.365,93.710 60.113 C 93.364 59.867,93.183 57.715,93.095 52.782 L 92.970 45.800 92.985 52.967 M300.165 52.800 C 300.165 56.650,300.225 58.225,300.298 56.300 C 300.371 54.375,300.371 51.225,300.298 49.300 C 300.225 47.375,300.165 48.950,300.165 52.800 M290.120 60.298 C 292.055 60.372,295.115 60.371,296.920 60.297 C 298.724 60.223,297.140 60.163,293.400 60.164 C 289.660 60.164,288.184 60.225,290.120 60.298 M87.300 146.676 C 87.685 146.776,88.315 146.776,88.700 146.676 C 89.085 146.575,88.770 146.493,88.000 146.493 C 87.230 146.493,86.915 146.575,87.300 146.676 M134.100 146.700 C 147.905 146.758,170.495 146.758,184.300 146.700 C 198.105 146.642,186.810 146.594,159.200 146.594 C 131.590 146.594,120.295 146.642,134.100 146.700 M88.100 167.094 C 89.145 167.176,90.855 167.176,91.900 167.094 C 92.945 167.012,92.090 166.944,90.000 166.944 C 87.910 166.944,87.055 167.012,88.100 167.094 M168.100 167.094 C 169.145 167.176,170.855 167.176,171.900 167.094 C 172.945 167.012,172.090 166.944,170.000 166.944 C 167.910 166.944,167.055 167.012,168.100 167.094 M232.984 173.700 C 232.880 173.975,232.840 191.750,232.897 213.200 L 233.000 252.200 233.200 212.700 C 233.310 190.975,233.349 173.200,233.287 173.200 C 233.226 173.200,233.089 173.425,232.984 173.700 M299.794 220.800 C 299.794 246.870,299.841 257.535,299.900 244.500 C 299.958 231.465,299.958 210.135,299.900 197.100 C 299.841 184.065,299.794 194.730,299.794 220.800 M128.300 193.093 C 129.235 193.177,130.765 193.177,131.700 193.093 C 132.635 193.009,131.870 192.940,130.000 192.940 C 128.130 192.940,127.365 193.009,128.300 193.093 M333.461 193.100 C 333.359 193.265,336.183 193.354,339.737 193.297 C 351.814 193.105,353.024 192.965,343.324 192.882 C 338.002 192.837,333.563 192.935,333.461 193.100 M332.988 218.400 C 332.988 231.930,333.038 237.465,333.100 230.700 C 333.161 223.935,333.161 212.865,333.100 206.100 C 333.038 199.335,332.988 204.870,332.988 218.400 M205.123 199.899 C 207.831 199.968,212.151 199.968,214.723 199.899 C 217.295 199.829,215.080 199.772,209.800 199.773 C 204.520 199.773,202.415 199.830,205.123 199.899 M199.765 207.200 C 199.765 211.050,199.825 212.625,199.898 210.700 C 199.971 208.775,199.971 205.625,199.898 203.700 C 199.825 201.775,199.765 203.350,199.765 207.200 M175.444 239.000 C 175.773 240.471,176.002 240.790,175.994 239.767 C 175.991 239.345,175.805 238.730,175.582 238.400 C 175.285 237.962,175.248 238.124,175.444 239.000 M176.400 246.333 C 176.400 246.675,173.437 246.825,165.300 246.893 L 154.200 246.987 165.173 247.100 C 175.437 247.206,177.562 247.028,176.673 246.140 C 176.523 245.990,176.400 246.077,176.400 246.333 M53.300 247.099 C 56.765 247.166,62.435 247.166,65.900 247.099 C 69.365 247.033,66.530 246.978,59.600 246.978 C 52.670 246.978,49.835 247.033,53.300 247.099 M145.385 252.100 L 143.400 254.200 145.500 252.215 C 146.655 251.123,147.600 250.178,147.600 250.115 C 147.600 249.817,147.229 250.149,145.385 252.100 M37.905 260.283 C 38.402 260.379,39.122 260.375,39.505 260.275 C 39.887 260.175,39.480 260.096,38.600 260.101 C 37.720 260.105,37.407 260.187,37.905 260.283 M70.039 260.100 C 70.135 260.155,71.020 260.920,72.006 261.800 L 73.800 263.400 72.219 261.700 C 71.349 260.765,70.464 260.000,70.252 260.000 C 70.040 260.000,69.944 260.045,70.039 260.100 M153.983 261.900 L 152.200 263.800 154.193 262.000 C 155.288 261.010,156.263 260.155,156.359 260.100 C 156.455 260.045,156.361 260.000,156.150 260.000 C 155.939 260.000,154.964 260.855,153.983 261.900 M132.193 265.300 L 127.800 269.800 132.300 265.407 C 134.775 262.991,136.800 260.966,136.800 260.907 C 136.800 260.618,136.274 261.120,132.193 265.300 M140.994 274.900 L 135.800 280.200 141.100 275.006 C 144.015 272.149,146.400 269.764,146.400 269.706 C 146.400 269.419,145.819 269.977,140.994 274.900 M88.600 278.400 C 89.683 279.500,90.660 280.400,90.770 280.400 C 90.880 280.400,90.083 279.500,89.000 278.400 C 87.917 277.300,86.940 276.400,86.830 276.400 C 86.720 276.400,87.517 277.300,88.600 278.400 M116.788 280.636 C 115.365 282.086,113.840 283.425,113.400 283.611 C 112.854 283.842,112.794 283.957,113.210 283.975 C 113.546 283.989,115.161 282.650,116.800 281.000 C 118.439 279.350,119.689 278.000,119.578 278.000 C 119.468 278.000,118.212 279.186,116.788 280.636 M30.200 281.948 C 30.860 282.677,31.940 283.646,32.600 284.101 C 34.018 285.080,33.698 284.734,31.000 282.374 C 29.522 281.081,29.313 280.970,30.200 281.948 M96.160 285.936 C 96.373 286.279,89.114 286.421,67.322 286.500 L 38.200 286.605 67.500 286.703 C 95.044 286.794,97.860 286.702,96.338 285.762 C 96.053 285.586,95.985 285.652,96.160 285.936 M182.400 285.939 C 182.400 286.298,176.097 286.386,156.038 286.306 C 141.539 286.248,129.760 286.335,129.862 286.500 C 129.964 286.665,141.816 286.800,156.200 286.800 C 181.203 286.800,183.633 286.700,182.640 285.707 C 182.508 285.575,182.400 285.679,182.400 285.939 M46.668 300.266 C 46.158 300.775,46.359 319.399,46.880 319.920 C 47.249 320.289,59.695 320.400,100.468 320.400 L 153.576 320.400 155.888 321.441 C 157.879 322.337,160.143 324.417,172.207 336.441 C 179.912 344.118,186.397 350.400,186.620 350.400 C 186.843 350.400,188.078 349.336,189.365 348.035 L 191.705 345.671 191.477 343.535 C 191.352 342.361,191.058 340.185,190.825 338.700 C 190.591 337.215,190.214 334.785,189.988 333.300 C 189.761 331.815,189.401 329.475,189.188 328.100 C 188.974 326.725,188.614 324.385,188.388 322.900 C 188.161 321.415,187.801 319.075,187.588 317.700 C 187.374 316.325,187.014 313.985,186.788 312.500 C 186.561 311.015,186.192 308.630,185.969 307.200 C 185.746 305.770,185.436 303.610,185.281 302.400 L 185.000 300.200 115.968 300.099 C 78.000 300.043,46.815 300.118,46.668 300.266 M279.233 313.343 C 279.325 313.421,280.030 313.601,280.800 313.742 C 281.785 313.923,282.022 313.882,281.600 313.606 C 281.058 313.250,278.837 313.003,279.233 313.343 M288.800 316.511 C 288.800 316.587,289.385 317.078,290.100 317.601 C 290.904 318.190,291.184 318.287,290.833 317.855 C 290.300 317.199,288.800 316.207,288.800 316.511 M293.200 320.200 C 293.946 320.970,294.647 321.600,294.757 321.600 C 294.867 321.600,294.346 320.970,293.600 320.200 C 292.854 319.430,292.153 318.800,292.043 318.800 C 291.933 318.800,292.454 319.430,293.200 320.200 M252.909 336.800 C 252.909 337.790,252.987 338.195,253.082 337.700 C 253.178 337.205,253.178 336.395,253.082 335.900 C 252.987 335.405,252.909 335.810,252.909 336.800 M300.093 336.800 C 300.093 337.570,300.175 337.885,300.276 337.500 C 300.376 337.115,300.376 336.485,300.276 336.100 C 300.175 335.715,300.093 336.030,300.093 336.800 M158.600 341.200 C 160.128 342.740,161.469 344.000,161.579 344.000 C 161.689 344.000,160.528 342.740,159.000 341.200 C 157.472 339.660,156.131 338.400,156.021 338.400 C 155.911 338.400,157.072 339.660,158.600 341.200 M175.400 358.000 C 176.706 359.320,177.865 360.400,177.975 360.400 C 178.085 360.400,177.106 359.320,175.800 358.000 C 174.494 356.680,173.335 355.600,173.225 355.600 C 173.115 355.600,174.094 356.680,175.400 358.000 M274.100 360.276 C 274.485 360.376,275.115 360.376,275.500 360.276 C 275.885 360.175,275.570 360.093,274.800 360.093 C 274.030 360.093,273.715 360.175,274.100 360.276 " stroke="none" fill="#2c6039" fill-rule="evenodd"></path><path id="path8" d="M107.338 73.817 C 107.208 74.157,107.213 74.547,107.351 74.684 C 107.488 74.821,107.600 74.633,107.600 74.267 C 107.600 73.646,113.798 73.600,196.575 73.600 L 285.550 73.600 285.371 74.900 C 285.026 77.418,283.966 87.033,283.729 89.800 C 283.365 94.052,283.950 92.681,284.428 88.162 C 284.659 85.983,285.008 82.850,285.204 81.200 C 285.400 79.550,285.685 77.075,285.836 75.700 L 286.111 73.200 196.843 73.200 C 116.754 73.200,107.551 73.263,107.338 73.817 M107.640 77.433 C 107.662 78.735,107.830 80.250,108.013 80.800 C 108.213 81.401,108.256 80.522,108.119 78.600 C 107.848 74.773,107.584 74.132,107.640 77.433 M108.440 84.233 C 108.462 85.535,108.630 87.050,108.813 87.600 C 109.013 88.201,109.056 87.322,108.919 85.400 C 108.648 81.573,108.384 80.932,108.440 84.233 M109.293 91.200 C 109.286 92.410,109.424 93.850,109.600 94.400 C 110.048 95.799,110.059 93.827,109.618 91.000 L 109.307 89.000 109.293 91.200 M283.247 93.200 C 283.090 94.733,281.687 107.072,281.200 111.200 C 281.006 112.850,280.646 115.910,280.400 118.000 C 280.154 120.090,279.784 123.240,279.578 125.000 C 279.371 126.760,279.017 129.820,278.791 131.800 C 278.565 133.780,278.208 136.840,277.997 138.600 C 277.786 140.360,277.500 142.816,277.361 144.057 L 277.108 146.314 269.854 146.480 C 261.665 146.668,260.514 146.990,257.005 150.079 L 255.184 151.682 253.826 150.647 C 253.080 150.078,252.229 149.378,251.935 149.093 C 249.978 147.192,240.400 141.189,240.400 141.864 C 240.400 142.051,240.950 142.448,241.622 142.746 C 243.499 143.576,249.803 147.807,252.462 150.020 C 255.303 152.384,255.112 152.362,257.050 150.552 C 260.214 147.597,262.083 147.078,270.258 146.885 L 277.516 146.714 277.939 143.657 C 278.414 140.225,278.616 138.508,280.599 121.000 C 282.070 108.008,282.461 104.653,283.231 98.400 C 283.488 96.310,283.611 94.150,283.504 93.600 C 283.397 93.050,283.281 92.870,283.247 93.200 M110.093 98.000 C 110.086 99.210,110.224 100.650,110.400 101.200 C 110.848 102.599,110.859 100.627,110.418 97.800 L 110.107 95.800 110.093 98.000 M110.890 105.000 C 110.884 106.100,111.024 107.450,111.200 108.000 C 111.656 109.423,111.669 107.322,111.220 104.800 L 110.900 103.000 110.890 105.000 M111.690 111.800 C 111.684 112.900,111.824 114.250,112.000 114.800 C 112.456 116.223,112.469 114.122,112.020 111.600 L 111.700 109.800 111.690 111.800 M112.493 118.800 C 112.494 119.790,112.632 121.140,112.800 121.800 L 113.105 123.000 113.130 121.600 C 113.143 120.830,113.005 119.480,112.823 118.600 L 112.492 117.000 112.493 118.800 M113.297 125.600 C 113.296 126.590,113.432 127.940,113.600 128.600 L 113.905 129.800 113.923 128.600 C 113.933 127.940,113.797 126.590,113.620 125.600 L 113.300 123.800 113.297 125.600 M114.131 132.000 L 114.200 133.400 161.600 133.403 L 209.000 133.407 161.804 133.203 L 114.608 133.000 114.335 131.800 C 114.069 130.632,114.064 130.637,114.131 132.000 M210.433 133.752 C 210.525 133.835,212.220 134.004,214.200 134.127 C 216.362 134.261,217.321 134.219,216.600 134.022 C 215.403 133.695,210.117 133.464,210.433 133.752 M219.000 134.800 C 219.660 134.968,220.650 135.109,221.200 135.113 L 222.200 135.120 221.200 134.800 C 220.650 134.624,219.660 134.483,219.000 134.487 L 217.800 134.495 219.000 134.800 M223.000 135.600 C 223.440 135.789,224.160 135.944,224.600 135.944 L 225.400 135.944 224.600 135.600 C 224.160 135.411,223.440 135.256,223.000 135.256 L 222.200 135.256 223.000 135.600 M226.200 136.400 C 226.640 136.589,227.360 136.744,227.800 136.744 L 228.600 136.744 227.800 136.400 C 227.360 136.211,226.640 136.056,226.200 136.056 L 225.400 136.056 226.200 136.400 M229.020 137.118 C 229.585 137.592,232.430 138.503,232.652 138.282 C 232.757 138.176,231.992 137.800,230.950 137.445 C 228.819 136.719,228.473 136.660,229.020 137.118 M235.200 139.371 C 235.200 139.629,237.660 140.802,238.161 140.783 C 238.403 140.774,237.970 140.422,237.200 140.000 C 235.806 139.237,235.200 139.046,235.200 139.371 " stroke="none" fill="#0c345e" fill-rule="evenodd"></path></g></svg>