<?xml version="1.0" encoding="UTF-8"?>
<!DOCTYPE svg PUBLIC "-//W3C//DTD SVG 1.1//EN" "http://www.w3.org/Graphics/SVG/1.1/DTD/svg11.dtd">
<svg xmlns="http://www.w3.org/2000/svg" version="1.1" width="512px" height="512px" style="shape-rendering:geometricPrecision; text-rendering:geometricPrecision; image-rendering:optimizeQuality; fill-rule:evenodd; clip-rule:evenodd" xmlns:xlink="http://www.w3.org/1999/xlink">
<g><path style="opacity:0.981" fill="#030100" d="M 393.5,117.5 C 394.322,115.611 395.155,113.611 396,111.5C 396.75,110.874 397.584,110.374 398.5,110C 413.163,109.5 427.83,109.333 442.5,109.5C 450.174,109.666 457.841,109.5 465.5,109C 466.464,104.934 466.797,100.767 466.5,96.5C 458.5,96.5 450.5,96.5 442.5,96.5C 334.833,96.3333 227.166,96.5 119.5,97C 118.167,101 118.167,105 119.5,109C 202.833,109.333 286.167,109.667 369.5,110C 370.416,110.374 371.25,110.874 372,111.5C 372.845,113.611 373.678,115.611 374.5,117.5C 374.067,120.195 372.734,122.362 370.5,124C 295.501,124.5 220.501,124.667 145.5,124.5C 141.445,140.55 131.111,148.884 114.5,149.5C 110.492,149.61 106.659,148.944 103,147.5C 90.3114,156.634 77.4781,156.8 64.5,148C 59.0534,143.601 55.2201,138.101 53,131.5C 33.8155,123.797 26.1488,109.797 30,89.5C 31.3105,84.8757 33.6438,80.8757 37,77.5C 36.5728,60.9972 43.7395,49.3306 58.5,42.5C 62.7351,17.4842 77.2351,7.15084 102,11.5C 116.179,3.06905 130.012,3.56905 143.5,13C 147.955,17.401 151.288,22.5677 153.5,28.5C 165.034,32.5338 172.7,40.3671 176.5,52C 275.223,52.0068 373.89,52.6735 472.5,54C 479.952,58.7394 483.286,65.5728 482.5,74.5C 482.762,79.451 481.762,84.1176 479.5,88.5C 483.614,98.242 483.447,107.909 479,117.5C 476.736,120.433 473.902,122.6 470.5,124C 446.167,124.667 421.833,124.667 397.5,124C 395.266,122.362 393.933,120.195 393.5,117.5 Z"/></g>
<g><path style="opacity:1" fill="#fba75b" d="M 152.5,78.5 C 141.24,80.1223 129.907,81.1223 118.5,81.5C 107.885,84.3724 102.885,91.3724 103.5,102.5C 104.108,119.007 112.775,126.507 129.5,125C 125.094,132.036 118.761,135.036 110.5,134C 107.732,132.285 104.732,131.118 101.5,130.5C 97.2441,133.547 92.5775,136.047 87.5,138C 75.3783,139.222 68.545,133.722 67,121.5C 66.2155,119.714 65.0488,118.214 63.5,117C 46.8028,114.429 41.3028,105.262 47,89.5C 49,87.5 51,85.5 53,83.5C 53.0827,77.0582 53.7493,70.7248 55,64.5C 56.5,62.3333 58.3333,60.5 60.5,59C 65.2078,57.533 69.7078,55.6996 74,53.5C 75.2453,47.6098 75.912,41.6098 76,35.5C 81.8427,25.3353 90.0094,22.8353 100.5,28C 103.167,28.6667 105.833,28.6667 108.5,28C 116.004,20.5287 124.338,19.5287 133.5,25C 137.607,29.3137 139.774,34.4803 140,40.5C 141.214,42.0488 142.714,43.2155 144.5,44C 157.58,45.3203 163.08,52.487 161,65.5C 158.735,70.2534 155.902,74.5867 152.5,78.5 Z"/></g>
<g><path style="opacity:1" fill="#070402" d="M 97.5,42.5 C 102.628,42.1115 107.628,42.6115 112.5,44C 116.826,49.0444 116.16,53.3778 110.5,57C 105.382,57.888 100.382,57.5547 95.5,56C 92.397,50.8859 93.0636,46.3859 97.5,42.5 Z"/></g>
<g><path style="opacity:1" fill="#f7662e" d="M 465.5,68.5 C 457.833,68.5 450.167,68.5 442.5,68.5C 442.5,72.5 442.5,76.5 442.5,80.5C 351.665,80.8327 260.998,80.4994 170.5,79.5C 173.256,75.9831 174.923,71.9831 175.5,67.5C 272.335,67.1672 369.001,67.5006 465.5,68.5 Z"/></g>
<g><path style="opacity:1" fill="#fc5325" d="M 465.5,68.5 C 466.833,72.5 466.833,76.5 465.5,80.5C 457.833,80.5 450.167,80.5 442.5,80.5C 442.5,76.5 442.5,72.5 442.5,68.5C 450.167,68.5 457.833,68.5 465.5,68.5 Z"/></g>
<g><path style="opacity:1" fill="#080502" d="M 82.5,79.5 C 90.5432,79.0396 93.7099,82.7063 92,90.5C 88.8985,97.2978 83.7318,100.131 76.5,99C 73.208,96.5881 72.0413,93.4214 73,89.5C 76.3709,86.2975 79.5375,82.9641 82.5,79.5 Z"/></g>
<g><path style="opacity:1" fill="#976436" d="M 152.5,78.5 C 152.5,79.5 152.5,80.5 152.5,81.5C 141.167,81.5 129.833,81.5 118.5,81.5C 129.907,81.1223 141.24,80.1223 152.5,78.5 Z"/></g>
<g><path style="opacity:1" fill="#973e1c" d="M 170.5,79.5 C 260.998,80.4994 351.665,80.8327 442.5,80.5C 450.167,80.5 457.833,80.5 465.5,80.5C 366.999,81.8322 268.332,81.8322 169.5,80.5C 169.624,79.8933 169.957,79.56 170.5,79.5 Z"/></g>
<g><path style="opacity:0.997" fill="#fc7c42" d="M 442.5,96.5 C 442.5,100.833 442.5,105.167 442.5,109.5C 427.83,109.333 413.163,109.5 398.5,110C 397.584,110.374 396.75,110.874 396,111.5C 395.155,113.611 394.322,115.611 393.5,117.5C 387.167,117.5 380.833,117.5 374.5,117.5C 373.678,115.611 372.845,113.611 372,111.5C 371.25,110.874 370.416,110.374 369.5,110C 286.167,109.667 202.833,109.333 119.5,109C 118.167,105 118.167,101 119.5,97C 227.166,96.5 334.833,96.3333 442.5,96.5 Z"/></g>
<g><path style="opacity:1" fill="#fb682f" d="M 442.5,96.5 C 450.5,96.5 458.5,96.5 466.5,96.5C 466.797,100.767 466.464,104.934 465.5,109C 457.841,109.5 450.174,109.666 442.5,109.5C 442.5,105.167 442.5,100.833 442.5,96.5 Z"/></g>
<g><path style="opacity:0.98" fill="#020101" d="M 511.5,375.5 C 511.5,379.167 511.5,382.833 511.5,386.5C 499.818,429.016 472.818,456.516 430.5,469C 424.568,470.378 418.568,471.211 412.5,471.5C 412.896,479.253 412.396,486.92 411,494.5C 408.668,500.164 404.501,503.664 398.5,505C 303.167,505.667 207.833,505.667 112.5,505C 106.499,503.664 102.332,500.164 100,494.5C 98.6039,486.92 98.1039,479.253 98.5,471.5C 61.9689,468.159 33.8022,451.159 14,420.5C 8.26505,409.434 3.43172,398.101 -0.5,386.5C -0.5,382.833 -0.5,379.167 -0.5,375.5C 1.30904,372.861 3.64238,370.694 6.5,369C 14.7637,367.63 23.097,367.13 31.5,367.5C 31.5277,362.917 32.861,358.75 35.5,355C 31.4229,347.626 30.0896,339.792 31.5,331.5C 27.1539,331.666 22.8206,331.499 18.5,331C 14.3333,329.5 11.5,326.667 10,322.5C 7.79072,294.666 14.6241,269.333 30.5,246.5C 33.4021,244.629 36.4021,244.296 39.5,245.5C 42.2202,248.678 43.0536,252.345 42,256.5C 32.6135,270.827 27.1135,286.494 25.5,303.5C 24.5151,307.634 24.1818,311.968 24.5,316.5C 26.4147,316.784 28.0813,316.451 29.5,315.5C 32.8333,315.5 36.1667,315.5 39.5,315.5C 41.413,274.494 61.0797,245.661 98.5,229C 109.182,225.26 120.182,223.426 131.5,223.5C 131.223,218.767 131.557,214.1 132.5,209.5C 105.711,208.558 82.0444,216.725 61.5,234C 58.0072,234.869 55.0072,234.036 52.5,231.5C 51.4309,228.592 51.2642,225.592 52,222.5C 74.4541,203.205 100.621,193.205 130.5,192.5C 141.634,191.879 147.634,197.046 148.5,208C 146.583,220.089 145.916,232.255 146.5,244.5C 155.832,237.748 166.166,235.748 177.5,238.5C 174.283,206.9 172.117,175.234 171,143.5C 174.67,136.149 180.67,133.149 189,134.5C 239.108,137.316 275.442,160.982 298,205.5C 302.093,215.206 305.26,225.206 307.5,235.5C 357.646,236.927 401.646,253.761 439.5,286C 463.681,307.86 477.681,335.026 481.5,367.5C 489.238,367.144 496.905,367.644 504.5,369C 507.358,370.694 509.691,372.861 511.5,375.5 Z"/></g>
<g><path style="opacity:1" fill="#f9cc59" d="M 192.5,150.5 C 237.912,154.408 269.412,177.408 287,219.5C 289.43,225.285 290.93,231.285 291.5,237.5C 286.518,238.053 281.518,238.387 276.5,238.5C 264.364,192.383 234.364,167.716 186.5,164.5C 186.5,161.167 186.5,157.833 186.5,154.5C 186.5,153.167 186.5,151.833 186.5,150.5C 188.5,150.5 190.5,150.5 192.5,150.5 Z"/></g>
<g><path style="opacity:1" fill="#76612a" d="M 192.5,150.5 C 190.5,150.5 188.5,150.5 186.5,150.5C 186.5,151.833 186.5,153.167 186.5,154.5C 185.549,153.081 185.216,151.415 185.5,149.5C 188.059,149.198 190.393,149.532 192.5,150.5 Z"/></g>
<g><path style="opacity:1" fill="#faeeba" d="M 193.5,229.5 C 192.833,227.5 192.167,225.5 191.5,223.5C 190.449,209.172 189.449,194.838 188.5,180.5C 194.221,180.369 199.888,180.869 205.5,182C 209.603,182.888 213.269,184.554 216.5,187C 208.955,201.258 201.289,215.424 193.5,229.5 Z"/></g>
<g><path style="opacity:1" fill="#f9db74" d="M 229.5,193.5 C 237.564,198.726 244.564,205.226 250.5,213C 238.167,219.833 225.833,226.667 213.5,233.5C 212.264,232.754 210.93,232.421 209.5,232.5C 215.891,219.386 222.557,206.386 229.5,193.5 Z"/></g>
<g><path style="opacity:0.997" fill="#facd59" d="M 29.5,315.5 C 28.1667,315.5 26.8333,315.5 25.5,315.5C 25.5,311.5 25.5,307.5 25.5,303.5C 27.1135,286.494 32.6135,270.827 42,256.5C 43.0536,252.345 42.2202,248.678 39.5,245.5C 43.8052,240.859 48.1386,236.193 52.5,231.5C 55.0072,234.036 58.0072,234.869 61.5,234C 82.0444,216.725 105.711,208.558 132.5,209.5C 131.557,214.1 131.223,218.767 131.5,223.5C 120.182,223.426 109.182,225.26 98.5,229C 61.0797,245.661 41.413,274.494 39.5,315.5C 36.1667,315.5 32.8333,315.5 29.5,315.5 Z"/></g>
<g><path style="opacity:1" fill="#f7ecb8" d="M 256.5,226.5 C 260.141,231.095 261.807,236.428 261.5,242.5C 252.649,244.562 243.982,247.228 235.5,250.5C 232.275,248.785 229.941,246.118 228.5,242.5C 237.896,237.14 247.229,231.806 256.5,226.5 Z"/></g>
<g><path style="opacity:1" fill="#827c61" d="M 191.5,223.5 C 192.167,225.5 192.833,227.5 193.5,229.5C 193.44,230.043 193.107,230.376 192.5,230.5C 191.526,228.257 191.192,225.924 191.5,223.5 Z"/></g>
<g><path style="opacity:1" fill="#f7ebb8" d="M 118.5,238.5 C 122.167,238.5 125.833,238.5 129.5,238.5C 129.827,243.544 129.494,248.544 128.5,253.5C 122.193,256.64 117.36,261.307 114,267.5C 109.125,259.813 104.958,251.813 101.5,243.5C 107.213,241.659 112.88,239.992 118.5,238.5 Z"/></g>
<g><path style="opacity:1" fill="#fa840a" d="M 232.5,290.5 C 231.774,282.542 228.107,276.375 221.5,272C 219.35,270.589 217.016,269.755 214.5,269.5C 212.497,267.018 209.831,266.018 206.5,266.5C 203.595,259.936 199.261,254.602 193.5,250.5C 202.387,244.631 210.554,245.631 218,253.5C 219.562,255.957 220.562,258.624 221,261.5C 221.833,262.333 222.667,263.167 223.5,264C 231.225,264.127 237.725,266.96 243,272.5C 245.733,277.6 246.233,282.933 244.5,288.5C 240.326,288.334 236.326,289 232.5,290.5 Z"/></g>
<g><path style="opacity:1" fill="#f99437" d="M 193.5,250.5 C 199.261,254.602 203.595,259.936 206.5,266.5C 199.915,269.549 196.415,274.549 196,281.5C 198.072,286.143 201.572,287.643 206.5,286C 213.933,282.638 216.6,277.138 214.5,269.5C 217.016,269.755 219.35,270.589 221.5,272C 228.107,276.375 231.774,282.542 232.5,290.5C 227.693,292.403 223.36,295.07 219.5,298.5C 204.476,292.241 191.476,295.074 180.5,307C 175.197,307.559 170.197,309.059 165.5,311.5C 162.06,309.631 158.393,308.465 154.5,308C 148.754,296.424 139.421,290.257 126.5,289.5C 123.131,278.745 126.464,270.911 136.5,266C 141.251,265.811 145.917,265.145 150.5,264C 154.569,255.632 161.236,251.965 170.5,253C 174.481,255.33 178.648,257.164 183,258.5C 184.167,258.333 185.333,258.167 186.5,258C 189.067,255.604 191.4,253.104 193.5,250.5 Z"/></g>
<g><path style="opacity:1" fill="#faf3e9" d="M 344.5,255.5 C 352.824,260.166 361.491,264.666 370.5,269C 392.015,281.069 409.682,297.236 423.5,317.5C 416.934,316.949 411.268,318.949 406.5,323.5C 404.026,327.012 403.859,330.679 406,334.5C 407.574,335.848 409.407,336.514 411.5,336.5C 414.833,335.167 418.167,333.833 421.5,332.5C 424.37,332.602 426.703,333.768 428.5,336C 430.473,336.495 432.473,336.662 434.5,336.5C 439.041,346.665 441.708,357.332 442.5,368.5C 429.5,368.5 416.5,368.5 403.5,368.5C 404.301,349.129 395.301,336.962 376.5,332C 367.047,315.886 353.38,310.553 335.5,316C 331.487,318.006 327.82,320.506 324.5,323.5C 315.013,319.522 305.513,319.522 296,323.5C 290.303,315.143 282.469,309.976 272.5,308C 269.412,301.412 264.746,296.245 258.5,292.5C 262.642,280.788 260.642,270.288 252.5,261C 259.799,257.59 267.465,255.257 275.5,254C 298.581,250.431 321.581,250.931 344.5,255.5 Z"/></g>
<g><path style="opacity:1" fill="#f8db74" d="M 87.5,251.5 C 95.2659,264.856 102.933,278.356 110.5,292C 109.407,293.365 108.074,293.699 106.5,293C 93.6711,286.086 81.0044,278.92 68.5,271.5C 73.5053,263.497 79.8386,256.83 87.5,251.5 Z"/></g>
<g><path style="opacity:1" fill="#faedd7" d="M 344.5,255.5 C 382.59,263.623 414.757,281.957 441,310.5C 455.493,327.154 463.66,346.487 465.5,368.5C 457.833,368.5 450.167,368.5 442.5,368.5C 441.708,357.332 439.041,346.665 434.5,336.5C 441.514,330.341 440.847,324.841 432.5,320C 429.647,318.57 426.647,317.737 423.5,317.5C 409.682,297.236 392.015,281.069 370.5,269C 361.491,264.666 352.824,260.166 344.5,255.5 Z"/></g>
<g><path style="opacity:1" fill="#0e0702" d="M 206.5,266.5 C 209.831,266.018 212.497,267.018 214.5,269.5C 216.6,277.138 213.933,282.638 206.5,286C 201.572,287.643 198.072,286.143 196,281.5C 196.415,274.549 199.915,269.549 206.5,266.5 Z"/></g>
<g><path style="opacity:1" fill="#070707" d="M 291.5,268.5 C 298.51,268.006 304.843,269.839 310.5,274C 313.769,277.453 314.269,281.286 312,285.5C 310.527,287.007 308.693,287.674 306.5,287.5C 302.861,286.6 299.361,285.266 296,283.5C 293.336,283.749 291.169,284.915 289.5,287C 279.872,288.591 276.705,284.758 280,275.5C 283.514,272.5 287.347,270.167 291.5,268.5 Z"/></g>
<g><path style="opacity:1" fill="#0e0702" d="M 164.5,271.5 C 169.699,271.014 174.699,271.681 179.5,273.5C 183.59,277.922 183.257,282.089 178.5,286C 173.5,286.667 168.5,286.667 163.5,286C 157.977,280.777 158.31,275.944 164.5,271.5 Z"/></g>
<g><path style="opacity:1" fill="#070707" d="M 350.5,282.5 C 359.157,282.082 366.324,285.082 372,291.5C 373.162,297.331 370.829,300.665 365,301.5C 361.218,300.857 357.718,299.524 354.5,297.5C 352.045,297.894 350.045,299.06 348.5,301C 342.031,303.211 338.031,301.044 336.5,294.5C 337.15,291.345 338.817,288.845 341.5,287C 344.592,285.454 347.592,283.954 350.5,282.5 Z"/></g>
<g><path style="opacity:1" fill="#f4e8b5" d="M 60.5,284.5 C 67.3024,288.069 73.9691,291.902 80.5,296C 73.5328,297.479 67.8661,300.979 63.5,306.5C 60.5623,307.489 57.5623,308.156 54.5,308.5C 55.5632,300.247 57.5632,292.247 60.5,284.5 Z"/></g>
<g><path style="opacity:1" fill="#fa840a" d="M 142.5,368.5 C 141.728,363.456 139.728,358.956 136.5,355C 145.187,342.514 144.187,330.847 133.5,320C 128.693,316.796 123.36,315.129 117.5,315C 116.594,312.779 115.594,310.612 114.5,308.5C 122.427,301.736 130.26,302.069 138,309.5C 139.908,312.215 141.241,315.215 142,318.5C 143.167,319.667 144.333,320.833 145.5,322C 162.136,322.289 168.636,330.456 165,346.5C 162.63,348.87 161.13,351.704 160.5,355C 161.86,359.511 163.86,363.678 166.5,367.5C 158.528,368.498 150.528,368.831 142.5,368.5 Z"/></g>
<g><path style="opacity:1" fill="#f79336" d="M 250.5,368.5 C 249.853,363.539 247.853,359.206 244.5,355.5C 250.112,348.636 251.778,340.969 249.5,332.5C 253.447,325.679 251.78,321.012 244.5,318.5C 242.7,318.902 241.033,319.569 239.5,320.5C 239.586,319.504 239.252,318.671 238.5,318C 235.226,316.798 231.893,315.798 228.5,315C 227.944,314.617 227.611,314.117 227.5,313.5C 235.319,301.855 244.653,300.522 255.5,309.5C 257.769,313.038 259.769,316.705 261.5,320.5C 267.274,321.776 272.941,323.61 278.5,326C 280.414,327.413 281.747,329.247 282.5,331.5C 263.179,336.465 253.845,348.799 254.5,368.5C 253.167,368.5 251.833,368.5 250.5,368.5 Z"/></g>
<g><path style="opacity:1" fill="#fa9437" d="M 114.5,308.5 C 115.594,310.612 116.594,312.779 117.5,315C 123.36,315.129 128.693,316.796 133.5,320C 144.187,330.847 145.187,342.514 136.5,355C 139.728,358.956 141.728,363.456 142.5,368.5C 141.167,368.5 139.833,368.5 138.5,368.5C 138.676,361.064 135.009,358.064 127.5,359.5C 119.991,358.064 116.324,361.064 116.5,368.5C 93.1571,368.833 69.8238,368.5 46.5,367.5C 49.1719,363.656 51.1719,359.489 52.5,355C 51.8695,351.704 50.3695,348.87 48,346.5C 44.1214,335.764 47.288,327.93 57.5,323C 62.2824,322.881 66.9491,322.215 71.5,321C 76.0749,311.714 83.4083,308.381 93.5,311C 96.6051,313.443 100.105,314.943 104,315.5C 105.967,315.458 107.801,314.958 109.5,314C 110.715,311.625 112.381,309.791 114.5,308.5 Z"/></g>
<g><path style="opacity:1" fill="#7c662c" d="M 25.5,303.5 C 25.5,307.5 25.5,311.5 25.5,315.5C 26.8333,315.5 28.1667,315.5 29.5,315.5C 28.0813,316.451 26.4147,316.784 24.5,316.5C 24.1818,311.968 24.5151,307.634 25.5,303.5 Z"/></g>
<g><path style="opacity:1" fill="#fba75b" d="M 227.5,313.5 C 227.611,314.117 227.944,314.617 228.5,315C 231.893,315.798 235.226,316.798 238.5,318C 239.252,318.671 239.586,319.504 239.5,320.5C 237.205,323.297 234.705,325.964 232,328.5C 231.378,336.211 234.878,339.378 242.5,338C 244.996,336.334 247.329,334.5 249.5,332.5C 251.778,340.969 250.112,348.636 244.5,355.5C 247.853,359.206 249.853,363.539 250.5,368.5C 227.5,368.5 204.5,368.5 181.5,368.5C 180.88,363.806 179.547,359.306 177.5,355C 182.688,344.461 182.688,333.961 177.5,323.5C 181.571,322.863 185.571,322.029 189.5,321C 194.036,311.735 201.37,308.401 211.5,311C 214.73,313.073 218.063,314.906 221.5,316.5C 223.801,316.016 225.801,315.016 227.5,313.5 Z"/></g>
<g><path style="opacity:1" fill="#050505" d="M 423.5,317.5 C 426.647,317.737 429.647,318.57 432.5,320C 440.847,324.841 441.514,330.341 434.5,336.5C 432.473,336.662 430.473,336.495 428.5,336C 426.703,333.768 424.37,332.602 421.5,332.5C 418.167,333.833 414.833,335.167 411.5,336.5C 409.407,336.514 407.574,335.848 406,334.5C 403.859,330.679 404.026,327.012 406.5,323.5C 411.268,318.949 416.934,316.949 423.5,317.5 Z"/></g>
<g><path style="opacity:1" fill="#070401" d="M 249.5,332.5 C 247.329,334.5 244.996,336.334 242.5,338C 234.878,339.378 231.378,336.211 232,328.5C 234.705,325.964 237.205,323.297 239.5,320.5C 241.033,319.569 242.7,318.902 244.5,318.5C 251.78,321.012 253.447,325.679 249.5,332.5 Z"/></g>
<g><path style="opacity:1" fill="#040200" d="M 116.5,322.5 C 121.897,322.215 127.23,322.549 132.5,323.5C 136.59,327.922 136.257,332.089 131.5,336C 126.5,336.667 121.5,336.667 116.5,336C 112.541,331.501 112.541,327.001 116.5,322.5 Z"/></g>
<g><path style="opacity:1" fill="#f89336" d="M 365.5,368.5 C 363.88,362.592 361.213,357.259 357.5,352.5C 359.938,344.437 356.938,340.603 348.5,341C 345.669,343.001 343.003,345.167 340.5,347.5C 338.498,343.497 336.498,339.497 334.5,335.5C 343.892,325.979 353.059,326.312 362,336.5C 363.125,339.89 364.625,343.057 366.5,346C 374.903,345.785 381.736,348.952 387,355.5C 389.384,359.509 389.884,363.676 388.5,368C 380.841,368.5 373.174,368.666 365.5,368.5 Z"/></g>
<g><path style="opacity:1" fill="#0c0602" d="M 83.5,332.5 C 90.6853,332.848 93.5186,336.515 92,343.5C 89.872,346.63 87.372,349.463 84.5,352C 79.5439,354.607 75.7106,353.44 73,348.5C 72.3333,346.833 72.3333,345.167 73,343.5C 76.0298,339.305 79.5298,335.639 83.5,332.5 Z"/></g>
<g><path style="opacity:1" fill="#f9a55a" d="M 334.5,335.5 C 336.498,339.497 338.498,343.497 340.5,347.5C 336.773,356.552 339.773,360.719 349.5,360C 352.036,357.295 354.703,354.795 357.5,352.5C 361.213,357.259 363.88,362.592 365.5,368.5C 359.158,368.334 352.825,368.5 346.5,369C 343.778,370.272 342.444,372.439 342.5,375.5C 335.5,375.5 328.5,375.5 321.5,375.5C 321.556,372.439 320.222,370.272 317.5,369C 301.49,368.833 285.49,368.333 269.5,367.5C 267.78,358.118 271.446,351.618 280.5,348C 284.167,347.667 287.833,347.333 291.5,347C 294.939,344.473 297.939,341.473 300.5,338C 305.57,335.576 310.903,334.909 316.5,336C 319.71,338.104 323.043,339.937 326.5,341.5C 330.058,340.599 332.725,338.599 334.5,335.5 Z"/></g>
<g><path style="opacity:1" fill="#0c0704" d="M 200.5,337.5 C 205.511,337.334 210.511,337.501 215.5,338C 221.078,343.459 220.411,348.126 213.5,352C 209.5,352.667 205.5,352.667 201.5,352C 195.318,347.478 194.985,342.644 200.5,337.5 Z"/></g>
<g><path style="opacity:1" fill="#070301" d="M 357.5,352.5 C 354.703,354.795 352.036,357.295 349.5,360C 339.773,360.719 336.773,356.552 340.5,347.5C 343.003,345.167 345.669,343.001 348.5,341C 356.938,340.603 359.938,344.437 357.5,352.5 Z"/></g>
<g><path style="opacity:1" fill="#0b0703" d="M 306.5,345.5 C 311.297,345.121 315.964,345.621 320.5,347C 323.886,350.373 324.386,354.206 322,358.5C 321.25,359.126 320.416,359.626 319.5,360C 314.833,360.667 310.167,360.667 305.5,360C 300.068,354.761 300.401,349.928 306.5,345.5 Z"/></g>
<g><path style="opacity:1" fill="#675d67" d="M 321.5,375.5 C 328.5,375.5 335.5,375.5 342.5,375.5C 342.269,378.785 343.603,381.285 346.5,383C 381.832,383.5 417.165,383.667 452.5,383.5C 444.187,417.133 424.52,441.467 393.5,456.5C 293.833,456.667 194.166,456.5 94.5,456C 53.2509,448.42 26.9176,424.42 15.5,384C 115.833,383.667 216.167,383.333 316.5,383C 320.007,381.67 321.673,379.17 321.5,375.5 Z"/></g>
<g><path style="opacity:1" fill="#544d55" d="M 452.5,383.5 C 466.837,383.333 481.171,383.5 495.5,384C 479.722,433.588 445.722,457.755 393.5,456.5C 424.52,441.467 444.187,417.133 452.5,383.5 Z"/></g>
<g><path style="opacity:1" fill="#544d55" d="M 354.5,471.5 C 354.5,477.5 354.5,483.5 354.5,489.5C 274.5,489.5 194.5,489.5 114.5,489.5C 114.5,483.5 114.5,477.5 114.5,471.5C 194.5,471.5 274.5,471.5 354.5,471.5 Z"/></g>
<g><path style="opacity:1" fill="#423e42" d="M 354.5,471.5 C 368.5,471.5 382.5,471.5 396.5,471.5C 396.5,477.5 396.5,483.5 396.5,489.5C 382.5,489.5 368.5,489.5 354.5,489.5C 354.5,483.5 354.5,477.5 354.5,471.5 Z"/></g>
</svg>
