<?xml version="1.0" encoding="UTF-8"?>
<!DOCTYPE svg PUBLIC "-//W3C//DTD SVG 1.1//EN" "http://www.w3.org/Graphics/SVG/1.1/DTD/svg11.dtd">
<svg xmlns="http://www.w3.org/2000/svg" version="1.1" width="512px" height="512px" style="shape-rendering:geometricPrecision; text-rendering:geometricPrecision; image-rendering:optimizeQuality; fill-rule:evenodd; clip-rule:evenodd" xmlns:xlink="http://www.w3.org/1999/xlink">
<g><path style="opacity:0.985" fill="#010000" d="M 133.5,-0.5 C 140.5,-0.5 147.5,-0.5 154.5,-0.5C 162.316,1.39044 169.816,4.39044 177,8.5C 190.963,4.00859 205.13,1.00859 219.5,-0.5C 232.5,-0.5 245.5,-0.5 258.5,-0.5C 285.542,2.72342 311.375,10.3901 336,22.5C 345.889,10.4186 358.389,2.75189 373.5,-0.5C 381.167,-0.5 388.833,-0.5 396.5,-0.5C 429.924,8.63271 445.424,30.6327 443,65.5C 442.074,70.2789 440.741,74.9456 439,79.5C 434.226,89.3815 429.726,99.3815 425.5,109.5C 444.119,144.076 453.285,181.076 453,220.5C 476.121,226.493 482.787,240.493 473,262.5C 469.804,266.848 465.638,269.848 460.5,271.5C 456.361,288.99 452.861,306.656 450,324.5C 447.226,325.523 444.393,325.523 441.5,324.5C 438.727,323.343 435.727,322.676 432.5,322.5C 435.34,306.138 438.34,289.805 441.5,273.5C 306.168,272.5 170.835,272.167 35.5,272.5C 35.2322,274.099 35.5655,275.432 36.5,276.5C 44.2942,322.97 52.7942,369.304 62,415.5C 68.3723,430.542 79.539,439.708 95.5,443C 117.497,443.5 139.497,443.667 161.5,443.5C 161.19,446.713 161.523,449.713 162.5,452.5C 162.5,455.167 162.5,457.833 162.5,460.5C 137.456,460.952 112.456,460.452 87.5,459C 63.8007,451.968 48.9674,436.468 43,412.5C 34.4998,366.165 25.9998,319.832 17.5,273.5C 9.4523,269.119 3.4523,262.785 -0.5,254.5C -0.5,249.5 -0.5,244.5 -0.5,239.5C 3.97028,228.543 12.1369,222.21 24,220.5C 23.4456,161.127 43.1123,109.794 83,66.5C 83.4938,31.5438 100.327,9.21049 133.5,-0.5 Z M 224.5,51.5 C 255.919,49.4169 285.586,55.5836 313.5,70C 308.568,81.3644 303.234,92.531 297.5,103.5C 285.538,85.0208 268.871,73.1874 247.5,68C 232.329,66.1334 218.329,69.3001 205.5,77.5C 204.503,69.8622 204.169,62.1955 204.5,54.5C 211.361,53.9099 218.028,52.9099 224.5,51.5 Z M 92.5,144.5 C 92.5,147.5 92.5,150.5 92.5,153.5C 91.1779,153.33 90.0113,153.663 89,154.5C 89.2716,150.852 90.4383,147.518 92.5,144.5 Z"/></g>
<g><path style="opacity:1" fill="#be6821" d="M 137.5,16.5 C 142.361,16.0634 147.028,16.5634 151.5,18C 134.914,25.8691 119.414,35.3691 105,46.5C 106.851,38.9829 110.685,32.4829 116.5,27C 122.854,22.0585 129.854,18.5585 137.5,16.5 Z"/></g>
<g><path style="opacity:1" fill="#935534" d="M 222.5,16.5 C 304.949,13.9627 367.449,47.6294 410,117.5C 427.528,149.977 435.695,184.644 434.5,221.5C 428.833,221.5 423.167,221.5 417.5,221.5C 418.384,155.101 392.051,102.601 338.5,64C 289.075,33.0714 236.408,26.0714 180.5,43C 122.387,65.2789 84.0541,106.112 65.5,165.5C 52.8432,175.475 45.3432,188.475 43,204.5C 46.7449,141.164 73.9115,90.6642 124.5,53C 154.165,32.6628 186.832,20.4961 222.5,16.5 Z M 224.5,51.5 C 218.028,52.9099 211.361,53.9099 204.5,54.5C 204.169,62.1955 204.503,69.8622 205.5,77.5C 218.329,69.3001 232.329,66.1334 247.5,68C 268.871,73.1874 285.538,85.0208 297.5,103.5C 303.234,92.531 308.568,81.3644 313.5,70C 285.586,55.5836 255.919,49.4169 224.5,51.5 Z M 92.5,144.5 C 92.5,147.5 92.5,150.5 92.5,153.5C 91.1779,153.33 90.0113,153.663 89,154.5C 89.2716,150.852 90.4383,147.518 92.5,144.5 Z"/></g>
<g><path style="opacity:1" fill="#d37e32" d="M 376.5,16.5 C 400.595,14.1571 416.762,24.1571 425,46.5C 425.667,52.8333 425.667,59.1667 425,65.5C 421.885,74.3975 418.218,83.0642 414,91.5C 410.257,87.0122 406.757,82.3456 403.5,77.5C 404.376,76.7492 405.376,76.2492 406.5,76C 404.941,71.1568 403.274,66.3235 401.5,61.5C 400.833,61.1667 400.167,60.8333 399.5,60.5C 396.157,61.6952 392.823,62.5286 389.5,63C 378.285,50.7744 365.618,40.441 351.5,32C 358.365,24.2455 366.698,19.0788 376.5,16.5 Z"/></g>
<g><path style="opacity:0.998" fill="#c66c22" d="M 92.5,153.5 C 92.5,150.5 92.5,147.5 92.5,144.5C 95.3507,135.798 99.5173,127.798 105,120.5C 125.726,91.0488 153.226,70.7154 187.5,59.5C 187.667,71.1714 187.5,82.8381 187,94.5C 182.249,100.086 178.082,106.086 174.5,112.5C 173.998,113.521 173.332,113.688 172.5,113C 169.94,110.029 167.273,107.196 164.5,104.5C 150.356,115.477 136.356,126.643 122.5,138C 125.652,142.477 129.152,146.643 133,150.5C 144.443,142.061 155.61,133.228 166.5,124C 167.167,123.333 167.833,123.333 168.5,124C 159.949,140.985 153.783,158.818 150,177.5C 135.316,159.097 116.15,151.097 92.5,153.5 Z"/></g>
<g><path style="opacity:1" fill="#d37e32" d="M 328.5,78.5 C 345.25,89.7486 359.583,103.582 371.5,120C 358.475,124.064 345.475,128.231 332.5,132.5C 332.167,132.833 331.833,133.167 331.5,133.5C 333.301,138.069 334.801,142.735 336,147.5C 336.561,148.022 337.228,148.355 338,148.5C 351.939,143.965 365.939,139.631 380,135.5C 383.402,139.803 385.902,144.636 387.5,150C 376.97,173.559 366.304,197.059 355.5,220.5C 347.528,221.498 339.528,221.831 331.5,221.5C 331.371,214.155 331.038,206.822 330.5,199.5C 335.243,198.481 339.909,197.147 344.5,195.5C 344.653,190.417 343.653,185.417 341.5,180.5C 340.833,180.167 340.167,179.833 339.5,179.5C 336.022,180.578 332.522,181.578 329,182.5C 328.228,182.355 327.561,182.022 327,181.5C 323.545,161.3 317.378,141.967 308.5,123.5C 315.171,108.481 321.838,93.4814 328.5,78.5 Z"/></g>
<g><path style="opacity:1" fill="#ed9c3d" d="M 308.5,177.5 C 291.721,194.106 273.055,208.273 252.5,220C 222.502,220.5 192.502,220.667 162.5,220.5C 163.32,183.214 173.153,148.547 192,116.5C 200.543,101.981 212.71,91.8142 228.5,86C 240.291,83.9271 251.291,85.9271 261.5,92C 277.546,104.551 289.38,120.385 297,139.5C 302.353,151.724 306.186,164.391 308.5,177.5 Z"/></g>
<g><path style="opacity:1" fill="#040200" d="M 269.5,127.5 C 273.676,127.168 277.176,128.502 280,131.5C 281.377,158.253 269.877,177.087 245.5,188C 229.5,193.333 213.5,198.667 197.5,204C 193.328,204.868 190.162,203.368 188,199.5C 187.012,175.638 196.846,157.805 217.5,146C 234.894,139.704 252.227,133.538 269.5,127.5 Z"/></g>
<g><path style="opacity:1" fill="#d07c31" d="M 259.5,148.5 C 260.376,148.369 261.043,148.702 261.5,149.5C 258.056,159.222 251.723,166.388 242.5,171C 230.499,174.778 218.666,178.944 207,183.5C 208.339,177.665 211.173,172.499 215.5,168C 218.167,166 220.833,164 223.5,162C 235.638,157.569 247.638,153.069 259.5,148.5 Z"/></g>
<g><path style="opacity:1" fill="#d27d31" d="M 131.5,182.5 C 127.956,186.546 124.623,190.879 121.5,195.5C 117.833,195.5 114.167,195.5 110.5,195.5C 110.5,201.167 110.5,206.833 110.5,212.5C 109.732,211.737 109.232,210.737 109,209.5C 104.833,213 100.667,216.5 96.5,220C 112.497,220.5 128.497,220.667 144.5,220.5C 116.338,221.498 88.0049,221.831 59.5,221.5C 57.0948,195.792 68.0948,178.958 92.5,171C 107.54,168.519 120.54,172.352 131.5,182.5 Z"/></g>
<g><path style="opacity:1" fill="#c36a22" d="M 399.5,195.5 C 396.833,195.5 394.167,195.5 391.5,195.5C 391.5,201.5 391.5,207.5 391.5,213.5C 394.5,213.5 397.5,213.5 400.5,213.5C 400.5,216.167 400.5,218.833 400.5,221.5C 391.833,221.5 383.167,221.5 374.5,221.5C 380.676,205.481 387.676,189.814 395.5,174.5C 397.802,181.315 399.136,188.315 399.5,195.5 Z"/></g>
<g><path style="opacity:1" fill="#e69333" d="M 308.5,177.5 C 312.443,191.772 314.443,206.439 314.5,221.5C 263.664,221.832 212.997,221.499 162.5,220.5C 192.502,220.667 222.502,220.5 252.5,220C 273.055,208.273 291.721,194.106 308.5,177.5 Z"/></g>
<g><path style="opacity:1" fill="#d57826" d="M 131.5,182.5 C 141.772,192.978 146.105,205.644 144.5,220.5C 128.497,220.667 112.497,220.5 96.5,220C 100.667,216.5 104.833,213 109,209.5C 109.232,210.737 109.732,211.737 110.5,212.5C 116.167,212.5 121.833,212.5 127.5,212.5C 127.5,206.833 127.5,201.167 127.5,195.5C 125.5,195.5 123.5,195.5 121.5,195.5C 124.623,190.879 127.956,186.546 131.5,182.5 Z"/></g>
<g><path style="opacity:1" fill="#000000" d="M 92.5,187.5 C 92.5,192.833 92.5,198.167 92.5,203.5C 87.1667,203.5 81.8333,203.5 76.5,203.5C 76.5,198.167 76.5,192.833 76.5,187.5C 81.8333,187.5 87.1667,187.5 92.5,187.5 Z"/></g>
<g><path style="opacity:1" fill="#040200" d="M 121.5,195.5 C 123.5,195.5 125.5,195.5 127.5,195.5C 127.5,201.167 127.5,206.833 127.5,212.5C 121.833,212.5 116.167,212.5 110.5,212.5C 110.5,206.833 110.5,201.167 110.5,195.5C 114.167,195.5 117.833,195.5 121.5,195.5 Z"/></g>
<g><path style="opacity:1" fill="#5f3410" d="M 399.5,195.5 C 397.393,196.468 395.059,196.802 392.5,196.5C 392.5,201.833 392.5,207.167 392.5,212.5C 395.385,212.194 398.052,212.527 400.5,213.5C 397.5,213.5 394.5,213.5 391.5,213.5C 391.5,207.5 391.5,201.5 391.5,195.5C 394.167,195.5 396.833,195.5 399.5,195.5 Z"/></g>
<g><path style="opacity:1" fill="#281707" d="M 92.5,187.5 C 93.4889,192.975 93.8222,198.642 93.5,204.5C 87.642,204.822 81.9753,204.489 76.5,203.5C 81.8333,203.5 87.1667,203.5 92.5,203.5C 92.5,198.167 92.5,192.833 92.5,187.5 Z"/></g>
<g><path style="opacity:1" fill="#be7240" d="M 21.5,238.5 C 165.5,238.333 309.5,238.5 453.5,239C 461.945,243.246 462.612,248.579 455.5,255C 310.833,255.667 166.167,255.667 21.5,255C 14.8805,249.502 14.8805,244.002 21.5,238.5 Z"/></g>
<g><path style="opacity:1" fill="#bd7240" d="M 369.5,297.5 C 359.652,297.173 349.986,297.506 340.5,298.5C 340.5,304.167 340.5,309.833 340.5,315.5C 344.167,315.5 347.833,315.5 351.5,315.5C 342.833,323.833 334.167,332.167 325.5,340.5C 277.499,340.333 229.499,340.5 181.5,341C 159.182,347.802 150.349,362.635 155,385.5C 159.155,396.824 166.989,404.157 178.5,407.5C 178.5,422.5 178.5,437.5 178.5,452.5C 173.167,452.5 167.833,452.5 162.5,452.5C 161.523,449.713 161.19,446.713 161.5,443.5C 139.497,443.667 117.497,443.5 95.5,443C 79.539,439.708 68.3723,430.542 62,415.5C 52.7942,369.304 44.2942,322.97 36.5,276.5C 36.5,275.5 36.5,274.5 36.5,273.5C 153.834,273.333 271.167,273.5 388.5,274C 382.038,281.772 375.705,289.606 369.5,297.5 Z"/></g>
<g><path style="opacity:1" fill="#b46c3d" d="M 441.5,324.5 C 440.285,329.787 439.285,335.12 438.5,340.5C 400.833,340.5 363.167,340.5 325.5,340.5C 334.167,332.167 342.833,323.833 351.5,315.5C 364.833,315.5 378.167,315.5 391.5,315.5C 392.49,309.69 392.823,303.69 392.5,297.5C 384.833,297.5 377.167,297.5 369.5,297.5C 375.705,289.606 382.038,281.772 388.5,274C 271.167,273.5 153.834,273.333 36.5,273.5C 36.5,274.5 36.5,275.5 36.5,276.5C 35.5655,275.432 35.2322,274.099 35.5,272.5C 170.835,272.167 306.168,272.5 441.5,273.5C 438.34,289.805 435.34,306.138 432.5,322.5C 435.727,322.676 438.727,323.343 441.5,324.5 Z"/></g>
<g><path style="opacity:1" fill="#683e24" d="M 84.5,298.5 C 101.659,297.503 118.992,297.17 136.5,297.5C 136.823,303.69 136.49,309.69 135.5,315.5C 135.5,315.167 135.5,314.833 135.5,314.5C 135.5,309.167 135.5,303.833 135.5,298.5C 118.833,298.5 102.167,298.5 85.5,298.5C 85.1667,298.5 84.8333,298.5 84.5,298.5 Z"/></g>
<g><path style="opacity:1" fill="#663d24" d="M 340.5,298.5 C 349.986,297.506 359.652,297.173 369.5,297.5C 377.167,297.5 384.833,297.5 392.5,297.5C 392.823,303.69 392.49,309.69 391.5,315.5C 391.5,315.167 391.5,314.833 391.5,314.5C 391.5,309.167 391.5,303.833 391.5,298.5C 374.833,298.5 358.167,298.5 341.5,298.5C 341.167,298.5 340.833,298.5 340.5,298.5 Z"/></g>
<g><path style="opacity:1" fill="#000000" d="M 85.5,298.5 C 102.167,298.5 118.833,298.5 135.5,298.5C 135.5,303.833 135.5,309.167 135.5,314.5C 118.833,314.5 102.167,314.5 85.5,314.5C 85.5,309.167 85.5,303.833 85.5,298.5 Z"/></g>
<g><path style="opacity:1" fill="#050201" d="M 170.5,298.5 C 187.5,298.5 204.5,298.5 221.5,298.5C 221.5,304.167 221.5,309.833 221.5,315.5C 204.5,315.5 187.5,315.5 170.5,315.5C 170.5,309.833 170.5,304.167 170.5,298.5 Z"/></g>
<g><path style="opacity:1" fill="#040201" d="M 255.5,298.5 C 272.5,298.5 289.5,298.5 306.5,298.5C 306.5,304.167 306.5,309.833 306.5,315.5C 289.5,315.5 272.5,315.5 255.5,315.5C 255.5,309.833 255.5,304.167 255.5,298.5 Z"/></g>
<g><path style="opacity:1" fill="#000000" d="M 341.5,298.5 C 358.167,298.5 374.833,298.5 391.5,298.5C 391.5,303.833 391.5,309.167 391.5,314.5C 374.833,314.5 358.167,314.5 341.5,314.5C 341.5,309.167 341.5,303.833 341.5,298.5 Z"/></g>
<g><path style="opacity:1" fill="#321e12" d="M 84.5,298.5 C 84.8333,298.5 85.1667,298.5 85.5,298.5C 85.5,303.833 85.5,309.167 85.5,314.5C 102.167,314.5 118.833,314.5 135.5,314.5C 135.5,314.833 135.5,315.167 135.5,315.5C 118.5,315.5 101.5,315.5 84.5,315.5C 84.5,309.833 84.5,304.167 84.5,298.5 Z"/></g>
<g><path style="opacity:1" fill="#311c11" d="M 340.5,298.5 C 340.833,298.5 341.167,298.5 341.5,298.5C 341.5,303.833 341.5,309.167 341.5,314.5C 358.167,314.5 374.833,314.5 391.5,314.5C 391.5,314.833 391.5,315.167 391.5,315.5C 378.167,315.5 364.833,315.5 351.5,315.5C 347.833,315.5 344.167,315.5 340.5,315.5C 340.5,309.833 340.5,304.167 340.5,298.5 Z"/></g>
<g><path style="opacity:0.99" fill="#030100" d="M 325.5,340.5 C 363.167,340.5 400.833,340.5 438.5,340.5C 455.223,340.059 471.89,340.559 488.5,342C 500.178,346.508 507.845,354.675 511.5,366.5C 511.5,371.833 511.5,377.167 511.5,382.5C 508.054,395.451 499.887,404.117 487,408.5C 486.667,435.5 486.333,462.5 486,489.5C 484.262,500.687 478.095,508.021 467.5,511.5C 377.5,511.5 287.5,511.5 197.5,511.5C 188.184,508.349 182.017,502.016 179,492.5C 178.5,479.171 178.333,465.837 178.5,452.5C 178.5,437.5 178.5,422.5 178.5,407.5C 166.989,404.157 159.155,396.824 155,385.5C 150.349,362.635 159.182,347.802 181.5,341C 229.499,340.5 277.499,340.333 325.5,340.5 Z"/></g>
<g><path style="opacity:1" fill="#050201" d="M 84.5,349.5 C 101.833,349.5 119.167,349.5 136.5,349.5C 136.5,355.167 136.5,360.833 136.5,366.5C 119.167,366.5 101.833,366.5 84.5,366.5C 84.5,360.833 84.5,355.167 84.5,349.5 Z"/></g>
<g><path style="opacity:1" fill="#956226" d="M 480.5,358.5 C 438.33,358.168 396.33,358.501 354.5,359.5C 353.957,359.44 353.624,359.107 353.5,358.5C 395.998,357.169 438.331,357.169 480.5,358.5 Z"/></g>
<g><path style="opacity:1" fill="#eed9c0" d="M 183.5,357.5 C 231.501,357.333 279.501,357.5 327.5,358C 340.042,363.25 343.542,372.084 338,384.5C 333.043,389.825 326.876,392.659 319.5,393C 318.333,394.167 317.167,395.333 316,396.5C 315.667,426.5 315.333,456.5 315,486.5C 314.934,489.276 313.768,491.442 311.5,493C 274.918,494.654 238.251,494.987 201.5,494C 199.714,493.215 198.214,492.049 197,490.5C 195.681,459.252 195.015,427.919 195,396.5C 190.966,392.709 186.133,390.875 180.5,391C 170.518,384.718 168.018,376.218 173,365.5C 175.975,361.952 179.475,359.286 183.5,357.5 Z"/></g>
<g><path style="opacity:1" fill="#ef9d3d" d="M 480.5,358.5 C 491.034,361.56 495.534,368.56 494,379.5C 490.326,388.599 483.493,393.099 473.5,393C 470.8,394.857 469.134,397.357 468.5,400.5C 461.159,400.334 453.826,400.5 446.5,401C 425.936,439.396 397.27,470.229 360.5,493.5C 350.652,493.827 340.986,493.494 331.5,492.5C 332.151,464.203 332.817,435.869 333.5,407.5C 355.211,398.058 362.211,382.058 354.5,359.5C 396.33,358.501 438.33,358.168 480.5,358.5 Z"/></g>
<g><path style="opacity:1" fill="#633e18" d="M 426.5,391.5 C 425.511,386.025 425.178,380.358 425.5,374.5C 431.5,374.5 437.5,374.5 443.5,374.5C 443.5,380.5 443.5,386.5 443.5,392.5C 437.642,392.822 431.975,392.489 426.5,391.5 Z"/></g>
<g><path style="opacity:1" fill="#000000" d="M 426.5,391.5 C 426.5,386.167 426.5,380.833 426.5,375.5C 431.833,375.5 437.167,375.5 442.5,375.5C 442.5,380.833 442.5,386.167 442.5,391.5C 437.167,391.5 431.833,391.5 426.5,391.5 Z"/></g>
<g><path style="opacity:1" fill="#040201" d="M 84.5,400.5 C 101.833,400.5 119.167,400.5 136.5,400.5C 136.5,406.167 136.5,411.833 136.5,417.5C 119.167,417.5 101.833,417.5 84.5,417.5C 84.5,411.833 84.5,406.167 84.5,400.5 Z"/></g>
<g><path style="opacity:1" fill="#000000" d="M 383.5,400.5 C 389.167,400.5 394.833,400.5 400.5,400.5C 400.5,406.167 400.5,411.833 400.5,417.5C 394.833,417.5 389.167,417.5 383.5,417.5C 383.5,411.833 383.5,406.167 383.5,400.5 Z"/></g>
<g><path style="opacity:1" fill="#ef9134" d="M 468.5,400.5 C 468.667,430.169 468.5,459.835 468,489.5C 466.688,492.238 464.522,493.572 461.5,493.5C 427.833,493.5 394.167,493.5 360.5,493.5C 397.27,470.229 425.936,439.396 446.5,401C 453.826,400.5 461.159,400.334 468.5,400.5 Z"/></g>
<g><path style="opacity:1" fill="#070301" d="M 434.5,443.5 C 440.167,443.5 445.833,443.5 451.5,443.5C 451.5,449.167 451.5,454.833 451.5,460.5C 445.833,460.5 440.167,460.5 434.5,460.5C 434.5,454.833 434.5,449.167 434.5,443.5 Z"/></g>
<g><path style="opacity:1" fill="#040200" d="M 349.5,460.5 C 355.167,460.5 360.833,460.5 366.5,460.5C 366.5,466.167 366.5,471.833 366.5,477.5C 360.833,477.5 355.167,477.5 349.5,477.5C 349.5,471.833 349.5,466.167 349.5,460.5 Z"/></g>
<g><path style="opacity:1" fill="#d78531" d="M 331.5,492.5 C 340.986,493.494 350.652,493.827 360.5,493.5C 394.167,493.5 427.833,493.5 461.5,493.5C 417.998,494.831 374.331,494.831 330.5,493.5C 330.624,492.893 330.957,492.56 331.5,492.5 Z"/></g>
</svg>
