<?xml version="1.0" encoding="UTF-8"?>
<!DOCTYPE svg PUBLIC "-//W3C//DTD SVG 1.1//EN" "http://www.w3.org/Graphics/SVG/1.1/DTD/svg11.dtd">
<svg xmlns="http://www.w3.org/2000/svg" version="1.1" width="512px" height="512px" style="shape-rendering:geometricPrecision; text-rendering:geometricPrecision; image-rendering:optimizeQuality; fill-rule:evenodd; clip-rule:evenodd" xmlns:xlink="http://www.w3.org/1999/xlink">
<g><path style="opacity:0.96" fill="#010000" d="M 388.5,-0.5 C 391.5,-0.5 394.5,-0.5 397.5,-0.5C 407.326,2.17132 417.326,4.67132 427.5,7C 430.839,8.88561 432.173,11.7189 431.5,15.5C 423.782,51.5891 415.615,87.5891 407,123.5C 404.761,126.962 401.594,128.295 397.5,127.5C 391.938,124.899 390.104,120.566 392,114.5C 399.402,84.0592 406.568,53.5592 413.5,23C 413.245,21.6739 412.578,20.6739 411.5,20C 406.882,18.8416 402.216,18.0083 397.5,17.5C 390.986,47.5559 384.153,77.5559 377,107.5C 374.592,110.62 371.426,111.953 367.5,111.5C 362.508,109.517 360.675,105.85 362,100.5C 369.206,68.8042 376.539,37.1376 384,5.5C 384.599,2.74583 386.099,0.745833 388.5,-0.5 Z"/></g>
<g><path style="opacity:0.959" fill="#020000" d="M 458.5,-0.5 C 461.167,-0.5 463.833,-0.5 466.5,-0.5C 477.107,3.541 487.773,7.70767 498.5,12C 500.429,15.2559 500.929,18.7559 500,22.5C 483.863,67.2434 467.53,111.91 451,156.5C 449.005,158.747 446.505,159.747 443.5,159.5C 437.651,158.147 435.151,154.48 436,148.5C 451.872,106.714 467.039,64.7144 481.5,22.5C 477.092,21.4658 472.759,20.1324 468.5,18.5C 467.833,18.8333 467.167,19.1667 466.5,19.5C 451.643,60.5774 436.31,101.411 420.5,142C 418.564,142.813 416.564,143.313 414.5,143.5C 412.418,143.528 410.584,142.861 409,141.5C 407.496,137.961 407.163,134.295 408,130.5C 423.863,87.9102 439.53,45.2435 455,2.5C 456.145,1.36362 457.312,0.363622 458.5,-0.5 Z"/></g>
<g><path style="opacity:0.998" fill="#ce5e1f" d="M 397.5,127.5 C 397.326,129.861 396.993,132.194 396.5,134.5C 391.555,131.691 386.555,128.857 381.5,126C 376.058,124.149 370.725,122.316 365.5,120.5C 366.167,117.5 366.833,114.5 367.5,111.5C 371.426,111.953 374.592,110.62 377,107.5C 384.153,77.5559 390.986,47.5559 397.5,17.5C 402.216,18.0083 406.882,18.8416 411.5,20C 412.578,20.6739 413.245,21.6739 413.5,23C 406.568,53.5592 399.402,84.0592 392,114.5C 390.104,120.566 391.938,124.899 397.5,127.5 Z"/></g>
<g><path style="opacity:0.998" fill="#d05f1f" d="M 443.5,159.5 C 439.84,170.156 436.174,180.823 432.5,191.5C 432.167,191.5 431.833,191.5 431.5,191.5C 431.451,188.901 430.451,186.734 428.5,185C 423.934,183.691 419.267,183.191 414.5,183.5C 414.599,180.763 414.265,178.096 413.5,175.5C 416.808,173.728 418.475,170.895 418.5,167C 416.843,161.189 414.51,155.689 411.5,150.5C 412.677,148.321 413.677,145.987 414.5,143.5C 416.564,143.313 418.564,142.813 420.5,142C 436.31,101.411 451.643,60.5774 466.5,19.5C 467.167,19.1667 467.833,18.8333 468.5,18.5C 472.759,20.1324 477.092,21.4658 481.5,22.5C 467.039,64.7144 451.872,106.714 436,148.5C 435.151,154.48 437.651,158.147 443.5,159.5 Z"/></g>
<g><path style="opacity:0.984" fill="#010000" d="M 343.5,127.5 C 342.866,141.397 339.199,154.397 332.5,166.5C 330.384,169.789 328.051,172.956 325.5,176C 327.7,178.234 329.533,180.734 331,183.5C 334.704,194.794 338.871,205.794 343.5,216.5C 347.124,229.538 351.457,242.371 356.5,255C 361.833,255.667 367.167,255.667 372.5,255C 362.249,244.678 354.916,232.512 350.5,218.5C 354.875,216.541 359.375,214.875 364,213.5C 364.772,213.645 365.439,213.978 366,214.5C 369.618,225.109 375.284,234.442 383,242.5C 385.803,246.141 387.97,250.141 389.5,254.5C 397.807,255.498 406.14,255.831 414.5,255.5C 415.014,253.488 415.18,251.488 415,249.5C 403.202,234.896 396.035,218.229 393.5,199.5C 381.162,199.667 368.829,199.5 356.5,199C 353.887,197.893 352.22,196.06 351.5,193.5C 350.943,189.112 352.61,185.945 356.5,184C 365.16,183.5 373.827,183.334 382.5,183.5C 393.167,183.5 403.833,183.5 414.5,183.5C 419.267,183.191 423.934,183.691 428.5,185C 430.451,186.734 431.451,188.901 431.5,191.5C 431.171,193.991 430.171,196.157 428.5,198C 422.258,199.37 415.925,199.87 409.5,199.5C 411.397,211.356 415.563,222.356 422,232.5C 427.641,218.722 432.474,205.056 436.5,191.5C 439.09,184.901 441.59,178.234 444,171.5C 447.308,167.673 451.474,166.506 456.5,168C 487.115,181.106 505.448,203.939 511.5,236.5C 511.5,247.833 511.5,259.167 511.5,270.5C 503.05,316.346 485.883,358.679 460,397.5C 441.859,422.474 419.693,443.14 393.5,459.5C 392.668,469.149 392.168,478.816 392,488.5C 390.838,499.817 385.004,507.484 374.5,511.5C 295.167,511.5 215.833,511.5 136.5,511.5C 129.659,508.832 124.492,504.166 121,497.5C 119.727,485.237 119.06,472.903 119,460.5C 83.8609,438.693 56.1943,409.693 36,373.5C 18.7317,340.855 6.56503,306.522 -0.5,270.5C -0.5,266.833 -0.5,263.167 -0.5,259.5C 0.833333,257.5 0.833333,255.5 -0.5,253.5C -0.5,245.167 -0.5,236.833 -0.5,228.5C 5.76397,195.397 24.4306,172.23 55.5,159C 59.5052,157.902 63.0052,158.735 66,161.5C 68.4049,167.55 70.9049,173.55 73.5,179.5C 96.6637,152.944 125.664,142.778 160.5,149C 163.018,150.87 164.352,153.37 164.5,156.5C 163.018,165.41 161.351,174.243 159.5,183C 168.833,183.333 178.167,183.667 187.5,184C 190.521,185.539 191.854,188.039 191.5,191.5C 190.458,195.354 188.458,198.521 185.5,201C 188.609,218.699 196.442,233.866 209,246.5C 210.741,249.309 211.908,252.309 212.5,255.5C 215.187,255.664 217.854,255.497 220.5,255C 216.808,245.594 213.308,236.094 210,226.5C 207.376,213.582 211.876,204.082 223.5,198C 217.135,195.812 210.802,193.646 204.5,191.5C 171.805,170.223 160.805,141.056 171.5,104C 207.7,97.9462 235.7,110.113 255.5,140.5C 275.908,109.141 304.574,97.308 341.5,105C 342.126,105.75 342.626,106.584 343,107.5C 343.5,114.158 343.666,120.825 343.5,127.5 Z"/></g>
<g><path style="opacity:1" fill="#97b41d" d="M 183.5,119.5 C 225.858,119.858 247.191,141.191 247.5,183.5C 205.202,183.202 183.869,161.869 183.5,119.5 Z"/></g>
<g><path style="opacity:1" fill="#97b41d" d="M 310.5,119.5 C 316.167,119.5 321.833,119.5 327.5,119.5C 327.167,161.833 305.833,183.167 263.5,183.5C 262.405,149.625 278.072,128.292 310.5,119.5 Z"/></g>
<g><path style="opacity:0.98" fill="#020101" d="M 365.5,120.5 C 370.725,122.316 376.058,124.149 381.5,126C 386.555,128.857 391.555,131.691 396.5,134.5C 402.205,139.204 407.205,144.537 411.5,150.5C 414.51,155.689 416.843,161.189 418.5,167C 418.475,170.895 416.808,173.728 413.5,175.5C 409.406,176.295 406.239,174.962 404,171.5C 394.75,150.262 378.583,138.095 355.5,135C 352.976,133.117 351.642,130.617 351.5,127.5C 351.85,122.319 354.683,119.652 360,119.5C 361.878,119.696 363.712,120.029 365.5,120.5 Z"/></g>
<g><path style="opacity:0.997" fill="#833585" d="M 343.5,127.5 C 346.167,127.5 348.833,127.5 351.5,127.5C 351.642,130.617 352.976,133.117 355.5,135C 378.583,138.095 394.75,150.262 404,171.5C 406.239,174.962 409.406,176.295 413.5,175.5C 414.265,178.096 414.599,180.763 414.5,183.5C 403.833,183.5 393.167,183.5 382.5,183.5C 382.029,181.421 381.363,179.421 380.5,177.5C 385.247,170.414 383.914,164.581 376.5,160C 368.077,154.08 358.744,151.414 348.5,152C 344.61,153.945 342.943,157.112 343.5,161.5C 339.452,162.358 335.785,164.025 332.5,166.5C 339.199,154.397 342.866,141.397 343.5,127.5 Z"/></g>
<g><path style="opacity:0.985" fill="#040102" d="M 380.5,177.5 C 373.836,179.082 368.502,176.915 364.5,171C 361.667,169.833 358.833,168.667 356,167.5C 355.235,167.57 354.735,167.903 354.5,168.5C 351.375,168.135 348.375,167.302 345.5,166C 344.418,164.67 343.751,163.17 343.5,161.5C 342.943,157.112 344.61,153.945 348.5,152C 358.744,151.414 368.077,154.08 376.5,160C 383.914,164.581 385.247,170.414 380.5,177.5 Z"/></g>
<g><path style="opacity:1" fill="#97b41d" d="M 130.5,163.5 C 135.833,163.5 141.167,163.5 146.5,163.5C 144.851,170.062 143.851,176.729 143.5,183.5C 128.221,181.302 117.721,187.302 112,201.5C 111.5,219.497 111.333,237.497 111.5,255.5C 99.1667,255.5 86.8333,255.5 74.5,255.5C 65.6448,207.851 84.3115,177.184 130.5,163.5 Z"/></g>
<g><path style="opacity:0.981" fill="#d15f1f" d="M 380.5,177.5 C 381.363,179.421 382.029,181.421 382.5,183.5C 373.827,183.334 365.16,183.5 356.5,184C 352.61,185.945 350.943,189.112 351.5,193.5C 350.5,194.167 349.5,194.833 348.5,195.5C 350.033,186.371 352.033,177.371 354.5,168.5C 354.735,167.903 355.235,167.57 356,167.5C 358.833,168.667 361.667,169.833 364.5,171C 368.502,176.915 373.836,179.082 380.5,177.5 Z"/></g>
<g><path style="opacity:1" fill="#e3284e" d="M 51.5,178.5 C 52.9778,178.238 54.3112,178.571 55.5,179.5C 58.2295,186.022 60.5628,192.688 62.5,199.5C 54.8892,217.388 53.5558,235.721 58.5,254.5C 44.5159,255.499 30.5159,255.833 16.5,255.5C 12.2045,222.433 23.8712,196.767 51.5,178.5 Z"/></g>
<g><path style="opacity:1" fill="#ec5955" d="M 311.5,186.5 C 313.752,186.916 315.252,188.249 316,190.5C 323.735,211.872 331.568,233.205 339.5,254.5C 336.232,255.487 332.898,255.82 329.5,255.5C 327.531,246.063 322.864,238.229 315.5,232C 300.184,224.851 288.184,214.018 279.5,199.5C 286.971,197.843 294.305,195.677 301.5,193C 305.069,191.058 308.402,188.892 311.5,186.5 Z"/></g>
<g><path style="opacity:1" fill="#97b41d" d="M 455.5,186.5 C 468.601,192.097 478.768,201.097 486,213.5C 493.566,226.494 496.732,240.494 495.5,255.5C 474.167,255.5 452.833,255.5 431.5,255.5C 439.5,232.5 447.5,209.5 455.5,186.5 Z"/></g>
<g><path style="opacity:1" fill="#ca4b49" d="M 191.5,191.5 C 195.833,191.5 200.167,191.5 204.5,191.5C 210.802,193.646 217.135,195.812 223.5,198C 211.876,204.082 207.376,213.582 210,226.5C 213.308,236.094 216.808,245.594 220.5,255C 217.854,255.497 215.187,255.664 212.5,255.5C 211.908,252.309 210.741,249.309 209,246.5C 196.442,233.866 188.609,218.699 185.5,201C 188.458,198.521 190.458,195.354 191.5,191.5 Z"/></g>
<g><path style="opacity:1" fill="#cb4b49" d="M 431.5,191.5 C 431.833,191.5 432.167,191.5 432.5,191.5C 433.833,191.5 435.167,191.5 436.5,191.5C 432.474,205.056 427.641,218.722 422,232.5C 415.563,222.356 411.397,211.356 409.5,199.5C 415.925,199.87 422.258,199.37 428.5,198C 430.171,196.157 431.171,193.991 431.5,191.5 Z"/></g>
<g><path style="opacity:0.999" fill="#cc4c4a" d="M 351.5,193.5 C 352.22,196.06 353.887,197.893 356.5,199C 368.829,199.5 381.162,199.667 393.5,199.5C 396.035,218.229 403.202,234.896 415,249.5C 415.18,251.488 415.014,253.488 414.5,255.5C 406.14,255.831 397.807,255.498 389.5,254.5C 387.97,250.141 385.803,246.141 383,242.5C 375.284,234.442 369.618,225.109 366,214.5C 365.439,213.978 364.772,213.645 364,213.5C 359.375,214.875 354.875,216.541 350.5,218.5C 354.916,232.512 362.249,244.678 372.5,255C 367.167,255.667 361.833,255.667 356.5,255C 351.457,242.371 347.124,229.538 343.5,216.5C 343.334,211.489 343.501,206.489 344,201.5C 344.792,198.894 346.292,196.894 348.5,195.5C 349.5,194.833 350.5,194.167 351.5,193.5 Z"/></g>
<g><path style="opacity:1" fill="#cc4c4a" d="M 138.5,199.5 C 148.833,199.5 159.167,199.5 169.5,199.5C 172.123,220.908 180.789,239.408 195.5,255C 185.483,255.832 175.483,255.666 165.5,254.5C 162.159,246.489 157.326,239.489 151,233.5C 144.755,222.932 140.589,211.599 138.5,199.5 Z"/></g>
<g><path style="opacity:1" fill="#ee5955" d="M 259.5,201.5 C 260.496,201.414 261.329,201.748 262,202.5C 272.274,221.441 287.108,235.608 306.5,245C 309.093,247.766 311.093,250.933 312.5,254.5C 300.848,255.666 289.181,255.833 277.5,255C 276.21,252.708 274.543,250.708 272.5,249C 255.841,240.509 242.508,228.342 232.5,212.5C 241.486,208.62 250.486,204.954 259.5,201.5 Z"/></g>
<g><path style="opacity:1" fill="#cb4b49" d="M 127.5,222.5 C 132.242,234.752 139.242,245.585 148.5,255C 141.508,255.5 134.508,255.666 127.5,255.5C 127.5,244.5 127.5,233.5 127.5,222.5 Z"/></g>
<g><path style="opacity:1" fill="#e65652" d="M 230.5,236.5 C 236.391,243.889 243.391,250.055 251.5,255C 246.833,255.667 242.167,255.667 237.5,255C 234.87,248.943 232.537,242.776 230.5,236.5 Z"/></g>
<g><path style="opacity:1" fill="#f7e9d2" d="M 17.5,271.5 C 176.167,271.5 334.833,271.5 493.5,271.5C 484.702,320.104 465.202,363.771 435,402.5C 419.898,420.277 402.398,435.111 382.5,447C 297.833,447.667 213.167,447.667 128.5,447C 95.851,427.352 70.351,400.852 52,367.5C 35.6257,337.207 24.1257,305.207 17.5,271.5 Z"/></g>
<g><path style="opacity:1" fill="#090908" d="M 44.5,287.5 C 50.3084,286.652 54.1417,288.985 56,294.5C 57.6166,298.039 58.2833,301.706 58,305.5C 53.33,312.977 48.33,313.311 43,306.5C 41.6303,302.725 40.4636,298.891 39.5,295C 40.2993,291.896 41.966,289.396 44.5,287.5 Z"/></g>
<g><path style="opacity:1" fill="#040404" d="M 56.5,319.5 C 60.4257,319.047 63.5923,320.38 66,323.5C 76.6325,349.768 91.6325,373.101 111,393.5C 111.949,402.217 108.116,405.717 99.5,404C 78.9084,382.709 63.0751,358.209 52,330.5C 50.3926,325.438 51.8926,321.772 56.5,319.5 Z"/></g>
<g><path style="opacity:1" fill="#e7d9c5" d="M 135.5,463.5 C 215.5,463.5 295.5,463.5 375.5,463.5C 375.666,472.506 375.5,481.506 375,490.5C 374.167,492.667 372.667,494.167 370.5,495C 293.833,495.667 217.167,495.667 140.5,495C 138.333,494.167 136.833,492.667 136,490.5C 135.5,481.506 135.334,472.506 135.5,463.5 Z"/></g>
</svg>
