<?xml version="1.0" encoding="UTF-8"?>
<!DOCTYPE svg PUBLIC "-//W3C//DTD SVG 1.1//EN" "http://www.w3.org/Graphics/SVG/1.1/DTD/svg11.dtd">
<svg xmlns="http://www.w3.org/2000/svg" version="1.1" width="512px" height="512px" style="shape-rendering:geometricPrecision; text-rendering:geometricPrecision; image-rendering:optimizeQuality; fill-rule:evenodd; clip-rule:evenodd" xmlns:xlink="http://www.w3.org/1999/xlink">
<g><path style="opacity:0.961" fill="#010202" d="M 233.5,-0.5 C 248.5,-0.5 263.5,-0.5 278.5,-0.5C 358.893,9.09801 422.393,46.7647 469,112.5C 492.821,149.131 506.987,189.131 511.5,232.5C 511.5,247.833 511.5,263.167 511.5,278.5C 501.902,358.893 464.235,422.393 398.5,469C 361.869,492.821 321.869,506.987 278.5,511.5C 263.167,511.5 247.833,511.5 232.5,511.5C 152.107,501.902 88.6066,464.235 42,398.5C 18.1791,361.868 4.01239,321.868 -0.5,278.5C -0.5,263.167 -0.5,247.833 -0.5,232.5C 4.68303,182.444 22.5164,137.444 53,97.5C 54.8333,95.6667 56.6667,93.8333 58.5,92C 61.5547,91.3658 64.5547,91.5325 67.5,92.5C 69.1908,95.6454 69.6908,98.9787 69,102.5C 17.2476,169.316 2.58092,243.649 25,325.5C 49.782,400.616 98.9486,452.783 172.5,482C 178.705,484.347 185.038,486.18 191.5,487.5C 258.391,505.046 321.724,496.213 381.5,461C 461.88,407.746 500.046,332.579 496,235.5C 489.138,168.097 459.971,112.764 408.5,69.5C 350.895,23.929 285.561,6.76237 212.5,18C 165.722,27.0544 125.055,47.721 90.5,80C 86.4608,82.1583 82.7942,81.6583 79.5,78.5C 78.4309,75.592 78.2642,72.592 79,69.5C 122.484,28.7173 173.984,5.38392 233.5,-0.5 Z"/></g>
<g><path style="opacity:1" fill="#ddf4fb" d="M 408.5,69.5 C 408.709,70.9217 409.209,72.255 410,73.5C 465.313,135.722 485.646,208.055 471,290.5C 449.572,380.51 395.738,442.344 309.5,476C 271.143,489.269 231.81,493.102 191.5,487.5C 185.038,486.18 178.705,484.347 172.5,482C 98.9486,452.783 49.782,400.616 25,325.5C 2.58092,243.649 17.2476,169.316 69,102.5C 69.6908,98.9787 69.1908,95.6454 67.5,92.5C 71.1256,87.5389 75.1256,82.8722 79.5,78.5C 82.7942,81.6583 86.4608,82.1583 90.5,80C 125.055,47.721 165.722,27.0544 212.5,18C 285.561,6.76237 350.895,23.929 408.5,69.5 Z"/></g>
<g><path style="opacity:1" fill="#030303" d="M 320.5,443.5 C 320.337,441.143 320.503,438.81 321,436.5C 328.255,431.456 335.422,426.289 342.5,421C 355.333,406.167 368.167,391.333 381,376.5C 390.235,359.404 389.568,342.738 379,326.5C 365.436,313.605 352.603,300.105 340.5,286C 326.85,274.51 311.183,267.343 293.5,264.5C 282.149,263.052 270.816,263.218 259.5,265C 240.045,270.596 220.712,276.596 201.5,283C 178.044,297.113 170.711,317.279 179.5,343.5C 178.337,357.328 171.003,365.828 157.5,369C 135.458,383.162 131.625,401.329 146,423.5C 162.368,441.465 181.868,445.632 204.5,436C 215.877,435.144 227.21,435.478 238.5,437C 247.122,439.541 255.788,441.875 264.5,444C 274.214,444.782 283.88,444.615 293.5,443.5C 297.565,443.897 300.565,445.897 302.5,449.5C 302.755,453.493 301.089,456.326 297.5,458C 284.838,459.974 272.171,459.974 259.5,458C 249.214,455.179 238.881,452.512 228.5,450C 217.158,448.647 206.158,449.98 195.5,454C 166.385,459.52 144.218,449.687 129,424.5C 122.928,412.333 121.261,399.666 124,386.5C 113.85,376.676 105.017,365.843 97.5,354C 83.2192,349.723 73.3859,340.556 68,326.5C 60.5084,302.318 58.5084,277.652 62,252.5C 69.2796,200.636 88.6129,153.97 120,112.5C 128.606,102.888 138.106,94.3878 148.5,87C 161.43,78.0665 175.264,76.2332 190,81.5C 199.785,77.3456 209.951,74.6789 220.5,73.5C 220.333,62.1618 220.5,50.8284 221,39.5C 226.372,28.0674 234.872,24.9008 246.5,30C 261.5,44.3333 276.5,58.6667 291.5,73C 362.793,89.9587 410.293,133.125 434,202.5C 450.223,265.389 438.556,322.389 399,373.5C 392.999,386.18 384.666,397.18 374,406.5C 363.02,423.814 348.52,437.314 330.5,447C 328.5,447.667 326.5,447.667 324.5,447C 323.295,445.624 321.962,444.458 320.5,443.5 Z"/></g>
<g><path style="opacity:1" fill="#c26a35" d="M 236.5,222.5 C 235.335,163.001 235.168,103.335 236,43.5C 236.414,43.0426 236.914,42.7093 237.5,42.5C 299.469,101.468 360.802,161.135 421.5,221.5C 421.291,222.086 420.957,222.586 420.5,223C 358.999,223.832 297.665,223.665 236.5,222.5 Z"/></g>
<g><path style="opacity:1" fill="#d57e49" d="M 236.5,222.5 C 236.333,168.499 236.5,114.499 237,60.5C 290.665,112.498 343.998,164.832 397,217.5C 397.494,219.134 397.66,220.801 397.5,222.5C 343.833,222.5 290.167,222.5 236.5,222.5 Z"/></g>
<g><path style="opacity:1" fill="#c6ecfb" d="M 408.5,69.5 C 459.971,112.764 489.138,168.097 496,235.5C 500.046,332.579 461.88,407.746 381.5,461C 321.724,496.213 258.391,505.046 191.5,487.5C 231.81,493.102 271.143,489.269 309.5,476C 395.738,442.344 449.572,380.51 471,290.5C 485.646,208.055 465.313,135.722 410,73.5C 409.209,72.255 408.709,70.9217 408.5,69.5 Z"/></g>
<g><path style="opacity:1" fill="#97e4fa" d="M 219.5,88.5 C 220.167,133.833 220.833,179.167 221.5,224.5C 222.805,231.309 226.805,235.809 233.5,238C 296.855,238.826 360.188,238.659 423.5,237.5C 424.442,237.608 425.275,237.941 426,238.5C 429.109,275.817 421.109,310.484 402,342.5C 400.301,333.776 396.968,325.776 392,318.5C 375.75,302.585 359.916,286.418 344.5,270C 314.634,248.706 281.967,243.039 246.5,253C 231.561,257.869 216.561,262.535 201.5,267C 176.737,276.522 163.404,294.522 161.5,321C 161.576,328.623 162.576,336.123 164.5,343.5C 164.237,346.028 163.404,348.361 162,350.5C 154.499,353.668 147.333,357.501 140.5,362C 136.964,365.201 133.797,368.701 131,372.5C 125.266,366.602 120.099,360.269 115.5,353.5C 126.714,348.114 134.214,339.448 138,327.5C 145.285,255.309 168.285,188.643 207,127.5C 212.436,115.296 211.27,103.796 203.5,93C 208.542,90.5989 213.875,89.0989 219.5,88.5 Z"/></g>
<g><path style="opacity:1" fill="#c62b2b" d="M 169.5,94.5 C 186.411,91.9039 194.911,99.2372 195,116.5C 189.165,128.18 182.665,139.513 175.5,150.5C 169.598,147.143 163.265,145.809 156.5,146.5C 158.369,145.835 160.369,145.169 162.5,144.5C 167.199,136.963 171.699,129.297 176,121.5C 178.998,111.162 176.832,102.162 169.5,94.5 Z"/></g>
<g><path style="opacity:1" fill="#d53030" d="M 169.5,94.5 C 176.832,102.162 178.998,111.162 176,121.5C 171.699,129.297 167.199,136.963 162.5,144.5C 160.369,145.169 158.369,145.835 156.5,146.5C 141.164,151.646 136.998,161.646 144,176.5C 148.28,181.059 153.447,184.226 159.5,186C 157.369,191.097 154.869,195.93 152,200.5C 144.146,196.987 135.98,195.153 127.5,195C 113.037,201.421 109.537,211.588 117,225.5C 123.648,231.556 131.481,235.223 140.5,236.5C 138.963,241.778 137.63,247.112 136.5,252.5C 121.884,246.432 111.384,250.432 105,264.5C 103.939,271.701 105.772,278.034 110.5,283.5C 108.422,297.794 106.588,312.127 105,326.5C 103.941,329.618 102.608,332.618 101,335.5C 99.8904,337.037 98.3904,337.703 96.5,337.5C 91.6217,335.461 87.7883,332.127 85,327.5C 79.9913,318.467 76.9913,308.801 76,298.5C 73.6079,232.683 92.2745,173.683 132,121.5C 139.61,112.884 148.11,105.384 157.5,99C 161.203,96.646 165.203,95.146 169.5,94.5 Z"/></g>
<g><path style="opacity:1" fill="#95e0f5" d="M 314.5,96.5 C 314.735,95.9033 315.235,95.5699 316,95.5C 356.719,111.553 387.386,138.886 408,177.5C 410.344,182.498 412.344,187.498 414,192.5C 381.268,159.933 348.102,127.933 314.5,96.5 Z"/></g>
<g><path style="opacity:1" fill="#050201" d="M 282.5,118.5 C 290.885,117.716 294.051,121.383 292,129.5C 282.167,139.333 272.333,149.167 262.5,159C 257.053,161.836 253.22,160.336 251,154.5C 250.365,152.365 250.699,150.365 252,148.5C 262.062,138.271 272.228,128.271 282.5,118.5 Z"/></g>
<g><path style="opacity:1" fill="#172226" d="M 219.5,88.5 C 219.56,87.9569 219.893,87.6236 220.5,87.5C 221.5,133.162 221.833,178.828 221.5,224.5C 220.833,179.167 220.167,133.833 219.5,88.5 Z"/></g>
<g><path style="opacity:1" fill="#040201" d="M 307.5,143.5 C 315.885,142.716 319.051,146.383 317,154.5C 307.167,164.333 297.333,174.167 287.5,184C 282.053,186.836 278.22,185.336 276,179.5C 275.365,177.365 275.699,175.365 277,173.5C 287.062,163.271 297.228,153.271 307.5,143.5 Z"/></g>
<g><path style="opacity:1" fill="#bd2929" d="M 158.5,160.5 C 162.274,161.142 165.607,162.642 168.5,165C 166.125,172.376 161.958,173.209 156,167.5C 155.162,164.519 155.995,162.186 158.5,160.5 Z"/></g>
<g><path style="opacity:1" fill="#040201" d="M 332.5,168.5 C 340.775,167.706 343.942,171.373 342,179.5C 332.167,189.333 322.333,199.167 312.5,209C 307.053,211.836 303.22,210.336 301,204.5C 300.365,202.365 300.699,200.365 302,198.5C 312.062,188.271 322.228,178.271 332.5,168.5 Z"/></g>
<g><path style="opacity:1" fill="#c32a2a" d="M 130.5,209.5 C 135.925,210.752 141.258,212.419 146.5,214.5C 147.408,217.614 146.575,220.281 144,222.5C 139.5,221 135,219.5 130.5,218C 127.899,215.17 127.899,212.337 130.5,209.5 Z"/></g>
<g><path style="opacity:1" fill="#fdf0e0" d="M 293.5,264.5 C 308.936,272.325 321.769,283.325 332,297.5C 338.697,304.532 345.697,311.198 353,317.5C 365.533,331.984 369.533,348.65 365,367.5C 362.278,375.282 358.278,382.282 353,388.5C 341.148,401.051 329.648,413.884 318.5,427C 310.787,433.518 302.454,439.018 293.5,443.5C 283.88,444.615 274.214,444.782 264.5,444C 255.788,441.875 247.122,439.541 238.5,437C 227.21,435.478 215.877,435.144 204.5,436C 181.868,445.632 162.368,441.465 146,423.5C 131.625,401.329 135.458,383.162 157.5,369C 171.003,365.828 178.337,357.328 179.5,343.5C 170.711,317.279 178.044,297.113 201.5,283C 220.712,276.596 240.045,270.596 259.5,265C 270.816,263.218 282.149,263.052 293.5,264.5 Z"/></g>
<g><path style="opacity:1" fill="#bc2929" d="M 122.5,264.5 C 126.07,265.246 129.404,266.579 132.5,268.5C 132.84,275.012 130.174,276.845 124.5,274C 118.903,271.732 118.236,268.565 122.5,264.5 Z"/></g>
<g><path style="opacity:1" fill="#fceccf" d="M 293.5,264.5 C 311.183,267.343 326.85,274.51 340.5,286C 352.603,300.105 365.436,313.605 379,326.5C 389.568,342.738 390.235,359.404 381,376.5C 368.167,391.333 355.333,406.167 342.5,421C 335.422,426.289 328.255,431.456 321,436.5C 320.503,438.81 320.337,441.143 320.5,443.5C 314.851,446.494 308.851,448.494 302.5,449.5C 300.565,445.897 297.565,443.897 293.5,443.5C 302.454,439.018 310.787,433.518 318.5,427C 329.648,413.884 341.148,401.051 353,388.5C 358.278,382.282 362.278,375.282 365,367.5C 369.533,348.65 365.533,331.984 353,317.5C 345.697,311.198 338.697,304.532 332,297.5C 321.769,283.325 308.936,272.325 293.5,264.5 Z"/></g>
<g><path style="opacity:1" fill="#c72b2b" d="M 110.5,283.5 C 115.438,286.596 120.772,288.929 126.5,290.5C 126.833,291.333 127.167,292.167 127.5,293C 125.402,303.409 123.902,313.909 123,324.5C 118.102,337.368 109.269,341.701 96.5,337.5C 98.3904,337.703 99.8904,337.037 101,335.5C 102.608,332.618 103.941,329.618 105,326.5C 106.588,312.127 108.422,297.794 110.5,283.5 Z"/></g>
<g><path style="opacity:1" fill="#050403" d="M 268.5,300.5 C 298.346,297.568 319.512,309.568 332,336.5C 339.894,364.533 332.061,387.033 308.5,404C 280.465,417.946 255.965,413.446 235,390.5C 220.581,368.889 219.914,346.889 233,324.5C 242.12,312.366 253.954,304.366 268.5,300.5 Z"/></g>
<g><path style="opacity:1" fill="#fca512" d="M 278.5,315.5 C 302.354,336.075 305.854,359.742 289,386.5C 285.604,390.065 282.104,393.398 278.5,396.5C 260.441,395.885 247.941,387.218 241,370.5C 234.676,346.989 242.176,329.489 263.5,318C 268.295,315.967 273.295,315.134 278.5,315.5 Z"/></g>
<g><path style="opacity:1" fill="#fa9601" d="M 278.5,315.5 C 303.865,316.864 317.865,330.198 320.5,355.5C 318.298,381.369 304.298,395.036 278.5,396.5C 282.104,393.398 285.604,390.065 289,386.5C 305.854,359.742 302.354,336.075 278.5,315.5 Z"/></g>
</svg>
