<?xml version="1.0" encoding="UTF-8"?>
<!DOCTYPE svg PUBLIC "-//W3C//DTD SVG 1.1//EN" "http://www.w3.org/Graphics/SVG/1.1/DTD/svg11.dtd">
<svg xmlns="http://www.w3.org/2000/svg" version="1.1" width="512px" height="512px" style="shape-rendering:geometricPrecision; text-rendering:geometricPrecision; image-rendering:optimizeQuality; fill-rule:evenodd; clip-rule:evenodd" xmlns:xlink="http://www.w3.org/1999/xlink">
<g><path style="opacity:0.984" fill="#030302" d="M 335.5,-0.5 C 343.167,-0.5 350.833,-0.5 358.5,-0.5C 361.725,1.21311 364.559,3.54644 367,6.5C 371.264,16.4595 375.431,26.4595 379.5,36.5C 388.148,37.3319 396.814,37.8319 405.5,38C 411.841,39.6748 416.341,43.5082 419,49.5C 421.333,55.8333 423.667,62.1667 426,68.5C 427.018,77.1243 426.518,85.6243 424.5,94C 424.862,95.2247 425.362,96.3914 426,97.5C 426.667,106.167 426.667,114.833 426,123.5C 423.667,129.833 419.333,134.167 413,136.5C 411.332,155.175 409.999,173.842 409,192.5C 414.041,195.87 417.041,200.537 418,206.5C 418.017,216.277 417.017,225.944 415,235.5C 413.152,238.041 410.652,239.041 407.5,238.5C 404.852,238.262 403.018,236.928 402,234.5C 401.717,225.24 401.55,216.074 401.5,207C 312.167,206.5 222.834,206.333 133.5,206.5C 125.493,206.334 117.493,206.5 109.5,207C 108.903,208.062 108.57,209.228 108.5,210.5C 114.011,282.097 120.011,353.597 126.5,425C 212.668,425.832 298.668,425.666 384.5,424.5C 389.577,371.373 394.077,318.04 398,264.5C 399.641,260.677 402.474,258.677 406.5,258.5C 411.878,259.563 414.211,262.897 413.5,268.5C 409.333,320.5 405.167,372.5 401,424.5C 400.219,432.439 396.052,437.439 388.5,439.5C 387.382,458.194 385.882,476.861 384,495.5C 381.315,503.35 376.148,508.684 368.5,511.5C 293.167,511.5 217.833,511.5 142.5,511.5C 134.852,508.684 129.685,503.35 127,495.5C 125.058,476.866 123.558,458.199 122.5,439.5C 114.948,437.439 110.781,432.439 110,424.5C 104.37,352.644 98.5368,280.811 92.5,209C 92.6268,202.078 95.6268,196.911 101.5,193.5C 101.833,192.333 102.167,191.167 102.5,190C 100.862,172.18 99.3622,154.347 98,136.5C 91.6667,134.167 87.3333,129.833 85,123.5C 84.3333,114.833 84.3333,106.167 85,97.5C 86.8048,94.8779 86.8048,92.2113 85,89.5C 84.3333,82.5 84.3333,75.5 85,68.5C 87.3333,62.1667 89.6667,55.8333 92,49.5C 94.6587,43.5082 99.1587,39.6748 105.5,38C 114.167,37.6667 122.833,37.3333 131.5,37C 134.265,29.9714 137.431,23.138 141,16.5C 143.251,14.6227 145.751,13.1227 148.5,12C 162.125,10.2942 175.791,9.62751 189.5,10C 191.734,11.6379 193.067,13.8045 193.5,16.5C 192.933,20.3237 190.933,22.9904 187.5,24.5C 176.152,25.0619 164.818,25.8952 153.5,27C 150.962,30.4467 149.295,34.28 148.5,38.5C 219.833,38.5 291.167,38.5 362.5,38.5C 361.602,33.466 359.935,28.7994 357.5,24.5C 356.83,21.3271 355.664,18.3271 354,15.5C 351.925,14.8656 349.759,14.5323 347.5,14.5C 305.487,17.0008 263.487,19.6675 221.5,22.5C 216.395,22.7168 213.395,20.3834 212.5,15.5C 213.168,9.6721 216.502,6.83876 222.5,7C 260.344,4.82407 298.011,2.32407 335.5,-0.5 Z"/></g>
<g><path style="opacity:0.994" fill="#8a828a" d="M 357.5,24.5 C 330.008,25.8332 302.175,26.4998 274,26.5C 246.167,26.3333 218.333,26.1667 190.5,26C 189.263,25.7679 188.263,25.2679 187.5,24.5C 190.933,22.9904 192.933,20.3237 193.5,16.5C 199.845,16.3473 206.178,16.014 212.5,15.5C 213.395,20.3834 216.395,22.7168 221.5,22.5C 263.487,19.6675 305.487,17.0008 347.5,14.5C 349.759,14.5323 351.925,14.8656 354,15.5C 355.664,18.3271 356.83,21.3271 357.5,24.5 Z"/></g>
<g><path style="opacity:1" fill="#726974" d="M 187.5,24.5 C 188.263,25.2679 189.263,25.7679 190.5,26C 218.333,26.1667 246.167,26.3333 274,26.5C 302.175,26.4998 330.008,25.8332 357.5,24.5C 359.935,28.7994 361.602,33.466 362.5,38.5C 291.167,38.5 219.833,38.5 148.5,38.5C 149.295,34.28 150.962,30.4467 153.5,27C 164.818,25.8952 176.152,25.0619 187.5,24.5 Z"/></g>
<g><path style="opacity:1" fill="#736a75" d="M 122.5,53.5 C 120.683,58.3365 120.183,63.3365 121,68.5C 122.167,71 124,72.8333 126.5,74C 173.833,74.1667 221.167,74.3333 268.5,74.5C 316.171,74.4999 363.505,73.8333 410.5,72.5C 411.823,76.9001 411.823,81.4001 410.5,86C 307.167,86.6667 203.833,86.6667 100.5,86C 99.3676,81.5868 99.2009,77.0868 100,72.5C 102.333,66.5 104.667,60.5 107,54.5C 112.072,53.5286 117.238,53.1953 122.5,53.5 Z"/></g>
<g><path style="opacity:1" fill="#8d858d" d="M 122.5,53.5 C 216.167,53.3333 309.834,53.5 403.5,54C 406.526,59.9131 408.86,66.0798 410.5,72.5C 363.505,73.8333 316.171,74.4999 268.5,74.5C 221.167,74.3333 173.833,74.1667 126.5,74C 124,72.8333 122.167,71 121,68.5C 120.183,63.3365 120.683,58.3365 122.5,53.5 Z"/></g>
<g><path style="opacity:1" fill="#726974" d="M 113.5,101.5 C 114.588,105.09 116.921,107.59 120.5,109C 217.166,109.5 313.833,109.667 410.5,109.5C 410.5,106.833 410.5,104.167 410.5,101.5C 411.826,107.568 411.826,113.734 410.5,120C 307.167,120.667 203.833,120.667 100.5,120C 99.5236,113.924 99.1903,107.758 99.5,101.5C 104.167,101.5 108.833,101.5 113.5,101.5 Z"/></g>
<g><path style="opacity:1" fill="#8c848c" d="M 113.5,101.5 C 212.5,101.5 311.5,101.5 410.5,101.5C 410.5,104.167 410.5,106.833 410.5,109.5C 313.833,109.667 217.166,109.5 120.5,109C 116.921,107.59 114.588,105.09 113.5,101.5 Z"/></g>
<g><path style="opacity:1" fill="#f2dab2" d="M 128.5,135.5 C 129.376,153.847 130.376,172.181 131.5,190.5C 126.52,191.015 121.854,190.348 117.5,188.5C 116.52,170.804 115.187,153.137 113.5,135.5C 118.5,135.5 123.5,135.5 128.5,135.5 Z"/></g>
<g><path style="opacity:1" fill="#f8e9c6" d="M 128.5,135.5 C 218.167,135.5 307.833,135.5 397.5,135.5C 395.813,153.137 394.48,170.804 393.5,188.5C 306.379,190.493 219.046,191.16 131.5,190.5C 130.376,172.181 129.376,153.847 128.5,135.5 Z"/></g>
<g><path style="opacity:1" fill="#b6aa90" d="M 117.5,188.5 C 121.854,190.348 126.52,191.015 131.5,190.5C 219.046,191.16 306.379,190.493 393.5,188.5C 393.5,189.5 393.5,190.5 393.5,191.5C 301.5,191.5 209.5,191.5 117.5,191.5C 117.5,190.5 117.5,189.5 117.5,188.5 Z"/></g>
<g><path style="opacity:1" fill="#ebbc82" d="M 133.5,206.5 C 140.272,279.099 146.272,351.766 151.5,424.5C 229.167,424.5 306.833,424.5 384.5,424.5C 298.668,425.666 212.668,425.832 126.5,425C 120.011,353.597 114.011,282.097 108.5,210.5C 108.57,209.228 108.903,208.062 109.5,207C 117.493,206.5 125.493,206.334 133.5,206.5 Z"/></g>
<g><path style="opacity:1" fill="#f5d08f" d="M 133.5,206.5 C 222.834,206.333 312.167,206.5 401.5,207C 401.55,216.074 401.717,225.24 402,234.5C 403.018,236.928 404.852,238.262 407.5,238.5C 407.046,245.159 406.713,251.826 406.5,258.5C 402.474,258.677 399.641,260.677 398,264.5C 394.077,318.04 389.577,371.373 384.5,424.5C 306.833,424.5 229.167,424.5 151.5,424.5C 146.272,351.766 140.272,279.099 133.5,206.5 Z"/></g>
<g><path style="opacity:1" fill="#050402" d="M 182.5,232.5 C 231.168,232.333 279.834,232.5 328.5,233C 332.212,235.513 333.378,239.013 332,243.5C 330.786,245.049 329.286,246.215 327.5,247C 279.167,247.667 230.833,247.667 182.5,247C 177.235,242.076 177.235,237.242 182.5,232.5 Z"/></g>
<g><path style="opacity:1" fill="#040302" d="M 195.5,342.5 C 198.755,342.014 201.422,343.014 203.5,345.5C 205.874,354.75 210.208,362.917 216.5,370C 217.416,370.374 218.25,370.874 219,371.5C 219.339,368.12 219.839,364.787 220.5,361.5C 222.572,355.694 224.905,350.028 227.5,344.5C 225.007,336.844 222.507,329.177 220,321.5C 219.448,312.127 219.448,302.793 220,293.5C 211.702,298.968 206.868,306.635 205.5,316.5C 203.841,321.006 200.508,323.006 195.5,322.5C 190.811,319.823 189.311,315.823 191,310.5C 198.355,285.429 214.855,274.263 240.5,277C 257.215,282.217 267.549,293.384 271.5,310.5C 296.539,305.772 313.372,315.439 322,339.5C 323.276,355.006 319.276,369.006 310,381.5C 298.2,397.316 282.7,407.483 263.5,412C 244.887,413.363 231.221,405.863 222.5,389.5C 202.554,382.058 192.054,367.724 191,346.5C 192.397,344.93 193.897,343.596 195.5,342.5 Z"/></g>
<g><path style="opacity:1" fill="#ac6969" d="M 236.5,291.5 C 247.956,294.961 254.956,302.628 257.5,314.5C 257.471,316.029 256.804,317.196 255.5,318C 249.985,321.925 244.652,326.092 239.5,330.5C 237.329,327.495 235.829,324.161 235,320.5C 234.05,310.726 234.55,301.059 236.5,291.5 Z"/></g>
<g><path style="opacity:1" fill="#ad6a6a" d="M 220.5,361.5 C 212.232,353.295 207.399,343.295 206,331.5C 205.501,326.511 205.334,321.511 205.5,316.5C 206.868,306.635 211.702,298.968 220,293.5C 219.448,302.793 219.448,312.127 220,321.5C 222.507,329.177 225.007,336.844 227.5,344.5C 224.905,350.028 222.572,355.694 220.5,361.5 Z"/></g>
<g><path style="opacity:1" fill="#9b5d5c" d="M 205.5,316.5 C 205.334,321.511 205.501,326.511 206,331.5C 207.399,343.295 212.232,353.295 220.5,361.5C 219.839,364.787 219.339,368.12 219,371.5C 218.25,370.874 217.416,370.374 216.5,370C 210.208,362.917 205.874,354.75 203.5,345.5C 201.422,343.014 198.755,342.014 195.5,342.5C 195.5,335.833 195.5,329.167 195.5,322.5C 200.508,323.006 203.841,321.006 205.5,316.5 Z"/></g>
<g><path style="opacity:1" fill="#ac6969" d="M 244.5,381.5 C 243.21,380.942 242.377,379.942 242,378.5C 240.032,370.32 240.698,362.32 244,354.5C 246.271,349.62 248.771,344.954 251.5,340.5C 260.177,331.16 270.844,325.494 283.5,323.5C 286.131,323.321 288.465,323.987 290.5,325.5C 281.912,331.044 274.745,338.044 269,346.5C 265.59,354.319 261.923,361.986 258,369.5C 253.926,374.079 249.426,378.079 244.5,381.5 Z"/></g>
<g><path style="opacity:1" fill="#ac6969" d="M 302.5,335.5 C 305.168,336.457 306.668,338.457 307,341.5C 308.35,349.627 307.017,357.294 303,364.5C 293.046,382.463 278.046,393.463 258,397.5C 255.37,397.536 252.87,397.036 250.5,396C 257.596,390.908 264.096,385.074 270,378.5C 274.525,369.921 278.859,361.254 283,352.5C 288.806,345.849 295.306,340.182 302.5,335.5 Z"/></g>
<g><path style="opacity:1" fill="#995b5b" d="M 251.5,340.5 C 248.771,344.954 246.271,349.62 244,354.5C 240.698,362.32 240.032,370.32 242,378.5C 242.377,379.942 243.21,380.942 244.5,381.5C 242.492,383.268 240.326,384.934 238,386.5C 232.656,374.66 233.656,363.327 241,352.5C 244.282,348.241 247.782,344.241 251.5,340.5 Z"/></g>
<g><path style="opacity:1" fill="#13120f" d="M 372.5,448.5 C 372.5,445.833 372.5,443.167 372.5,440.5C 299.5,440.5 226.5,440.5 153.5,440.5C 148.5,440.5 143.5,440.5 138.5,440.5C 138.5,443.167 138.5,445.833 138.5,448.5C 137.523,445.713 137.19,442.713 137.5,439.5C 216.167,439.5 294.833,439.5 373.5,439.5C 373.81,442.713 373.477,445.713 372.5,448.5 Z"/></g>
<g><path style="opacity:1" fill="#f3dab2" d="M 153.5,440.5 C 154.276,447.137 154.609,453.804 154.5,460.5C 149.5,460.5 144.5,460.5 139.5,460.5C 139.605,456.452 139.272,452.452 138.5,448.5C 138.5,445.833 138.5,443.167 138.5,440.5C 143.5,440.5 148.5,440.5 153.5,440.5 Z"/></g>
<g><path style="opacity:1" fill="#f8e9c6" d="M 153.5,440.5 C 226.5,440.5 299.5,440.5 372.5,440.5C 372.5,443.167 372.5,445.833 372.5,448.5C 371.728,452.452 371.395,456.452 371.5,460.5C 354.497,460.333 337.497,460.5 320.5,461C 317.634,462.393 316.301,464.726 316.5,468C 316.301,471.274 317.634,473.607 320.5,475C 337.163,475.5 353.83,475.667 370.5,475.5C 370.768,477.099 370.434,478.432 369.5,479.5C 302.499,479.667 235.499,479.5 168.5,479C 166.09,478.4 164.09,477.234 162.5,475.5C 205.168,475.667 247.835,475.5 290.5,475C 295.143,472.928 296.643,469.428 295,464.5C 293.786,462.951 292.286,461.785 290.5,461C 245.168,460.5 199.835,460.333 154.5,460.5C 154.609,453.804 154.276,447.137 153.5,440.5 Z"/></g>
<g><path style="opacity:1" fill="#f3dab2" d="M 162.5,475.5 C 164.09,477.234 166.09,478.4 168.5,479C 235.499,479.5 302.499,479.667 369.5,479.5C 369.666,483.514 369.499,487.514 369,491.5C 368.167,493.667 366.667,495.167 364.5,496C 291.833,496.667 219.167,496.667 146.5,496C 144.333,495.167 142.833,493.667 142,491.5C 141.609,486.146 141.109,480.812 140.5,475.5C 147.833,475.5 155.167,475.5 162.5,475.5 Z"/></g>
</svg>
