<svg id="svg" version="1.1" xmlns="http://www.w3.org/2000/svg" xmlns:xlink="http://www.w3.org/1999/xlink" width="400" height="400" viewBox="0, 0, 400,400"><g id="svgg"><path id="path0" d="M95.646 282.554 C 81.503 296.698,70.423 307.467,69.509 307.954 C 65.515 310.086,61.538 308.564,58.130 303.600 C 47.220 287.705,22.894 291.583,16.730 310.200 C 15.838 312.894,16.084 321.712,17.125 324.360 C 23.249 339.931,41.993 344.821,54.434 334.094 C 59.622 329.621,64.638 329.832,67.920 334.662 C 70.083 337.845,69.395 341.523,65.874 345.600 C 52.791 360.749,63.244 383.794,83.200 383.798 C 105.939 383.802,115.100 354.705,96.400 341.870 C 91.454 338.475,89.890 334.410,92.030 330.512 C 92.487 329.680,103.946 317.901,117.495 304.334 L 142.129 279.669 140.470 277.785 C 138.312 275.333,136.405 272.438,134.788 269.157 C 133.569 266.686,133.314 266.431,130.843 265.212 C 127.591 263.609,124.670 261.691,122.288 259.594 C 121.292 258.717,120.414 258.000,120.337 258.000 C 120.260 258.000,109.149 269.049,95.646 282.554 " stroke="none" fill="#eaeaf2" fill-rule="evenodd"></path><path id="path1" d="M258.100 0.275 C 256.505 0.363,255.200 0.607,255.200 0.818 C 255.200 1.028,254.120 1.200,252.800 1.200 C 251.467 1.200,250.400 1.378,250.400 1.600 C 250.400 1.820,249.590 2.000,248.600 2.000 C 247.610 2.000,246.800 2.180,246.800 2.400 C 246.800 2.620,246.091 2.800,245.224 2.800 C 244.357 2.800,243.536 2.980,243.400 3.200 C 243.264 3.420,242.533 3.600,241.776 3.600 C 241.019 3.600,240.400 3.780,240.400 4.000 C 240.400 4.220,239.860 4.400,239.200 4.400 C 238.540 4.400,238.000 4.580,238.000 4.800 C 238.000 5.020,237.460 5.200,236.800 5.200 C 236.140 5.200,235.600 5.380,235.600 5.600 C 235.600 5.820,235.060 6.000,234.400 6.000 C 233.740 6.000,233.200 6.180,233.200 6.400 C 233.200 6.620,232.660 6.800,232.000 6.800 C 231.340 6.800,230.800 6.980,230.800 7.200 C 230.800 7.420,230.361 7.600,229.824 7.600 C 229.287 7.600,228.750 7.757,228.632 7.948 C 228.514 8.140,227.874 8.405,227.211 8.538 C 226.547 8.671,225.250 9.144,224.327 9.590 C 223.405 10.035,222.414 10.400,222.125 10.400 C 221.836 10.400,221.600 10.580,221.600 10.800 C 221.600 11.020,221.240 11.200,220.800 11.200 C 220.360 11.200,220.000 11.380,220.000 11.600 C 220.000 11.820,219.640 12.000,219.200 12.000 C 218.760 12.000,218.400 12.180,218.400 12.400 C 218.400 12.620,218.040 12.800,217.600 12.800 C 217.160 12.800,216.800 12.980,216.800 13.200 C 216.800 13.420,216.440 13.600,216.000 13.600 C 215.560 13.600,215.200 13.780,215.200 14.000 C 215.200 14.220,214.840 14.400,214.400 14.400 C 213.960 14.400,213.600 14.580,213.600 14.800 C 213.600 15.020,213.364 15.200,213.075 15.200 C 212.787 15.200,212.202 15.515,211.775 15.900 C 211.349 16.285,210.460 16.869,209.800 17.197 C 209.140 17.526,208.309 18.111,207.953 18.497 C 207.597 18.884,207.052 19.200,206.741 19.200 C 206.431 19.200,205.917 19.560,205.600 20.000 C 205.283 20.440,204.743 20.800,204.400 20.800 C 204.057 20.800,203.517 21.160,203.200 21.600 C 202.883 22.040,202.375 22.400,202.072 22.400 C 201.769 22.400,201.017 22.940,200.400 23.600 C 199.783 24.260,198.991 24.800,198.640 24.800 C 198.288 24.800,198.000 24.935,197.999 25.100 C 197.999 25.265,197.089 26.020,195.978 26.777 C 194.866 27.535,193.292 28.891,192.478 29.790 C 191.665 30.690,190.199 32.050,189.221 32.813 C 186.834 34.674,183.614 37.882,182.408 39.600 C 181.867 40.370,180.689 41.665,179.790 42.478 C 178.891 43.292,177.535 44.866,176.777 45.978 C 176.020 47.089,175.265 47.999,175.100 47.999 C 174.935 48.000,174.800 48.288,174.800 48.640 C 174.800 48.991,174.260 49.783,173.600 50.400 C 172.940 51.017,172.400 51.769,172.400 52.072 C 172.400 52.375,172.040 52.883,171.600 53.200 C 171.160 53.517,170.800 54.057,170.800 54.400 C 170.800 54.743,170.440 55.283,170.000 55.600 C 169.560 55.917,169.200 56.457,169.200 56.800 C 169.200 57.143,168.840 57.683,168.400 58.000 C 167.960 58.317,167.600 58.807,167.600 59.088 C 167.600 59.370,167.420 59.600,167.200 59.600 C 166.980 59.600,166.800 59.878,166.800 60.217 C 166.800 60.556,166.440 61.220,166.000 61.692 C 165.560 62.164,165.200 62.787,165.200 63.075 C 165.200 63.364,165.020 63.600,164.800 63.600 C 164.580 63.600,164.400 63.960,164.400 64.400 C 164.400 64.840,164.220 65.200,164.000 65.200 C 163.780 65.200,163.600 65.560,163.600 66.000 C 163.600 66.440,163.420 66.800,163.200 66.800 C 162.980 66.800,162.800 67.160,162.800 67.600 C 162.800 68.040,162.620 68.400,162.400 68.400 C 162.180 68.400,162.000 68.760,162.000 69.200 C 162.000 69.640,161.820 70.000,161.600 70.000 C 161.380 70.000,161.200 70.360,161.200 70.800 C 161.200 71.240,161.020 71.600,160.800 71.600 C 160.580 71.600,160.400 71.836,160.400 72.125 C 160.400 72.414,160.035 73.405,159.590 74.327 C 159.144 75.250,158.671 76.547,158.538 77.211 C 158.405 77.874,158.140 78.514,157.948 78.632 C 157.757 78.750,157.600 79.287,157.600 79.824 C 157.600 80.361,157.420 80.800,157.200 80.800 C 156.980 80.800,156.800 81.340,156.800 82.000 C 156.800 82.660,156.620 83.200,156.400 83.200 C 156.180 83.200,156.000 83.740,156.000 84.400 C 156.000 85.060,155.820 85.600,155.600 85.600 C 155.380 85.600,155.200 86.140,155.200 86.800 C 155.200 87.460,155.020 88.000,154.800 88.000 C 154.580 88.000,154.400 88.540,154.400 89.200 C 154.400 89.860,154.220 90.400,154.000 90.400 C 153.780 90.400,153.600 91.019,153.600 91.776 C 153.600 92.533,153.420 93.264,153.200 93.400 C 152.980 93.536,152.800 94.267,152.800 95.024 C 152.800 95.781,152.620 96.400,152.400 96.400 C 152.180 96.400,152.000 97.300,152.000 98.400 C 152.000 99.500,151.820 100.400,151.600 100.400 C 151.378 100.400,151.200 101.467,151.200 102.800 C 151.200 104.133,151.022 105.200,150.800 105.200 C 150.575 105.200,150.400 106.325,150.400 107.776 C 150.400 109.193,150.220 110.464,150.000 110.600 C 149.780 110.736,149.600 111.971,149.600 113.344 C 149.600 114.717,149.435 116.011,149.232 116.220 C 148.888 116.576,148.776 117.460,148.172 124.600 C 148.042 126.140,147.770 127.571,147.568 127.780 C 147.365 127.989,147.200 129.294,147.200 130.680 C 147.200 132.066,147.035 133.200,146.834 133.200 C 146.633 133.200,146.374 134.325,146.258 135.700 C 146.143 137.075,145.851 139.370,145.609 140.800 C 145.368 142.230,145.070 144.210,144.946 145.200 C 144.823 146.190,144.560 147.171,144.361 147.380 C 144.163 147.589,144.000 148.523,144.000 149.456 C 144.000 150.389,143.820 151.264,143.600 151.400 C 143.380 151.536,143.200 152.417,143.200 153.357 C 143.200 154.297,143.065 155.201,142.901 155.366 C 142.637 155.629,142.082 158.101,141.341 162.304 C 141.215 163.021,140.951 163.706,140.756 163.827 C 140.560 163.948,140.400 164.566,140.400 165.200 C 140.400 165.834,140.220 166.464,140.000 166.600 C 139.780 166.736,139.600 167.377,139.600 168.024 C 139.600 168.671,139.420 169.200,139.200 169.200 C 138.980 169.200,138.800 169.740,138.800 170.400 C 138.800 171.060,138.620 171.600,138.400 171.600 C 138.180 171.600,138.000 171.960,138.000 172.400 C 138.000 172.840,137.820 173.200,137.600 173.200 C 137.380 173.200,137.200 173.740,137.200 174.400 C 137.200 175.060,137.065 175.601,136.900 175.603 C 136.541 175.607,135.600 177.544,135.600 178.280 C 135.600 178.566,135.420 178.800,135.200 178.800 C 134.980 178.800,134.800 179.250,134.800 179.800 C 134.800 180.350,134.620 180.800,134.400 180.800 C 134.180 180.800,134.000 181.145,134.000 181.567 C 134.000 181.988,133.865 182.393,133.700 182.467 C 133.324 182.634,132.025 184.764,131.729 185.700 C 131.607 186.085,131.348 186.400,131.153 186.400 C 130.959 186.400,130.800 186.760,130.800 187.200 C 130.800 187.640,130.632 188.000,130.427 188.000 C 130.222 188.000,129.940 188.359,129.801 188.798 C 129.662 189.236,129.333 189.821,129.072 190.098 C 128.810 190.374,127.877 191.659,126.998 192.952 C 126.119 194.246,124.725 196.001,123.900 196.853 C 123.075 197.704,122.400 198.489,122.400 198.596 C 122.400 198.920,121.140 200.356,118.300 203.270 C 116.815 204.793,115.600 206.182,115.600 206.357 C 115.600 206.532,115.159 207.189,114.620 207.816 C 113.261 209.398,110.926 214.216,109.975 217.400 C 109.713 218.280,109.313 219.450,109.087 220.000 C 108.506 221.417,108.245 234.541,108.745 237.200 C 109.468 241.041,109.650 241.779,110.100 242.705 C 110.646 243.826,112.935 241.379,87.683 266.660 C 68.731 285.632,65.600 288.488,65.600 286.800 C 65.600 286.580,65.402 286.400,65.160 286.400 C 64.919 286.400,64.217 285.860,63.600 285.200 C 62.983 284.540,62.231 284.000,61.928 284.000 C 61.625 284.000,61.117 283.640,60.800 283.200 C 60.483 282.760,59.918 282.400,59.545 282.400 C 59.172 282.400,58.807 282.265,58.733 282.100 C 58.513 281.605,53.546 279.200,52.744 279.200 C 52.335 279.200,52.000 279.020,52.000 278.800 C 52.000 278.580,51.381 278.400,50.624 278.400 C 49.867 278.400,49.136 278.220,49.000 278.000 C 48.864 277.780,47.964 277.600,47.000 277.600 C 46.036 277.600,45.136 277.420,45.000 277.200 C 44.670 276.667,33.730 276.667,33.400 277.200 C 33.264 277.420,32.274 277.600,31.200 277.600 C 30.126 277.600,29.136 277.780,29.000 278.000 C 28.864 278.220,28.234 278.400,27.600 278.400 C 26.966 278.400,26.336 278.580,26.200 278.800 C 26.064 279.020,25.513 279.200,24.976 279.200 C 24.439 279.200,24.000 279.380,24.000 279.600 C 24.000 279.820,23.640 280.000,23.200 280.000 C 22.760 280.000,22.400 280.180,22.400 280.400 C 22.400 280.620,22.040 280.800,21.600 280.800 C 21.160 280.800,20.800 280.980,20.800 281.200 C 20.800 281.420,20.440 281.600,20.000 281.600 C 19.560 281.600,19.200 281.780,19.200 282.000 C 19.200 282.220,18.880 282.400,18.488 282.400 C 18.097 282.400,17.517 282.760,17.200 283.200 C 16.883 283.640,16.387 284.000,16.098 284.000 C 15.810 284.000,14.982 284.585,14.259 285.300 C 13.536 286.015,12.384 287.022,11.700 287.539 C 11.015 288.055,9.948 289.214,9.328 290.114 C 8.707 291.014,7.840 292.136,7.400 292.606 C 5.867 294.243,5.200 295.213,5.200 295.805 C 5.200 296.132,5.048 296.400,4.863 296.400 C 4.677 296.400,4.118 297.255,3.619 298.300 C 3.120 299.345,2.552 300.513,2.356 300.895 C 2.160 301.277,2.000 301.862,2.000 302.195 C 2.000 302.528,1.820 302.800,1.600 302.800 C 1.380 302.800,1.200 303.325,1.200 303.967 C 1.200 304.608,0.975 305.208,0.700 305.300 C -0.026 305.542,-0.026 328.058,0.700 328.300 C 0.975 328.392,1.200 328.891,1.200 329.410 C 1.200 329.928,1.380 330.464,1.600 330.600 C 1.820 330.736,2.000 331.197,2.000 331.624 C 2.000 332.051,2.180 332.400,2.400 332.400 C 2.620 332.400,2.800 332.760,2.800 333.200 C 2.800 333.640,2.980 334.000,3.200 334.000 C 3.420 334.000,3.600 334.234,3.600 334.520 C 3.600 335.256,4.541 337.193,4.900 337.197 C 5.065 337.199,5.200 337.520,5.200 337.912 C 5.200 338.303,5.560 338.883,6.000 339.200 C 6.440 339.517,6.800 339.923,6.800 340.103 C 6.800 340.825,14.263 348.426,15.700 349.168 C 16.305 349.480,16.800 349.885,16.800 350.068 C 16.800 350.250,17.036 350.400,17.325 350.400 C 17.613 350.400,18.236 350.760,18.708 351.200 C 19.180 351.640,19.844 352.000,20.183 352.000 C 20.522 352.000,20.800 352.180,20.800 352.400 C 20.800 352.620,21.160 352.800,21.600 352.800 C 22.040 352.800,22.400 352.980,22.400 353.200 C 22.400 353.420,22.940 353.600,23.600 353.600 C 24.260 353.600,24.800 353.780,24.800 354.000 C 24.800 354.220,25.149 354.400,25.576 354.400 C 26.003 354.400,26.464 354.580,26.600 354.800 C 26.736 355.020,27.366 355.200,28.000 355.200 C 28.634 355.200,29.264 355.380,29.400 355.600 C 29.536 355.820,30.616 356.000,31.800 356.000 C 32.984 356.000,34.064 356.180,34.200 356.400 C 34.340 356.627,36.337 356.800,38.824 356.800 L 43.200 356.800 43.200 361.176 C 43.200 363.663,43.373 365.660,43.600 365.800 C 43.820 365.936,44.000 367.016,44.000 368.200 C 44.000 369.384,44.180 370.464,44.400 370.600 C 44.620 370.736,44.800 371.289,44.800 371.829 C 44.800 372.369,44.980 373.168,45.200 373.605 C 45.420 374.042,45.780 374.758,46.000 375.195 C 46.220 375.632,46.400 376.352,46.400 376.795 C 46.400 377.238,46.580 377.600,46.800 377.600 C 47.020 377.600,47.200 377.960,47.200 378.400 C 47.200 378.840,47.380 379.200,47.600 379.200 C 47.820 379.200,48.000 379.560,48.000 380.000 C 48.000 380.440,48.180 380.800,48.400 380.800 C 48.620 380.800,48.800 381.025,48.801 381.300 C 48.801 381.575,49.341 382.430,50.000 383.200 C 50.659 383.970,51.199 384.745,51.199 384.923 C 51.200 385.100,52.634 386.630,54.386 388.323 C 58.617 392.410,59.510 393.200,59.897 393.200 C 60.077 393.200,60.483 393.560,60.800 394.000 C 61.117 394.440,61.697 394.800,62.088 394.800 C 62.480 394.800,62.801 394.935,62.803 395.100 C 62.807 395.459,64.744 396.400,65.480 396.400 C 65.766 396.400,66.000 396.580,66.000 396.800 C 66.000 397.020,66.360 397.200,66.800 397.200 C 67.240 397.200,67.600 397.380,67.600 397.600 C 67.600 397.820,67.949 398.000,68.376 398.000 C 68.803 398.000,69.264 398.180,69.400 398.400 C 69.536 398.620,70.051 398.800,70.544 398.800 C 71.037 398.800,71.665 399.025,71.940 399.300 C 72.663 400.023,94.459 400.023,94.700 399.300 C 94.792 399.025,95.392 398.800,96.033 398.800 C 96.675 398.800,97.200 398.620,97.200 398.400 C 97.200 398.180,97.472 398.000,97.805 398.000 C 98.138 398.000,98.723 397.840,99.105 397.644 C 99.487 397.448,100.655 396.880,101.700 396.381 C 102.745 395.882,103.600 395.323,103.600 395.137 C 103.600 394.952,103.868 394.800,104.195 394.800 C 104.787 394.800,105.757 394.133,107.394 392.600 C 107.864 392.160,108.986 391.293,109.886 390.672 C 110.786 390.052,111.945 388.985,112.461 388.300 C 112.978 387.616,113.985 386.464,114.700 385.741 C 115.415 385.018,116.000 384.190,116.000 383.902 C 116.000 383.613,116.360 383.117,116.800 382.800 C 117.240 382.483,117.600 381.903,117.600 381.512 C 117.600 381.120,117.780 380.800,118.000 380.800 C 118.220 380.800,118.400 380.440,118.400 380.000 C 118.400 379.560,118.580 379.200,118.800 379.200 C 119.020 379.200,119.200 378.840,119.200 378.400 C 119.200 377.960,119.380 377.600,119.600 377.600 C 119.820 377.600,120.000 377.240,120.000 376.800 C 120.000 376.360,120.180 376.000,120.400 376.000 C 120.620 376.000,120.800 375.460,120.800 374.800 C 120.800 374.140,120.980 373.600,121.200 373.600 C 121.420 373.600,121.600 373.071,121.600 372.424 C 121.600 371.777,121.780 371.136,122.000 371.000 C 122.220 370.864,122.400 369.874,122.400 368.800 C 122.400 367.726,122.580 366.736,122.800 366.600 C 123.333 366.270,123.333 355.330,122.800 355.000 C 122.580 354.864,122.400 353.964,122.400 353.000 C 122.400 352.036,122.220 351.136,122.000 351.000 C 121.780 350.864,121.600 350.133,121.600 349.376 C 121.600 348.619,121.420 348.000,121.200 348.000 C 120.980 348.000,120.800 347.665,120.800 347.256 C 120.800 346.454,118.395 341.487,117.900 341.267 C 117.735 341.193,117.600 340.828,117.600 340.455 C 117.600 340.082,117.240 339.517,116.800 339.200 C 116.360 338.883,116.000 338.375,116.000 338.072 C 116.000 337.769,115.460 337.017,114.800 336.400 C 114.140 335.783,113.600 335.081,113.600 334.840 C 113.600 334.598,113.420 334.400,113.200 334.400 C 111.488 334.400,114.382 331.238,134.427 311.210 C 154.203 291.450,157.600 288.334,157.600 289.956 C 157.600 290.152,158.185 290.411,158.900 290.532 C 159.615 290.653,161.280 290.958,162.600 291.210 C 165.753 291.813,179.004 291.556,179.680 290.880 C 179.944 290.616,180.529 290.397,180.980 290.394 C 182.942 290.380,190.080 287.193,192.162 285.400 C 192.801 284.850,193.474 284.400,193.657 284.400 C 193.839 284.400,195.476 282.913,197.294 281.097 C 199.112 279.280,201.230 277.346,202.000 276.800 C 202.770 276.253,204.023 275.220,204.783 274.503 C 205.544 273.786,206.333 273.200,206.536 273.200 C 206.740 273.200,207.197 272.884,207.553 272.497 C 207.909 272.111,208.695 271.540,209.300 271.230 C 209.905 270.919,210.400 270.515,210.400 270.332 C 210.400 270.150,210.678 270.000,211.017 270.000 C 211.356 270.000,212.020 269.640,212.492 269.200 C 212.964 268.760,213.587 268.400,213.875 268.400 C 214.164 268.400,214.400 268.220,214.400 268.000 C 214.400 267.780,214.760 267.600,215.200 267.600 C 215.640 267.600,216.000 267.420,216.000 267.200 C 216.000 266.980,216.360 266.800,216.800 266.800 C 217.240 266.800,217.600 266.620,217.600 266.400 C 217.600 266.180,217.960 266.000,218.400 266.000 C 218.840 266.000,219.200 265.820,219.200 265.600 C 219.200 265.380,219.560 265.200,220.000 265.200 C 220.440 265.200,220.800 265.020,220.800 264.800 C 220.800 264.580,221.250 264.400,221.800 264.400 C 222.350 264.400,222.800 264.220,222.800 264.000 C 222.800 263.780,223.160 263.600,223.600 263.600 C 224.040 263.600,224.400 263.420,224.400 263.200 C 224.400 262.980,224.940 262.800,225.600 262.800 C 226.260 262.800,226.800 262.620,226.800 262.400 C 226.800 262.180,227.160 262.000,227.600 262.000 C 228.040 262.000,228.400 261.820,228.400 261.600 C 228.400 261.380,228.940 261.200,229.600 261.200 C 230.260 261.200,230.800 261.020,230.800 260.800 C 230.800 260.580,231.329 260.400,231.976 260.400 C 232.623 260.400,233.264 260.220,233.400 260.000 C 233.536 259.780,234.089 259.600,234.629 259.600 C 235.169 259.600,235.923 259.441,236.305 259.248 C 237.395 258.695,242.203 257.600,243.542 257.600 C 244.208 257.600,244.864 257.420,245.000 257.200 C 245.136 256.980,245.946 256.800,246.800 256.800 C 247.654 256.800,248.464 256.620,248.600 256.400 C 248.736 256.180,249.611 256.000,250.544 256.000 C 251.477 256.000,252.411 255.837,252.620 255.639 C 252.977 255.300,254.136 255.102,259.000 254.552 C 260.100 254.428,261.171 254.163,261.380 253.963 C 261.589 253.763,262.793 253.600,264.056 253.600 C 265.319 253.600,266.464 253.420,266.600 253.200 C 266.736 252.980,267.996 252.800,269.400 252.800 C 270.804 252.800,272.064 252.620,272.200 252.400 C 272.336 252.180,273.607 252.000,275.024 252.000 C 276.475 252.000,277.600 251.825,277.600 251.600 C 277.600 251.369,278.859 251.200,280.576 251.200 C 282.213 251.200,283.664 251.020,283.800 250.800 C 283.936 250.580,285.196 250.400,286.600 250.400 C 288.004 250.400,289.264 250.220,289.400 250.000 C 289.536 249.780,290.807 249.600,292.224 249.600 C 293.675 249.600,294.800 249.425,294.800 249.200 C 294.800 248.978,295.867 248.800,297.200 248.800 C 298.533 248.800,299.600 248.622,299.600 248.400 C 299.600 248.180,300.399 248.000,301.376 248.000 C 302.353 248.000,303.264 247.820,303.400 247.600 C 303.536 247.380,304.267 247.200,305.024 247.200 C 305.781 247.200,306.400 247.020,306.400 246.800 C 306.400 246.580,307.120 246.400,308.000 246.400 C 308.880 246.400,309.600 246.220,309.600 246.000 C 309.600 245.780,310.140 245.600,310.800 245.600 C 311.460 245.600,312.000 245.420,312.000 245.200 C 312.000 244.980,312.540 244.800,313.200 244.800 C 313.860 244.800,314.400 244.620,314.400 244.400 C 314.400 244.180,314.940 244.000,315.600 244.000 C 316.260 244.000,316.800 243.820,316.800 243.600 C 316.800 243.380,317.340 243.200,318.000 243.200 C 318.660 243.200,319.200 243.020,319.200 242.800 C 319.200 242.580,319.740 242.400,320.400 242.400 C 321.060 242.400,321.600 242.243,321.600 242.050 C 321.600 241.857,322.139 241.592,322.798 241.460 C 323.456 241.329,324.750 240.856,325.673 240.410 C 326.595 239.965,327.586 239.600,327.875 239.600 C 328.164 239.600,328.400 239.420,328.400 239.200 C 328.400 238.980,328.760 238.800,329.200 238.800 C 329.640 238.800,330.000 238.620,330.000 238.400 C 330.000 238.180,330.360 238.000,330.800 238.000 C 331.240 238.000,331.600 237.820,331.600 237.600 C 331.600 237.380,331.960 237.200,332.400 237.200 C 332.840 237.200,333.200 237.020,333.200 236.800 C 333.200 236.580,333.560 236.400,334.000 236.400 C 334.440 236.400,334.800 236.220,334.800 236.000 C 334.800 235.780,335.160 235.600,335.600 235.600 C 336.040 235.600,336.400 235.420,336.400 235.200 C 336.400 234.980,336.636 234.800,336.925 234.800 C 337.213 234.800,337.798 234.485,338.225 234.100 C 338.651 233.715,339.540 233.131,340.200 232.803 C 340.860 232.474,341.691 231.889,342.047 231.503 C 342.403 231.116,342.948 230.800,343.259 230.800 C 343.569 230.800,344.083 230.440,344.400 230.000 C 344.717 229.560,345.257 229.200,345.600 229.200 C 345.943 229.200,346.483 228.840,346.800 228.400 C 347.117 227.960,347.625 227.600,347.928 227.600 C 348.231 227.600,348.983 227.060,349.600 226.400 C 350.217 225.740,350.917 225.200,351.157 225.200 C 351.552 225.200,352.849 224.227,354.225 222.900 C 354.510 222.625,354.914 222.400,355.123 222.400 C 355.332 222.400,356.291 221.545,357.253 220.500 C 358.215 219.455,359.665 218.105,360.474 217.500 C 362.487 215.996,365.620 212.886,366.781 211.240 C 367.308 210.493,368.834 208.783,370.172 207.440 C 371.511 206.098,373.054 204.326,373.603 203.503 C 374.151 202.679,374.735 202.004,374.900 202.003 C 375.065 202.001,375.200 201.712,375.200 201.360 C 375.200 201.009,375.740 200.217,376.400 199.600 C 377.060 198.983,377.600 198.231,377.600 197.928 C 377.600 197.625,377.960 197.117,378.400 196.800 C 378.840 196.483,379.200 195.943,379.200 195.600 C 379.200 195.257,379.560 194.717,380.000 194.400 C 380.440 194.083,380.800 193.569,380.800 193.259 C 380.800 192.948,381.129 192.403,381.530 192.047 C 381.932 191.691,382.516 190.815,382.828 190.100 C 383.140 189.385,383.531 188.800,383.698 188.800 C 383.864 188.800,384.000 188.530,384.000 188.200 C 384.000 187.870,384.146 187.600,384.325 187.600 C 384.504 187.600,384.898 186.970,385.200 186.200 C 385.502 185.430,385.896 184.800,386.075 184.800 C 386.254 184.800,386.400 184.440,386.400 184.000 C 386.400 183.560,386.580 183.200,386.800 183.200 C 387.020 183.200,387.200 182.840,387.200 182.400 C 387.200 181.960,387.380 181.600,387.600 181.600 C 387.820 181.600,388.000 181.240,388.000 180.800 C 388.000 180.360,388.180 180.000,388.400 180.000 C 388.620 180.000,388.800 179.640,388.800 179.200 C 388.800 178.760,388.959 178.400,389.153 178.400 C 389.348 178.400,389.598 177.995,389.710 177.500 C 389.913 176.600,391.391 172.816,392.050 171.505 C 392.243 171.123,392.400 170.448,392.400 170.005 C 392.400 169.562,392.580 169.200,392.800 169.200 C 393.020 169.200,393.200 168.660,393.200 168.000 C 393.200 167.340,393.380 166.800,393.600 166.800 C 393.820 166.800,394.000 166.260,394.000 165.600 C 394.000 164.940,394.180 164.400,394.400 164.400 C 394.620 164.400,394.800 163.860,394.800 163.200 C 394.800 162.540,394.980 162.000,395.200 162.000 C 395.420 162.000,395.600 161.460,395.600 160.800 C 395.600 160.140,395.780 159.600,396.000 159.600 C 396.220 159.600,396.400 158.981,396.400 158.224 C 396.400 157.467,396.580 156.736,396.800 156.600 C 397.020 156.464,397.200 155.643,397.200 154.776 C 397.200 153.909,397.380 153.200,397.600 153.200 C 397.820 153.200,398.000 152.390,398.000 151.400 C 398.000 150.410,398.180 149.600,398.400 149.600 C 398.622 149.600,398.800 148.544,398.800 147.233 C 398.800 145.696,398.975 144.808,399.300 144.700 C 399.691 144.570,399.800 140.271,399.800 125.000 C 399.800 109.729,399.691 105.430,399.300 105.300 C 398.975 105.192,398.800 104.304,398.800 102.767 C 398.800 101.456,398.622 100.400,398.400 100.400 C 398.180 100.400,398.000 99.601,398.000 98.624 C 398.000 97.647,397.820 96.736,397.600 96.600 C 397.380 96.464,397.200 95.744,397.200 95.000 C 397.200 94.256,397.020 93.536,396.800 93.400 C 396.580 93.264,396.400 92.533,396.400 91.776 C 396.400 91.019,396.220 90.400,396.000 90.400 C 395.780 90.400,395.600 89.860,395.600 89.200 C 395.600 88.540,395.420 88.000,395.200 88.000 C 394.980 88.000,394.800 87.460,394.800 86.800 C 394.800 86.140,394.620 85.600,394.400 85.600 C 394.180 85.600,394.000 85.071,394.000 84.424 C 394.000 83.777,393.820 83.136,393.600 83.000 C 393.380 82.864,393.200 82.313,393.200 81.776 C 393.200 81.239,393.020 80.800,392.800 80.800 C 392.580 80.800,392.400 80.260,392.400 79.600 C 392.400 78.940,392.243 78.400,392.050 78.400 C 391.858 78.400,391.592 77.861,391.460 77.202 C 391.329 76.544,390.856 75.250,390.410 74.327 C 389.965 73.405,389.600 72.414,389.600 72.125 C 389.600 71.836,389.420 71.600,389.200 71.600 C 388.980 71.600,388.800 71.240,388.800 70.800 C 388.800 70.360,388.620 70.000,388.400 70.000 C 388.180 70.000,388.000 69.640,388.000 69.200 C 388.000 68.760,387.820 68.400,387.600 68.400 C 387.380 68.400,387.200 68.040,387.200 67.600 C 387.200 67.160,387.020 66.800,386.800 66.800 C 386.580 66.800,386.400 66.440,386.400 66.000 C 386.400 65.560,386.220 65.200,386.000 65.200 C 385.780 65.200,385.600 64.855,385.600 64.433 C 385.600 64.012,385.465 63.607,385.300 63.533 C 384.924 63.366,383.625 61.236,383.329 60.300 C 383.207 59.915,382.948 59.600,382.753 59.600 C 382.559 59.600,382.400 59.370,382.400 59.088 C 382.400 58.807,382.040 58.317,381.600 58.000 C 381.160 57.683,380.800 57.103,380.800 56.712 C 380.800 56.320,380.650 56.000,380.468 56.000 C 380.285 56.000,379.881 55.505,379.570 54.900 C 379.260 54.295,378.689 53.509,378.303 53.153 C 377.916 52.797,377.600 52.252,377.600 51.941 C 377.600 51.631,377.240 51.117,376.800 50.800 C 376.360 50.483,376.000 49.993,376.000 49.712 C 376.000 49.430,375.820 49.200,375.600 49.200 C 375.380 49.200,375.200 49.007,375.200 48.771 C 375.200 48.536,374.975 48.106,374.700 47.816 C 374.425 47.526,373.843 46.774,373.406 46.144 C 372.969 45.515,371.828 44.195,370.870 43.212 C 369.912 42.228,368.745 40.878,368.277 40.212 C 367.290 38.809,359.643 31.200,359.220 31.200 C 359.064 31.200,358.050 30.343,356.968 29.296 C 355.886 28.249,354.485 27.034,353.856 26.596 C 353.226 26.158,352.474 25.575,352.184 25.300 C 351.894 25.025,351.464 24.800,351.229 24.800 C 350.993 24.800,350.800 24.620,350.800 24.400 C 350.800 24.180,350.570 24.000,350.288 24.000 C 350.007 24.000,349.517 23.640,349.200 23.200 C 348.883 22.760,348.369 22.400,348.059 22.400 C 347.748 22.400,347.203 22.084,346.847 21.697 C 346.491 21.311,345.705 20.740,345.100 20.430 C 344.495 20.119,344.000 19.715,344.000 19.532 C 344.000 19.350,343.680 19.200,343.288 19.200 C 342.897 19.200,342.317 18.840,342.000 18.400 C 341.683 17.960,341.208 17.600,340.945 17.600 C 340.682 17.600,340.407 17.465,340.333 17.300 C 340.166 16.924,338.036 15.625,337.100 15.329 C 336.715 15.207,336.400 14.948,336.400 14.753 C 336.400 14.559,336.040 14.400,335.600 14.400 C 335.160 14.400,334.800 14.220,334.800 14.000 C 334.800 13.780,334.440 13.600,334.000 13.600 C 333.560 13.600,333.200 13.420,333.200 13.200 C 333.200 12.980,332.840 12.800,332.400 12.800 C 331.960 12.800,331.600 12.620,331.600 12.400 C 331.600 12.180,331.240 12.000,330.800 12.000 C 330.360 12.000,330.000 11.820,330.000 11.600 C 330.000 11.380,329.640 11.200,329.200 11.200 C 328.760 11.200,328.400 11.020,328.400 10.800 C 328.400 10.580,328.040 10.400,327.600 10.400 C 327.160 10.400,326.800 10.258,326.800 10.085 C 326.800 9.912,325.630 9.417,324.200 8.985 C 322.770 8.553,321.600 8.065,321.600 7.900 C 321.600 7.735,321.060 7.600,320.400 7.600 C 319.740 7.600,319.200 7.420,319.200 7.200 C 319.200 6.980,318.761 6.800,318.224 6.800 C 317.687 6.800,317.136 6.620,317.000 6.400 C 316.864 6.180,316.324 6.000,315.800 6.000 C 315.276 6.000,314.736 5.820,314.600 5.600 C 314.464 5.380,313.823 5.200,313.176 5.200 C 312.529 5.200,312.000 5.020,312.000 4.800 C 312.000 4.580,311.460 4.400,310.800 4.400 C 310.140 4.400,309.600 4.220,309.600 4.000 C 309.600 3.780,308.981 3.600,308.224 3.600 C 307.467 3.600,306.736 3.420,306.600 3.200 C 306.464 2.980,305.744 2.800,305.000 2.800 C 304.256 2.800,303.536 2.620,303.400 2.400 C 303.264 2.180,302.353 2.000,301.376 2.000 C 300.399 2.000,299.600 1.820,299.600 1.600 C 299.600 1.378,298.544 1.200,297.233 1.200 C 295.708 1.200,294.808 1.024,294.702 0.705 C 294.538 0.214,265.399 -0.128,258.100 0.275 M285.600 16.188 C 304.679 18.261,321.163 24.123,335.929 34.087 C 356.501 47.969,373.896 71.476,379.673 93.200 C 379.878 93.970,380.227 95.230,380.449 96.000 C 380.943 97.711,381.374 99.510,381.983 102.400 C 390.081 140.851,377.071 180.448,347.751 206.588 C 343.292 210.564,333.464 218.000,332.669 218.000 C 332.566 218.000,331.329 218.700,329.921 219.556 C 321.047 224.947,307.828 229.996,297.200 232.054 C 292.671 232.931,289.382 233.436,282.000 234.386 C 280.570 234.570,277.420 235.007,275.000 235.356 C 272.580 235.706,269.250 236.186,267.600 236.424 C 260.959 237.379,258.727 237.739,252.400 238.874 C 220.992 244.508,203.271 252.483,186.651 268.463 C 180.031 274.828,171.353 276.953,163.000 274.253 C 155.481 271.823,150.592 266.829,147.531 258.451 C 146.423 255.417,144.707 253.552,142.336 252.804 C 124.231 247.087,118.736 226.738,131.641 213.200 C 149.750 194.202,157.771 173.872,163.600 132.200 C 163.846 130.440,164.206 127.920,164.400 126.600 C 164.817 123.761,165.479 118.974,166.031 114.800 C 169.268 90.360,176.339 73.105,190.067 56.145 C 207.038 35.178,229.771 22.033,257.800 16.979 C 265.216 15.642,277.387 15.296,285.600 16.188 M262.563 49.008 C 261.883 49.307,260.746 50.212,260.036 51.020 C 253.452 58.519,264.163 68.637,271.218 61.582 C 277.157 55.643,270.263 45.629,262.563 49.008 M215.335 64.848 C 211.351 66.781,209.909 72.852,212.623 76.263 C 216.163 80.711,222.457 80.534,225.332 75.904 C 229.469 69.244,222.396 61.421,215.335 64.848 M356.079 96.074 C 350.290 98.881,350.312 107.149,356.115 109.959 C 361.255 112.447,367.200 108.714,367.200 103.000 C 367.200 97.241,361.279 93.553,356.079 96.074 M231.208 111.700 C 226.424 114.144,225.276 119.930,228.813 123.768 C 235.162 130.655,245.914 122.536,240.986 114.576 C 238.827 111.090,234.749 109.891,231.208 111.700 M357.372 127.157 C 356.476 127.564,355.193 128.565,354.519 129.382 C 353.282 130.882,353.029 131.780,351.971 138.400 C 351.248 142.922,349.455 149.540,348.015 153.000 C 347.831 153.440,347.378 154.520,347.008 155.400 C 336.724 179.823,314.306 197.527,288.000 202.001 C 281.001 203.192,277.676 208.261,280.396 213.593 C 282.775 218.256,285.699 218.706,296.791 216.114 C 327.919 208.841,354.420 184.614,364.080 154.600 C 364.912 152.015,366.146 147.265,366.728 144.400 C 366.975 143.190,367.377 141.264,367.623 140.121 C 369.706 130.431,364.541 123.901,357.372 127.157 M121.841 258.704 C 122.478 259.312,123.630 260.248,124.400 260.785 C 125.170 261.322,125.890 261.860,126.000 261.981 C 126.309 262.320,127.939 263.248,130.977 264.814 C 133.578 266.156,133.844 266.422,135.186 269.023 C 136.752 272.061,137.680 273.691,138.019 274.000 C 138.140 274.110,138.678 274.830,139.215 275.600 C 139.752 276.370,140.688 277.522,141.296 278.159 C 141.903 278.797,142.400 279.464,142.400 279.642 C 142.400 279.820,131.251 291.113,117.625 304.737 C 100.417 321.941,92.659 329.964,92.225 331.003 C 90.918 334.131,91.731 337.493,94.294 339.557 C 95.122 340.225,96.920 341.679,98.288 342.790 C 111.136 353.218,108.772 374.625,93.967 381.913 C 78.009 389.769,59.903 378.665,59.869 361.000 C 59.861 357.022,60.083 355.628,61.208 352.600 C 62.098 350.205,63.651 347.652,65.683 345.244 C 69.881 340.271,69.718 335.533,65.246 332.519 C 61.587 330.054,58.458 330.924,52.722 336.000 C 52.055 336.590,48.969 338.209,47.400 338.792 C 36.280 342.923,22.908 337.727,18.035 327.382 C 7.489 304.993,32.393 283.742,52.876 297.652 C 54.149 298.516,56.099 300.343,57.210 301.712 C 58.321 303.080,59.775 304.878,60.443 305.706 C 62.508 308.270,65.869 309.082,69.000 307.774 C 70.042 307.339,78.042 299.606,95.274 282.374 C 108.901 268.748,120.192 257.600,120.366 257.600 C 120.539 257.600,121.203 258.097,121.841 258.704 " stroke="none" fill="#040404" fill-rule="evenodd"></path><path id="path2" d="M264.000 16.200 C 259.252 16.707,258.155 16.876,253.400 17.830 C 210.268 26.490,176.312 60.451,167.840 103.400 C 167.229 106.496,166.635 110.243,166.031 114.800 C 165.479 118.974,164.817 123.761,164.400 126.600 C 164.206 127.920,163.846 130.440,163.600 132.200 C 157.771 173.872,149.750 194.202,131.641 213.200 C 118.736 226.738,124.231 247.087,142.336 252.804 C 144.707 253.552,146.423 255.417,147.531 258.451 C 150.592 266.829,155.481 271.823,163.000 274.253 C 171.353 276.953,180.031 274.828,186.651 268.463 C 203.271 252.483,220.992 244.508,252.400 238.874 C 258.727 237.739,260.959 237.379,267.600 236.424 C 269.250 236.186,272.580 235.706,275.000 235.356 C 277.420 235.007,280.570 234.570,282.000 234.386 C 289.382 233.436,292.671 232.931,297.200 232.054 C 307.828 229.996,321.047 224.947,329.921 219.556 C 331.329 218.700,332.566 218.000,332.669 218.000 C 333.464 218.000,343.292 210.564,347.751 206.588 C 377.071 180.448,390.081 140.851,381.983 102.400 C 381.374 99.510,380.943 97.711,380.449 96.000 C 380.227 95.230,379.878 93.970,379.673 93.200 C 373.896 71.476,356.501 47.969,335.929 34.087 C 315.296 20.164,288.743 13.561,264.000 16.200 M269.193 49.196 C 273.868 51.581,274.901 57.899,271.218 61.582 C 264.163 68.637,253.452 58.519,260.036 51.020 C 262.354 48.380,266.122 47.630,269.193 49.196 M221.481 64.480 C 229.306 67.841,227.687 78.748,219.254 79.489 C 213.177 80.024,208.985 72.416,212.535 67.294 C 214.457 64.520,218.566 63.228,221.481 64.480 M362.520 95.846 C 368.892 99.060,368.770 107.481,362.313 110.179 C 355.095 113.194,348.609 104.446,353.402 98.162 C 355.364 95.590,359.786 94.467,362.520 95.846 M238.000 111.742 C 240.498 113.018,242.171 115.752,242.171 118.556 C 242.171 125.726,233.674 129.042,228.813 123.768 C 223.070 117.538,230.445 107.883,238.000 111.742 M362.811 126.850 C 367.439 128.237,369.158 132.979,367.623 140.121 C 367.377 141.264,366.975 143.190,366.728 144.400 C 366.146 147.265,364.912 152.015,364.080 154.600 C 354.420 184.614,327.919 208.841,296.791 216.114 C 285.699 218.706,282.775 218.256,280.396 213.593 C 277.676 208.261,281.001 203.192,288.000 202.001 C 314.306 197.527,336.724 179.823,347.008 155.400 C 347.378 154.520,347.831 153.440,348.015 153.000 C 349.455 149.540,351.248 142.922,351.971 138.400 C 353.029 131.780,353.282 130.882,354.519 129.382 C 356.639 126.811,359.630 125.897,362.811 126.850 M95.274 282.374 C 78.042 299.606,70.042 307.339,69.000 307.774 C 65.869 309.082,62.508 308.270,60.443 305.706 C 59.775 304.878,58.321 303.080,57.210 301.712 C 50.322 293.225,38.392 290.860,28.001 295.920 C 25.529 297.124,20.575 301.627,19.483 303.663 C 18.818 304.901,18.817 304.926,19.472 304.000 C 29.030 290.477,48.981 290.271,58.130 303.600 C 61.525 308.546,65.590 310.110,69.488 307.970 C 70.320 307.513,82.099 296.054,95.666 282.505 L 120.331 257.871 122.215 259.530 C 124.667 261.688,127.562 263.595,130.843 265.212 C 133.314 266.431,133.569 266.686,134.788 269.157 C 136.405 272.438,138.312 275.333,140.470 277.785 L 142.129 279.669 117.495 304.334 C 103.946 317.901,92.487 329.680,92.030 330.512 C 89.890 334.410,91.454 338.475,96.400 341.870 C 109.666 350.975,109.666 369.674,96.400 380.171 L 95.000 381.278 96.337 380.539 C 109.032 373.522,110.124 352.397,98.288 342.790 C 96.920 341.679,95.122 340.225,94.294 339.557 C 91.731 337.493,90.918 334.131,92.225 331.003 C 92.659 329.964,100.417 321.941,117.625 304.737 C 131.251 291.113,142.400 279.820,142.400 279.642 C 142.400 279.464,141.903 278.797,141.296 278.159 C 140.688 277.522,139.752 276.370,139.215 275.600 C 138.678 274.830,138.140 274.110,138.019 274.000 C 137.680 273.691,136.752 272.061,135.186 269.023 C 133.844 266.422,133.578 266.156,130.977 264.814 C 127.939 263.248,126.309 262.320,126.000 261.981 C 125.890 261.860,125.170 261.322,124.400 260.785 C 123.630 260.248,122.478 259.312,121.841 258.704 C 121.203 258.097,120.539 257.600,120.366 257.600 C 120.192 257.600,108.901 268.748,95.274 282.374 M16.673 308.953 C 16.523 309.345,16.411 309.966,16.425 310.333 C 16.442 310.775,16.581 310.674,16.837 310.034 C 17.049 309.503,17.161 308.882,17.085 308.654 C 17.009 308.427,16.824 308.561,16.673 308.953 M15.852 312.100 C 15.527 313.312,15.587 320.825,15.928 321.685 C 16.078 322.062,16.200 319.857,16.200 316.785 C 16.200 310.722,16.205 310.784,15.852 312.100 M16.412 323.200 C 16.412 323.530,16.587 324.070,16.800 324.400 C 17.145 324.933,17.188 324.933,17.188 324.400 C 17.188 324.070,17.013 323.530,16.800 323.200 C 16.455 322.667,16.412 322.667,16.412 323.200 M17.207 325.304 C 17.169 326.902,21.262 332.626,24.057 334.885 C 30.707 340.259,39.936 341.751,47.600 338.690 C 49.776 337.821,52.141 336.456,53.716 335.160 C 56.467 332.898,57.413 332.026,57.133 332.013 C 56.986 332.006,55.906 332.821,54.733 333.825 C 42.754 344.073,26.014 340.958,18.347 327.053 C 17.724 325.924,17.211 325.137,17.207 325.304 M60.500 331.076 C 60.885 331.176,61.515 331.176,61.900 331.076 C 62.285 330.975,61.970 330.893,61.200 330.893 C 60.430 330.893,60.115 330.975,60.500 331.076 M57.800 331.600 C 57.508 332.073,57.899 332.073,59.000 331.600 C 59.771 331.269,59.769 331.255,58.924 331.228 C 58.442 331.213,57.936 331.380,57.800 331.600 M63.997 331.837 C 65.906 332.665,67.167 333.900,68.044 335.800 C 68.450 336.680,68.786 337.075,68.791 336.679 C 68.813 334.924,65.061 331.178,63.321 331.216 C 62.903 331.225,63.188 331.486,63.997 331.837 M68.893 338.800 C 68.893 339.570,68.975 339.885,69.076 339.500 C 69.176 339.115,69.176 338.485,69.076 338.100 C 68.975 337.715,68.893 338.030,68.893 338.800 M68.446 340.667 C 68.421 340.924,68.284 341.464,68.141 341.867 C 67.940 342.436,67.994 342.497,68.379 342.142 C 68.652 341.891,68.789 341.351,68.684 340.942 C 68.579 340.534,68.472 340.410,68.446 340.667 M65.559 345.379 C 57.781 354.670,57.781 367.414,65.558 376.442 C 67.210 378.360,72.264 382.270,72.624 381.909 C 72.728 381.806,71.774 381.034,70.506 380.195 C 58.705 372.383,56.705 356.280,66.168 345.267 C 67.883 343.271,68.206 342.800,67.859 342.800 C 67.781 342.800,66.746 343.961,65.559 345.379 M90.800 382.820 C 89.810 383.225,89.293 383.566,89.651 383.578 C 90.374 383.602,93.200 382.501,93.200 382.195 C 93.200 381.901,92.772 382.013,90.800 382.820 M75.600 383.200 C 75.930 383.413,76.470 383.588,76.800 383.588 C 77.333 383.588,77.333 383.545,76.800 383.200 C 76.470 382.987,75.930 382.812,75.600 382.812 C 75.067 382.812,75.067 382.855,75.600 383.200 M78.315 384.072 C 78.692 384.221,80.890 384.344,83.200 384.344 C 85.510 384.344,87.708 384.221,88.085 384.072 C 88.462 383.922,86.264 383.800,83.200 383.800 C 80.136 383.800,77.938 383.922,78.315 384.072 " stroke="none" fill="#bb7324" fill-rule="evenodd"></path></g></svg>