<?xml version="1.0" encoding="UTF-8"?>
<!DOCTYPE svg PUBLIC "-//W3C//DTD SVG 1.1//EN" "http://www.w3.org/Graphics/SVG/1.1/DTD/svg11.dtd">
<svg xmlns="http://www.w3.org/2000/svg" version="1.1" width="512px" height="512px" style="shape-rendering:geometricPrecision; text-rendering:geometricPrecision; image-rendering:optimizeQuality; fill-rule:evenodd; clip-rule:evenodd" xmlns:xlink="http://www.w3.org/1999/xlink">
<g><path style="opacity:0.951" fill="#050302" d="M 422.5,98.5 C 421.781,100.091 420.781,101.591 419.5,103C 307.983,101.083 196.483,98.2495 85,94.5C 78.5,94.6667 72,94.8333 65.5,95C 64.1667,96.6667 64.1667,98.3333 65.5,100C 203.819,108.083 342.152,115.916 480.5,123.5C 483.421,123.476 486.254,123.143 489,122.5C 489.667,117.5 489.667,112.5 489,107.5C 488.5,107 488,106.5 487.5,106C 476.833,105.667 466.167,105.333 455.5,105C 453.072,103.982 451.738,102.148 451.5,99.5C 451.624,97.4184 452.624,95.9184 454.5,95C 466.515,94.5339 478.515,94.8672 490.5,96C 498.518,99.6973 501.852,106.031 500.5,115C 501.917,126.903 496.75,133.403 485,134.5C 404.146,129.891 323.313,125.224 242.5,120.5C 242.5,146.833 242.5,173.167 242.5,199.5C 278.92,199.013 315.253,199.513 351.5,201C 366.096,228.692 379.762,256.859 392.5,285.5C 390.213,290.797 386.713,291.797 382,288.5C 371.667,267.167 361.333,245.833 351,224.5C 337.427,315.181 323.76,405.848 310,496.5C 309.097,497.701 307.931,498.535 306.5,499C 236.5,499.667 166.5,499.667 96.5,499C 93.2122,497.642 91.7122,495.142 92,491.5C 87.3927,464.584 83.726,437.584 81,410.5C 81.7202,408.944 82.8868,407.944 84.5,407.5C 87.5618,407.841 89.7284,409.508 91,412.5C 94.6737,438.001 98.5071,463.334 102.5,488.5C 168.665,489.499 234.998,489.832 301.5,489.5C 301.5,488.167 301.5,486.833 301.5,485.5C 313.997,401.516 326.164,317.516 338,233.5C 327.463,252.746 316.296,271.579 304.5,290C 235.833,290.667 167.167,290.667 98.5,290C 97.5838,289.626 96.7504,289.126 96,288.5C 85.3333,269.833 74.6667,251.167 64,232.5C 70.7508,277.42 77.4175,322.42 84,367.5C 84.6667,370.5 84.6667,373.5 84,376.5C 82.8549,377.636 81.6883,378.636 80.5,379.5C 76.438,378.938 74.2714,376.604 74,372.5C 66.8807,323.323 59.214,274.323 51,225.5C 40.8071,246.414 30.8071,267.414 21,288.5C 18.447,290.729 15.6136,291.062 12.5,289.5C 10.0984,286.7 9.9317,283.7 12,280.5C 24.9775,254.046 37.8108,227.546 50.5,201C 84.7713,199.52 119.105,199.02 153.5,199.5C 153.5,171.5 153.5,143.5 153.5,115.5C 124.153,114.333 94.8199,112.833 65.5,111C 55.0019,107.838 51.5019,101.005 55,90.5C 57.2643,87.5665 60.0976,85.3999 63.5,84C 93.2061,84.2233 122.873,85.0566 152.5,86.5C 153.494,81.544 153.827,76.544 153.5,71.5C 123.498,71.6666 93.4981,71.5 63.5,71C 53.9799,67.1105 51.1466,60.2772 55,50.5C 56.8734,48.2911 59.04,46.4578 61.5,45C 92.1313,43.1677 122.798,42.001 153.5,41.5C 153.109,34.0791 153.609,26.7458 155,19.5C 157.555,15.1333 161.388,12.6333 166.5,12C 189.217,11.0425 211.884,11.3758 234.5,13C 238.058,14.8917 240.558,17.7251 242,21.5C 242.499,27.1569 242.666,32.8236 242.5,38.5C 323.347,36.1142 404.18,33.4475 485,30.5C 496.285,31.4567 501.451,37.6233 500.5,49C 501.777,57.7814 498.777,64.4481 491.5,69C 408.506,70.3065 325.506,70.8065 242.5,70.5C 242.5,76.5 242.5,82.5 242.5,88.5C 301.511,89.9823 360.511,91.8156 419.5,94C 421.141,95.129 422.141,96.629 422.5,98.5 Z"/></g>
<g><path style="opacity:1" fill="#ecbd1f" d="M 181.5,87.5 C 176.025,86.5111 170.358,86.1778 164.5,86.5C 164.5,66.1667 164.5,45.8333 164.5,25.5C 164.414,24.5041 164.748,23.6708 165.5,23C 174.827,22.5002 184.161,22.3335 193.5,22.5C 193.5,44.1667 193.5,65.8333 193.5,87.5C 189.5,87.5 185.5,87.5 181.5,87.5 Z"/></g>
<g><path style="opacity:1" fill="#eebe1f" d="M 203.5,22.5 C 212.506,22.3336 221.506,22.5002 230.5,23C 231,23.5 231.5,24 232,24.5C 232.5,45.8307 232.667,67.1641 232.5,88.5C 222.833,88.5 213.167,88.5 203.5,88.5C 203.5,66.5 203.5,44.5 203.5,22.5 Z"/></g>
<g><path style="opacity:1" fill="#937613" d="M 164.5,25.5 C 164.5,45.8333 164.5,66.1667 164.5,86.5C 170.358,86.1778 176.025,86.5111 181.5,87.5C 175.5,87.5 169.5,87.5 163.5,87.5C 163.169,66.6599 163.503,45.9933 164.5,25.5 Z"/></g>
<g><path style="opacity:1" fill="#f45a3b" d="M 469.5,41.5 C 475.842,41.3338 482.175,41.5005 488.5,42C 489.637,47.082 489.804,52.2487 489,57.5C 488.5,58 488,58.5 487.5,59C 405.835,59.9005 324.169,60.4005 242.5,60.5C 242.5,56.5 242.5,52.5 242.5,48.5C 318.352,46.9132 394.018,44.5798 469.5,41.5 Z"/></g>
<g><path style="opacity:1" fill="#f65a3b" d="M 142.5,52.5 C 146.167,52.5 149.833,52.5 153.5,52.5C 153.5,55.1667 153.5,57.8333 153.5,60.5C 123.831,60.6666 94.1648,60.5 64.5,60C 63.1398,58.0624 63.4732,56.3957 65.5,55C 91.1364,53.2102 116.803,52.3769 142.5,52.5 Z"/></g>
<g><path style="opacity:1" fill="#6d281a" d="M 142.5,52.5 C 146.298,51.5166 150.298,51.1832 154.5,51.5C 154.81,54.7131 154.477,57.7131 153.5,60.5C 153.5,57.8333 153.5,55.1667 153.5,52.5C 149.833,52.5 146.167,52.5 142.5,52.5 Z"/></g>
<g><path style="opacity:0.886" fill="#080201" d="M 442.5,99.5 C 438.223,106.48 434.556,106.147 431.5,98.5C 432.189,95.6472 434.022,93.9806 437,93.5C 440.397,94.0634 442.23,96.0634 442.5,99.5 Z"/></g>
<g><path style="opacity:0.999" fill="#f65b3b" d="M 422.5,98.5 C 425.5,98.5 428.5,98.5 431.5,98.5C 434.556,106.147 438.223,106.48 442.5,99.5C 445.5,99.5 448.5,99.5 451.5,99.5C 451.738,102.148 453.072,103.982 455.5,105C 466.167,105.333 476.833,105.667 487.5,106C 488,106.5 488.5,107 489,107.5C 489.667,112.5 489.667,117.5 489,122.5C 486.254,123.143 483.421,123.476 480.5,123.5C 342.152,115.916 203.819,108.083 65.5,100C 64.1667,98.3333 64.1667,96.6667 65.5,95C 72,94.8333 78.5,94.6667 85,94.5C 196.483,98.2495 307.983,101.083 419.5,103C 420.781,101.591 421.781,100.091 422.5,98.5 Z"/></g>
<g><path style="opacity:1" fill="#ecbd1f" d="M 229.5,119.5 C 231.478,146.274 232.144,173.274 231.5,200.5C 222.167,200.5 212.833,200.5 203.5,200.5C 203.666,194.824 203.499,189.157 203,183.5C 200.294,180.022 197.294,179.689 194,182.5C 193.501,188.491 193.334,194.491 193.5,200.5C 183.5,200.5 173.5,200.5 163.5,200.5C 163.5,172.5 163.5,144.5 163.5,116.5C 173.509,116.612 183.509,116.945 193.5,117.5C 193.334,127.839 193.5,138.172 194,148.5C 197.199,151.129 200.199,150.796 203,147.5C 203.5,137.839 203.666,128.172 203.5,118.5C 212.167,118.833 220.833,119.167 229.5,119.5 Z"/></g>
<g><path style="opacity:1" fill="#c7a01a" d="M 229.5,119.5 C 230.5,119.5 231.5,119.5 232.5,119.5C 232.831,146.672 232.498,173.672 231.5,200.5C 232.144,173.274 231.478,146.274 229.5,119.5 Z"/></g>
<g><path style="opacity:1" fill="#0e0a02" d="M 195.5,160.5 C 201.989,160.156 203.989,162.99 201.5,169C 195.086,171.593 192.586,169.426 194,162.5C 194.717,161.956 195.217,161.289 195.5,160.5 Z"/></g>
<g><path style="opacity:1" fill="#d4beb3" d="M 63.5,210.5 C 155.501,210.333 247.501,210.5 339.5,211C 326.12,233.589 313.12,256.423 300.5,279.5C 234.5,280.833 168.5,280.833 102.5,279.5C 89.2229,256.608 76.2229,233.608 63.5,210.5 Z"/></g>
<g><path style="opacity:1" fill="#f1e0d5" d="M 301.5,485.5 C 300.596,486.209 300.263,487.209 300.5,488.5C 234.5,488.5 168.5,488.5 102.5,488.5C 98.5071,463.334 94.6737,438.001 91,412.5C 89.7284,409.508 87.5618,407.841 84.5,407.5C 83.701,404.57 83.3677,401.57 83.5,398.5C 87.2985,396.691 88.2985,393.858 86.5,390C 84.9751,388.991 83.3084,388.491 81.5,388.5C 80.8413,385.545 80.5079,382.545 80.5,379.5C 81.6883,378.636 82.8549,377.636 84,376.5C 84.6667,373.5 84.6667,370.5 84,367.5C 77.4175,322.42 70.7508,277.42 64,232.5C 74.6667,251.167 85.3333,269.833 96,288.5C 96.7504,289.126 97.5838,289.626 98.5,290C 167.167,290.667 235.833,290.667 304.5,290C 316.296,271.579 327.463,252.746 338,233.5C 326.164,317.516 313.997,401.516 301.5,485.5 Z"/></g>
<g><path style="opacity:1" fill="#080504" d="M 233.5,316.5 C 239.499,316.002 241.666,318.669 240,324.5C 235.967,331.038 232.134,337.704 228.5,344.5C 234.089,348.583 239.256,353.25 244,358.5C 249.8,349.735 255.966,341.235 262.5,333C 268.553,332.056 270.72,334.556 269,340.5C 262.5,349.5 256,358.5 249.5,367.5C 260.792,393.871 255.792,416.704 234.5,436C 205.362,454.171 179.529,450.338 157,424.5C 146.721,407.819 144.721,390.152 151,371.5C 160.836,351.16 177.003,340.16 199.5,338.5C 206.217,338.901 212.883,339.401 219.5,340C 223.995,332.019 228.662,324.185 233.5,316.5 Z"/></g>
<g><path style="opacity:1" fill="#f85b3c" d="M 191.5,348.5 C 198.868,348.317 206.201,348.65 213.5,349.5C 204.887,366.722 195.72,383.722 186,400.5C 184.76,407.937 187.427,409.937 194,406.5C 203.58,389.004 213.414,371.671 223.5,354.5C 229.26,357.426 233.927,361.593 237.5,367C 228.122,380.255 218.622,393.422 209,406.5C 207.461,410.805 208.794,413.472 213,414.5C 215.151,414.357 216.818,413.357 218,411.5C 225.973,400.027 234.14,388.694 242.5,377.5C 249.103,397.906 244.103,415.073 227.5,429C 201.985,443.298 180.485,438.798 163,415.5C 150.254,383.546 159.754,361.213 191.5,348.5 Z"/></g>
<g><path style="opacity:0.902" fill="#050504" d="M 81.5,388.5 C 83.3084,388.491 84.9751,388.991 86.5,390C 88.2985,393.858 87.2985,396.691 83.5,398.5C 78.0115,398.496 76.1781,395.829 78,390.5C 78.8159,389.177 79.9826,388.511 81.5,388.5 Z"/></g>
<g><path style="opacity:1" fill="#302d2b" d="M 301.5,485.5 C 301.5,486.833 301.5,488.167 301.5,489.5C 234.998,489.832 168.665,489.499 102.5,488.5C 168.5,488.5 234.5,488.5 300.5,488.5C 300.263,487.209 300.596,486.209 301.5,485.5 Z"/></g>
</svg>
