<?xml version="1.0" encoding="UTF-8"?>
<!DOCTYPE svg PUBLIC "-//W3C//DTD SVG 1.1//EN" "http://www.w3.org/Graphics/SVG/1.1/DTD/svg11.dtd">
<svg xmlns="http://www.w3.org/2000/svg" version="1.1" width="512px" height="512px" style="shape-rendering:geometricPrecision; text-rendering:geometricPrecision; image-rendering:optimizeQuality; fill-rule:evenodd; clip-rule:evenodd" xmlns:xlink="http://www.w3.org/1999/xlink">
<g><path style="opacity:0.961" fill="#010202" d="M 232.5,-0.5 C 247.833,-0.5 263.167,-0.5 278.5,-0.5C 379.371,12.3469 450.871,65.0136 493,157.5C 502.497,181.819 508.663,206.819 511.5,232.5C 511.5,247.833 511.5,263.167 511.5,278.5C 499.099,376.153 448.766,446.653 360.5,490C 334.11,501.263 306.776,508.429 278.5,511.5C 263.167,511.5 247.833,511.5 232.5,511.5C 143.853,500.61 76.6868,456.943 31,380.5C 13.7076,348.465 3.20759,314.465 -0.5,278.5C -0.5,263.167 -0.5,247.833 -0.5,232.5C 5.98805,169.694 31.6547,116.194 76.5,72C 79.9496,69.9908 83.2829,70.1575 86.5,72.5C 89.2075,76.5239 89.0409,80.5239 86,84.5C 61.8169,108.195 43.6502,135.862 31.5,167.5C 13.2464,212.783 9.41304,259.45 20,307.5C 43.412,397.579 99.2453,457.412 187.5,487C 244.847,503.25 300.514,499.084 354.5,474.5C 410.868,448.631 451.701,407.298 477,350.5C 513.137,256.66 499.137,171.327 435,94.5C 374.15,30.9924 299.984,5.4924 212.5,18C 175.432,25.124 141.766,39.7907 111.5,62C 107.928,62.8471 104.594,62.3471 101.5,60.5C 98.8373,54.9747 100.171,50.4747 105.5,47C 143.661,20.0022 185.994,4.16882 232.5,-0.5 Z"/></g>
<g><path style="opacity:1" fill="#e4f5fc" d="M 354.5,474.5 C 273.565,500.227 197.898,489.727 127.5,443C 49.6068,384.009 15.1068,305.509 24,207.5C 26.085,194.064 28.585,180.731 31.5,167.5C 43.6502,135.862 61.8169,108.195 86,84.5C 89.0409,80.5239 89.2075,76.5239 86.5,72.5C 90.9174,67.7469 95.9174,63.7469 101.5,60.5C 104.594,62.3471 107.928,62.8471 111.5,62C 141.766,39.7907 175.432,25.124 212.5,18C 299.984,5.4924 374.15,30.9924 435,94.5C 499.137,171.327 513.137,256.66 477,350.5C 451.701,407.298 410.868,448.631 354.5,474.5 Z"/></g>
<g><path style="opacity:1" fill="#040404" d="M 288.5,76.5 C 288.755,80.4925 287.089,83.3258 283.5,85C 268.556,83.6366 253.556,83.3032 238.5,84C 228.916,84.6524 219.582,86.4857 210.5,89.5C 225.818,94.4094 240.318,101.076 254,109.5C 267.152,98.8765 281.652,96.7098 297.5,103C 316.664,113.747 335.664,124.747 354.5,136C 368.149,146.149 373.316,159.649 370,176.5C 368.06,183.539 364.227,189.372 358.5,194C 353.167,197.333 347.833,200.667 342.5,204C 341.978,204.561 341.645,205.228 341.5,206C 345.897,216.525 349.897,227.192 353.5,238C 353.169,241.48 351.502,243.98 348.5,245.5C 345.398,245.846 342.565,245.179 340,243.5C 328.667,205.64 308.834,173.14 280.5,146C 266.593,133.883 251.259,124.05 234.5,116.5C 219.096,164.562 189.429,200.895 145.5,225.5C 140.86,227.82 136.193,230.153 131.5,232.5C 130.417,233.365 130.251,234.365 131,235.5C 162.024,282.123 205.191,310.957 260.5,322C 279.149,325.453 297.816,328.786 316.5,332C 332.397,336.361 346.231,344.194 358,355.5C 356.839,364.765 356.505,374.098 357,383.5C 359.497,396.993 365.997,408.159 376.5,417C 385.207,421.65 390.874,419.15 393.5,409.5C 396.239,398.449 400.073,387.782 405,377.5C 407.537,374.628 410.37,372.128 413.5,370C 423.5,365.667 433.5,361.333 443.5,357C 447.13,353.95 448.297,350.117 447,345.5C 436.834,332.75 423.501,326.084 407,325.5C 398.403,326.491 389.903,327.657 381.5,329C 364.016,313.703 352.682,294.703 347.5,272C 347.831,268.52 349.498,266.02 352.5,264.5C 355.862,264.07 358.695,265.07 361,267.5C 365.502,285.014 374.002,300.181 386.5,313C 390.225,312.989 393.892,312.323 397.5,311C 404.624,310.628 411.624,310.462 418.5,310.5C 439.892,236.197 421.892,173.363 364.5,122C 348.016,109.421 330.016,99.4212 310.5,92C 308.686,89.5185 308.02,86.6852 308.5,83.5C 310.305,79.5132 313.305,78.0132 317.5,79C 389.522,107.706 431.022,160.54 442,237.5C 442.749,252.191 442.416,266.858 441,281.5C 438.487,293.206 436.153,304.872 434,316.5C 444.163,321.664 452.83,328.664 460,337.5C 465.132,350.81 461.966,361.644 450.5,370C 443.616,373.275 436.616,376.275 429.5,379C 424.919,380.871 420.752,383.371 417,386.5C 412.806,398.081 408.806,409.748 405,421.5C 394.78,435.514 382.28,438.014 367.5,429C 362.978,424.478 358.478,419.978 354,415.5C 326.042,431.93 295.875,441.097 263.5,443C 228.552,460.332 193.385,460.832 158,444.5C 155.491,441.795 154.991,438.795 156.5,435.5C 157.871,433.056 160.038,431.722 163,431.5C 177.677,437.836 193.011,441.169 209,441.5C 213.015,441.499 216.849,441.165 220.5,440.5C 249.657,437.311 273.324,424.311 291.5,401.5C 287.398,399.033 283.232,396.7 279,394.5C 251.724,422.865 218.89,432.032 180.5,422C 137.96,404.125 117.793,371.959 120,325.5C 121.088,320.313 122.255,315.146 123.5,310C 121.508,308.002 119.174,306.502 116.5,305.5C 114.574,303.707 112.241,302.707 109.5,302.5C 97.7887,346.183 107.955,383.849 140,415.5C 140.736,418.592 140.569,421.592 139.5,424.5C 136.02,426.967 132.353,427.134 128.5,425C 105.364,403.224 92.5309,376.391 90,344.5C 61.3488,287.929 60.3488,230.929 87,173.5C 86.1261,162.868 85.2927,152.201 84.5,141.5C 82.0835,108.774 96.7501,88.941 128.5,82C 145.87,79.8347 163.203,80.0013 180.5,82.5C 198.733,76.2859 217.4,71.7859 236.5,69C 252.581,67.9435 268.581,68.6101 284.5,71C 286.928,72.0183 288.262,73.8517 288.5,76.5 Z"/></g>
<g><path style="opacity:1" fill="#d1edfb" d="M 288.5,76.5 C 289.404,77.209 289.737,78.209 289.5,79.5C 296.02,80.0474 302.353,81.3808 308.5,83.5C 308.02,86.6852 308.686,89.5185 310.5,92C 330.016,99.4212 348.016,109.421 364.5,122C 421.892,173.363 439.892,236.197 418.5,310.5C 411.624,310.462 404.624,310.628 397.5,311C 393.892,312.323 390.225,312.989 386.5,313C 374.002,300.181 365.502,285.014 361,267.5C 358.695,265.07 355.862,264.07 352.5,264.5C 351.582,258.079 350.248,251.745 348.5,245.5C 351.502,243.98 353.169,241.48 353.5,238C 349.897,227.192 345.897,216.525 341.5,206C 341.645,205.228 341.978,204.561 342.5,204C 347.833,200.667 353.167,197.333 358.5,194C 364.227,189.372 368.06,183.539 370,176.5C 373.316,159.649 368.149,146.149 354.5,136C 335.664,124.747 316.664,113.747 297.5,103C 281.652,96.7098 267.152,98.8765 254,109.5C 240.318,101.076 225.818,94.4094 210.5,89.5C 219.582,86.4857 228.916,84.6524 238.5,84C 253.556,83.3032 268.556,83.6366 283.5,85C 287.089,83.3258 288.755,80.4925 288.5,76.5 Z"/></g>
<g><path style="opacity:1" fill="#f5f7f7" d="M 138.5,211.5 C 137.624,211.631 136.957,211.298 136.5,210.5C 122.012,185.208 114.345,158.042 113.5,129C 113.037,119.942 114.037,111.108 116.5,102.5C 122.003,99.2738 128.003,97.1072 134.5,96C 164.902,92.8448 193.902,97.6782 221.5,110.5C 207.261,155.371 179.595,189.038 138.5,211.5 Z"/></g>
<g><path style="opacity:1" fill="#e6eaee" d="M 116.5,102.5 C 114.037,111.108 113.037,119.942 113.5,129C 114.345,158.042 122.012,185.208 136.5,210.5C 136.957,211.298 137.624,211.631 138.5,211.5C 134.23,214.571 129.563,217.071 124.5,219C 123.216,219.684 122.049,219.517 121,218.5C 105.488,190.452 98.4876,160.452 100,128.5C 100.865,118.603 105.031,110.437 112.5,104C 113.745,103.209 115.078,102.709 116.5,102.5 Z"/></g>
<g><path style="opacity:1" fill="#040404" d="M 155.5,111.5 C 169.399,109.916 178.899,115.583 184,128.5C 185.83,148.668 176.663,158.501 156.5,158C 140.489,152.143 134.989,140.976 140,124.5C 143.869,118.452 149.035,114.118 155.5,111.5 Z"/></g>
<g><path style="opacity:1" fill="#e3e6ea" d="M 285.5,115.5 C 283.143,115.337 280.81,115.503 278.5,116C 304.132,134.448 324.299,157.614 339,185.5C 339.671,186.252 340.504,186.586 341.5,186.5C 339.41,188.39 337.077,190.057 334.5,191.5C 318.696,161.525 296.696,137.025 268.5,118C 273.885,114.561 279.552,113.727 285.5,115.5 Z"/></g>
<g><path style="opacity:1" fill="#f3f5f6" d="M 285.5,115.5 C 288.688,115.618 291.688,116.451 294.5,118C 313.249,128.79 331.749,139.956 350,151.5C 359.048,162.482 358.548,172.982 348.5,183C 346.423,184.705 344.09,185.872 341.5,186.5C 340.504,186.586 339.671,186.252 339,185.5C 324.299,157.614 304.132,134.448 278.5,116C 280.81,115.503 283.143,115.337 285.5,115.5 Z"/></g>
<g><path style="opacity:1" fill="#60a9b7" d="M 348.5,245.5 C 350.248,251.745 351.582,258.079 352.5,264.5C 349.498,266.02 347.831,268.52 347.5,272C 352.682,294.703 364.016,313.703 381.5,329C 389.903,327.657 398.403,326.491 407,325.5C 423.501,326.084 436.834,332.75 447,345.5C 448.297,350.117 447.13,353.95 443.5,357C 433.5,361.333 423.5,365.667 413.5,370C 410.37,372.128 407.537,374.628 405,377.5C 400.073,387.782 396.239,398.449 393.5,409.5C 375.313,395.774 367.48,377.441 370,354.5C 370.436,352.153 370.936,349.819 371.5,347.5C 370.272,344.698 368.272,342.531 365.5,341C 355.215,333.525 343.882,328.192 331.5,325C 309.62,322.058 287.953,318.058 266.5,313C 214.681,299.45 174.348,270.284 145.5,225.5C 189.429,200.895 219.096,164.562 234.5,116.5C 251.259,124.05 266.593,133.883 280.5,146C 308.834,173.14 328.667,205.64 340,243.5C 342.565,245.179 345.398,245.846 348.5,245.5 Z"/></g>
<g><path style="opacity:1" fill="#dfe3e7" d="M 157.5,126.5 C 168.621,126.107 171.954,130.941 167.5,141C 158.266,145.47 153.433,142.637 153,132.5C 154.332,130.34 155.832,128.34 157.5,126.5 Z"/></g>
<g><path style="opacity:1" fill="#cfebf9" d="M 31.5,167.5 C 28.585,180.731 26.085,194.064 24,207.5C 15.1068,305.509 49.6068,384.009 127.5,443C 197.898,489.727 273.565,500.227 354.5,474.5C 300.514,499.084 244.847,503.25 187.5,487C 99.2453,457.412 43.412,397.579 20,307.5C 9.41304,259.45 13.2464,212.783 31.5,167.5 Z"/></g>
<g><path style="opacity:1" fill="#aee0f5" d="M 97.5,203.5 C 94.757,222.076 95.257,240.742 99,259.5C 100.557,267.597 102.39,275.597 104.5,283.5C 102.193,284.977 100.36,286.977 99,289.5C 96.0652,296.638 93.7318,303.971 92,311.5C 78.7476,272.243 79.4143,233.243 94,194.5C 95.2714,197.484 96.438,200.484 97.5,203.5 Z"/></g>
<g><path style="opacity:1" fill="#d1ecfa" d="M 97.5,203.5 C 128.743,277.896 184.076,322.729 263.5,338C 276.731,340.654 290.064,342.654 303.5,344C 317.701,347.02 330.534,352.854 342,361.5C 341.169,370.493 341.336,379.493 342.5,388.5C 342.714,390.144 342.38,391.644 341.5,393C 331.449,396.929 321.116,399.762 310.5,401.5C 310.811,395.638 308.144,391.804 302.5,390C 239.58,356.068 176.913,321.735 114.5,287C 111.439,284.965 108.105,283.799 104.5,283.5C 102.39,275.597 100.557,267.597 99,259.5C 95.257,240.742 94.757,222.076 97.5,203.5 Z"/></g>
<g><path style="opacity:1" fill="#5493a0" d="M 145.5,225.5 C 174.348,270.284 214.681,299.45 266.5,313C 287.953,318.058 309.62,322.058 331.5,325C 343.882,328.192 355.215,333.525 365.5,341C 368.272,342.531 370.272,344.698 371.5,347.5C 370.936,349.819 370.436,352.153 370,354.5C 367.48,377.441 375.313,395.774 393.5,409.5C 390.874,419.15 385.207,421.65 376.5,417C 365.997,408.159 359.497,396.993 357,383.5C 356.505,374.098 356.839,364.765 358,355.5C 346.231,344.194 332.397,336.361 316.5,332C 297.816,328.786 279.149,325.453 260.5,322C 205.191,310.957 162.024,282.123 131,235.5C 130.251,234.365 130.417,233.365 131.5,232.5C 136.193,230.153 140.86,227.82 145.5,225.5 Z"/></g>
<g><path style="opacity:1" fill="#f3a60b" d="M 116.5,305.5 C 108.553,352.094 122.886,390.261 159.5,420C 177.587,433.529 197.92,440.362 220.5,440.5C 216.849,441.165 213.015,441.499 209,441.5C 193.011,441.169 177.677,437.836 163,431.5C 160.038,431.722 157.871,433.056 156.5,435.5C 150.564,432.227 144.897,428.561 139.5,424.5C 140.569,421.592 140.736,418.592 140,415.5C 107.955,383.849 97.7887,346.183 109.5,302.5C 112.241,302.707 114.574,303.707 116.5,305.5 Z"/></g>
<g><path style="opacity:1" fill="#f9c234" d="M 116.5,305.5 C 119.174,306.502 121.508,308.002 123.5,310C 122.255,315.146 121.088,320.313 120,325.5C 117.793,371.959 137.96,404.125 180.5,422C 218.89,432.032 251.724,422.865 279,394.5C 283.232,396.7 287.398,399.033 291.5,401.5C 273.324,424.311 249.657,437.311 220.5,440.5C 197.92,440.362 177.587,433.529 159.5,420C 122.886,390.261 108.553,352.094 116.5,305.5 Z"/></g>
<g><path style="opacity:1" fill="#fbdc7b" d="M 136.5,317.5 C 154.878,326.19 172.878,335.69 190.5,346C 175.5,355.5 160.5,365 145.5,374.5C 135.333,356.666 132.333,337.666 136.5,317.5 Z"/></g>
<g><path style="opacity:1" fill="#fadb7a" d="M 212.5,358.5 C 230.332,367.345 247.665,377.012 264.5,387.5C 250.503,401.663 233.503,409.663 213.5,411.5C 213.052,393.836 212.718,376.169 212.5,358.5 Z"/></g>
<g><path style="opacity:1" fill="#fbdc7b" d="M 196.5,359.5 C 198.028,376.309 198.695,393.309 198.5,410.5C 180.916,408.072 166.249,400.239 154.5,387C 168.405,377.577 182.405,368.41 196.5,359.5 Z"/></g>
<g><path style="opacity:1" fill="#aee0f6" d="M 342.5,388.5 C 344.163,392.999 345.33,397.666 346,402.5C 329.123,413.198 310.957,420.364 291.5,424C 298.683,417.078 305.017,409.578 310.5,401.5C 321.116,399.762 331.449,396.929 341.5,393C 342.38,391.644 342.714,390.144 342.5,388.5 Z"/></g>
</svg>
