<?xml version="1.0" encoding="UTF-8"?>
<!DOCTYPE svg PUBLIC "-//W3C//DTD SVG 1.1//EN" "http://www.w3.org/Graphics/SVG/1.1/DTD/svg11.dtd">
<svg xmlns="http://www.w3.org/2000/svg" version="1.1" width="512px" height="512px" style="shape-rendering:geometricPrecision; text-rendering:geometricPrecision; image-rendering:optimizeQuality; fill-rule:evenodd; clip-rule:evenodd" xmlns:xlink="http://www.w3.org/1999/xlink">
<g><path style="opacity:0.962" fill="#000000" d="M 249.5,42.5 C 294.558,42.5953 325.058,63.5953 341,105.5C 351.899,150.809 337.733,185.975 298.5,211C 262.154,228.13 228.154,224.464 196.5,200C 164.718,168.136 157.884,131.636 176,90.5C 192.254,61.7946 216.754,45.7946 249.5,42.5 Z M 250.5,73.5 C 281.484,73.667 301.984,88.3337 312,117.5C 317.597,145.479 308.43,167.312 284.5,183C 254.714,196.911 229.214,191.411 208,166.5C 192.76,142.501 193.426,118.834 210,95.5C 220.806,83.017 234.306,75.6836 250.5,73.5 Z"/></g>
<g><path style="opacity:0.963" fill="#000000" d="M 91.5,125.5 C 124.558,123.768 148.058,137.768 162,167.5C 171.657,196.368 165.823,221.534 144.5,243C 120.745,261.477 95.0781,264.477 67.5,252C 37.1654,232.683 26.6654,205.517 36,170.5C 46.0658,144.92 64.5658,129.92 91.5,125.5 Z M 94.5,156.5 C 115.327,155.992 128.827,165.659 135,185.5C 137.084,207.514 127.584,221.68 106.5,228C 84.0286,230.178 69.8619,220.345 64,198.5C 62.7113,176.048 72.878,162.048 94.5,156.5 Z"/></g>
<g><path style="opacity:0.963" fill="#000000" d="M 403.5,125.5 C 444.019,124.828 468.853,144.162 478,183.5C 480.413,213.508 468.913,236.342 443.5,252C 412.628,265.69 385.128,260.857 361,237.5C 345.619,218.603 340.952,197.269 347,173.5C 356.554,146.438 375.387,130.438 403.5,125.5 Z M 406.5,156.5 C 421.551,155.61 433.385,161.277 442,173.5C 451.469,192.125 448.303,208.292 432.5,222C 413.3,232.93 396.467,230.096 382,213.5C 370.523,193.268 374.023,176.101 392.5,162C 397.017,159.445 401.684,157.612 406.5,156.5 Z"/></g>
<g><path style="opacity:0.97" fill="#000000" d="M 511.5,330.5 C 511.5,364.5 511.5,398.5 511.5,432.5C 506.447,450.054 495.113,461.554 477.5,467C 403.523,468.154 329.523,468.654 255.5,468.5C 181.477,468.654 107.477,468.154 33.5,467C 15.8865,461.554 4.55319,450.054 -0.5,432.5C -0.5,398.5 -0.5,364.5 -0.5,330.5C 7.43998,296.061 28.7733,275.228 63.5,268C 87.5,267.333 111.5,267.333 135.5,268C 137.847,268.436 140.181,268.936 142.5,269.5C 148.545,261.276 155.212,253.443 162.5,246C 175.372,235.818 190.039,230.152 206.5,229C 239.167,228.333 271.833,228.333 304.5,229C 320.961,230.152 335.628,235.818 348.5,246C 355.788,253.443 362.455,261.276 368.5,269.5C 370.819,268.936 373.153,268.436 375.5,268C 399.5,267.333 423.5,267.333 447.5,268C 482.227,275.228 503.56,296.061 511.5,330.5 Z M 208.5,259.5 C 242.198,259.05 275.865,259.55 309.5,261C 323.983,265.153 334.483,273.987 341,287.5C 342.622,292.032 343.622,296.699 344,301.5C 344.5,346.832 344.667,392.165 344.5,437.5C 285.167,437.5 225.833,437.5 166.5,437.5C 166.034,389.804 166.534,342.137 168,294.5C 172.153,280.017 180.987,269.517 194.5,263C 199.224,261.506 203.891,260.339 208.5,259.5 Z M 66.5,298.5 C 89.5328,298.197 112.533,298.531 135.5,299.5C 135.5,345.5 135.5,391.5 135.5,437.5C 104.165,437.667 72.8316,437.5 41.5,437C 36.4268,435.594 32.9268,432.428 31,427.5C 29.8751,412.543 29.3751,397.543 29.5,382.5C 29.4085,366.139 29.9085,349.806 31,333.5C 36.1235,314.875 47.9568,303.209 66.5,298.5 Z M 378.5,298.5 C 400.503,298.333 422.503,298.5 444.5,299C 466.869,304.889 479.036,319.389 481,342.5C 481.667,369.167 481.667,395.833 481,422.5C 480.485,430.01 476.652,434.844 469.5,437C 438.168,437.5 406.835,437.667 375.5,437.5C 375.5,391.5 375.5,345.5 375.5,299.5C 376.791,299.737 377.791,299.404 378.5,298.5 Z"/></g>
</svg>
