<?xml version="1.0" encoding="UTF-8"?>
<!DOCTYPE svg PUBLIC "-//W3C//DTD SVG 1.1//EN" "http://www.w3.org/Graphics/SVG/1.1/DTD/svg11.dtd">
<svg xmlns="http://www.w3.org/2000/svg" version="1.1" width="512px" height="512px" style="shape-rendering:geometricPrecision; text-rendering:geometricPrecision; image-rendering:optimizeQuality; fill-rule:evenodd; clip-rule:evenodd" xmlns:xlink="http://www.w3.org/1999/xlink">
<g><path style="opacity:0.983" fill="#020101" d="M 511.5,384.5 C 511.5,388.5 511.5,392.5 511.5,396.5C 509.588,400.905 506.255,403.739 501.5,405C 489.217,407.59 476.884,409.923 464.5,412C 471.394,414.142 478.394,416.142 485.5,418C 490.682,421.198 493.015,425.864 492.5,432C 492.187,436.189 491.687,440.356 491,444.5C 489.091,452.295 484.091,456.295 476,456.5C 455.551,453.259 435.217,449.592 415,445.5C 415.409,468.079 404.575,481.246 382.5,485C 276.477,485.983 170.477,485.649 64.5,484C 29.8018,476.465 8.13514,455.631 -0.5,421.5C -0.5,414.167 -0.5,406.833 -0.5,399.5C 2.7784,383.03 10.6117,369.03 23,357.5C 23.3333,281.833 23.6667,206.167 24,130.5C 29.0498,113.224 40.5498,103.891 58.5,102.5C 58.8275,97.456 58.4941,92.456 57.5,87.5C 51.9864,85.8223 48.8198,82.1556 48,76.5C 47.0505,61.7649 47.3838,47.0982 49,32.5C 50.9806,29.2553 53.8139,27.0886 57.5,26C 79.8333,25.3333 102.167,25.3333 124.5,26C 129.206,27.1045 132.373,29.9378 134,34.5C 134.667,49.1667 134.667,63.8333 134,78.5C 132.308,82.8591 129.308,85.8591 125,87.5C 124.501,92.4889 124.334,97.4889 124.5,102.5C 141.773,103.941 152.939,112.941 158,129.5C 158.5,141.495 158.667,153.495 158.5,165.5C 167.723,163.669 176.723,164.336 185.5,167.5C 202.699,153.638 220.365,152.971 238.5,165.5C 250.986,153.514 263.319,141.348 275.5,129C 280.739,125.339 286.072,125.006 291.5,128C 300.387,136.227 306.887,146.06 311,157.5C 329.108,147.354 347.942,145.854 367.5,153C 369.333,154.167 370.833,155.667 372,157.5C 376.193,168.21 377.359,179.21 375.5,190.5C 402.052,188.93 418.052,201.096 423.5,227C 431.73,227.594 439.73,229.26 447.5,232C 449.333,233.167 450.833,234.667 452,236.5C 457.752,250.943 457.919,265.443 452.5,280C 457.509,283.688 459.842,288.688 459.5,295C 458.807,305.207 457.807,315.374 456.5,325.5C 461.405,325.429 465.572,327.096 469,330.5C 473.278,336.421 476.111,342.921 477.5,350C 477.435,352.591 476.935,355.091 476,357.5C 470.124,363.186 463.624,368.02 456.5,372C 469.194,370.384 481.861,368.217 494.5,365.5C 505.471,367.135 511.137,373.469 511.5,384.5 Z"/></g>
<g><path style="opacity:1" fill="#046496" d="M 63.5,41.5 C 81.8333,41.5 100.167,41.5 118.5,41.5C 118.5,51.5 118.5,61.5 118.5,71.5C 100.167,71.5 81.8333,71.5 63.5,71.5C 63.5,61.5 63.5,51.5 63.5,41.5 Z"/></g>
<g><path style="opacity:1" fill="#023a58" d="M 63.5,41.5 C 81.9925,40.5031 100.659,40.1698 119.5,40.5C 119.5,51.1667 119.5,61.8333 119.5,72.5C 100.659,72.8302 81.9925,72.4969 63.5,71.5C 81.8333,71.5 100.167,71.5 118.5,71.5C 118.5,61.5 118.5,51.5 118.5,41.5C 100.167,41.5 81.8333,41.5 63.5,41.5 Z"/></g>
<g><path style="opacity:1" fill="#47c0e0" d="M 73.5,87.5 C 85.1667,87.5 96.8333,87.5 108.5,87.5C 108.5,92.5 108.5,97.5 108.5,102.5C 96.8333,102.5 85.1667,102.5 73.5,102.5C 73.5,97.5 73.5,92.5 73.5,87.5 Z"/></g>
<g><path style="opacity:1" fill="#8bc0d7" d="M 127.5,118.5 C 108.497,118.333 89.4971,118.5 70.5,119C 67.3578,122.785 64.8578,126.952 63,131.5C 62.5003,138.826 62.3337,146.159 62.5,153.5C 54.5,153.5 46.5,153.5 38.5,153.5C 38.3337,146.825 38.5004,140.158 39,133.5C 41.5,125.667 46.6667,120.5 54.5,118C 79.0035,117.17 103.337,117.337 127.5,118.5 Z"/></g>
<g><path style="opacity:1" fill="#a1def8" d="M 127.5,118.5 C 134.264,120.092 139.098,124.092 142,130.5C 143.396,138.08 143.896,145.747 143.5,153.5C 137.824,153.334 132.157,153.501 126.5,154C 124.077,155.571 122.744,157.737 122.5,160.5C 113.167,161.833 103.833,161.833 94.5,160.5C 94.0995,156.93 92.0995,154.764 88.5,154C 79.8397,153.5 71.1731,153.334 62.5,153.5C 62.3337,146.159 62.5003,138.826 63,131.5C 64.8578,126.952 67.3578,122.785 70.5,119C 89.4971,118.5 108.497,118.333 127.5,118.5 Z"/></g>
<g><path style="opacity:1" fill="#e84d4d" d="M 283.5,142.5 C 291.922,149.928 296.422,159.261 297,170.5C 293.615,174.217 290.615,178.217 288,182.5C 282.584,181.361 277.084,181.194 271.5,182C 266.564,185.958 266.231,190.291 270.5,195C 274.73,196.29 279.064,196.79 283.5,196.5C 283.115,202.701 279.782,205.534 273.5,205C 268.177,196.836 260.843,191.336 251.5,188.5C 250.456,185.2 249.123,182.033 247.5,179C 259.702,166.965 271.702,154.798 283.5,142.5 Z"/></g>
<g><path style="opacity:1" fill="#060201" d="M 277.5,154.5 C 285.33,153.495 288.496,156.828 287,164.5C 284.203,168.299 281.036,171.799 277.5,175C 273.184,177.546 269.684,176.713 267,172.5C 266.333,170.167 266.333,167.833 267,165.5C 270.03,161.305 273.53,157.639 277.5,154.5 Z"/></g>
<g><path style="opacity:1" fill="#046598" d="M 94.5,160.5 C 103.833,161.833 113.167,161.833 122.5,160.5C 122.146,163.961 123.479,166.461 126.5,168C 132.157,168.499 137.824,168.666 143.5,168.5C 143.663,170.857 143.497,173.19 143,175.5C 134.344,185.138 130.677,196.471 132,209.5C 118.925,219.717 113.925,233.051 117,249.5C 113.537,251.476 110.37,253.81 107.5,256.5C 92.5,256.5 77.5,256.5 62.5,256.5C 62.5,227.5 62.5,198.5 62.5,169.5C 71.0168,169.826 79.3501,169.493 87.5,168.5C 92.3057,168.026 94.639,165.36 94.5,160.5 Z"/></g>
<g><path style="opacity:1" fill="#86c545" d="M 332.5,164.5 C 339.175,164.334 345.842,164.5 352.5,165C 354.888,165.303 357.055,166.137 359,167.5C 361.685,179.179 360.685,190.512 356,201.5C 352.584,205.084 349.751,209.084 347.5,213.5C 340.162,214.503 333.495,217.17 327.5,221.5C 325.34,219.169 323.34,216.669 321.5,214C 327.333,208.167 333.167,202.333 339,196.5C 342.325,187.319 339.158,183.485 329.5,185C 322.667,191.833 315.833,198.667 309,205.5C 305.413,203.583 301.58,202.583 297.5,202.5C 302.258,183.411 313.924,170.744 332.5,164.5 Z"/></g>
<g><path style="opacity:1" fill="#035b88" d="M 39.5,168.5 C 55.5,168.5 71.5,168.5 87.5,168.5C 79.3501,169.493 71.0168,169.826 62.5,169.5C 62.5,198.5 62.5,227.5 62.5,256.5C 54.8333,256.5 47.1667,256.5 39.5,256.5C 39.5,227.167 39.5,197.833 39.5,168.5 Z"/></g>
<g><path style="opacity:1" fill="#34890d" d="M 206.5,172.5 C 225.712,171.206 236.212,180.206 238,199.5C 241.904,201.525 246.071,203.025 250.5,204C 255.727,206.393 259.394,210.226 261.5,215.5C 257.766,220.972 255.1,226.972 253.5,233.5C 238.511,234.333 223.511,234.833 208.5,235C 204.175,236.156 200.842,238.656 198.5,242.5C 180.977,231.028 162.644,229.528 143.5,238C 141.951,239.214 140.785,240.714 140,242.5C 139.021,246.566 137.854,250.566 136.5,254.5C 129.713,244.362 129.879,234.362 137,224.5C 141.113,221.957 144.78,218.957 148,215.5C 147.78,208.845 147.78,202.178 148,195.5C 156.687,178.606 169.187,175.106 185.5,185C 191.16,185.7 195.16,183.367 197.5,178C 200.596,176.128 203.596,174.295 206.5,172.5 Z"/></g>
<g><path style="opacity:1" fill="#010300" d="M 172.5,191.5 C 183.145,189.437 191.978,192.437 199,200.5C 199.67,208.161 196.17,211.327 188.5,210C 178.844,202.93 173.011,205.43 171,217.5C 166.667,222.833 162.333,222.833 158,217.5C 156.657,205.352 161.491,196.686 172.5,191.5 Z"/></g>
<g><path style="opacity:1" fill="#f9c001" d="M 377.5,205.5 C 391.853,204.253 401.686,210.253 407,223.5C 407.818,226.227 407.652,228.894 406.5,231.5C 399.267,233.911 392.933,237.744 387.5,243C 386.207,243.49 384.873,243.657 383.5,243.5C 380.745,231.251 373.745,222.418 362.5,217C 366.52,211.804 371.52,207.971 377.5,205.5 Z"/></g>
<g><path style="opacity:1" fill="#010200" d="M 210.5,210.5 C 222.332,208.263 231.166,212.263 237,222.5C 238.327,230.836 234.827,234.003 226.5,232C 224.595,230.185 222.928,228.185 221.5,226C 218.662,223.88 215.996,224.047 213.5,226.5C 210.667,233.085 206,234.919 199.5,232C 196.127,225.323 197.46,219.656 203.5,215C 205.898,213.476 208.231,211.976 210.5,210.5 Z"/></g>
<g><path style="opacity:1" fill="#f3901d" d="M 286.5,216.5 C 301.283,214.706 310.95,220.706 315.5,234.5C 299.83,234.667 284.163,234.5 268.5,234C 271.75,225.249 277.75,219.416 286.5,216.5 Z"/></g>
<g><path style="opacity:1" fill="#358a0e" d="M 378.5,287.5 C 368.833,287.5 359.167,287.5 349.5,287.5C 348.887,281.734 345.554,278.9 339.5,279C 344.955,267.437 347.122,255.27 346,242.5C 343.902,238.569 340.736,235.903 336.5,234.5C 341.209,229.878 346.876,228.378 353.5,230C 360.79,231.288 365.623,235.455 368,242.5C 368.835,246.179 369.668,249.845 370.5,253.5C 371.5,254.333 372.5,255.167 373.5,256C 387.261,257.92 393.927,265.753 393.5,279.5C 389.363,279.146 385.363,279.646 381.5,281C 379.081,282.509 378.081,284.675 378.5,287.5 Z"/></g>
<g><path style="opacity:1" fill="#86c545" d="M 416.5,243.5 C 424.28,243.132 431.947,243.798 439.5,245.5C 440.508,252.472 440.675,259.472 440,266.5C 439.349,270.805 437.849,274.805 435.5,278.5C 428.858,279.664 422.192,279.831 415.5,279C 419.596,276.085 422.263,272.252 423.5,267.5C 422.77,263.27 420.27,260.937 416,260.5C 412.817,261.51 409.984,263.177 407.5,265.5C 405.599,260.698 402.932,256.364 399.5,252.5C 404.729,248.545 410.396,245.545 416.5,243.5 Z"/></g>
<g><path style="opacity:1" fill="#86c545" d="M 171.5,278.5 C 166.025,279.489 160.358,279.822 154.5,279.5C 151.42,269.959 150.92,260.292 153,250.5C 168.106,245.602 181.94,248.102 194.5,258C 196.709,259.873 198.542,262.04 200,264.5C 201.516,269.521 203.016,274.521 204.5,279.5C 200.818,279.665 197.152,279.499 193.5,279C 189.5,275 185.5,271 181.5,267C 172.912,263.606 168.746,266.439 169,275.5C 170.045,276.373 170.878,277.373 171.5,278.5 Z"/></g>
<g><path style="opacity:1" fill="#ea4e4e" d="M 213.5,249.5 C 252.833,249.5 292.167,249.5 331.5,249.5C 331.417,260.247 328.417,270.08 322.5,279C 312.496,281.589 304.496,278.923 298.5,271C 294.323,267.532 290.323,267.698 286.5,271.5C 285.607,274.084 285.274,276.751 285.5,279.5C 283.473,279.662 281.473,279.495 279.5,279C 275.228,274.612 270.895,274.446 266.5,278.5C 263.914,279.48 261.247,279.813 258.5,279.5C 259.901,273.278 257.567,269.611 251.5,268.5C 249.209,268.622 247.209,269.455 245.5,271C 243.402,273.854 241.069,276.521 238.5,279C 232.804,279.83 227.137,279.663 221.5,278.5C 215.98,269.608 213.313,259.941 213.5,249.5 Z"/></g>
<g><path style="opacity:1" fill="#0c0303" d="M 225.5,253.5 C 231.176,253.334 236.843,253.501 242.5,254C 247.997,259.033 247.664,263.7 241.5,268C 236.5,268.667 231.5,268.667 226.5,268C 220.413,263.445 220.08,258.612 225.5,253.5 Z"/></g>
<g><path style="opacity:1" fill="#080202" d="M 302.5,253.5 C 308.621,253.09 314.621,253.59 320.5,255C 322.504,257.841 323.004,261.007 322,264.5C 320.681,266.487 318.848,267.654 316.5,268C 311.382,268.888 306.382,268.555 301.5,267C 297.285,262.134 297.618,257.634 302.5,253.5 Z"/></g>
<g><path style="opacity:1" fill="#02344d" d="M 39.5,168.5 C 39.5,197.833 39.5,227.167 39.5,256.5C 47.1667,256.5 54.8333,256.5 62.5,256.5C 77.5,256.5 92.5,256.5 107.5,256.5C 84.6727,257.498 61.6727,257.831 38.5,257.5C 38.1686,227.662 38.5019,197.995 39.5,168.5 Z"/></g>
<g><path style="opacity:1" fill="#f8bf01" d="M 121.5,263.5 C 122.552,263.351 123.552,263.517 124.5,264C 127.954,267.889 131.954,271.056 136.5,273.5C 138.086,275.173 138.753,277.173 138.5,279.5C 129.833,279.5 121.167,279.5 112.5,279.5C 113.421,272.99 116.421,267.657 121.5,263.5 Z"/></g>
<g><path style="opacity:1" fill="#618696" d="M 98.5,272.5 C 86.5,272.5 74.5,272.5 62.5,272.5C 54.8333,272.5 47.1667,272.5 39.5,272.5C 39.5,296.833 39.5,321.167 39.5,345.5C 38.5007,321.575 38.1674,296.908 38.5,271.5C 58.6736,271.17 78.6736,271.503 98.5,272.5 Z"/></g>
<g><path style="opacity:1" fill="#90c7df" d="M 62.5,272.5 C 62.1698,291.341 62.5031,310.007 63.5,328.5C 55.9843,330.142 49.4843,333.809 44,339.5C 43.1376,341.087 42.4709,342.754 42,344.5C 41.3292,345.252 40.4959,345.586 39.5,345.5C 39.5,321.167 39.5,296.833 39.5,272.5C 47.1667,272.5 54.8333,272.5 62.5,272.5 Z"/></g>
<g><path style="opacity:1" fill="#a0dcf6" d="M 62.5,272.5 C 74.5,272.5 86.5,272.5 98.5,272.5C 98.0074,274.806 97.6741,277.139 97.5,279.5C 91.6464,279.848 87.1464,282.515 84,287.5C 83.3333,295.167 83.3333,302.833 84,310.5C 85.3469,316.095 86.1803,321.762 86.5,327.5C 78.7911,327.269 71.1244,327.602 63.5,328.5C 62.5031,310.007 62.1698,291.341 62.5,272.5 Z"/></g>
<g><path style="opacity:1" fill="#2f4518" d="M 171.5,278.5 C 172.043,278.56 172.376,278.893 172.5,279.5C 166.346,280.817 160.346,280.817 154.5,279.5C 160.358,279.822 166.025,279.489 171.5,278.5 Z"/></g>
<g><path style="opacity:1" fill="#fefdfd" d="M 349.5,287.5 C 359.167,287.5 368.833,287.5 378.5,287.5C 378.444,290.561 379.778,292.728 382.5,294C 402.831,294.5 423.164,294.667 443.5,294.5C 443.401,308.421 441.568,322.088 438,335.5C 424.915,343.293 411.749,350.96 398.5,358.5C 393.109,345.266 383.442,337.432 369.5,335C 365.5,334.333 361.5,334.333 357.5,335C 328.1,345.8 298.767,356.8 269.5,368C 265.019,370.061 263.352,373.561 264.5,378.5C 255.426,381.302 246.426,384.302 237.5,387.5C 235.559,385.277 233.059,383.944 230,383.5C 222.51,385.774 215.177,388.441 208,391.5C 201.086,370.756 187.92,355.423 168.5,345.5C 164.956,337.044 158.623,331.877 149.5,330C 145.175,329.026 140.842,328.193 136.5,327.5C 132.702,326.517 128.702,326.183 124.5,326.5C 122.925,316.24 122.258,305.906 122.5,295.5C 196.335,295.833 270.002,295.499 343.5,294.5C 347.59,293.998 349.59,291.665 349.5,287.5 Z"/></g>
<g><path style="opacity:1" fill="#d5d5d5" d="M 343.5,294.5 C 270.002,295.499 196.335,295.833 122.5,295.5C 122.258,305.906 122.925,316.24 124.5,326.5C 128.702,326.183 132.702,326.517 136.5,327.5C 128.475,327.39 120.475,327.724 112.5,328.5C 112.919,319.572 108.919,316.239 100.5,318.5C 98.9055,310.583 98.2388,302.583 98.5,294.5C 180.167,294.5 261.833,294.5 343.5,294.5 Z"/></g>
<g><path style="opacity:1" fill="#34870d" d="M 68.5,342.5 C 80.7829,341.654 92.7829,342.987 104.5,346.5C 108.971,345.843 113.305,344.676 117.5,343C 125.167,342.333 132.833,342.333 140.5,343C 144.419,343.75 148.085,345.083 151.5,347C 146.716,349.113 141.716,350.446 136.5,351C 131.857,353.072 130.357,356.572 132,361.5C 133.822,364.321 135.989,366.821 138.5,369C 134.38,369.307 130.38,368.64 126.5,367C 118.925,363.381 111.592,359.548 104.5,355.5C 103.5,355.667 102.5,355.833 101.5,356C 92.6358,363.935 82.3025,368.268 70.5,369C 73.372,366.463 75.872,363.63 78,360.5C 78.7063,358.029 78.373,355.695 77,353.5C 70.7444,351.478 64.5778,349.144 58.5,346.5C 61.855,344.944 65.1883,343.61 68.5,342.5 Z"/></g>
<g><path style="opacity:1" fill="#84c244" d="M 456.5,341.5 C 459.579,343.737 461.079,346.737 461,350.5C 445.167,361 429.333,371.5 413.5,382C 409.688,388.87 411.521,393.37 419,395.5C 444.401,390.239 469.901,385.572 495.5,381.5C 495.704,384.518 496.037,387.518 496.5,390.5C 471.508,394.952 446.508,399.452 421.5,404C 413.5,409 413.5,414 421.5,419C 439.454,423.214 457.454,427.214 475.5,431C 476.451,434.057 476.784,437.223 476.5,440.5C 454.454,437.156 432.454,433.489 410.5,429.5C 407.991,413.121 405.158,396.788 402,380.5C 401.186,378.098 401.353,375.765 402.5,373.5C 420.8,363.169 438.8,352.502 456.5,341.5 Z"/></g>
<g><path style="opacity:1" fill="#f5921d" d="M 398.5,444.5 C 398.822,446.722 398.155,448.556 396.5,450C 388.191,455.004 379.191,456.838 369.5,455.5C 368.669,451.187 367.836,446.853 367,442.5C 362.748,436.347 358.081,436.014 353,441.5C 352.721,445.17 352.888,448.837 353.5,452.5C 353.5,453.5 353.5,454.5 353.5,455.5C 345.167,455.5 336.833,455.5 328.5,455.5C 327.781,447.577 323.781,444.744 316.5,447C 314.859,448.129 313.859,449.629 313.5,451.5C 312.566,452.568 312.232,453.901 312.5,455.5C 292.833,455.5 273.167,455.5 253.5,455.5C 252.538,451.231 251.372,446.897 250,442.5C 244.879,438.125 240.545,438.791 237,444.5C 236.828,447.826 236.995,451.159 237.5,454.5C 207.336,455.664 177.003,455.831 146.5,455C 141.523,453.503 137.19,451.003 133.5,447.5C 134.182,441.632 136.848,436.799 141.5,433C 152.06,428.553 162.727,424.386 173.5,420.5C 174.647,420.818 175.481,421.484 176,422.5C 176.412,427.24 177.579,431.74 179.5,436C 187.007,439.255 191.007,436.922 191.5,429C 190.985,424.085 190.485,419.252 190,414.5C 204.762,408.537 219.596,402.704 234.5,397C 237.186,394.454 238.186,391.287 237.5,387.5C 246.426,384.302 255.426,381.302 264.5,378.5C 266.001,381.09 268.335,382.423 271.5,382.5C 275.8,381.601 279.967,380.267 284,378.5C 284.5,378.833 285,379.167 285.5,379.5C 286.81,386.22 288.31,392.887 290,399.5C 293.925,403.41 297.925,403.41 302,399.5C 302.958,397.801 303.458,395.967 303.5,394C 302.1,387.166 300.767,380.333 299.5,373.5C 318.849,365.17 338.515,357.336 358.5,350C 371.122,347.725 379.622,352.558 384,364.5C 389.159,391.121 393.992,417.788 398.5,444.5 Z"/></g>
<g><path style="opacity:1" fill="#d44747" d="M 54.5,368.5 C 34.0822,394.739 33.2489,421.739 52,449.5C 58.8499,457.532 66.6832,464.199 75.5,469.5C 45.4882,467.253 25.6549,451.919 16,423.5C 11.3709,394.092 22.2042,372.425 48.5,358.5C 50.8944,360.068 53.3944,361.401 56,362.5C 56.1206,364.684 55.6206,366.684 54.5,368.5 Z"/></g>
<g><path style="opacity:1" fill="#ed4f4f" d="M 123.5,468.5 C 107.675,469.496 91.6754,469.83 75.5,469.5C 66.6832,464.199 58.8499,457.532 52,449.5C 33.2489,421.739 34.0822,394.739 54.5,368.5C 54.03,376.539 57.6967,381.706 65.5,384C 79.7815,384.116 92.9482,380.282 105,372.5C 113.302,377.568 122.136,381.402 131.5,384C 138.215,385.248 144.548,384.248 150.5,381C 156.129,375.531 156.795,369.531 152.5,363C 155.5,361.5 158.5,360 161.5,358.5C 178.056,366.718 188.723,379.718 193.5,397.5C 175.676,403.498 158.01,409.998 140.5,417C 118.458,428.646 112.791,445.813 123.5,468.5 Z"/></g>
<g><path style="opacity:1" fill="#dd841a" d="M 133.5,447.5 C 137.19,451.003 141.523,453.503 146.5,455C 177.003,455.831 207.336,455.664 237.5,454.5C 238.861,459.304 239.861,464.304 240.5,469.5C 209.165,469.667 177.832,469.5 146.5,469C 137.039,465.019 132.705,457.853 133.5,447.5 Z"/></g>
<g><path style="opacity:1" fill="#da821a" d="M 398.5,444.5 C 401.015,456.625 396.349,464.792 384.5,469C 380.179,469.499 375.846,469.666 371.5,469.5C 371.474,464.733 370.807,460.066 369.5,455.5C 379.191,456.838 388.191,455.004 396.5,450C 398.155,448.556 398.822,446.722 398.5,444.5 Z"/></g>
<g><path style="opacity:1" fill="#dd831a" d="M 313.5,451.5 C 314.037,457.516 314.703,463.516 315.5,469.5C 295.5,469.5 275.5,469.5 255.5,469.5C 254.704,464.853 254.037,460.186 253.5,455.5C 273.167,455.5 292.833,455.5 312.5,455.5C 312.232,453.901 312.566,452.568 313.5,451.5 Z"/></g>
<g><path style="opacity:1" fill="#db821a" d="M 353.5,452.5 C 355.117,457.933 356.117,463.6 356.5,469.5C 347.833,469.5 339.167,469.5 330.5,469.5C 330.112,464.781 329.445,460.114 328.5,455.5C 336.833,455.5 345.167,455.5 353.5,455.5C 353.5,454.5 353.5,453.5 353.5,452.5 Z"/></g>
<g><path style="opacity:1" fill="#571d1d" d="M 123.5,468.5 C 124.043,468.56 124.376,468.893 124.5,469.5C 108.005,470.827 91.6715,470.827 75.5,469.5C 91.6754,469.83 107.675,469.496 123.5,468.5 Z"/></g>
</svg>
