<?xml version="1.0" encoding="UTF-8"?>
<!DOCTYPE svg PUBLIC "-//W3C//DTD SVG 1.1//EN" "http://www.w3.org/Graphics/SVG/1.1/DTD/svg11.dtd">
<svg xmlns="http://www.w3.org/2000/svg" version="1.1" width="512px" height="512px" style="shape-rendering:geometricPrecision; text-rendering:geometricPrecision; image-rendering:optimizeQuality; fill-rule:evenodd; clip-rule:evenodd" xmlns:xlink="http://www.w3.org/1999/xlink">
<g><path style="opacity:0.966" fill="#000000" d="M 234.5,31.5 C 313.354,26.8605 378.521,54.1938 430,113.5C 477.838,176.361 491.171,246.028 470,322.5C 444.833,395.667 395.667,444.833 322.5,470C 230.927,494.242 152.427,472.409 87,404.5C 48.6467,360.09 30.3133,308.423 32,249.5C 36.4731,240.518 43.6397,237.351 53.5,240C 58,241.833 61.1667,245 63,249.5C 64.0373,317.075 91.2039,371.242 144.5,412C 203.264,451.233 265.597,457.899 331.5,432C 396.409,401.389 434.576,350.556 446,279.5C 452.546,196.424 420.713,132.924 350.5,89C 292.086,58.0332 232.752,56.0332 172.5,83C 165.337,86.7471 158.337,90.7471 151.5,95C 171.753,93.566 178.919,102.399 173,121.5C 171.062,124.106 168.562,125.939 165.5,127C 145.5,127.667 125.5,127.667 105.5,127C 101,125.167 97.8333,122 96,117.5C 95.3333,97.5 95.3333,77.5 96,57.5C 98.8068,50.513 103.973,47.1797 111.5,47.5C 119.027,47.1797 124.193,50.513 127,57.5C 127.333,61.8333 127.667,66.1667 128,70.5C 160.397,48.8692 195.897,35.8692 234.5,31.5 Z"/></g>
<g><path style="opacity:0.965" fill="#000000" d="M 238.5,111.5 C 299.477,107.573 346.644,130.906 380,181.5C 399.855,216.818 404.855,254.151 395,293.5C 380.262,342.572 348.762,375.739 300.5,393C 240.395,409.513 188.895,395.346 146,350.5C 109.802,304.796 101.802,254.463 122,199.5C 145.214,149.449 184.047,120.115 238.5,111.5 Z M 254.5,143.5 C 307.495,146.682 343.328,173.016 362,222.5C 375.036,277.557 358.203,320.724 311.5,352C 274.167,371.333 236.833,371.333 199.5,352C 156.842,324.181 139.009,285.015 146,234.5C 157.5,187 187,157.5 234.5,146C 241.308,145.117 247.975,144.283 254.5,143.5 Z"/></g>
<g><path style="opacity:0.975" fill="#000000" d="M 249.5,159.5 C 259.36,157.35 266.527,160.683 271,169.5C 271.333,195.167 271.667,220.833 272,246.5C 287.348,256.34 302.348,266.673 317,277.5C 321.718,287.31 319.885,295.476 311.5,302C 305.325,304.256 299.325,303.923 293.5,301C 277.5,290.333 261.5,279.667 245.5,269C 242.894,267.062 241.061,264.562 240,261.5C 239.333,230.833 239.333,200.167 240,169.5C 242.022,164.98 245.189,161.647 249.5,159.5 Z"/></g>
</svg>
