<?xml version="1.0" encoding="UTF-8"?>
<!DOCTYPE svg PUBLIC "-//W3C//DTD SVG 1.1//EN" "http://www.w3.org/Graphics/SVG/1.1/DTD/svg11.dtd">
<svg xmlns="http://www.w3.org/2000/svg" version="1.1" width="512px" height="512px" style="shape-rendering:geometricPrecision; text-rendering:geometricPrecision; image-rendering:optimizeQuality; fill-rule:evenodd; clip-rule:evenodd" xmlns:xlink="http://www.w3.org/1999/xlink">
<g><path style="opacity:0.984" fill="#030202" d="M 416.5,-0.5 C 422.833,-0.5 429.167,-0.5 435.5,-0.5C 462.823,8.78737 473.656,27.7874 468,56.5C 460.97,70.0619 452.803,82.8953 443.5,95C 440.546,96.7186 437.546,96.8853 434.5,95.5C 431.647,93.1321 430.481,90.1321 431,86.5C 436.942,76.893 443.275,67.5597 450,58.5C 456.368,47.135 455.868,36.135 448.5,25.5C 438.8,14.9921 427.133,12.1588 413.5,17C 409.421,19.0751 405.921,21.9084 403,25.5C 390.077,51.6806 377.41,78.0139 365,104.5C 364.333,106.5 364.333,108.5 365,110.5C 367.77,118.639 369.603,126.972 370.5,135.5C 370.337,137.857 370.503,140.19 371,142.5C 375.882,145.025 380.715,147.692 385.5,150.5C 394.812,138.557 403.645,126.224 412,113.5C 415.278,109.218 419.111,108.552 423.5,111.5C 426.803,114.665 427.303,118.332 425,122.5C 416.535,135.263 407.702,147.763 398.5,160C 424.647,183.894 437.313,213.727 436.5,249.5C 456.231,251.066 465.398,261.732 464,281.5C 461.957,290.089 457.124,296.589 449.5,301C 444.714,302.537 439.881,303.704 435,304.5C 426.216,358.536 417.216,412.536 408,466.5C 405.322,472.098 400.822,475.098 394.5,475.5C 394.666,484.506 394.5,493.506 394,502.5C 392.887,506.766 390.387,509.766 386.5,511.5C 297.167,511.5 207.833,511.5 118.5,511.5C 115.861,509.691 113.694,507.358 112,504.5C 111.5,494.839 111.334,485.172 111.5,475.5C 103.924,475.422 99.0911,471.755 97,464.5C 88.1649,410.823 79.3316,357.156 70.5,303.5C 52.7785,303.111 43.1118,294.111 41.5,276.5C 41.5265,264.29 47.1932,255.79 58.5,251C 62.4183,249.844 66.4183,249.344 70.5,249.5C 65.4943,188.158 91.4943,146.158 148.5,123.5C 159.888,77.279 188.555,48.1123 234.5,36C 276.396,28.0783 312.229,39.245 342,69.5C 346.721,75.2206 351.054,81.2206 355,87.5C 367.016,63.4689 379.016,39.4689 391,15.5C 397.907,7.47157 406.407,2.13824 416.5,-0.5 Z"/></g>
<g><path style="opacity:1" fill="#fa7e85" d="M 448.5,25.5 C 434.783,25.109 423.949,30.4424 416,41.5C 401.059,73.0468 385.892,104.38 370.5,135.5C 369.603,126.972 367.77,118.639 365,110.5C 364.333,108.5 364.333,106.5 365,104.5C 377.41,78.0139 390.077,51.6806 403,25.5C 405.921,21.9084 409.421,19.0751 413.5,17C 427.133,12.1588 438.8,14.9921 448.5,25.5 Z"/></g>
<g><path style="opacity:0.998" fill="#fc989f" d="M 448.5,25.5 C 455.868,36.135 456.368,47.135 450,58.5C 443.275,67.5597 436.942,76.893 431,86.5C 430.481,90.1321 431.647,93.1321 434.5,95.5C 430.846,100.796 427.179,106.129 423.5,111.5C 419.111,108.552 415.278,109.218 412,113.5C 403.645,126.224 394.812,138.557 385.5,150.5C 380.715,147.692 375.882,145.025 371,142.5C 370.503,140.19 370.337,137.857 370.5,135.5C 385.892,104.38 401.059,73.0468 416,41.5C 423.949,30.4424 434.783,25.109 448.5,25.5 Z"/></g>
<g><path style="opacity:1" fill="#fb979e" d="M 260.5,49.5 C 266.88,49.3928 273.213,49.8928 279.5,51C 288.822,53.4947 297.822,56.6613 306.5,60.5C 297.777,87.1685 288.944,113.835 280,140.5C 273.157,143.92 266.49,147.587 260,151.5C 255.845,148.013 251.678,144.513 247.5,141C 243.213,137.691 238.547,135.191 233.5,133.5C 242.5,105.5 251.5,77.5 260.5,49.5 Z"/></g>
<g><path style="opacity:1" fill="#f1d602" d="M 240.5,62.5 C 240.44,61.9569 240.107,61.6236 239.5,61.5C 218.663,76.5104 205.33,96.5104 199.5,121.5C 188.256,119.203 176.923,118.87 165.5,120.5C 177.446,80.8848 203.78,57.5515 244.5,50.5C 243.739,54.7843 242.405,58.7843 240.5,62.5 Z"/></g>
<g><path style="opacity:1" fill="#fbe602" d="M 240.5,62.5 C 233.629,83.7785 226.963,105.112 220.5,126.5C 213.619,124.363 206.619,122.697 199.5,121.5C 205.33,96.5104 218.663,76.5104 239.5,61.5C 240.107,61.6236 240.44,61.9569 240.5,62.5 Z"/></g>
<g><path style="opacity:1" fill="#f9e402" d="M 318.5,70.5 C 323.012,72.4975 326.845,75.4975 330,79.5C 344.467,95.7723 352.967,114.772 355.5,136.5C 339.73,132.705 323.73,131.538 307.5,133C 304.45,133.679 301.45,134.512 298.5,135.5C 298.167,135.167 297.833,134.833 297.5,134.5C 304.907,113.278 311.907,91.945 318.5,70.5 Z"/></g>
<g><path style="opacity:1" fill="#95d428" d="M 191.5,135.5 C 174.48,143.518 160.48,155.185 149.5,170.5C 146.924,172.888 145.924,175.888 146.5,179.5C 145.732,178.737 145.232,177.737 145,176.5C 138.222,187.67 133.722,199.67 131.5,212.5C 130.317,211.496 128.984,210.662 127.5,210C 121.833,209.333 116.167,209.333 110.5,210C 104.938,215.163 105.271,219.829 111.5,224C 117.551,224.746 123.551,224.579 129.5,223.5C 129.521,232.182 129.854,240.848 130.5,249.5C 115.833,249.5 101.167,249.5 86.5,249.5C 80.538,198.92 100.538,162.754 146.5,141C 161.188,135.211 176.188,133.378 191.5,135.5 Z"/></g>
<g><path style="opacity:1" fill="#a0e42d" d="M 191.5,135.5 C 213.28,137.727 231.947,146.393 247.5,161.5C 223.087,185.674 211.42,215.008 212.5,249.5C 185.167,249.5 157.833,249.5 130.5,249.5C 129.854,240.848 129.521,232.182 129.5,223.5C 132.432,220.239 133.099,216.572 131.5,212.5C 133.722,199.67 138.222,187.67 145,176.5C 145.232,177.737 145.732,178.737 146.5,179.5C 148.897,184.78 153.064,186.78 159,185.5C 167.915,186.913 171.915,183.246 171,174.5C 170.5,172.667 169.333,171.5 167.5,171C 161.509,170.501 155.509,170.334 149.5,170.5C 160.48,155.185 174.48,143.518 191.5,135.5 Z"/></g>
<g><path style="opacity:1" fill="#c37943" d="M 336.5,148.5 C 324.004,152.028 313.671,158.695 305.5,168.5C 298.819,164.841 294.486,166.674 292.5,174C 292.758,176.009 293.425,177.843 294.5,179.5C 287.909,187.672 282.575,196.672 278.5,206.5C 268.964,205.216 265.797,209.216 269,218.5C 271.326,220.066 273.492,221.732 275.5,223.5C 274.21,224.058 273.377,225.058 273,226.5C 271.795,234.119 271.295,241.786 271.5,249.5C 269.167,249.5 266.833,249.5 264.5,249.5C 262.458,241.23 257.958,239.563 251,244.5C 249.991,246.025 249.491,247.692 249.5,249.5C 242.167,249.5 234.833,249.5 227.5,249.5C 227.527,200.923 250.193,168.09 295.5,151C 309.141,147.48 322.807,146.647 336.5,148.5 Z"/></g>
<g><path style="opacity:1" fill="#d68954" d="M 336.5,148.5 C 367.865,152.696 391.698,168.363 408,195.5C 417.838,212.186 422.005,230.186 420.5,249.5C 408.833,249.5 397.167,249.5 385.5,249.5C 383.458,241.23 378.958,239.563 372,244.5C 370.991,246.025 370.491,247.692 370.5,249.5C 337.5,249.5 304.5,249.5 271.5,249.5C 271.295,241.786 271.795,234.119 273,226.5C 273.377,225.058 274.21,224.058 275.5,223.5C 286.58,227.641 296.08,225.307 304,216.5C 305.326,208.829 302.159,205.329 294.5,206C 292.037,208.565 289.037,210.065 285.5,210.5C 282.666,209.99 280.332,208.656 278.5,206.5C 282.575,196.672 287.909,187.672 294.5,179.5C 301.181,183.159 305.514,181.326 307.5,174C 307.242,171.991 306.575,170.157 305.5,168.5C 313.671,158.695 324.004,152.028 336.5,148.5 Z"/></g>
<g><path style="opacity:1" fill="#070902" d="M 201.5,161.5 C 208.284,161.08 214.95,161.58 221.5,163C 224.774,168.369 223.774,172.702 218.5,176C 212.719,176.903 207.053,176.57 201.5,175C 197.541,170.501 197.541,166.001 201.5,161.5 Z"/></g>
<g><path style="opacity:1" fill="#080402" d="M 305.5,168.5 C 306.575,170.157 307.242,171.991 307.5,174C 305.514,181.326 301.181,183.159 294.5,179.5C 293.425,177.843 292.758,176.009 292.5,174C 294.486,166.674 298.819,164.841 305.5,168.5 Z"/></g>
<g><path style="opacity:1" fill="#070902" d="M 149.5,170.5 C 155.509,170.334 161.509,170.501 167.5,171C 169.333,171.5 170.5,172.667 171,174.5C 171.915,183.246 167.915,186.913 159,185.5C 153.064,186.78 148.897,184.78 146.5,179.5C 145.924,175.888 146.924,172.888 149.5,170.5 Z"/></g>
<g><path style="opacity:1" fill="#040201" d="M 333.5,180.5 C 337.819,179.799 341.486,180.966 344.5,184C 349.041,185.114 353.041,184.114 356.5,181C 364.89,179.725 368.057,183.225 366,191.5C 355.513,201.082 344.346,201.915 332.5,194C 328.305,189.044 328.639,184.544 333.5,180.5 Z"/></g>
<g><path style="opacity:1" fill="#090502" d="M 387.5,196.5 C 394.657,196.155 397.824,199.488 397,206.5C 392.333,213.167 387.667,213.167 383,206.5C 382.077,202.017 383.577,198.683 387.5,196.5 Z"/></g>
<g><path style="opacity:1" fill="#070402" d="M 278.5,206.5 C 280.332,208.656 282.666,209.99 285.5,210.5C 289.037,210.065 292.037,208.565 294.5,206C 302.159,205.329 305.326,208.829 304,216.5C 296.08,225.307 286.58,227.641 275.5,223.5C 273.492,221.732 271.326,220.066 269,218.5C 265.797,209.216 268.964,205.216 278.5,206.5 Z"/></g>
<g><path style="opacity:1" fill="#050701" d="M 131.5,212.5 C 133.099,216.572 132.432,220.239 129.5,223.5C 123.551,224.579 117.551,224.746 111.5,224C 105.271,219.829 104.938,215.163 110.5,210C 116.167,209.333 121.833,209.333 127.5,210C 128.984,210.662 130.317,211.496 131.5,212.5 Z"/></g>
<g><path style="opacity:1" fill="#020300" d="M 172.5,210.5 C 178.621,210.09 184.621,210.59 190.5,212C 193.616,214.961 194.283,218.461 192.5,222.5C 191.335,223.584 190.002,224.417 188.5,225C 183.167,225.667 177.833,225.667 172.5,225C 167.203,220.215 167.203,215.382 172.5,210.5 Z"/></g>
<g><path style="opacity:1" fill="#090502" d="M 337.5,219.5 C 344.657,219.155 347.824,222.488 347,229.5C 342.333,236.167 337.667,236.167 333,229.5C 332.077,225.017 333.577,221.683 337.5,219.5 Z"/></g>
<g><path style="opacity:1" fill="#ccdfe5" d="M 440.5,265.5 C 332.831,265.167 225.165,265.5 117.5,266.5C 113.5,273.167 113.5,279.833 117.5,286.5C 132.995,287.167 148.328,287.833 163.5,288.5C 130.832,288.667 98.165,288.5 65.5,288C 57.6251,284.421 55.1251,278.588 58,270.5C 59.9384,267.894 62.4384,266.061 65.5,265C 190.667,264.167 315.667,264.334 440.5,265.5 Z"/></g>
<g><path style="opacity:1" fill="#edf6fa" d="M 440.5,265.5 C 448.037,268.247 450.537,273.581 448,281.5C 446.019,284.745 443.186,286.911 439.5,288C 357.167,288.333 274.833,288.667 192.5,289C 190.859,290.129 189.859,291.629 189.5,293.5C 186.262,294.748 182.762,295.415 179,295.5C 175.238,295.415 171.738,294.748 168.5,293.5C 167.833,290.833 166.167,289.167 163.5,288.5C 148.328,287.833 132.995,287.167 117.5,286.5C 113.5,279.833 113.5,273.167 117.5,266.5C 225.165,265.5 332.831,265.167 440.5,265.5 Z"/></g>
<g><path style="opacity:1" fill="#fc979e" d="M 168.5,293.5 C 171.738,294.748 175.238,295.415 179,295.5C 182.762,295.415 186.262,294.748 189.5,293.5C 188.458,298.133 190.125,301.299 194.5,303C 269.5,303.333 344.5,303.667 419.5,304C 414.01,336.107 408.677,368.273 403.5,400.5C 374.833,400.5 346.167,400.5 317.5,400.5C 324.192,365.719 311.858,340.219 280.5,324C 244.951,312.625 217.451,322.792 198,354.5C 191.177,369.287 189.677,384.62 193.5,400.5C 162.995,400.831 132.662,400.498 102.5,399.5C 113.853,399.832 125.186,399.499 136.5,398.5C 131.167,366.836 125.834,335.17 120.5,303.5C 135.01,303.829 149.343,303.496 163.5,302.5C 167.918,301.17 169.585,298.17 168.5,293.5 Z"/></g>
<g><path style="opacity:1" fill="#764346" d="M 163.5,302.5 C 149.343,303.496 135.01,303.829 120.5,303.5C 108.784,302.856 97.4507,303.522 86.5,305.5C 85.596,304.791 85.2627,303.791 85.5,302.5C 111.5,302.5 137.5,302.5 163.5,302.5 Z"/></g>
<g><path style="opacity:1" fill="#fc7f86" d="M 120.5,303.5 C 125.834,335.17 131.167,366.836 136.5,398.5C 125.186,399.499 113.853,399.832 102.5,399.5C 97.1872,368.292 91.8538,336.959 86.5,305.5C 97.4507,303.522 108.784,302.856 120.5,303.5 Z"/></g>
<g><path style="opacity:1" fill="#ebf4f9" d="M 256.5,334.5 C 245.468,341.528 237.802,351.195 233.5,363.5C 248.343,363.171 263.01,363.504 277.5,364.5C 262.163,364.333 246.83,364.5 231.5,365C 226.915,368.438 226.248,372.604 229.5,377.5C 228.436,400.705 237.436,418.705 256.5,431.5C 231.85,431.078 215.683,419.078 208,395.5C 203.282,367.099 214.115,347.265 240.5,336C 245.754,334.729 251.087,334.229 256.5,334.5 Z"/></g>
<g><path style="opacity:1" fill="#fafafa" d="M 256.5,334.5 C 281.845,336.332 297.679,349.666 304,374.5C 306.116,403.117 293.616,421.95 266.5,431C 263.183,431.498 259.85,431.665 256.5,431.5C 237.436,418.705 228.436,400.705 229.5,377.5C 246.123,378.638 262.789,378.804 279.5,378C 285.341,372.389 284.675,367.889 277.5,364.5C 263.01,363.504 248.343,363.171 233.5,363.5C 237.802,351.195 245.468,341.528 256.5,334.5 Z"/></g>
<g><path style="opacity:1" fill="#010101" d="M 277.5,364.5 C 284.675,367.889 285.341,372.389 279.5,378C 262.789,378.804 246.123,378.638 229.5,377.5C 226.248,372.604 226.915,368.438 231.5,365C 246.83,364.5 262.163,364.333 277.5,364.5 Z"/></g>
<g><path style="opacity:1" fill="#030303" d="M 240.5,392.5 C 250.506,392.334 260.506,392.5 270.5,393C 274.5,397.333 274.5,401.667 270.5,406C 260.5,406.667 250.5,406.667 240.5,406C 236.541,401.501 236.541,397.001 240.5,392.5 Z"/></g>
<g><path style="opacity:1" fill="#034b6b" d="M 200.5,415.5 C 180.167,415.5 159.833,415.5 139.5,415.5C 128.167,415.5 116.833,415.5 105.5,415.5C 105.5,416.833 105.5,418.167 105.5,419.5C 104.549,418.081 104.216,416.415 104.5,414.5C 136.671,414.168 168.671,414.502 200.5,415.5 Z"/></g>
<g><path style="opacity:1" fill="#034d6e" d="M 310.5,415.5 C 340.662,414.502 370.995,414.169 401.5,414.5C 401.737,415.791 401.404,416.791 400.5,417.5C 370.852,415.508 340.852,414.841 310.5,415.5 Z"/></g>
<g><path style="opacity:1" fill="#028fce" d="M 139.5,415.5 C 141.507,430.222 143.84,444.888 146.5,459.5C 134.833,459.5 123.167,459.5 111.5,459.5C 109.717,446.135 107.717,432.801 105.5,419.5C 105.5,418.167 105.5,416.833 105.5,415.5C 116.833,415.5 128.167,415.5 139.5,415.5 Z"/></g>
<g><path style="opacity:1" fill="#08a8f0" d="M 139.5,415.5 C 159.833,415.5 180.167,415.5 200.5,415.5C 217.083,440.949 240.416,450.782 270.5,445C 287.997,440.757 301.33,430.924 310.5,415.5C 340.852,414.841 370.852,415.508 400.5,417.5C 397.952,431.454 395.619,445.454 393.5,459.5C 379.829,459.333 366.163,459.5 352.5,460C 348.993,461.33 347.327,463.83 347.5,467.5C 340.5,467.5 333.5,467.5 326.5,467.5C 326.673,463.83 325.007,461.33 321.5,460C 263.168,459.5 204.834,459.333 146.5,459.5C 143.84,444.888 141.507,430.222 139.5,415.5 Z"/></g>
<g><path style="opacity:1" fill="#ddf4fb" d="M 326.5,467.5 C 333.5,467.5 340.5,467.5 347.5,467.5C 347.464,471.108 349.131,473.441 352.5,474.5C 360.984,475.493 369.651,475.826 378.5,475.5C 378.5,482.5 378.5,489.5 378.5,496.5C 306.167,496.5 233.833,496.5 161.5,496.5C 161.5,489.5 161.5,482.5 161.5,475.5C 214.669,475.832 267.669,475.499 320.5,474.5C 324.59,473.998 326.59,471.665 326.5,467.5 Z"/></g>
<g><path style="opacity:1" fill="#bee1ee" d="M 320.5,474.5 C 267.669,475.499 214.669,475.832 161.5,475.5C 161.5,482.5 161.5,489.5 161.5,496.5C 149.833,496.5 138.167,496.5 126.5,496.5C 126.5,489.167 126.5,481.833 126.5,474.5C 191.167,474.5 255.833,474.5 320.5,474.5 Z"/></g>
<g><path style="opacity:1" fill="#839094" d="M 352.5,474.5 C 361.5,474.5 370.5,474.5 379.5,474.5C 379.825,482.019 379.492,489.352 378.5,496.5C 378.5,489.5 378.5,482.5 378.5,475.5C 369.651,475.826 360.984,475.493 352.5,474.5 Z"/></g>
</svg>
