<?xml version="1.0" encoding="UTF-8"?>
<!DOCTYPE svg PUBLIC "-//W3C//DTD SVG 1.1//EN" "http://www.w3.org/Graphics/SVG/1.1/DTD/svg11.dtd">
<svg xmlns="http://www.w3.org/2000/svg" version="1.1" width="512px" height="512px" style="shape-rendering:geometricPrecision; text-rendering:geometricPrecision; image-rendering:optimizeQuality; fill-rule:evenodd; clip-rule:evenodd" xmlns:xlink="http://www.w3.org/1999/xlink">
<g><path style="opacity:0.993" fill="#010000" d="M 134.5,15.5 C 151.17,15.3334 167.837,15.5001 184.5,16C 199.061,19.5604 208.894,28.3937 214,42.5C 215.573,53.4409 215.906,64.4409 215,75.5C 214.5,77.3333 213.333,78.5 211.5,79C 207.514,79.4988 203.514,79.6655 199.5,79.5C 199.5,84.8333 199.5,90.1667 199.5,95.5C 214.17,95.3334 228.837,95.5001 243.5,96C 247.501,96.8337 251.501,97.667 255.5,98.5C 259.499,97.667 263.499,96.8337 267.5,96C 282.163,95.5001 296.83,95.3334 311.5,95.5C 311.5,90.1667 311.5,84.8333 311.5,79.5C 307.486,79.6655 303.486,79.4988 299.5,79C 297.667,78.5 296.5,77.3333 296,75.5C 289.871,32.4678 308.371,12.4678 351.5,15.5C 394.629,12.4678 413.129,32.4678 407,75.5C 406.5,77.3333 405.333,78.5 403.5,79C 399.514,79.4988 395.514,79.6655 391.5,79.5C 391.5,84.8333 391.5,90.1667 391.5,95.5C 406.17,95.3334 420.837,95.5001 435.5,96C 468,103.167 487.833,123 495,155.5C 495.667,258.5 495.667,361.5 495,464.5C 490.833,480.667 480.667,490.833 464.5,495C 325.167,495.667 185.833,495.667 46.5,495C 30.3333,490.833 20.1667,480.667 16,464.5C 15.3333,361.5 15.3333,258.5 16,155.5C 23.1667,123 43,103.167 75.5,96C 90.1629,95.5001 104.83,95.3334 119.5,95.5C 119.5,90.1667 119.5,84.8333 119.5,79.5C 115.486,79.6655 111.486,79.4988 107.5,79C 105.667,78.5 104.5,77.3333 104,75.5C 103.333,65.8333 103.333,56.1667 104,46.5C 108.349,30.3186 118.516,19.9852 134.5,15.5 Z"/></g>
<g><path style="opacity:1" fill="#24e351" d="M 137.5,31.5 C 151.837,31.3334 166.171,31.5001 180.5,32C 195.621,37.0583 201.954,47.5583 199.5,63.5C 172.833,63.5 146.167,63.5 119.5,63.5C 117.24,48.0071 123.24,37.3404 137.5,31.5 Z"/></g>
<g><path style="opacity:1" fill="#fdcb00" d="M 329.5,31.5 C 343.837,31.3334 358.171,31.5001 372.5,32C 387.621,37.0583 393.954,47.5583 391.5,63.5C 364.833,63.5 338.167,63.5 311.5,63.5C 309.24,48.0071 315.24,37.3404 329.5,31.5 Z"/></g>
<g><path style="opacity:1" fill="#744c23" d="M 135.5,79.5 C 151.5,79.5 167.5,79.5 183.5,79.5C 183.5,84.8333 183.5,90.1667 183.5,95.5C 167.5,95.5 151.5,95.5 135.5,95.5C 135.5,90.1667 135.5,84.8333 135.5,79.5 Z"/></g>
<g><path style="opacity:1" fill="#744c23" d="M 327.5,79.5 C 343.5,79.5 359.5,79.5 375.5,79.5C 375.5,84.8333 375.5,90.1667 375.5,95.5C 359.5,95.5 343.5,95.5 327.5,95.5C 327.5,90.1667 327.5,84.8333 327.5,79.5 Z"/></g>
<g><path style="opacity:1" fill="#24e451" d="M 78.5,111.5 C 131.834,111.333 185.168,111.5 238.5,112C 265.11,116.61 281.276,132.11 287,158.5C 287.667,259.5 287.667,360.5 287,461.5C 283.74,470.427 277.573,476.261 268.5,479C 195.5,479.667 122.5,479.667 49.5,479C 41,475.833 35.1667,470 32,461.5C 31.3333,360.5 31.3333,259.5 32,158.5C 37.6807,132.987 53.1807,117.32 78.5,111.5 Z"/></g>
<g><path style="opacity:1" fill="#fecc00" d="M 311.5,415.5 C 311.5,407.167 311.5,398.833 311.5,390.5C 346.327,368.53 381.327,346.696 416.5,325C 431.711,310.304 435.044,293.304 426.5,274C 437.833,264.667 449.167,255.333 460.5,246C 463.61,242.461 464.11,238.628 462,234.5C 456.167,226 450.333,217.5 444.5,209C 436.5,203.667 428.5,198.333 420.5,193C 416.252,190.652 412.419,191.152 409,194.5C 399.667,205.833 390.333,217.167 381,228.5C 361.599,219.647 344.599,222.98 330,238.5C 323.942,247.718 318.109,257.051 312.5,266.5C 311.502,236.338 311.169,206.005 311.5,175.5C 345.229,175.979 378.896,175.479 412.5,174C 413.893,172.829 414.727,171.329 415,169.5C 415.961,156.405 415.628,143.405 414,130.5C 412.829,129.107 411.329,128.273 409.5,128C 370.459,127.173 331.459,127.34 292.5,128.5C 288.082,122.577 283.082,117.077 277.5,112C 328.167,111.333 378.833,111.333 429.5,112C 456.651,116.151 473.151,131.651 479,158.5C 479.667,259.5 479.667,360.5 479,461.5C 475.74,470.427 469.573,476.261 460.5,479C 405.5,479.667 350.5,479.667 295.5,479C 298.763,474.64 301.096,469.807 302.5,464.5C 311.482,463.668 320.482,463.168 329.5,463C 332.667,462.5 334.5,460.667 335,457.5C 335.961,444.405 335.628,431.405 334,418.5C 332.829,417.107 331.329,416.273 329.5,416C 323.509,415.501 317.509,415.334 311.5,415.5 Z"/></g>
<g><path style="opacity:1" fill="#000000" d="M 100.5,127.5 C 140.561,127.017 180.561,127.517 220.5,129C 221.701,129.903 222.535,131.069 223,132.5C 223.944,145.903 223.611,159.236 222,172.5C 220.829,173.893 219.329,174.727 217.5,175C 178.5,175.667 139.5,175.667 100.5,175C 97.8981,174.065 96.3981,172.232 96,169.5C 95.3333,157.167 95.3333,144.833 96,132.5C 97.025,130.313 98.525,128.646 100.5,127.5 Z"/></g>
<g><path style="opacity:1" fill="#e5e6e5" d="M 111.5,143.5 C 143.5,143.5 175.5,143.5 207.5,143.5C 207.5,148.833 207.5,154.167 207.5,159.5C 175.5,159.5 143.5,159.5 111.5,159.5C 111.5,154.167 111.5,148.833 111.5,143.5 Z"/></g>
<g><path style="opacity:1" fill="#fe9d02" d="M 303.5,143.5 C 335.5,143.5 367.5,143.5 399.5,143.5C 399.5,148.833 399.5,154.167 399.5,159.5C 367.5,159.5 335.5,159.5 303.5,159.5C 303.5,154.167 303.5,148.833 303.5,143.5 Z"/></g>
<g><path style="opacity:1" fill="#feb900" d="M 311.5,175.5 C 311.169,206.005 311.502,236.338 312.5,266.5C 309.929,271.305 307.096,275.972 304,280.5C 303.5,245.502 303.333,210.502 303.5,175.5C 306.167,175.5 308.833,175.5 311.5,175.5 Z"/></g>
<g><path style="opacity:1" fill="#020402" d="M 148.5,188.5 C 149.675,188.281 150.675,188.614 151.5,189.5C 157.695,202.252 162.195,215.585 165,229.5C 184.983,207.547 208.816,202.047 236.5,213C 258.974,224.649 270.641,243.149 271.5,268.5C 271.027,317.588 253.027,358.755 217.5,392C 195.475,404.601 176.141,401.434 159.5,382.5C 143.996,399.641 125.663,403.474 104.5,394C 80.527,374.319 64.027,349.485 55,319.5C 48.8543,299.28 46.521,278.613 48,257.5C 56.5557,223.987 78.0557,207.487 112.5,208C 125.068,209.186 136.235,213.686 146,221.5C 144.153,212.469 140.986,203.802 136.5,195.5C 140.563,193.14 144.563,190.807 148.5,188.5 Z"/></g>
<g><path style="opacity:1" fill="#008e43" d="M 416.5,210.5 C 420.202,212.024 423.536,214.19 426.5,217C 417.833,225.667 409.167,234.333 400.5,243C 397.735,242.28 395.401,240.613 393.5,238C 401.378,228.96 409.045,219.794 416.5,210.5 Z"/></g>
<g><path style="opacity:1" fill="#e4e4e4" d="M 99.5,223.5 C 132.739,222.903 150.572,239.236 153,272.5C 157.298,276.379 161.631,276.379 166,272.5C 169.066,236.911 188.233,221.078 223.5,225C 240.615,230.449 251.115,241.949 255,259.5C 257.565,306.488 242.065,346.321 208.5,379C 193.402,387.215 180.902,384.382 171,370.5C 168.728,365.41 167.394,360.077 167,354.5C 163.108,348.741 158.441,348.074 153,352.5C 152.685,364.155 147.852,373.322 138.5,380C 129.833,384.667 121.167,384.667 112.5,380C 84.6135,354.731 68.4468,323.231 64,285.5C 59.2539,263.401 65.4206,245.234 82.5,231C 88.0319,227.894 93.6986,225.394 99.5,223.5 Z"/></g>
<g><path style="opacity:1" fill="#37b148" d="M 437.5,228.5 C 440.766,231.238 442.933,234.571 444,238.5C 435,246.167 426,253.833 417,261.5C 414.387,259.599 412.72,257.265 412,254.5C 420.702,245.965 429.202,237.298 437.5,228.5 Z"/></g>
<g><path style="opacity:1" fill="#fb9c02" d="M 311.5,370.5 C 311.5,362.833 311.5,355.167 311.5,347.5C 312.423,348.303 313.423,348.47 314.5,348C 318.016,344.651 321.349,341.151 324.5,337.5C 317.848,330.348 311.015,323.348 304,316.5C 303.333,314.5 303.333,312.5 304,310.5C 314.25,293.665 324.75,276.998 335.5,260.5C 349.486,273.986 363.319,287.653 377,301.5C 380.682,297.985 384.182,294.318 387.5,290.5C 373.167,275.833 358.833,261.167 344.5,246.5C 354.494,238.167 365.16,237.334 376.5,244C 388,255.5 399.5,267 411,278.5C 418.481,292.081 416.314,303.914 404.5,314C 394.833,319.833 385.167,325.667 375.5,331.5C 364.347,320.848 353.347,310.014 342.5,299C 337.867,301.446 333.867,304.946 330.5,309.5C 340.5,319.833 350.5,330.167 360.5,340.5C 344.612,351.275 328.278,361.275 311.5,370.5 Z"/></g>
<g><path style="opacity:1" fill="#030202" d="M 139.5,279.5 C 144.509,278.771 148.342,280.437 151,284.5C 151.667,297.833 151.667,311.167 151,324.5C 146.203,338.651 136.369,344.817 121.5,343C 107.487,337.147 101.653,326.647 104,311.5C 109.709,293.954 121.542,283.288 139.5,279.5 Z"/></g>
<g><path style="opacity:1" fill="#020202" d="M 172.5,279.5 C 191.424,279.956 204.924,288.623 213,305.5C 219.146,321.739 214.646,333.906 199.5,342C 185.194,345.931 175.027,341.097 169,327.5C 167.385,313.235 167.052,298.902 168,284.5C 169.025,282.313 170.525,280.646 172.5,279.5 Z"/></g>
<g><path style="opacity:1" fill="#724a23" d="M 134.5,297.5 C 135.657,305.656 135.823,313.99 135,322.5C 132.774,326.861 129.274,328.361 124.5,327C 122.333,326.167 120.833,324.667 120,322.5C 119.174,310.811 124.007,302.478 134.5,297.5 Z"/></g>
<g><path style="opacity:1" fill="#724a23" d="M 183.5,298.5 C 194.917,302.31 200.084,310.31 199,322.5C 196.774,326.861 193.274,328.361 188.5,327C 186.333,326.167 184.833,324.667 184,322.5C 183.5,314.507 183.334,306.507 183.5,298.5 Z"/></g>
<g><path style="opacity:1" fill="#fa8b00" d="M 311.5,347.5 C 311.5,355.167 311.5,362.833 311.5,370.5C 309.41,372.39 307.077,374.057 304.5,375.5C 303.334,363.514 303.167,351.514 304,339.5C 306.705,342.036 309.205,344.703 311.5,347.5 Z"/></g>
<g><path style="opacity:1" fill="#fdb800" d="M 311.5,390.5 C 311.5,398.833 311.5,407.167 311.5,415.5C 308.833,415.5 306.167,415.5 303.5,415.5C 303.334,408.492 303.5,401.492 304,394.5C 306.158,392.506 308.658,391.172 311.5,390.5 Z"/></g>
<g><path style="opacity:1" fill="#000000" d="M 52.5,415.5 C 81.8967,415.024 111.23,415.524 140.5,417C 141.701,417.903 142.535,419.069 143,420.5C 143.944,433.903 143.611,447.236 142,460.5C 140.829,461.893 139.329,462.727 137.5,463C 108.414,463.983 79.4138,463.65 50.5,462C 49.1068,460.829 48.2735,459.329 48,457.5C 47.3333,445.167 47.3333,432.833 48,420.5C 49.025,418.313 50.525,416.646 52.5,415.5 Z"/></g>
<g><path style="opacity:1" fill="#010301" d="M 241.5,415.5 C 255.866,414.259 265.699,420.259 271,433.5C 271.853,453.98 262.02,463.814 241.5,463C 224.102,455.052 219.602,442.552 228,425.5C 231.802,421.037 236.302,417.703 241.5,415.5 Z"/></g>
<g><path style="opacity:1" fill="#030200" d="M 433.5,415.5 C 453.036,414.874 462.87,424.207 463,443.5C 458.799,458.359 448.965,464.859 433.5,463C 416.102,455.052 411.602,442.552 420,425.5C 423.802,421.037 428.302,417.703 433.5,415.5 Z"/></g>
<g><path style="opacity:1" fill="#009244" d="M 63.5,431.5 C 68.8333,431.5 74.1667,431.5 79.5,431.5C 79.5,436.833 79.5,442.167 79.5,447.5C 74.1667,447.5 68.8333,447.5 63.5,447.5C 63.5,442.167 63.5,436.833 63.5,431.5 Z"/></g>
<g><path style="opacity:1" fill="#39b549" d="M 95.5,431.5 C 106.167,431.5 116.833,431.5 127.5,431.5C 127.5,436.833 127.5,442.167 127.5,447.5C 116.833,447.5 106.167,447.5 95.5,447.5C 95.5,442.167 95.5,436.833 95.5,431.5 Z"/></g>
<g><path style="opacity:1" fill="#704822" d="M 244.5,431.5 C 252.658,430.823 256.158,434.49 255,442.5C 252.774,446.861 249.274,448.361 244.5,447C 240.139,444.774 238.639,441.274 240,436.5C 241.025,434.313 242.525,432.646 244.5,431.5 Z"/></g>
<g><path style="opacity:1" fill="#fe9902" d="M 303.5,431.5 C 308.833,431.5 314.167,431.5 319.5,431.5C 319.5,436.833 319.5,442.167 319.5,447.5C 314.167,447.5 308.833,447.5 303.5,447.5C 303.5,442.167 303.5,436.833 303.5,431.5 Z"/></g>
<g><path style="opacity:1" fill="#704822" d="M 436.5,431.5 C 444.658,430.823 448.158,434.49 447,442.5C 444.774,446.861 441.274,448.361 436.5,447C 432.139,444.774 430.639,441.274 432,436.5C 433.025,434.313 434.525,432.646 436.5,431.5 Z"/></g>
</svg>
