<?xml version="1.0" encoding="utf-8"?>
<svg version="1.1" width="512px" height="512px" style="shape-rendering:geometricPrecision; text-rendering:geometricPrecision; image-rendering:optimizeQuality; fill-rule:evenodd; clip-rule:evenodd" xmlns="http://www.w3.org/2000/svg">
  <defs/>
  <g style="transform-origin: 255.5px 255.5px;" transform="matrix(0, 1, -1, 0, -0.000006, 0.000012)">
    <g>
      <path style="opacity: 0.998; fill-rule: nonzero; paint-order: stroke markers; fill: rgb(34, 197, 94);" d="M 232.5,-0.5 C 247.833,-0.5 263.167,-0.5 278.5,-0.5C 378.271,12.4486 449.438,64.4486 492,155.5C 502.136,180.379 508.636,206.046 511.5,232.5C 511.5,247.833 511.5,263.167 511.5,278.5C 498.551,378.271 446.551,449.438 355.5,492C 330.622,502.136 304.955,508.636 278.5,511.5C 263.167,511.5 247.833,511.5 232.5,511.5C 132.727,498.549 61.5605,446.549 19,355.5C 8.86392,330.621 2.36392,304.954 -0.5,278.5C -0.5,263.167 -0.5,247.833 -0.5,232.5C 12.4486,132.729 64.4486,61.5622 155.5,19C 180.379,8.86392 206.046,2.36392 232.5,-0.5 Z"/>
    </g>
  </g>
  <g style="transform-origin: 256.418px 246.837px;" transform="matrix(0, -1, 1, 0, 7.745003, 9.581009)">
    <path style="opacity: 1; fill-rule: nonzero; paint-order: stroke markers;" d="M 251.5,177.5 C 257.782,176.661 263.448,178.161 268.5,182C 302.333,215.833 336.167,249.667 370,283.5C 376.472,293.616 375.639,303.116 367.5,312C 359.718,317.511 351.718,317.845 343.5,313C 314.333,283.833 285.167,254.667 256,225.5C 227.5,254 199,282.5 170.5,311C 159.375,318.137 149.541,316.637 141,306.5C 137.714,299.14 137.714,291.807 141,284.5C 175.5,250 210,215.5 244.5,181C 246.925,179.787 249.259,178.621 251.5,177.5 Z" fill="#fdfdfe"/>
  </g>
</svg>