<?xml version="1.0" encoding="UTF-8"?>
<!DOCTYPE svg PUBLIC "-//W3C//DTD SVG 1.1//EN" "http://www.w3.org/Graphics/SVG/1.1/DTD/svg11.dtd">
<svg xmlns="http://www.w3.org/2000/svg" version="1.1" width="512px" height="512px" style="shape-rendering:geometricPrecision; text-rendering:geometricPrecision; image-rendering:optimizeQuality; fill-rule:evenodd; clip-rule:evenodd" xmlns:xlink="http://www.w3.org/1999/xlink">
<g><path style="opacity:0.974" fill="#010101" d="M 511.5,127.5 C 511.5,220.167 511.5,312.833 511.5,405.5C 504.604,431.475 487.937,447.308 461.5,453C 324.5,453.667 187.5,453.667 50.5,453C 23.757,447.257 7.25701,431.09 1,404.5C 0.333333,312.5 0.333333,220.5 1,128.5C 7.51296,100.986 24.6796,84.8195 52.5,80C 188.167,79.3333 323.833,79.3333 459.5,80C 486.918,84.9225 504.251,100.756 511.5,127.5 Z"/></g>
<g><path style="opacity:1" fill="#dfdfdf" d="M 52.5,95.5 C 187.5,95.3333 322.5,95.5 457.5,96C 478.728,99.2263 491.561,111.393 496,132.5C 496.667,221.5 496.667,310.5 496,399.5C 492.462,419.37 480.962,431.87 461.5,437C 324.5,437.667 187.5,437.667 50.5,437C 31.0339,431.866 19.5339,419.366 16,399.5C 15.3333,310.833 15.3333,222.167 16,133.5C 19.9082,112.761 32.0748,100.094 52.5,95.5 Z"/></g>
<g><path style="opacity:1" fill="#040303" d="M 266.5,104.5 C 283.771,103.617 295.271,111.283 301,127.5C 311.426,134.264 319.426,143.264 325,154.5C 327.597,163.265 326.597,171.598 322,179.5C 321.667,189.833 321.333,200.167 321,210.5C 318.364,225.802 309.53,235.302 294.5,239C 268.167,239.667 241.833,239.667 215.5,239C 201.702,235.869 193.202,227.369 190,213.5C 189.033,191.436 189.366,169.436 191,147.5C 198.839,130.826 212.006,123.326 230.5,125C 239.003,119.916 247.336,114.583 255.5,109C 259.053,106.879 262.72,105.379 266.5,104.5 Z"/></g>
<g><path style="opacity:1" fill="#040303" d="M 372.5,125.5 C 379.833,125.5 387.167,125.5 394.5,125.5C 394.5,122.5 394.5,119.5 394.5,116.5C 394.916,114.248 396.249,112.748 398.5,112C 414.5,111.333 430.5,111.333 446.5,112C 448.049,113.214 449.215,114.714 450,116.5C 450.333,119.833 450.667,123.167 451,126.5C 463.098,130.265 470.765,138.265 474,150.5C 474.667,171.833 474.667,193.167 474,214.5C 470.39,227.777 461.89,235.944 448.5,239C 421.5,239.667 394.5,239.667 367.5,239C 354.791,234.959 346.958,226.459 344,213.5C 343.667,205.167 343.333,196.833 343,188.5C 339.86,185.003 339.693,181.336 342.5,177.5C 343.332,168.852 343.832,160.186 344,151.5C 347.623,136.377 357.123,127.71 372.5,125.5 Z"/></g>
<g><path style="opacity:1" fill="#040303" d="M 68.5,115.5 C 79.4286,114.356 89.2619,117.023 98,123.5C 111.06,114.259 124.894,113.092 139.5,120C 143.492,124.654 148.492,127.654 154.5,129C 163.793,134.637 169.626,142.803 172,153.5C 172.667,172.5 172.667,191.5 172,210.5C 169.35,225.814 160.517,235.314 145.5,239C 119.167,239.667 92.8333,239.667 66.5,239C 52.7023,235.869 44.2023,227.369 41,213.5C 40.3333,189.5 40.3333,165.5 41,141.5C 45.4664,127.712 54.6331,119.046 68.5,115.5 Z"/></g>
<g><path style="opacity:1" fill="#ec9c6f" d="M 266.5,147.5 C 267.492,144.221 267.659,140.888 267,137.5C 264.239,133.64 261.739,129.64 259.5,125.5C 265.22,119.268 271.886,118.102 279.5,122C 284.489,125.578 286.489,130.244 285.5,136C 279.018,139.662 272.685,143.495 266.5,147.5 Z"/></g>
<g><path style="opacity:1" fill="#8f8f8f" d="M 394.5,116.5 C 394.5,119.5 394.5,122.5 394.5,125.5C 387.167,125.5 379.833,125.5 372.5,125.5C 379.313,124.509 386.313,124.175 393.5,124.5C 393.194,121.615 393.527,118.948 394.5,116.5 Z"/></g>
<g><path style="opacity:1" fill="#e77137" d="M 259.5,125.5 C 261.739,129.64 264.239,133.64 267,137.5C 267.659,140.888 267.492,144.221 266.5,147.5C 265.167,148.167 263.833,148.833 262.5,149.5C 258.336,149.857 255.169,148.19 253,144.5C 250.822,140.806 248.655,137.139 246.5,133.5C 250.323,130.084 254.657,127.418 259.5,125.5 Z"/></g>
<g><path style="opacity:1" fill="#fee6a0" d="M 409.5,126.5 C 417.833,126.5 426.167,126.5 434.5,126.5C 434.5,152.167 434.5,177.833 434.5,203.5C 426.167,203.5 417.833,203.5 409.5,203.5C 409.5,177.833 409.5,152.167 409.5,126.5 Z"/></g>
<g><path style="opacity:1" fill="#fa9494" d="M 69.5,130.5 C 77.5156,129.281 84.1823,131.615 89.5,137.5C 87.9579,141.14 87.2912,144.973 87.5,149C 87.9038,153.853 88.0705,158.687 88,163.5C 86.786,165.049 85.286,166.215 83.5,167C 70.3188,171.322 61.1521,167.156 56,154.5C 54.5444,143.072 59.0444,135.072 69.5,130.5 Z"/></g>
<g><path style="opacity:1" fill="#fba9a9" d="M 116.5,130.5 C 134.161,129.66 141.995,137.994 140,155.5C 133.688,168.495 123.855,171.995 110.5,166C 100.689,156.229 100.022,145.896 108.5,135C 111.099,133.205 113.766,131.705 116.5,130.5 Z"/></g>
<g><path style="opacity:1" fill="#ef9d70" d="M 246.5,133.5 C 248.655,137.139 250.822,140.806 253,144.5C 255.169,148.19 258.336,149.857 262.5,149.5C 257.511,153.331 252.178,156.664 246.5,159.5C 246.66,157.801 246.494,156.134 246,154.5C 242.312,149.782 239.145,144.782 236.5,139.5C 239.566,137.11 242.9,135.11 246.5,133.5 Z"/></g>
<g><path style="opacity:1" fill="#e67036" d="M 236.5,139.5 C 239.145,144.782 242.312,149.782 246,154.5C 246.494,156.134 246.66,157.801 246.5,159.5C 243.709,161.735 240.709,163.735 237.5,165.5C 234.944,164.457 232.777,162.79 231,160.5C 228.477,156.112 225.977,151.778 223.5,147.5C 227.833,144.833 232.167,142.167 236.5,139.5 Z"/></g>
<g><path style="opacity:1" fill="#b6b6b6" d="M 371.5,140.5 C 375.182,140.335 378.848,140.501 382.5,141C 374.667,148.167 366.833,155.333 359,162.5C 357.721,152.056 361.888,144.722 371.5,140.5 Z"/></g>
<g><path style="opacity:1" fill="#2a2a2a" d="M 451.5,143.5 C 450.833,166.833 450.167,190.167 449.5,213.5C 449.167,189.824 449.5,166.157 450.5,142.5C 451.107,142.624 451.44,142.957 451.5,143.5 Z"/></g>
<g><path style="opacity:1" fill="#b8b8b8" d="M 451.5,143.5 C 455.195,145.869 457.695,149.203 459,153.5C 459.667,172.833 459.667,192.167 459,211.5C 456.833,217.667 452.667,221.833 446.5,224C 421.5,224.667 396.5,224.667 371.5,224C 363.014,221.178 358.847,215.345 359,206.5C 362.799,211.301 366.966,215.801 371.5,220C 374.634,220.79 377.634,220.457 380.5,219C 384.762,215.283 388.928,211.45 393,207.5C 393.154,211.979 394.987,215.479 398.5,218C 414.167,218.667 429.833,218.667 445.5,218C 447.751,217.252 449.084,215.752 449.5,213.5C 450.167,190.167 450.833,166.833 451.5,143.5 Z"/></g>
<g><path style="opacity:1" fill="#ef9e70" d="M 223.5,147.5 C 225.977,151.778 228.477,156.112 231,160.5C 232.777,162.79 234.944,164.457 237.5,165.5C 231.249,169.248 225.749,173.915 221,179.5C 211.068,176.305 207.402,169.638 210,159.5C 213.145,154.005 217.645,150.005 223.5,147.5 Z"/></g>
<g><path style="opacity:1" fill="#ed9461" d="M 248.5,177.5 C 251.784,183.229 255.451,188.729 259.5,194C 267.619,195.875 271.452,192.708 271,184.5C 267.97,179.084 264.47,174.084 260.5,169.5C 263.566,167.11 266.9,165.11 270.5,163.5C 273.434,169.194 276.767,174.694 280.5,180C 289.156,182.677 292.989,179.511 292,170.5C 288.911,165.594 286.077,160.594 283.5,155.5C 289.035,149.486 295.701,147.986 303.5,151C 312.682,158.077 313.682,166.077 306.5,175C 289.001,186.25 271.335,197.25 253.5,208C 240.055,209.888 233.555,204.054 234,190.5C 237.132,184.198 241.966,179.864 248.5,177.5 Z"/></g>
<g><path style="opacity:1" fill="#fbdc88" d="M 392.5,152.5 C 393.824,164.007 393.824,175.673 392.5,187.5C 387.15,192.685 381.65,197.685 376,202.5C 370.313,196.314 364.813,189.981 359.5,183.5C 370.219,172.779 381.219,162.445 392.5,152.5 Z"/></g>
<g><path style="opacity:1" fill="#e77136" d="M 283.5,155.5 C 286.077,160.594 288.911,165.594 292,170.5C 292.989,179.511 289.156,182.677 280.5,180C 276.767,174.694 273.434,169.194 270.5,163.5C 274.323,160.084 278.657,157.418 283.5,155.5 Z"/></g>
<g><path style="opacity:1" fill="#bbbbbb" d="M 155.5,154.5 C 156.662,172.995 156.829,191.662 156,210.5C 154.167,217.667 149.667,222.167 142.5,224C 135.167,224.667 127.833,224.667 120.5,224C 135.903,215.359 142.403,202.193 140,184.5C 139.598,183.128 139.098,181.795 138.5,180.5C 148.16,174.495 153.827,165.829 155.5,154.5 Z"/></g>
<g><path style="opacity:1" fill="#e77136" d="M 260.5,169.5 C 264.47,174.084 267.97,179.084 271,184.5C 271.452,192.708 267.619,195.875 259.5,194C 255.451,188.729 251.784,183.229 248.5,177.5C 252.205,174.474 256.205,171.808 260.5,169.5 Z"/></g>
<g><path style="opacity:1" fill="#fa9494" d="M 97.5,175.5 C 105.283,181.485 114.117,184.819 124,185.5C 127.218,197.564 123.052,206.064 111.5,211C 95.0637,212.565 86.8971,205.065 87,188.5C 87.8061,185.554 89.1395,182.888 91,180.5C 93.352,178.97 95.5187,177.303 97.5,175.5 Z"/></g>
<g><path style="opacity:1" fill="#bababa" d="M 55.5,178.5 C 60.6928,181.757 66.3594,183.924 72.5,185C 69.7349,202.469 76.0682,215.469 91.5,224C 83.8333,224.667 76.1667,224.667 68.5,224C 61.4545,221.623 57.2878,216.79 56,209.5C 55.5002,199.172 55.3335,188.839 55.5,178.5 Z"/></g>
<g><path style="opacity:1" fill="#bababa" d="M 204.5,188.5 C 208.34,191.418 212.673,193.251 217.5,194C 219.501,209.364 227.834,219.364 242.5,224C 212.536,230.534 199.869,218.7 204.5,188.5 Z"/></g>
<g><path style="opacity:1" fill="#bababa" d="M 303.5,194.5 C 304.812,196.743 305.478,199.41 305.5,202.5C 306.95,213.788 302.284,220.955 291.5,224C 278.833,224.667 266.167,224.667 253.5,224C 257.243,222.864 260.91,221.53 264.5,220C 277.676,211.637 290.676,203.137 303.5,194.5 Z"/></g>
<g><path style="opacity:1" fill="#050505" d="M 64.5,251.5 C 117.501,251.333 170.501,251.5 223.5,252C 236.238,255.738 244.738,263.904 249,276.5C 249.667,312.5 249.667,348.5 249,384.5C 244.863,398.969 235.363,407.469 220.5,410C 169.5,410.667 118.5,410.667 67.5,410C 52.0128,406.513 42.5128,397.013 39,381.5C 38.3333,347.167 38.3333,312.833 39,278.5C 42.6125,264.725 51.1125,255.725 64.5,251.5 Z"/></g>
<g><path style="opacity:1" fill="#040404" d="M 290.5,251.5 C 343.501,251.333 396.501,251.5 449.5,252C 462.238,255.738 470.738,263.904 475,276.5C 475.667,312.167 475.667,347.833 475,383.5C 471.297,398.536 461.797,407.369 446.5,410C 395.5,410.667 344.5,410.667 293.5,410C 277.565,406.398 268.065,396.565 265,380.5C 264.333,346.5 264.333,312.5 265,278.5C 268.613,264.725 277.113,255.725 290.5,251.5 Z"/></g>
<g><path style="opacity:1" fill="#959595" d="M 67.5,267.5 C 95.3303,266.336 123.33,266.17 151.5,267C 150.473,267.513 149.473,268.013 148.5,268.5C 121.672,267.502 94.6718,267.169 67.5,267.5 Z"/></g>
<g><path style="opacity:1" fill="#bcbcbc" d="M 67.5,267.5 C 94.6718,267.169 121.672,267.502 148.5,268.5C 145.91,269.128 143.577,270.295 141.5,272C 138.984,274.683 136.317,277.183 133.5,279.5C 105.164,271.923 86.6638,282.256 78,310.5C 77.1997,317.263 77.6997,323.93 79.5,330.5C 69.3304,349.985 72.3304,367.151 88.5,382C 103.025,391.151 117.025,390.318 130.5,379.5C 152.297,389.837 171.13,385.837 187,367.5C 188.039,365.254 189.206,363.087 190.5,361C 214.829,358.331 225.329,344.831 222,320.5C 218.148,307.158 209.314,299.825 195.5,298.5C 193.481,282.949 185.147,272.449 170.5,267C 187.167,266.333 203.833,266.333 220.5,267C 227.667,268.833 232.167,273.333 234,280.5C 234.667,314.167 234.667,347.833 234,381.5C 231.807,387.693 227.641,391.859 221.5,394C 169.833,394.667 118.167,394.667 66.5,394C 60.2602,392.092 56.4269,387.925 55,381.5C 54.3333,347.167 54.3333,312.833 55,278.5C 57.4743,272.856 61.641,269.189 67.5,267.5 Z"/></g>
<g><path style="opacity:1" fill="#bbbbbb" d="M 293.5,266.5 C 304.172,266.333 314.839,266.5 325.5,267C 318.437,274.283 313.27,282.783 310,292.5C 303.973,296.348 298.307,300.682 293,305.5C 287.952,312.031 286.285,319.365 288,327.5C 290.585,333.823 292.419,340.323 293.5,347C 293.068,351.897 292.234,356.731 291,361.5C 289.403,374.289 293.236,385.122 302.5,394C 291.616,396.099 284.449,391.932 281,381.5C 280.333,347.167 280.333,312.833 281,278.5C 283.744,272.921 287.911,268.921 293.5,266.5 Z"/></g>
<g><path style="opacity:1" fill="#b7b7b7" d="M 402.5,267.5 C 416.994,266.339 431.661,266.172 446.5,267C 453.667,268.833 458.167,273.333 460,280.5C 460.667,289.167 460.667,297.833 460,306.5C 454.859,292.026 445.026,282.193 430.5,277C 421.392,273.131 412.058,269.964 402.5,267.5 Z"/></g>
<g><path style="opacity:1" fill="#fcf1c3" d="M 347.5,272.5 C 354.508,272.334 361.508,272.5 368.5,273C 379.818,276.328 391.151,279.661 402.5,283C 417.601,286.299 430.768,293.132 442,303.5C 445.174,308.06 446.174,313.06 445,318.5C 439.915,324.997 435.582,331.997 432,339.5C 429.162,353.544 426.162,367.544 423,381.5C 419.667,390.326 413.333,394.659 404,394.5C 392.372,393.06 380.705,392.06 369,391.5C 358.171,392.302 347.337,392.468 336.5,392C 322.824,391.755 312.991,385.589 307,373.5C 306.833,370.833 306.667,368.167 306.5,365.5C 308.129,356.569 308.629,347.569 308,338.5C 306.333,333.833 304.667,329.167 303,324.5C 301.936,319.122 303.769,314.956 308.5,312C 313.554,309.611 318.054,306.445 322,302.5C 325,296.167 328,289.833 331,283.5C 335.688,278.421 341.188,274.754 347.5,272.5 Z"/></g>
<g><path style="opacity:1" fill="#fdfdfd" d="M 155.5,281.5 C 166.423,279.615 174.256,283.615 179,293.5C 179.333,299.167 179.667,304.833 180,310.5C 180.833,311.5 181.667,312.5 182.5,313.5C 187.129,314.199 191.795,314.366 196.5,314C 203.766,316.1 207.433,320.933 207.5,328.5C 206.575,342.225 199.408,347.225 186,343.5C 184.373,343.625 182.873,344.125 181.5,345C 178.888,349.724 176.388,354.557 174,359.5C 160.864,373.032 147.03,373.866 132.5,362C 126.751,360.402 122.751,362.402 120.5,368C 107.219,376.221 97.052,373.387 90,359.5C 89.3333,354.833 89.3333,350.167 90,345.5C 92.7121,341.409 94.8788,337.076 96.5,332.5C 89.0057,314.132 94.0057,300.632 111.5,292C 119.635,290.285 126.969,291.952 133.5,297C 136.916,297.893 140.083,297.393 143,295.5C 145.134,288.819 149.301,284.152 155.5,281.5 Z"/></g>
<g><path style="opacity:1" fill="#fffefd" d="M 353.5,282.5 C 356.85,282.335 360.183,282.502 363.5,283C 369.133,288.487 368.466,293.154 361.5,297C 357.5,298 353.5,299 349.5,300C 340.667,301.833 337.167,298.333 339,289.5C 340.167,288.333 341.333,287.167 342.5,286C 346.445,285.342 350.112,284.175 353.5,282.5 Z"/></g>
<g><path style="opacity:1" fill="#f29865" d="M 386.5,295.5 C 406.273,297.142 412.107,307.142 404,325.5C 396.839,335.83 387.006,340.33 374.5,339C 364.458,334.241 360.958,326.408 364,315.5C 368.42,305.23 375.92,298.564 386.5,295.5 Z"/></g>
<g><path style="opacity:1" fill="#339589" d="M 419.5,299.5 C 426.067,298.097 429.733,300.597 430.5,307C 429.736,313.026 428.236,318.859 426,324.5C 421.959,329.313 417.625,329.646 413,325.5C 412.077,323.966 411.577,322.299 411.5,320.5C 412.51,312.728 415.177,305.728 419.5,299.5 Z"/></g>
<g><path style="opacity:1" fill="#319589" d="M 324.5,309.5 C 327.564,309.144 330.231,309.977 332.5,312C 336.967,317.468 341.8,322.635 347,327.5C 348.346,337.816 344.179,340.983 334.5,337C 330.033,331.532 325.2,326.365 320,321.5C 318.309,316.131 319.809,312.131 324.5,309.5 Z"/></g>
<g><path style="opacity:1" fill="#feeebf" d="M 386.5,311.5 C 388.5,311.5 390.5,311.5 392.5,311.5C 391.04,319.293 386.374,323.627 378.5,324.5C 378.298,322.011 378.798,319.677 380,317.5C 382.063,315.266 384.229,313.266 386.5,311.5 Z"/></g>
<g><path style="opacity:1" fill="#9b9b9b" d="M 459.5,381.5 C 459.83,362.659 459.497,343.993 458.5,325.5C 458.892,323.821 459.392,322.154 460,320.5C 460.829,341.004 460.663,361.337 459.5,381.5 Z"/></g>
<g><path style="opacity:1" fill="#bbbbbb" d="M 458.5,325.5 C 459.497,343.993 459.83,362.659 459.5,381.5C 458.204,386.633 455.204,390.467 450.5,393C 444.92,394.517 439.253,394.851 433.5,394C 436.012,390.142 437.845,385.975 439,381.5C 441.028,367.942 444.028,354.608 448,341.5C 451.759,336.309 455.259,330.976 458.5,325.5 Z"/></g>
<g><path style="opacity:1" fill="#f29865" d="M 323.5,339.5 C 335.309,337.992 345.143,341.659 353,350.5C 360.824,363.714 357.657,373.214 343.5,379C 327.776,380.918 316.61,374.752 310,360.5C 308.666,349.68 313.166,342.68 323.5,339.5 Z"/></g>
<g><path style="opacity:1" fill="#fffefd" d="M 382.5,347.5 C 384.199,347.34 385.866,347.506 387.5,348C 394.33,351.581 400.997,355.414 407.5,359.5C 411.59,363.922 411.257,368.089 406.5,372C 403.833,372.667 401.167,372.667 398.5,372C 392.998,368.415 387.331,365.081 381.5,362C 375.99,356.73 376.323,351.897 382.5,347.5 Z"/></g>
<g><path style="opacity:1" fill="#feeebf" d="M 325.5,354.5 C 331.816,353.576 336.983,355.576 341,360.5C 341.86,363.478 340.693,364.812 337.5,364.5C 332.868,364.036 329.035,362.036 326,358.5C 325.51,357.207 325.343,355.873 325.5,354.5 Z"/></g>
</svg>
