<?xml version="1.0" encoding="UTF-8"?>
<!DOCTYPE svg PUBLIC "-//W3C//DTD SVG 1.1//EN" "http://www.w3.org/Graphics/SVG/1.1/DTD/svg11.dtd">
<svg xmlns="http://www.w3.org/2000/svg" version="1.1" width="512px" height="512px" style="shape-rendering:geometricPrecision; text-rendering:geometricPrecision; image-rendering:optimizeQuality; fill-rule:evenodd; clip-rule:evenodd" xmlns:xlink="http://www.w3.org/1999/xlink">
<g><path style="opacity:0.987" fill="#020100" d="M 464.5,-0.5 C 478.833,-0.5 493.167,-0.5 507.5,-0.5C 508.5,1.16667 509.833,2.5 511.5,3.5C 511.5,29.1667 511.5,54.8333 511.5,80.5C 510.254,82.9015 508.254,84.4015 505.5,85C 445.506,83.9446 385.506,82.778 325.5,81.5C 322.961,98.6381 324.795,115.305 331,131.5C 333.859,149.295 332.693,166.795 327.5,184C 327.833,184.5 328.167,185 328.5,185.5C 357.714,173.679 385.214,176.679 411,194.5C 418.049,186.24 425.216,178.073 432.5,170C 435.702,168.517 439.036,168.183 442.5,169C 465.717,188.727 488.717,208.561 511.5,228.5C 511.5,231.5 511.5,234.5 511.5,237.5C 506.179,242.825 501.179,248.491 496.5,254.5C 500.122,255.325 503.789,255.825 507.5,256C 508.705,257.376 510.038,258.542 511.5,259.5C 511.5,277.5 511.5,295.5 511.5,313.5C 499.274,394.732 454.274,448.732 376.5,475.5C 375.668,485.817 375.168,496.151 375,506.5C 373.975,508.687 372.475,510.354 370.5,511.5C 293.833,511.5 217.167,511.5 140.5,511.5C 138.099,510.254 136.599,508.254 136,505.5C 135.832,495.483 135.332,485.483 134.5,475.5C 56.2741,448.614 11.2741,394.28 -0.5,312.5C -0.5,295.167 -0.5,277.833 -0.5,260.5C 0.833333,259.167 0.833333,257.833 -0.5,256.5C -0.5,248.833 -0.5,241.167 -0.5,233.5C 9.35937,194.84 34.3594,176.674 74.5,179C 83.1778,179.837 91.5112,182.004 99.5,185.5C 122.718,168.306 147.718,165.306 174.5,176.5C 178.462,163.705 179.295,150.705 177,137.5C 173.719,127.042 171.385,116.375 170,105.5C 169.269,96.0923 169.769,86.7589 171.5,77.5C 161.137,77.6318 150.803,77.1318 140.5,76C 138.185,74.8906 136.685,73.0573 136,70.5C 135.333,51.5 135.333,32.5 136,13.5C 137.167,11 139,9.16667 141.5,8C 249.334,5.34604 357,2.51271 464.5,-0.5 Z"/></g>
<g><path style="opacity:1" fill="#e74e4e" d="M 452.5,17.5 C 466.5,17.5 480.5,17.5 494.5,17.5C 494.5,22.8333 494.5,28.1667 494.5,33.5C 380.833,33.5 267.167,33.5 153.5,33.5C 153.5,30.5 153.5,27.5 153.5,24.5C 253.345,22.9084 353.011,20.5751 452.5,17.5 Z"/></g>
<g><path style="opacity:1" fill="#972a2a" d="M 494.5,51.5 C 440.5,51.5 386.5,51.5 332.5,51.5C 332.737,52.791 332.404,53.791 331.5,54.5C 331.5,53.1667 331.5,51.8333 331.5,50.5C 386.003,50.1677 440.336,50.501 494.5,51.5 Z"/></g>
<g><path style="opacity:1" fill="#c83838" d="M 211.5,50.5 C 211.167,53.8333 210.833,57.1667 210.5,60.5C 191.498,60.2741 172.498,59.9408 153.5,59.5C 153.5,56.5 153.5,53.5 153.5,50.5C 172.833,50.5 192.167,50.5 211.5,50.5 Z"/></g>
<g><path style="opacity:1" fill="#fab12f" d="M 229.5,50.5 C 235.167,50.5 240.833,50.5 246.5,50.5C 244.324,61.873 241.824,73.2063 239,84.5C 238.333,92.5 238.333,100.5 239,108.5C 240.719,117.989 243.052,127.322 246,136.5C 248.127,153.707 246.127,170.374 240,186.5C 236.979,206.665 238.979,226.332 246,245.5C 246.498,248.817 246.665,252.15 246.5,255.5C 240.833,255.5 235.167,255.5 229.5,255.5C 228.484,242.922 225.984,230.589 222,218.5C 219.891,202.291 221.891,186.624 228,171.5C 231.306,151.991 229.639,132.991 223,114.5C 221.608,104.199 221.274,93.8658 222,83.5C 225.441,72.6852 227.941,61.6852 229.5,50.5 Z"/></g>
<g><path style="opacity:1" fill="#f8b02e" d="M 263.5,50.5 C 269.167,50.5 274.833,50.5 280.5,50.5C 278.525,61.5992 276.025,72.5992 273,83.5C 271.501,101.342 273.835,118.675 280,135.5C 282.155,147.565 281.821,159.565 279,171.5C 270.196,195.907 270.529,220.24 280,244.5C 280.499,248.152 280.665,251.818 280.5,255.5C 274.833,255.5 269.167,255.5 263.5,255.5C 263.402,244.104 261.235,233.104 257,222.5C 255.547,212.874 255.214,203.207 256,193.5C 258.753,183.912 261.087,174.246 263,164.5C 263.667,154.5 263.667,144.5 263,134.5C 260.249,124.917 257.915,115.25 256,105.5C 255.333,98.5 255.333,91.5 256,84.5C 259.451,73.3653 261.951,62.032 263.5,50.5 Z"/></g>
<g><path style="opacity:1" fill="#f9b02f" d="M 297.5,50.5 C 303.167,50.5 308.833,50.5 314.5,50.5C 314.515,54.5598 314.015,58.5598 313,62.5C 306.525,78.329 304.858,94.6623 308,111.5C 310.33,121.16 312.664,130.826 315,140.5C 315.702,149.203 315.368,157.87 314,166.5C 309.824,179.032 307.324,191.866 306.5,205C 307.005,218.528 309.505,231.695 314,244.5C 314.499,248.152 314.665,251.818 314.5,255.5C 308.833,255.5 303.167,255.5 297.5,255.5C 297.074,243.868 294.907,232.535 291,221.5C 289.616,212.536 289.283,203.536 290,194.5C 293.454,183.017 296.121,171.35 298,159.5C 298.667,152.833 298.667,146.167 298,139.5C 295.743,128.73 293.077,118.064 290,107.5C 288.106,92.3033 290.106,77.6366 296,63.5C 296.923,59.2099 297.423,54.8766 297.5,50.5 Z"/></g>
<g><path style="opacity:1" fill="#cd3939" d="M 494.5,51.5 C 494.5,56.8333 494.5,62.1667 494.5,67.5C 446.175,66.1986 397.842,65.1986 349.5,64.5C 343.167,63.8333 336.833,63.1667 330.5,62.5C 330.833,59.8333 331.167,57.1667 331.5,54.5C 332.404,53.791 332.737,52.791 332.5,51.5C 386.5,51.5 440.5,51.5 494.5,51.5 Z"/></g>
<g><path style="opacity:1" fill="#a06510" d="M 211.5,50.5 C 212.71,53.9298 212.376,57.2631 210.5,60.5C 210.833,57.1667 211.167,53.8333 211.5,50.5 Z"/></g>
<g><path style="opacity:1" fill="#6b1e1e" d="M 330.5,62.5 C 336.833,63.1667 343.167,63.8333 349.5,64.5C 342.8,64.83 336.134,64.4967 329.5,63.5C 329.624,62.8933 329.957,62.56 330.5,62.5 Z"/></g>
<g><path style="opacity:1" fill="#fab12f" d="M 189.5,77.5 C 194.833,77.5 200.167,77.5 205.5,77.5C 204.556,88.1525 204.39,98.8192 205,109.5C 207.015,118.894 209.349,128.228 212,137.5C 212.667,146.833 212.667,156.167 212,165.5C 202.44,190.714 202.107,216.047 211,241.5C 212.122,246.102 212.622,250.768 212.5,255.5C 206.833,255.5 201.167,255.5 195.5,255.5C 194.9,243.1 192.4,231.1 188,219.5C 187.333,210.5 187.333,201.5 188,192.5C 189.844,184.79 191.844,177.124 194,169.5C 195.973,157.171 195.973,144.838 194,132.5C 192.203,124.777 190.203,117.111 188,109.5C 186.992,98.6971 187.492,88.0304 189.5,77.5 Z"/></g>
<g><path style="opacity:1" fill="#d1d1cf" d="M 133.5,187.5 C 145.823,186.378 157.489,188.544 168.5,194C 169,194.5 169.5,195 170,195.5C 170.831,201.859 170.664,208.193 169.5,214.5C 163.935,212.066 158.102,211.066 152,211.5C 146.372,211.526 140.872,212.026 135.5,213C 130.287,206.286 124.287,200.453 117.5,195.5C 122.344,191.745 127.677,189.078 133.5,187.5 Z"/></g>
<g><path style="opacity:1" fill="#3c4c62" d="M 438.5,189.5 C 456.107,203.768 473.441,218.435 490.5,233.5C 485.065,241.105 479.065,248.272 472.5,255C 442.5,255.667 412.5,255.667 382.5,255C 401.751,233.589 420.418,211.755 438.5,189.5 Z"/></g>
<g><path style="opacity:1" fill="#dbdbd9" d="M 59.5,195.5 C 95.5196,196.249 121.02,212.916 136,245.5C 137.352,248.72 138.186,252.053 138.5,255.5C 135.167,255.5 131.833,255.5 128.5,255.5C 123.332,229.238 107.332,215.571 80.5,214.5C 55.0157,216.651 40.0157,230.317 35.5,255.5C 29.4632,255.829 23.4632,255.496 17.5,254.5C 13.8411,229.985 22.8411,211.818 44.5,200C 49.5351,198.151 54.5351,196.651 59.5,195.5 Z"/></g>
<g><path style="opacity:1" fill="#ab534a" d="M 354.5,195.5 C 369.051,194.851 382.718,198.017 395.5,205C 397.061,205.941 398.395,207.108 399.5,208.5C 396.19,212.978 392.69,217.311 389,221.5C 377.614,213.897 365.114,211.397 351.5,214C 342.077,216.542 334.077,221.375 327.5,228.5C 324.926,222.058 323.76,215.391 324,208.5C 333.299,201.908 343.466,197.574 354.5,195.5 Z"/></g>
<g><path style="opacity:1" fill="#f38200" d="M 148.5,227.5 C 159.66,226.998 168.827,230.998 176,239.5C 177.962,244.656 178.795,249.989 178.5,255.5C 171.137,255.831 163.803,255.497 156.5,254.5C 154.42,245.506 151.086,237.006 146.5,229C 147.416,228.722 148.082,228.222 148.5,227.5 Z"/></g>
<g><path style="opacity:1" fill="#ad544a" d="M 353.5,230.5 C 361.052,229.873 368.385,230.706 375.5,233C 376.308,233.308 376.975,233.808 377.5,234.5C 371.714,241.241 366.047,248.074 360.5,255C 351.506,255.5 342.506,255.666 333.5,255.5C 333.716,249.397 335.883,244.064 340,239.5C 344.169,235.844 348.669,232.844 353.5,230.5 Z"/></g>
<g><path style="opacity:1" fill="#f68300" d="M 74.5,231.5 C 90.9953,229.328 102.829,235.662 110,250.5C 110.494,252.134 110.66,253.801 110.5,255.5C 91.1638,255.667 71.8305,255.5 52.5,255C 55.5771,243.092 62.9104,235.259 74.5,231.5 Z"/></g>
<g><path style="opacity:1" fill="#c84242" d="M 493.5,289.5 C 493.5,284.167 493.5,278.833 493.5,273.5C 459.5,273.5 425.5,273.5 391.5,273.5C 266.833,273.5 142.167,273.5 17.5,273.5C 17.5,278.833 17.5,284.167 17.5,289.5C 16.5111,284.025 16.1778,278.358 16.5,272.5C 175.833,272.5 335.167,272.5 494.5,272.5C 494.822,278.358 494.489,284.025 493.5,289.5 Z"/></g>
<g><path style="opacity:1" fill="#e84f4e" d="M 391.5,273.5 C 391.5,278.833 391.5,284.167 391.5,289.5C 266.833,289.5 142.167,289.5 17.5,289.5C 17.5,284.167 17.5,278.833 17.5,273.5C 142.167,273.5 266.833,273.5 391.5,273.5 Z"/></g>
<g><path style="opacity:1" fill="#e04343" d="M 391.5,273.5 C 425.5,273.5 459.5,273.5 493.5,273.5C 493.5,278.833 493.5,284.167 493.5,289.5C 459.5,289.5 425.5,289.5 391.5,289.5C 391.5,284.167 391.5,278.833 391.5,273.5 Z"/></g>
<g><path style="opacity:1" fill="#e84e4e" d="M 17.5,307.5 C 142.167,307.5 266.833,307.5 391.5,307.5C 385.669,366.022 358.669,411.855 310.5,445C 301.94,450.447 292.94,455.114 283.5,459C 236.835,459.5 190.168,459.667 143.5,459.5C 77.4986,439.33 36.332,395.663 20,328.5C 18.8376,321.531 18.0043,314.531 17.5,307.5 Z"/></g>
<g><path style="opacity:1" fill="#dd4342" d="M 17.5,307.5 C 175.999,306.5 334.666,306.167 493.5,306.5C 486.622,374.529 452.289,423.029 390.5,452C 382.637,455.066 374.637,457.732 366.5,460C 291.999,460.832 217.666,460.666 143.5,459.5C 190.168,459.667 236.835,459.5 283.5,459C 292.94,455.114 301.94,450.447 310.5,445C 358.669,411.855 385.669,366.022 391.5,307.5C 266.833,307.5 142.167,307.5 17.5,307.5 Z"/></g>
<g><path style="opacity:1" fill="#060201" d="M 52.5,322.5 C 54.6644,327.646 56.6644,332.979 58.5,338.5C 53.9837,341.175 49.1504,343.175 44,344.5C 43.228,344.355 42.5613,344.022 42,343.5C 39.8692,337.644 38.3692,331.644 37.5,325.5C 42.7699,325.237 47.7699,324.237 52.5,322.5 Z"/></g>
<g><path style="opacity:1" fill="#050101" d="M 63.5,355.5 C 65.0744,355.937 66.2411,356.937 67,358.5C 79.614,382.781 97.9474,401.447 122,414.5C 120.184,419.143 118.017,423.81 115.5,428.5C 114.635,429.583 113.635,429.749 112.5,429C 85.1492,413.483 64.4825,391.649 50.5,363.5C 54.694,360.571 59.0274,357.905 63.5,355.5 Z"/></g>
<g><path style="opacity:1" fill="#df4242" d="M 153.5,477.5 C 221.5,477.5 289.5,477.5 357.5,477.5C 357.5,483.167 357.5,488.833 357.5,494.5C 289.5,494.5 221.5,494.5 153.5,494.5C 153.5,488.833 153.5,483.167 153.5,477.5 Z"/></g>
</svg>
