<?xml version="1.0" encoding="UTF-8"?>
<!DOCTYPE svg PUBLIC "-//W3C//DTD SVG 1.1//EN" "http://www.w3.org/Graphics/SVG/1.1/DTD/svg11.dtd">
<svg xmlns="http://www.w3.org/2000/svg" version="1.1" width="512px" height="512px" style="shape-rendering:geometricPrecision; text-rendering:geometricPrecision; image-rendering:optimizeQuality; fill-rule:evenodd; clip-rule:evenodd" xmlns:xlink="http://www.w3.org/1999/xlink">
<g><path style="opacity:0.949" fill="#020000" d="M 212.5,-0.5 C 215.833,-0.5 219.167,-0.5 222.5,-0.5C 233.793,9.72752 241.293,22.3942 245,37.5C 252.324,76.6646 239.491,107.165 206.5,129C 182.108,141.409 157.108,142.742 131.5,133C 122.316,129.333 114.482,123.833 108,116.5C 105.675,110.774 106.342,105.44 110,100.5C 126.833,83.6667 143.667,66.8333 160.5,50C 164.143,47.1433 167.809,46.9767 171.5,49.5C 174.314,53.9602 174.148,58.2935 171,62.5C 159.66,73.3402 148.493,84.3402 137.5,95.5C 131.977,99.8419 127.477,104.842 124,110.5C 151.022,128.856 178.189,129.023 205.5,111C 207.729,108.6 210.063,106.433 212.5,104.5C 231.722,83.1964 236.555,58.8631 227,31.5C 224.378,25.8929 221.045,20.8929 217,16.5C 209.525,22.9738 202.359,29.8071 195.5,37C 192.019,38.9989 188.685,38.8322 185.5,36.5C 182.689,32.3691 182.856,28.3691 186,24.5C 194.427,15.5683 203.26,7.23493 212.5,-0.5 Z"/></g>
<g><path style="opacity:0.952" fill="#020000" d="M 335.5,-0.5 C 339.5,-0.5 343.5,-0.5 347.5,-0.5C 373.781,7.38572 387.614,25.0524 389,52.5C 387.833,56.3333 385.333,58.8333 381.5,60C 363.439,65.2235 345.273,70.0568 327,74.5C 317.029,72.5723 313.029,66.5723 315,56.5C 319.511,39.456 324.178,22.456 329,5.5C 331.063,3.26589 333.229,1.26589 335.5,-0.5 Z"/></g>
<g><path style="opacity:1" fill="#f48401" d="M 355.5,20.5 C 351.926,31.2391 348.926,42.2391 346.5,53.5C 341.445,54.6803 336.445,56.0136 331.5,57.5C 334.626,43.4545 337.959,29.4545 341.5,15.5C 346.836,15.6096 351.503,17.2763 355.5,20.5 Z"/></g>
<g><path style="opacity:0.997" fill="#f94553" d="M 212.5,104.5 C 212.44,103.957 212.107,103.624 211.5,103.5C 198.251,108.062 184.584,109.728 170.5,108.5C 172.464,102.676 172.964,96.6763 172,90.5C 168.702,85.2261 164.369,84.2261 159,87.5C 157.596,93.0438 157.096,98.7104 157.5,104.5C 151.75,102.458 146.416,99.6247 141.5,96C 140.207,95.51 138.873,95.3433 137.5,95.5C 148.493,84.3402 159.66,73.3402 171,62.5C 174.148,58.2935 174.314,53.9602 171.5,49.5C 176.167,45.1667 180.833,40.8333 185.5,36.5C 188.685,38.8322 192.019,38.9989 195.5,37C 202.359,29.8071 209.525,22.9738 217,16.5C 221.045,20.8929 224.378,25.8929 227,31.5C 236.555,58.8631 231.722,83.1964 212.5,104.5 Z"/></g>
<g><path style="opacity:1" fill="#fa9601" d="M 355.5,20.5 C 365.738,26.0967 371.738,34.7634 373.5,46.5C 364.433,48.6344 355.433,50.9677 346.5,53.5C 348.926,42.2391 351.926,31.2391 355.5,20.5 Z"/></g>
<g><path style="opacity:1" fill="#0b0302" d="M 197.5,51.5 C 203.29,51.0962 208.956,51.5962 214.5,53C 217.886,56.3731 218.386,60.2064 216,64.5C 215.25,65.1258 214.416,65.6258 213.5,66C 207.388,66.9094 201.388,66.576 195.5,65C 191.177,59.7768 191.844,55.2768 197.5,51.5 Z"/></g>
<g><path style="opacity:0.981" fill="#010101" d="M 406.5,100.5 C 404.551,102.305 402.218,103.305 399.5,103.5C 392.39,100.631 385.057,98.464 377.5,97C 358.717,94.6491 342.717,100.149 329.5,113.5C 331.534,116.369 334.034,118.702 337,120.5C 355.158,105.261 374.658,103.428 395.5,115C 406.197,122.864 412.53,133.364 414.5,146.5C 418.167,146.5 421.833,146.5 425.5,146.5C 425.662,144.473 425.495,142.473 425,140.5C 422.765,133.703 420.265,127.037 417.5,120.5C 417.695,117.782 418.695,115.449 420.5,113.5C 425.031,111.675 428.864,112.675 432,116.5C 437.758,127.107 441.091,138.441 442,150.5C 461.188,161.55 469.188,178.216 466,200.5C 463.504,214.323 457.671,226.49 448.5,237C 468.934,249.944 473.1,266.778 461,287.5C 452.061,296.889 441.228,303.056 428.5,306C 427.663,307.011 427.33,308.178 427.5,309.5C 455.409,305.271 465.909,316.938 459,344.5C 445.911,423.727 402.744,479.393 329.5,511.5C 277.5,511.5 225.5,511.5 173.5,511.5C 101.939,480.076 59.106,425.743 45,348.5C 44.084,341.34 43.2507,334.173 42.5,327C 43.0607,318.87 47.0607,313.204 54.5,310C 62.1667,309.667 69.8333,309.333 77.5,309C 73.7388,303.46 72.0721,297.293 72.5,290.5C 72.1415,285.221 73.1415,280.221 75.5,275.5C 43.7263,249.807 35.893,218.141 52,180.5C 70.9831,150.266 98.1498,138.432 133.5,145C 142.446,147.89 150.946,151.724 159,156.5C 175.966,150.523 192.466,151.689 208.5,160C 213.943,163.135 219.11,166.635 224,170.5C 229.457,162.71 236.457,156.71 245,152.5C 238.467,121.3 245.134,93.3005 265,68.5C 270.28,64.2449 276.114,63.4115 282.5,66C 294.347,78.0142 306.347,89.8475 318.5,101.5C 344.131,79.2987 372.465,75.1321 403.5,89C 407.325,92.1359 408.325,95.9692 406.5,100.5 Z M 365.5,122.5 C 381.034,121.677 391.867,128.344 398,142.5C 399.19,145.194 399.356,147.861 398.5,150.5C 391.247,153.372 384.747,157.372 379,162.5C 368.833,152.333 358.667,142.167 348.5,132C 353.383,127.23 359.05,124.063 365.5,122.5 Z M 110.5,184.5 C 118.499,183.833 125.832,185.666 132.5,190C 133.76,191.814 133.76,193.647 132.5,195.5C 117.694,196.825 107.194,204.159 101,217.5C 99.0185,224.367 97.6852,231.367 97,238.5C 82.2848,223.43 81.7848,207.93 95.5,192C 100.045,188.394 105.045,185.894 110.5,184.5 Z"/></g>
<g><path style="opacity:1" fill="#070201" d="M 187.5,75.5 C 189.655,75.372 191.655,75.872 193.5,77C 196.667,80.1667 199.833,83.3333 203,86.5C 204.833,95.3333 201.333,98.8333 192.5,97C 189.333,93.8333 186.167,90.6667 183,87.5C 181.309,82.1311 182.809,78.1311 187.5,75.5 Z"/></g>
<g><path style="opacity:1" fill="#e11e2c" d="M 291.5,97.5 C 285.202,104.108 281.535,112.108 280.5,121.5C 274.355,125.852 274.022,130.519 279.5,135.5C 277.844,146.278 278.844,156.944 282.5,167.5C 277.144,160.976 270.477,156.143 262.5,153C 253.811,127.176 257.811,103.51 274.5,82C 280.827,86.1472 286.494,91.3139 291.5,97.5 Z"/></g>
<g><path style="opacity:1" fill="#0c0302" d="M 170.5,108.5 C 164.475,112.171 160.142,110.838 157.5,104.5C 157.096,98.7104 157.596,93.0438 159,87.5C 164.369,84.2261 168.702,85.2261 172,90.5C 172.964,96.6763 172.464,102.676 170.5,108.5 Z"/></g>
<g><path style="opacity:1" fill="#f52a39" d="M 137.5,95.5 C 138.873,95.3433 140.207,95.51 141.5,96C 146.416,99.6247 151.75,102.458 157.5,104.5C 160.142,110.838 164.475,112.171 170.5,108.5C 184.584,109.728 198.251,108.062 211.5,103.5C 212.107,103.624 212.44,103.957 212.5,104.5C 210.063,106.433 207.729,108.6 205.5,111C 178.189,129.023 151.022,128.856 124,110.5C 127.477,104.842 131.977,99.8419 137.5,95.5 Z"/></g>
<g><path style="opacity:0.994" fill="#f8cda0" d="M 406.5,100.5 C 412.4,103.459 417.067,107.793 420.5,113.5C 418.695,115.449 417.695,117.782 417.5,120.5C 420.265,127.037 422.765,133.703 425,140.5C 425.495,142.473 425.662,144.473 425.5,146.5C 421.833,146.5 418.167,146.5 414.5,146.5C 412.53,133.364 406.197,122.864 395.5,115C 374.658,103.428 355.158,105.261 337,120.5C 334.034,118.702 331.534,116.369 329.5,113.5C 342.717,100.149 358.717,94.6491 377.5,97C 385.057,98.464 392.39,100.631 399.5,103.5C 402.218,103.305 404.551,102.305 406.5,100.5 Z"/></g>
<g><path style="opacity:1" fill="#f72a39" d="M 291.5,97.5 C 307.812,113.146 323.812,129.146 339.5,145.5C 325.895,150.605 316.395,159.938 311,173.5C 308.91,177.599 307.744,181.933 307.5,186.5C 301.781,185.825 296.114,184.825 290.5,183.5C 288.347,177.861 285.681,172.528 282.5,167.5C 278.844,156.944 277.844,146.278 279.5,135.5C 285.084,136.618 290.751,136.785 296.5,136C 301.224,133.565 302.724,129.731 301,124.5C 300.097,123.299 298.931,122.465 297.5,122C 291.843,121.501 286.176,121.334 280.5,121.5C 281.535,112.108 285.202,104.108 291.5,97.5 Z"/></g>
<g><path style="opacity:1" fill="#0c0201" d="M 280.5,121.5 C 286.176,121.334 291.843,121.501 297.5,122C 298.931,122.465 300.097,123.299 301,124.5C 302.724,129.731 301.224,133.565 296.5,136C 290.751,136.785 285.084,136.618 279.5,135.5C 274.022,130.519 274.355,125.852 280.5,121.5 Z"/></g>
<g><path style="opacity:1" fill="#0c0201" d="M 301.5,149.5 C 311.875,148.919 314.709,153.252 310,162.5C 307.5,165 305,167.5 302.5,170C 293.961,173.451 289.794,170.618 290,161.5C 293.364,156.971 297.197,152.971 301.5,149.5 Z"/></g>
<g><path style="opacity:1" fill="#f6cb9f" d="M 106.5,158.5 C 120.479,157.08 133.479,159.913 145.5,167C 143.276,169.965 140.942,172.798 138.5,175.5C 113.059,163.401 92.2258,168.735 76,191.5C 65.7702,213.525 69.2702,233.025 86.5,250C 89.5017,252.503 92.8351,254.503 96.5,256C 92.9961,257.918 89.6628,260.084 86.5,262.5C 65.2367,248.584 56.4034,228.918 60,203.5C 66.5717,179.092 82.0717,164.092 106.5,158.5 Z"/></g>
<g><path style="opacity:1" fill="#67c843" d="M 340.5,160.5 C 350.819,159.991 358.319,164.324 363,173.5C 364.767,178.173 367.267,182.34 370.5,186C 373.88,186.938 376.88,186.271 379.5,184C 393.404,166.04 411.404,159.373 433.5,164C 445.3,169.598 451.3,178.931 451.5,192C 449.877,209.083 442.377,222.917 429,233.5C 425.593,237.473 425.76,241.306 429.5,245C 438.391,247.907 445.557,253.074 451,260.5C 453.874,269.167 451.707,276.334 444.5,282C 434.283,288.183 423.283,292.183 411.5,294C 407.693,298.657 407.693,303.49 411.5,308.5C 411,308.833 410.5,309.167 410,309.5C 393.541,294.041 377.374,278.208 361.5,262C 376,247.5 390.5,233 405,218.5C 406.833,209.667 403.333,206.167 394.5,208C 380,222.5 365.5,237 351,251.5C 338.438,238.269 325.272,225.769 311.5,214C 307.218,213.035 303.218,213.702 299.5,216C 292.308,223.544 286.475,232.044 282,241.5C 278.697,232.097 277.697,222.431 279,212.5C 282.9,200.801 290.733,196.967 302.5,201C 306.722,204.111 311.389,205.111 316.5,204C 317.333,203.167 318.167,202.333 319,201.5C 320.105,189.389 324.105,178.389 331,168.5C 333.775,165.22 336.942,162.554 340.5,160.5 Z"/></g>
<g><path style="opacity:1" fill="#01794d" d="M 174.5,281.5 C 173.778,281.082 173.278,280.416 173,279.5C 171.729,268.535 175.562,259.701 184.5,253C 187.167,251.333 189.833,249.667 192.5,248C 194.396,246.192 194.896,244.025 194,241.5C 178.303,226.739 171.969,208.739 175,187.5C 177.103,180.787 180.603,174.954 185.5,170C 186.448,169.517 187.448,169.351 188.5,169.5C 202.005,172.841 213.005,180.008 221.5,191C 225.121,193.09 228.621,192.923 232,190.5C 234.885,182.553 239.385,175.719 245.5,170C 253.916,164.819 261.416,165.985 268,173.5C 271.49,178.313 274.323,183.48 276.5,189C 265.616,199.958 261.45,213.125 264,228.5C 264.969,236.209 266.802,243.709 269.5,251C 269.167,251.5 268.833,252 268.5,252.5C 258.361,247.799 247.694,245.299 236.5,245C 226.5,235 216.5,225 206.5,215C 197.319,211.675 193.485,214.842 195,224.5C 202.5,232 210,239.5 217.5,247C 198.912,253.282 184.579,264.782 174.5,281.5 Z"/></g>
<g><path style="opacity:1" fill="#016740" d="M 188.5,169.5 C 187.448,169.351 186.448,169.517 185.5,170C 180.603,174.954 177.103,180.787 175,187.5C 171.969,208.739 178.303,226.739 194,241.5C 194.896,244.025 194.396,246.192 192.5,248C 189.833,249.667 187.167,251.333 184.5,253C 175.562,259.701 171.729,268.535 173,279.5C 173.278,280.416 173.778,281.082 174.5,281.5C 172.466,286.252 169.966,290.585 167,294.5C 158.116,291.613 151.783,285.946 148,277.5C 146.865,269.599 149.698,263.432 156.5,259C 161.341,256.079 166.341,253.412 171.5,251C 173.16,248.367 173.66,245.534 173,242.5C 161.84,233.508 154.173,222.175 150,208.5C 146.445,178.889 159.278,165.889 188.5,169.5 Z"/></g>
<g><path style="opacity:1" fill="#7ecf5f" d="M 128.5,211.5 C 131.119,211.232 133.619,211.565 136,212.5C 139.141,224.127 144.641,234.461 152.5,243.5C 127.725,260.747 126.058,279.913 147.5,301C 152.341,303.921 157.341,306.588 162.5,309C 140.5,309.667 118.5,309.667 96.5,309C 83.1608,294.055 84.8275,281.055 101.5,270C 106.363,267.934 111.363,266.268 116.5,265C 119.194,262.347 120.027,259.18 119,255.5C 112.622,244.163 111.955,232.496 117,220.5C 120.183,216.462 124.016,213.462 128.5,211.5 Z"/></g>
<g><path style="opacity:1" fill="#fafafa" d="M 306.5,229.5 C 312.433,235.096 318.433,240.762 324.5,246.5C 311.064,267.556 311.397,288.39 325.5,309C 319.509,309.499 313.509,309.666 307.5,309.5C 306.748,301.909 304.915,294.575 302,287.5C 298.519,280.691 294.686,274.191 290.5,268C 292.991,253.867 298.325,241.034 306.5,229.5 Z"/></g>
<g><path style="opacity:1" fill="#f5cd05" d="M 340.5,262.5 C 335.907,280.465 339.907,296.132 352.5,309.5C 347.686,309.011 343.52,307.011 340,303.5C 327.88,289.185 326.38,273.852 335.5,257.5C 337.521,258.855 339.188,260.521 340.5,262.5 Z"/></g>
<g><path style="opacity:1" fill="#f8cda0" d="M 225.5,260.5 C 255.949,257.468 277.449,269.802 290,297.5C 291.47,301.378 292.303,305.378 292.5,309.5C 288.833,309.5 285.167,309.5 281.5,309.5C 276.022,285.031 260.689,272.031 235.5,270.5C 211.857,272.812 197.19,285.478 191.5,308.5C 187.893,309.489 184.226,309.823 180.5,309.5C 185.464,283.872 200.464,267.539 225.5,260.5 Z"/></g>
<g><path style="opacity:1" fill="#fdde73" d="M 340.5,262.5 C 355.119,277.785 370.119,292.785 385.5,307.5C 385.291,308.086 384.957,308.586 384.5,309C 373.839,309.5 363.172,309.667 352.5,309.5C 339.907,296.132 335.907,280.465 340.5,262.5 Z"/></g>
<g><path style="opacity:1" fill="#01794c" d="M 230.5,285.5 C 248.708,284.4 260.708,292.4 266.5,309.5C 246.833,309.5 227.167,309.5 207.5,309.5C 209.198,300.278 214.198,293.445 222.5,289C 225.309,287.907 227.976,286.74 230.5,285.5 Z"/></g>
<g><path style="opacity:1" fill="#d6eafc" d="M 89.5,324.5 C 89.6211,335.255 90.6211,345.922 92.5,356.5C 82.1667,356.5 71.8333,356.5 61.5,356.5C 59.7397,346.232 58.9064,335.899 59,325.5C 69.0842,324.514 79.2509,324.181 89.5,324.5 Z"/></g>
<g><path style="opacity:1" fill="#e9f5fe" d="M 89.5,324.5 C 207.5,324.333 325.5,324.5 443.5,325C 444.139,327.411 444.473,329.911 444.5,332.5C 443.716,340.533 442.716,348.533 441.5,356.5C 416.831,356.333 392.164,356.5 367.5,357C 365.181,358.147 363.848,359.981 363.5,362.5C 360.093,363.753 356.427,364.42 352.5,364.5C 348.573,364.42 344.907,363.753 341.5,362.5C 341.087,359.585 339.421,357.752 336.5,357C 255.167,356.5 173.834,356.333 92.5,356.5C 90.6211,345.922 89.6211,335.255 89.5,324.5 Z"/></g>
<g><path style="opacity:1" fill="#d7ebfd" d="M 341.5,362.5 C 344.907,363.753 348.573,364.42 352.5,364.5C 356.427,364.42 360.093,363.753 363.5,362.5C 362.826,366.317 364.159,369.15 367.5,371C 390.833,371.333 414.167,371.667 437.5,372C 418.766,430.137 381.432,471.47 325.5,496C 283.168,496.5 240.835,496.667 198.5,496.5C 146.928,469.253 112.928,427.587 96.5,371.5C 176.501,371.667 256.501,371.5 336.5,371C 340.598,369.642 342.265,366.808 341.5,362.5 Z"/></g>
<g><path style="opacity:1" fill="#c2e0fd" d="M 96.5,371.5 C 112.928,427.587 146.928,469.253 198.5,496.5C 191.492,496.666 184.492,496.5 177.5,496C 121.646,471.313 84.6464,429.813 66.5,371.5C 76.5,371.5 86.5,371.5 96.5,371.5 Z"/></g>
</svg>
