<?xml version="1.0" encoding="UTF-8"?>
<!DOCTYPE svg PUBLIC "-//W3C//DTD SVG 1.1//EN" "http://www.w3.org/Graphics/SVG/1.1/DTD/svg11.dtd">
<svg xmlns="http://www.w3.org/2000/svg" version="1.1" width="512px" height="512px" style="shape-rendering:geometricPrecision; text-rendering:geometricPrecision; image-rendering:optimizeQuality; fill-rule:evenodd; clip-rule:evenodd" xmlns:xlink="http://www.w3.org/1999/xlink">
<g><path style="opacity:0.966" fill="#000000" d="M 234.5,31.5 C 313.354,26.8605 378.521,54.1938 430,113.5C 477.838,176.361 491.171,246.028 470,322.5C 444.833,395.667 395.667,444.833 322.5,470C 230.927,494.242 152.427,472.409 87,404.5C 48.6467,360.09 30.3133,308.423 32,249.5C 36.4731,240.518 43.6397,237.351 53.5,240C 58,241.833 61.1667,245 63,249.5C 64.0373,317.075 91.2039,371.242 144.5,412C 203.264,451.233 265.597,457.899 331.5,432C 396.409,401.389 434.576,350.556 446,279.5C 452.546,196.424 420.713,132.924 350.5,89C 292.086,58.0332 232.752,56.0332 172.5,83C 165.337,86.7471 158.337,90.7471 151.5,95C 171.753,93.566 178.919,102.399 173,121.5C 171.062,124.106 168.562,125.939 165.5,127C 145.5,127.667 125.5,127.667 105.5,127C 101,125.167 97.8333,122 96,117.5C 95.3333,97.5 95.3333,77.5 96,57.5C 98.8068,50.513 103.973,47.1797 111.5,47.5C 119.027,47.1797 124.193,50.513 127,57.5C 127.333,61.8333 127.667,66.1667 128,70.5C 160.397,48.8692 195.897,35.8692 234.5,31.5 Z"/></g>
<g><path style="opacity:0.989" fill="#000000" d="M 238.5,111.5 C 299.477,107.573 346.644,130.906 380,181.5C 402.607,223.445 405.607,266.779 389,311.5C 358.674,374.262 308.508,403.428 238.5,399C 180.271,390.097 140.438,358.264 119,303.5C 100.893,242.42 114.727,189.92 160.5,146C 183.272,127.112 209.272,115.612 238.5,111.5 Z M 250.5,160.5 C 259.587,158.959 266.087,162.293 270,170.5C 271.121,196.466 271.954,222.466 272.5,248.5C 285.698,257.53 299.031,266.363 312.5,275C 319.011,281.251 320.177,288.418 316,296.5C 309.749,303.011 302.582,304.177 294.5,300C 278.5,289.333 262.5,278.667 246.5,268C 243.894,266.062 242.061,263.562 241,260.5C 239.376,232.207 239.042,203.874 240,175.5C 240.626,168.391 244.126,163.391 250.5,160.5 Z"/></g>
</svg>
