<?xml version="1.0" encoding="UTF-8"?>
<!DOCTYPE svg PUBLIC "-//W3C//DTD SVG 1.1//EN" "http://www.w3.org/Graphics/SVG/1.1/DTD/svg11.dtd">
<svg xmlns="http://www.w3.org/2000/svg" version="1.1" width="512px" height="512px" style="shape-rendering:geometricPrecision; text-rendering:geometricPrecision; image-rendering:optimizeQuality; fill-rule:evenodd; clip-rule:evenodd" xmlns:xlink="http://www.w3.org/1999/xlink">
<g><path style="opacity:0.922" fill="#000000" d="M 255.5,-0.5 C 258.167,-0.5 260.833,-0.5 263.5,-0.5C 267.338,3.30101 268.505,7.96768 267,13.5C 264.086,19.496 261.586,25.6626 259.5,32C 260.942,37.3941 263.108,42.5608 266,47.5C 269.098,58.0205 267.431,67.6872 261,76.5C 260.131,78.5806 259.631,80.7473 259.5,83C 260.372,87.578 262.205,91.7447 265,95.5C 267.912,101.543 268.079,107.543 265.5,113.5C 256.328,117.858 251.495,114.858 251,104.5C 241.051,90.1382 241.051,75.8049 251,61.5C 251.667,58.8333 251.667,56.1667 251,53.5C 241.051,39.1951 241.051,24.8618 251,10.5C 250.869,6.10314 252.369,2.43648 255.5,-0.5 Z"/></g>
<g><path style="opacity:0.919" fill="#000000" d="M 191.5,24.5 C 194.93,24.1065 198.096,24.7732 201,26.5C 202.251,30.082 203.251,33.7487 204,37.5C 210.116,45.8903 212.116,55.2236 210,65.5C 207.477,71.2072 204.977,76.8739 202.5,82.5C 204.462,88.422 206.962,94.0887 210,99.5C 210.667,103.833 210.667,108.167 210,112.5C 205.333,116.5 200.667,116.5 196,112.5C 195.206,109.529 194.539,106.529 194,103.5C 184,89.8333 184,76.1667 194,62.5C 194.667,59.1667 194.667,55.8333 194,52.5C 188.052,45.0146 186.052,36.6812 188,27.5C 189.145,26.3636 190.312,25.3636 191.5,24.5 Z"/></g>
<g><path style="opacity:0.922" fill="#000000" d="M 303.5,24.5 C 306.93,24.1065 310.096,24.7732 313,26.5C 314.743,29.9567 315.743,33.6233 316,37.5C 326,50.8333 326,64.1667 316,77.5C 315.333,80.8333 315.333,84.1667 316,87.5C 320.372,93.4475 322.872,100.114 323.5,107.5C 322.237,115.061 317.904,117.561 310.5,115C 308.009,111.26 306.509,107.093 306,102.5C 299.882,94.1471 297.882,84.8138 300,74.5C 303.038,69.0887 305.538,63.422 307.5,57.5C 305.538,51.578 303.038,45.9113 300,40.5C 299.333,36.5 299.333,32.5 300,28.5C 300.69,26.6498 301.856,25.3164 303.5,24.5 Z"/></g>
<g><path style="opacity:0.972" fill="#020202" d="M 357.5,145.5 C 355.813,150.018 352.48,152.018 347.5,151.5C 285.463,138.104 223.463,138.271 161.5,152C 128.239,159.469 97.9061,173.136 70.5,193C 30.8719,227.208 30.5386,261.875 69.5,297C 85.0689,308.958 102.069,318.624 120.5,326C 123.186,328.546 124.186,331.713 123.5,335.5C 121.142,339.077 117.809,340.244 113.5,339C 87.8959,329.624 65.7292,315.124 47,295.5C 64.4711,363.315 104.971,412.148 168.5,442C 191.742,452.394 216.075,458.227 241.5,459.5C 324.91,462.212 390.077,429.212 437,360.5C 448.84,341.149 457.674,320.482 463.5,298.5C 462.998,297.479 462.332,297.312 461.5,298C 451.85,308.332 440.85,316.998 428.5,324C 416.349,330.411 404.015,336.244 391.5,341.5C 320.895,364.684 248.895,369.851 175.5,357C 165.726,355.14 156.059,352.806 146.5,350C 143.38,347.592 142.047,344.426 142.5,340.5C 144.02,337.498 146.52,335.831 150,335.5C 201.802,348.733 254.302,352.233 307.5,346C 346.927,341.478 384.26,330.145 419.5,312C 434.882,303.543 448.048,292.376 459,278.5C 475.117,254.379 474.117,231.046 456,208.5C 434.784,185.965 409.284,170.131 379.5,161C 376.38,158.592 375.047,155.426 375.5,151.5C 377.725,146.891 381.391,145.391 386.5,147C 412.761,155.958 436.428,169.291 457.5,187C 484.285,213.288 492.785,244.788 483,281.5C 470.007,353.612 432.174,408.278 369.5,445.5C 369.631,472.102 357.298,489.936 332.5,499C 314.876,505.409 296.876,509.575 278.5,511.5C 263.167,511.5 247.833,511.5 232.5,511.5C 212.306,509.369 192.64,504.535 173.5,497C 151.677,486.965 141.01,469.799 141.5,445.5C 67.9832,401.179 29.3165,335.846 25.5,249.5C 25.1498,227.88 32.3165,209.213 47,193.5C 66.0962,174.692 88.2628,160.525 113.5,151C 178.415,127.855 245.081,120.855 313.5,130C 327.466,131.549 341.133,134.382 354.5,138.5C 356.082,140.577 357.082,142.91 357.5,145.5 Z"/></g>
<g><path style="opacity:1" fill="#8ab5be" d="M 357.5,145.5 C 363.416,147.486 369.416,149.486 375.5,151.5C 375.047,155.426 376.38,158.592 379.5,161C 409.284,170.131 434.784,185.965 456,208.5C 474.117,231.046 475.117,254.379 459,278.5C 448.048,292.376 434.882,303.543 419.5,312C 384.26,330.145 346.927,341.478 307.5,346C 254.302,352.233 201.802,348.733 150,335.5C 146.52,335.831 144.02,337.498 142.5,340.5C 136.116,339.039 129.783,337.372 123.5,335.5C 124.186,331.713 123.186,328.546 120.5,326C 102.069,318.624 85.0689,308.958 69.5,297C 30.5386,261.875 30.8719,227.208 70.5,193C 97.9061,173.136 128.239,159.469 161.5,152C 223.463,138.271 285.463,138.104 347.5,151.5C 352.48,152.018 355.813,150.018 357.5,145.5 Z"/></g>
<g><path style="opacity:1" fill="#030403" d="M 94.5,205.5 C 94.6633,207.857 94.4966,210.19 94,212.5C 90.2998,216.535 86.2998,220.202 82,223.5C 77.9225,227.984 74.5891,232.984 72,238.5C 70.3863,246.251 71.8863,253.251 76.5,259.5C 93.5788,236.779 115.579,220.612 142.5,211C 208.967,188.042 276.301,185.376 344.5,203C 367.836,209.503 389.503,219.503 409.5,233C 419.058,240.724 427.392,249.557 434.5,259.5C 439.58,252.495 440.746,244.829 438,236.5C 433.588,227.855 427.421,220.688 419.5,215C 393.635,197.575 365.302,185.908 334.5,180C 297.831,172.884 260.831,170.551 223.5,173C 187.738,175.524 153.405,183.857 120.5,198C 116.9,199.073 113.9,198.24 111.5,195.5C 109.714,191.494 110.38,187.994 113.5,185C 134.668,175.388 156.668,168.388 179.5,164C 243.655,152.537 306.988,155.87 369.5,174C 389.015,180.258 407.348,188.925 424.5,200C 437.258,208.422 446.758,219.589 453,233.5C 455.949,244.72 454.616,255.386 449,265.5C 440.42,278.045 429.587,288.211 416.5,296C 376.528,317.328 333.862,329.328 288.5,332C 228.681,337.9 171.015,329.567 115.5,307C 98.4254,299.577 83.2588,289.41 70,276.5C 52.3513,256.442 52.018,236.108 69,215.5C 73.5752,210.254 78.7419,205.754 84.5,202C 88.809,200.756 92.1423,201.923 94.5,205.5 Z"/></g>
<g><path style="opacity:1" fill="#c5dee3" d="M 94.5,205.5 C 94.4142,204.504 94.7476,203.671 95.5,203C 100.521,199.654 105.854,197.154 111.5,195.5C 113.9,198.24 116.9,199.073 120.5,198C 153.405,183.857 187.738,175.524 223.5,173C 260.831,170.551 297.831,172.884 334.5,180C 365.302,185.908 393.635,197.575 419.5,215C 427.421,220.688 433.588,227.855 438,236.5C 440.746,244.829 439.58,252.495 434.5,259.5C 427.392,249.557 419.058,240.724 409.5,233C 389.503,219.503 367.836,209.503 344.5,203C 276.301,185.376 208.967,188.042 142.5,211C 115.579,220.612 93.5788,236.779 76.5,259.5C 71.8863,253.251 70.3863,246.251 72,238.5C 74.5891,232.984 77.9225,227.984 82,223.5C 86.2998,220.202 90.2998,216.535 94,212.5C 94.4966,210.19 94.6633,207.857 94.5,205.5 Z"/></g>
<g><path style="opacity:1" fill="#f9c880" d="M 417.5,261.5 C 407.958,268.774 397.625,274.774 386.5,279.5C 397.897,269.601 398.23,259.434 387.5,249C 378.522,243.836 368.855,242.169 358.5,244C 342.713,248.415 337.547,258.248 343,273.5C 355.15,285.282 368.983,287.616 384.5,280.5C 359.012,292.046 332.345,300.213 304.5,305C 260.7,312.724 216.7,314.224 172.5,309.5C 146.85,304.563 122.85,295.396 100.5,282C 95.708,279.039 91.3746,275.539 87.5,271.5C 96.4101,256.09 108.743,244.256 124.5,236C 157.726,218.859 193.059,209.192 230.5,207C 273.882,204.214 316.215,209.548 357.5,223C 381.032,230.583 401.032,243.417 417.5,261.5 Z"/></g>
<g><path style="opacity:1" fill="#050402" d="M 297.5,223.5 C 308.54,222.716 318.374,225.716 327,232.5C 334.017,242.996 332.517,252.163 322.5,260C 310.126,265.926 297.792,265.926 285.5,260C 275.918,252.744 274.085,243.911 280,233.5C 285.04,228.594 290.873,225.261 297.5,223.5 Z"/></g>
<g><path style="opacity:1" fill="#050302" d="M 199.5,225.5 C 212.511,223.571 224.511,226.071 235.5,233C 237.452,235.074 239.285,237.241 241,239.5C 243.344,234.454 247.177,231.954 252.5,232C 257.143,234.072 258.643,237.572 257,242.5C 254,248.167 249.667,252.5 244,255.5C 240.458,270.872 230.958,280.372 215.5,284C 193.093,290.171 170.759,289.838 148.5,283C 140.541,280.029 134.041,275.196 129,268.5C 124.777,252.123 130.943,241.956 147.5,238C 165.22,234.916 182.553,230.749 199.5,225.5 Z"/></g>
<g><path style="opacity:1" fill="#79c75c" d="M 298.5,238.5 C 304.815,237.871 310.648,239.204 316,242.5C 316.092,246.089 314.259,248.256 310.5,249C 305.833,249.667 301.167,249.667 296.5,249C 294.154,247.987 292.487,246.321 291.5,244C 293.444,241.692 295.777,239.859 298.5,238.5 Z"/></g>
<g><path style="opacity:1" fill="#f87e84" d="M 226.5,245.5 C 220.555,255.844 211.555,262.344 199.5,265C 180.996,268.698 162.663,268.198 144.5,263.5C 141.223,261.823 140.723,259.49 143,256.5C 144.255,255.789 145.421,254.956 146.5,254C 164.293,250.201 181.959,245.868 199.5,241C 205.833,240.333 212.167,240.333 218.5,241C 221.684,241.754 224.351,243.254 226.5,245.5 Z"/></g>
<g><path style="opacity:1" fill="#050402" d="M 386.5,279.5 C 385.508,279.328 384.842,279.662 384.5,280.5C 368.983,287.616 355.15,285.282 343,273.5C 337.547,258.248 342.713,248.415 358.5,244C 368.855,242.169 378.522,243.836 387.5,249C 398.23,259.434 397.897,269.601 386.5,279.5 Z"/></g>
<g><path style="opacity:1" fill="#f15f6b" d="M 226.5,245.5 C 230.282,249.891 230.449,254.558 227,259.5C 218.649,267.849 208.483,272.349 196.5,273C 183.324,274.195 170.324,273.195 157.5,270C 152.547,268.857 148.214,266.69 144.5,263.5C 162.663,268.198 180.996,268.698 199.5,265C 211.555,262.344 220.555,255.844 226.5,245.5 Z"/></g>
<g><path style="opacity:1" fill="#79c65c" d="M 360.5,258.5 C 366.732,257.939 372.732,258.772 378.5,261C 381.064,263.276 380.73,265.276 377.5,267C 370.268,270.575 363.268,270.241 356.5,266C 355.446,264.612 355.28,263.112 356,261.5C 357.652,260.601 359.152,259.601 360.5,258.5 Z"/></g>
<g><path style="opacity:1" fill="#f7ae42" d="M 417.5,261.5 C 420.432,264.698 422.266,268.365 423,272.5C 408.605,283.784 392.771,292.617 375.5,299C 323.235,316.794 269.569,322.794 214.5,317C 200.158,315.646 186.158,313.146 172.5,309.5C 216.7,314.224 260.7,312.724 304.5,305C 332.345,300.213 359.012,292.046 384.5,280.5C 384.842,279.662 385.508,279.328 386.5,279.5C 397.625,274.774 407.958,268.774 417.5,261.5 Z"/></g>
<g><path style="opacity:1" fill="#050402" d="M 263.5,267.5 C 276.421,265.31 287.587,268.643 297,277.5C 303.344,292.647 298.511,302.48 282.5,307C 268.987,310.915 257.487,307.748 248,297.5C 242.937,287.008 245.103,278.508 254.5,272C 257.592,270.454 260.592,268.954 263.5,267.5 Z"/></g>
<g><path style="opacity:1" fill="#79c75c" d="M 266.5,282.5 C 272.434,281.889 278.1,282.722 283.5,285C 284.574,285.739 285.241,286.739 285.5,288C 280.588,293.161 274.588,294.828 267.5,293C 258.693,289.991 258.359,286.491 266.5,282.5 Z"/></g>
<g><path style="opacity:1" fill="#edf1f3" d="M 123.5,335.5 C 129.783,337.372 136.116,339.039 142.5,340.5C 142.047,344.426 143.38,347.592 146.5,350C 156.059,352.806 165.726,355.14 175.5,357C 248.895,369.851 320.895,364.684 391.5,341.5C 392.239,341.369 392.906,341.536 393.5,342C 363.548,400.948 316.881,439.948 253.5,459C 249.514,459.499 245.514,459.666 241.5,459.5C 216.075,458.227 191.742,452.394 168.5,442C 104.971,412.148 64.4711,363.315 47,295.5C 65.7292,315.124 87.8959,329.624 113.5,339C 117.809,340.244 121.142,339.077 123.5,335.5 Z"/></g>
<g><path style="opacity:1" fill="#c7e0e4" d="M 241.5,459.5 C 245.514,459.666 249.514,459.499 253.5,459C 316.881,439.948 363.548,400.948 393.5,342C 392.906,341.536 392.239,341.369 391.5,341.5C 404.015,336.244 416.349,330.411 428.5,324C 440.85,316.998 451.85,308.332 461.5,298C 462.332,297.312 462.998,297.479 463.5,298.5C 457.674,320.482 448.84,341.149 437,360.5C 390.077,429.212 324.91,462.212 241.5,459.5 Z"/></g>
<g><path style="opacity:1" fill="#8ab6bf" d="M 158.5,454.5 C 206.547,475.438 256.214,480.271 307.5,469C 322.83,465.056 337.83,460.223 352.5,454.5C 350.823,468.35 343.489,477.85 330.5,483C 281.25,500.557 231.917,500.891 182.5,484C 168.202,479.214 160.202,469.38 158.5,454.5 Z"/></g>
</svg>
