<?xml version="1.0" encoding="UTF-8"?>
<!DOCTYPE svg PUBLIC "-//W3C//DTD SVG 1.1//EN" "http://www.w3.org/Graphics/SVG/1.1/DTD/svg11.dtd">
<svg xmlns="http://www.w3.org/2000/svg" version="1.1" width="512px" height="512px" style="shape-rendering:geometricPrecision; text-rendering:geometricPrecision; image-rendering:optimizeQuality; fill-rule:evenodd; clip-rule:evenodd" xmlns:xlink="http://www.w3.org/1999/xlink">
<g><path style="opacity:0.961" fill="#010101" d="M 233.5,-0.5 C 248.167,-0.5 262.833,-0.5 277.5,-0.5C 320.494,3.66525 360.161,17.4986 396.5,41C 399.485,44.0789 400.152,47.5789 398.5,51.5C 395.322,54.2202 391.655,55.0536 387.5,54C 316.087,9.61191 241.087,2.61191 162.5,33C 79.2411,71.28 30.4077,135.78 16,226.5C 8.34492,324.506 44.3449,401.84 124,458.5C 124.634,461.555 124.468,464.555 123.5,467.5C 121.168,469.444 118.502,470.277 115.5,470C 47.3228,423.843 8.65609,359.676 -0.5,277.5C -0.5,262.833 -0.5,248.167 -0.5,233.5C 10.0943,143.445 54.4276,75.612 132.5,30C 164.278,13.1449 197.945,2.97822 233.5,-0.5 Z"/></g>
<g><path style="opacity:0.999" fill="#f6e5d2" d="M 398.5,51.5 C 403.052,54.6025 407.386,57.9358 411.5,61.5C 410.671,64.4686 410.505,67.4686 411,70.5C 482.534,135.771 508.867,216.104 490,311.5C 479.32,354.216 458.82,391.216 428.5,422.5C 435.039,410.514 438.706,397.681 439.5,384C 439.429,379.12 438.929,374.287 438,369.5C 435.72,362.829 433.554,356.162 431.5,349.5C 434.027,344.585 436.36,339.585 438.5,334.5C 445.421,335.715 452.421,336.715 459.5,337.5C 463.809,336.928 467.309,334.928 470,331.5C 472.899,317.981 475.066,304.315 476.5,290.5C 477.141,284.14 474.475,279.806 468.5,277.5C 474.648,274.839 480.982,272.673 487.5,271C 491.486,268.199 493.819,264.365 494.5,259.5C 490.972,246.749 487.139,234.083 483,221.5C 479.158,214.547 473.325,212.047 465.5,214C 460.831,215.612 456.164,217.112 451.5,218.5C 450.715,213.788 449.715,209.121 448.5,204.5C 452.446,200.38 456.279,196.047 460,191.5C 466.784,179.757 468.118,167.423 464,154.5C 455.414,134.164 442.581,116.997 425.5,103C 350.682,49.2161 267.682,30.2161 176.5,46C 128.476,56.088 92.6423,82.588 69,125.5C 43.9495,171.373 30.9495,220.373 30,272.5C 31.9918,315.671 50.4918,349.504 85.5,374C 90.2432,377.038 95.2432,379.538 100.5,381.5C 128.404,414.697 163.404,437.03 205.5,448.5C 211.668,467.507 224.001,481.007 242.5,489C 266.502,497.666 289.169,495 310.5,481C 322.479,471.215 331.145,459.049 336.5,444.5C 358.355,456.003 380.355,456.336 402.5,445.5C 374.642,468.091 342.976,483.258 307.5,491C 252.289,502.78 199.289,496.446 148.5,472C 146.833,471.333 145.167,471.333 143.5,472C 142.295,473.376 140.962,474.542 139.5,475.5C 134.167,472.833 128.833,470.167 123.5,467.5C 124.468,464.555 124.634,461.555 124,458.5C 44.3449,401.84 8.34492,324.506 16,226.5C 30.4077,135.78 79.2411,71.28 162.5,33C 241.087,2.61191 316.087,9.61191 387.5,54C 391.655,55.0536 395.322,54.2202 398.5,51.5 Z"/></g>
<g><path style="opacity:1" fill="#eac9ad" d="M 448.5,204.5 C 447.052,201.404 446.552,198.071 447,194.5C 457.794,184.666 461.127,172.666 457,158.5C 449.495,138.005 436.995,121.171 419.5,108C 349.251,57.94 271.251,39.2734 185.5,52C 137.319,59.5412 101.152,84.3745 77,126.5C 53.6244,169.044 40.4577,214.544 37.5,263C 36.4445,301.209 49.7779,333.209 77.5,359C 81.6591,362.247 85.9924,365.247 90.5,368C 94.4363,372.096 97.7696,376.596 100.5,381.5C 95.2432,379.538 90.2432,377.038 85.5,374C 50.4918,349.504 31.9918,315.671 30,272.5C 30.9495,220.373 43.9495,171.373 69,125.5C 92.6423,82.588 128.476,56.088 176.5,46C 267.682,30.2161 350.682,49.2161 425.5,103C 442.581,116.997 455.414,134.164 464,154.5C 468.118,167.423 466.784,179.757 460,191.5C 456.279,196.047 452.446,200.38 448.5,204.5 Z"/></g>
<g><path style="opacity:1" fill="#030201" d="M 448.5,204.5 C 449.715,209.121 450.715,213.788 451.5,218.5C 452.219,220.764 452.552,223.097 452.5,225.5C 458.019,224.272 463.519,222.939 469,221.5C 471.145,221.396 472.979,222.063 474.5,223.5C 476.671,226.505 478.171,229.839 479,233.5C 481.58,241.238 483.747,249.071 485.5,257C 485.624,259.59 484.958,261.923 483.5,264C 473.87,267.266 464.203,270.432 454.5,273.5C 453.513,276.768 453.18,280.102 453.5,283.5C 457.22,283.564 460.886,284.064 464.5,285C 466.667,285.833 468.167,287.333 469,289.5C 467.714,301.169 466.047,312.835 464,324.5C 463.215,326.286 462.049,327.786 460.5,329C 454.417,329.49 448.417,328.99 442.5,327.5C 440.424,329.381 439.09,331.715 438.5,334.5C 436.36,339.585 434.027,344.585 431.5,349.5C 429.473,352.384 427.806,355.55 426.5,359C 436.866,387.144 431.199,411.477 409.5,432C 393.047,444.246 374.714,448.246 354.5,444C 349.601,442.551 344.935,440.551 340.5,438C 336.233,437.54 332.4,438.706 329,441.5C 316.894,474.257 293.394,489.09 258.5,486C 238.232,481.061 223.232,469.394 213.5,451C 210.904,449.864 208.237,449.031 205.5,448.5C 163.404,437.03 128.404,414.697 100.5,381.5C 97.7696,376.596 94.4363,372.096 90.5,368C 85.9924,365.247 81.6591,362.247 77.5,359C 49.7779,333.209 36.4445,301.209 37.5,263C 40.4577,214.544 53.6244,169.044 77,126.5C 101.152,84.3745 137.319,59.5412 185.5,52C 271.251,39.2734 349.251,57.94 419.5,108C 436.995,121.171 449.495,138.005 457,158.5C 461.127,172.666 457.794,184.666 447,194.5C 446.552,198.071 447.052,201.404 448.5,204.5 Z"/></g>
<g><path style="opacity:0.961" fill="#020201" d="M 511.5,233.5 C 511.5,248.167 511.5,262.833 511.5,277.5C 500.906,367.555 456.572,435.388 378.5,481C 346.722,497.855 313.055,508.022 277.5,511.5C 262.833,511.5 248.167,511.5 233.5,511.5C 201.769,508.429 171.436,499.929 142.5,486C 139.146,483.11 138.146,479.61 139.5,475.5C 140.962,474.542 142.295,473.376 143.5,472C 145.167,471.333 146.833,471.333 148.5,472C 199.289,496.446 252.289,502.78 307.5,491C 342.976,483.258 374.642,468.091 402.5,445.5C 412.303,439.242 420.969,431.575 428.5,422.5C 458.82,391.216 479.32,354.216 490,311.5C 508.867,216.104 482.534,135.771 411,70.5C 410.505,67.4686 410.671,64.4686 411.5,61.5C 415.96,58.6858 420.294,58.8525 424.5,62C 475.408,107.982 504.408,165.149 511.5,233.5 Z"/></g>
<g><path style="opacity:1" fill="#b8623f" d="M 242.5,329.5 C 231.985,338.595 220.318,345.928 207.5,351.5C 207.5,255.833 207.5,160.167 207.5,64.5C 219.15,63.7314 230.817,63.3981 242.5,63.5C 242.5,152.167 242.5,240.833 242.5,329.5 Z"/></g>
<g><path style="opacity:1" fill="#944e32" d="M 258.5,63.5 C 258.5,146.5 258.5,229.5 258.5,312.5C 258.182,317.032 258.515,321.366 259.5,325.5C 259.217,326.289 258.717,326.956 258,327.5C 257.168,239.332 257.334,151.332 258.5,63.5 Z"/></g>
<g><path style="opacity:1" fill="#b8623f" d="M 258.5,63.5 C 269.938,64.0301 281.271,65.3634 292.5,67.5C 292.667,134.834 292.5,202.167 292,269.5C 281.563,281.936 271.896,294.936 263,308.5C 261.629,310.041 260.129,311.375 258.5,312.5C 258.5,229.5 258.5,146.5 258.5,63.5 Z"/></g>
<g><path style="opacity:1" fill="#84462d" d="M 187.5,67.5 C 188.919,66.5489 190.585,66.2155 192.5,66.5C 192.833,166.668 192.499,266.668 191.5,366.5C 191.5,363.833 191.5,361.167 191.5,358.5C 191.5,261.5 191.5,164.5 191.5,67.5C 190.167,67.5 188.833,67.5 187.5,67.5 Z"/></g>
<g><path style="opacity:1" fill="#b8623f" d="M 187.5,67.5 C 188.833,67.5 190.167,67.5 191.5,67.5C 191.5,164.5 191.5,261.5 191.5,358.5C 180.405,361.794 169.072,363.794 157.5,364.5C 157.5,267.833 157.5,171.167 157.5,74.5C 167.192,70.9107 177.192,68.5773 187.5,67.5 Z"/></g>
<g><path style="opacity:1" fill="#381e13" d="M 310.5,72.5 C 308.504,131.824 307.837,191.491 308.5,251.5C 308.183,255.702 308.517,259.702 309.5,263.5C 309.44,264.043 309.107,264.376 308.5,264.5C 307.5,200.17 307.167,135.837 307.5,71.5C 308.791,71.2627 309.791,71.596 310.5,72.5 Z"/></g>
<g><path style="opacity:1" fill="#b8623f" d="M 310.5,72.5 C 321.591,75.5464 332.591,78.8797 343.5,82.5C 343.5,130.167 343.5,177.833 343.5,225.5C 341.22,226.64 338.886,227.807 336.5,229C 327.003,236.334 317.67,243.834 308.5,251.5C 307.837,191.491 308.504,131.824 310.5,72.5 Z"/></g>
<g><path style="opacity:1" fill="#b8623f" d="M 141.5,365.5 C 130.309,364.994 119.309,363.328 108.5,360.5C 107.167,319.172 106.5,277.505 106.5,235.5C 106.667,193.833 106.833,152.167 107,110.5C 116.509,99.1554 127.676,89.822 140.5,82.5C 141.5,176.831 141.833,271.164 141.5,365.5 Z"/></g>
<g><path style="opacity:1" fill="#9b5235" d="M 360.5,90.5 C 359.501,131.663 359.168,172.997 359.5,214.5C 359.5,215.167 359.167,215.5 358.5,215.5C 358.167,173.495 358.5,131.495 359.5,89.5C 360.107,89.6236 360.44,89.9569 360.5,90.5 Z"/></g>
<g><path style="opacity:1" fill="#b8623f" d="M 360.5,90.5 C 372.308,95.2334 383.308,101.233 393.5,108.5C 393.5,138.5 393.5,168.5 393.5,198.5C 381.905,203.298 370.572,208.631 359.5,214.5C 359.168,172.997 359.501,131.663 360.5,90.5 Z"/></g>
<g><path style="opacity:1" fill="#b7623f" d="M 441.5,160.5 C 440.215,166.559 437.215,171.726 432.5,176C 425.436,181.532 417.769,186.032 409.5,189.5C 409.333,166.164 409.5,142.831 410,119.5C 424.164,130.479 434.664,144.146 441.5,160.5 Z"/></g>
<g><path style="opacity:1" fill="#8a492f" d="M 90.5,349.5 C 90.8325,277.998 90.4992,206.665 89.5,135.5C 89.9867,134.527 90.4867,133.527 91,132.5C 91.8314,205.57 91.6647,277.904 90.5,349.5 Z"/></g>
<g><path style="opacity:1" fill="#b7623f" d="M 89.5,135.5 C 90.4992,206.665 90.8325,277.998 90.5,349.5C 72.8339,335.972 61.3339,318.305 56,296.5C 51.6884,275.251 51.3551,253.918 55,232.5C 61.6524,198.372 73.1524,166.039 89.5,135.5 Z"/></g>
<g><path style="opacity:1" fill="#9f4122" d="M 441.5,160.5 C 445.923,170.732 443.589,179.232 434.5,186C 426.986,191.26 418.986,195.76 410.5,199.5C 409.513,196.232 409.18,192.898 409.5,189.5C 417.769,186.032 425.436,181.532 432.5,176C 437.215,171.726 440.215,166.559 441.5,160.5 Z"/></g>
<g><path style="opacity:1" fill="#984123" d="M 393.5,108.5 C 394.83,141.336 394.83,174.336 393.5,207.5C 381.85,212.991 370.517,218.991 359.5,225.5C 358.513,222.232 358.18,218.898 358.5,215.5C 359.167,215.5 359.5,215.167 359.5,214.5C 370.572,208.631 381.905,203.298 393.5,198.5C 393.5,168.5 393.5,138.5 393.5,108.5 Z"/></g>
<g><path style="opacity:1" fill="#d3a98c" d="M 434.5,212.5 C 415.248,221.459 396.248,230.959 377.5,241C 396.749,235.809 415.915,229.976 435,223.5C 436.03,223.164 436.53,222.497 436.5,221.5C 437.254,224.023 437.92,226.689 438.5,229.5C 437.975,230.192 437.308,230.692 436.5,231C 413.688,237.938 391.021,245.271 368.5,253C 367.106,254.739 366.439,256.739 366.5,259C 367.276,262.489 367.942,265.989 368.5,269.5C 365.482,269.335 362.482,269.502 359.5,270C 358.069,270.465 356.903,271.299 356,272.5C 353.637,283.235 351.804,294.068 350.5,305C 350.195,310.696 352.861,314.029 358.5,315C 381.196,318.337 403.863,321.837 426.5,325.5C 423.807,332.088 420.64,338.421 417,344.5C 394.429,321.616 368.596,317.116 339.5,331C 322.33,341.813 311.997,357.313 308.5,377.5C 289.819,363.877 269.485,360.71 247.5,368C 219.518,380.783 206.518,402.617 208.5,433.5C 204.838,433.277 201.505,432.277 198.5,430.5C 199.553,416.627 203.386,403.294 210,390.5C 211.833,388 213.667,385.5 215.5,383C 207.943,385.294 200.276,387.627 192.5,390C 186.15,390.892 179.816,391.892 173.5,393C 159.982,393.319 146.648,393.486 133.5,393.5C 129.702,390.204 126.036,386.704 122.5,383C 180.462,393.233 229.962,377.4 271,335.5C 273,332.833 275,330.167 277,327.5C 277.932,324.177 277.432,321.177 275.5,318.5C 279.009,314.145 282.009,309.478 284.5,304.5C 287.994,306.003 291.328,305.67 294.5,303.5C 317.9,272.258 346.9,247.758 381.5,230C 398.745,221.543 416.078,213.376 433.5,205.5C 433.993,207.806 434.326,210.139 434.5,212.5 Z"/></g>
<g><path style="opacity:1" fill="#edcbaf" d="M 434.5,212.5 C 435.913,215.219 436.58,218.219 436.5,221.5C 436.53,222.497 436.03,223.164 435,223.5C 415.915,229.976 396.749,235.809 377.5,241C 396.248,230.959 415.248,221.459 434.5,212.5 Z"/></g>
<g><path style="opacity:1" fill="#eac9ad" d="M 438.5,334.5 C 439.09,331.715 440.424,329.381 442.5,327.5C 448.417,328.99 454.417,329.49 460.5,329C 462.049,327.786 463.215,326.286 464,324.5C 466.047,312.835 467.714,301.169 469,289.5C 468.167,287.333 466.667,285.833 464.5,285C 460.886,284.064 457.22,283.564 453.5,283.5C 453.18,280.102 453.513,276.768 454.5,273.5C 464.203,270.432 473.87,267.266 483.5,264C 484.958,261.923 485.624,259.59 485.5,257C 483.747,249.071 481.58,241.238 479,233.5C 478.171,229.839 476.671,226.505 474.5,223.5C 472.979,222.063 471.145,221.396 469,221.5C 463.519,222.939 458.019,224.272 452.5,225.5C 452.552,223.097 452.219,220.764 451.5,218.5C 456.164,217.112 460.831,215.612 465.5,214C 473.325,212.047 479.158,214.547 483,221.5C 487.139,234.083 490.972,246.749 494.5,259.5C 493.819,264.365 491.486,268.199 487.5,271C 480.982,272.673 474.648,274.839 468.5,277.5C 474.475,279.806 477.141,284.14 476.5,290.5C 475.066,304.315 472.899,317.981 470,331.5C 467.309,334.928 463.809,336.928 459.5,337.5C 452.421,336.715 445.421,335.715 438.5,334.5 Z"/></g>
<g><path style="opacity:1" fill="#9f4122" d="M 343.5,225.5 C 343.665,228.85 343.498,232.183 343,235.5C 331.083,243.915 319.916,253.249 309.5,263.5C 308.517,259.702 308.183,255.702 308.5,251.5C 317.67,243.834 327.003,236.334 336.5,229C 338.886,227.807 341.22,226.64 343.5,225.5 Z"/></g>
<g><path style="opacity:1" fill="#1aca8e" d="M 461.5,238.5 C 462.822,238.33 463.989,238.663 465,239.5C 466.401,243.871 467.901,248.204 469.5,252.5C 442.644,261.563 415.644,270.23 388.5,278.5C 385.379,273.663 384.045,268.497 384.5,263C 410.311,254.895 435.977,246.728 461.5,238.5 Z"/></g>
<g><path style="opacity:1" fill="#eeccb0" d="M 356.5,253.5 C 358.369,255.635 359.036,258.302 358.5,261.5C 352.927,262.572 349.427,265.905 348,271.5C 345.542,285.109 343.875,298.776 343,312.5C 343.883,315.102 345.383,317.269 347.5,319C 325.806,327.86 311.139,343.36 303.5,365.5C 289.975,358.695 275.642,355.528 260.5,356C 267.667,348.833 274.833,341.667 282,334.5C 293.565,317.6 305.898,301.266 319,285.5C 325.469,280.032 331.636,274.199 337.5,268C 343.902,263.146 350.235,258.313 356.5,253.5 Z"/></g>
<g><path style="opacity:1" fill="#994224" d="M 292.5,67.5 C 293.665,138.665 293.832,209.999 293,281.5C 289.425,285.653 286.091,289.986 283,294.5C 282.153,298.072 282.653,301.406 284.5,304.5C 282.009,309.478 279.009,314.145 275.5,318.5C 272.592,317.431 269.592,317.264 266.5,318C 263.961,320.37 261.628,322.87 259.5,325.5C 258.515,321.366 258.182,317.032 258.5,312.5C 260.129,311.375 261.629,310.041 263,308.5C 271.896,294.936 281.563,281.936 292,269.5C 292.5,202.167 292.667,134.834 292.5,67.5 Z"/></g>
<g><path style="opacity:1" fill="#9c7c67" d="M 436.5,278.5 C 437.376,278.369 438.043,278.702 438.5,279.5C 436.192,280.873 435.525,280.54 436.5,278.5 Z"/></g>
<g><path style="opacity:1" fill="#00a66b" d="M 368.5,285.5 C 373.388,284.616 375.888,286.616 376,291.5C 377.562,293.91 379.729,295.244 382.5,295.5C 389.243,293.439 396.077,291.772 403,290.5C 419.455,293.203 435.955,295.536 452.5,297.5C 452.313,302.845 451.98,308.178 451.5,313.5C 423.153,309.609 394.819,305.609 366.5,301.5C 366.733,296.106 367.399,290.773 368.5,285.5 Z"/></g>
<g><path style="opacity:1" fill="#9f4122" d="M 242.5,329.5 C 242.666,333.514 242.499,337.514 242,341.5C 231.687,349.793 220.354,356.46 208,361.5C 207.502,358.183 207.335,354.85 207.5,351.5C 220.318,345.928 231.985,338.595 242.5,329.5 Z"/></g>
<g><path style="opacity:1" fill="#efdecb" d="M 359.5,338.5 C 388.043,335.51 406.876,347.51 416,374.5C 419.164,402.687 407.33,421.187 380.5,430C 347.161,432.83 328.161,417.663 323.5,384.5C 325.496,361.187 337.496,345.854 359.5,338.5 Z"/></g>
<g><path style="opacity:1" fill="#050303" d="M 366.5,345.5 C 396.155,347.317 409.989,362.983 408,392.5C 400.798,415.866 384.965,425.699 360.5,422C 345.054,416.887 335.554,406.387 332,390.5C 330.243,370.503 338.41,356.336 356.5,348C 359.952,347.115 363.286,346.282 366.5,345.5 Z"/></g>
<g><path style="opacity:1" fill="#eac9ae" d="M 431.5,349.5 C 433.554,356.162 435.72,362.829 438,369.5C 438.929,374.287 439.429,379.12 439.5,384C 438.706,397.681 435.039,410.514 428.5,422.5C 420.969,431.575 412.303,439.242 402.5,445.5C 380.355,456.336 358.355,456.003 336.5,444.5C 331.145,459.049 322.479,471.215 310.5,481C 289.169,495 266.502,497.666 242.5,489C 224.001,481.007 211.668,467.507 205.5,448.5C 208.237,449.031 210.904,449.864 213.5,451C 223.232,469.394 238.232,481.061 258.5,486C 293.394,489.09 316.894,474.257 329,441.5C 332.4,438.706 336.233,437.54 340.5,438C 344.935,440.551 349.601,442.551 354.5,444C 374.714,448.246 393.047,444.246 409.5,432C 431.199,411.477 436.866,387.144 426.5,359C 427.806,355.55 429.473,352.384 431.5,349.5 Z"/></g>
<g><path style="opacity:1" fill="#984427" d="M 157.5,74.5 C 157.5,171.167 157.5,267.833 157.5,364.5C 169.072,363.794 180.405,361.794 191.5,358.5C 191.5,361.167 191.5,363.833 191.5,366.5C 189.438,367.776 187.104,368.61 184.5,369C 175.252,370.819 165.919,371.653 156.5,371.5C 156.167,272.332 156.501,173.332 157.5,74.5 Z"/></g>
<g><path style="opacity:1" fill="#983e21" d="M 108.5,360.5 C 119.309,363.328 130.309,364.994 141.5,365.5C 141.5,367.167 141.5,368.833 141.5,370.5C 129.695,369.471 118.695,366.137 108.5,360.5 Z"/></g>
<g><path style="opacity:1" fill="#f74138" d="M 364.5,360.5 C 388.915,361.077 397.748,373.077 391,396.5C 381.635,408.763 370.135,411.263 356.5,404C 342.869,390.291 343.202,376.957 357.5,364C 359.925,362.787 362.259,361.621 364.5,360.5 Z"/></g>
<g><path style="opacity:1" fill="#f0dfcc" d="M 258.5,379.5 C 286.854,376.082 305.687,387.749 315,414.5C 318.471,443.074 306.638,461.908 279.5,471C 251.35,474.179 232.85,462.345 224,435.5C 221.024,407.766 232.524,389.1 258.5,379.5 Z"/></g>
<g><path style="opacity:1" fill="#edcbaf" d="M 198.5,430.5 C 173.906,423.044 152.24,410.711 133.5,393.5C 146.648,393.486 159.982,393.319 173.5,393C 179.816,391.892 186.15,390.892 192.5,390C 200.276,387.627 207.943,385.294 215.5,383C 213.667,385.5 211.833,388 210,390.5C 203.386,403.294 199.553,416.627 198.5,430.5 Z"/></g>
<g><path style="opacity:1" fill="#050403" d="M 265.5,386.5 C 284.523,386.046 298.023,394.379 306,411.5C 312.195,441.769 300.028,459.436 269.5,464.5C 245.255,461.588 232.255,447.921 230.5,423.5C 233.7,402.971 245.367,390.637 265.5,386.5 Z"/></g>
<g><path style="opacity:1" fill="#89371d" d="M 264.5,401.5 C 278.424,400.543 287.924,406.543 293,419.5C 293.639,441.191 283.139,450.691 261.5,448C 249.708,442.584 244.541,433.417 246,420.5C 249.017,410.984 255.184,404.651 264.5,401.5 Z"/></g>
</svg>
