<?xml version="1.0" encoding="UTF-8"?>
<!DOCTYPE svg PUBLIC "-//W3C//DTD SVG 1.1//EN" "http://www.w3.org/Graphics/SVG/1.1/DTD/svg11.dtd">
<svg xmlns="http://www.w3.org/2000/svg" version="1.1" width="512px" height="512px" style="shape-rendering:geometricPrecision; text-rendering:geometricPrecision; image-rendering:optimizeQuality; fill-rule:evenodd; clip-rule:evenodd" xmlns:xlink="http://www.w3.org/1999/xlink">
<g><path style="opacity:0.986" fill="#010202" d="M 232.5,-0.5 C 247.833,-0.5 263.167,-0.5 278.5,-0.5C 358.893,9.09801 422.393,46.7647 469,112.5C 492.821,149.131 506.987,189.131 511.5,232.5C 511.5,247.833 511.5,263.167 511.5,278.5C 501.902,358.893 464.235,422.393 398.5,469C 361.869,492.821 321.869,506.987 278.5,511.5C 263.167,511.5 247.833,511.5 232.5,511.5C 152.107,501.902 88.6066,464.235 42,398.5C 18.1791,361.868 4.01239,321.868 -0.5,278.5C -0.5,263.167 -0.5,247.833 -0.5,232.5C 9.09756,152.108 46.7642,88.6077 112.5,42C 149.131,18.1794 189.131,4.01272 232.5,-0.5 Z"/></g>
<g><path style="opacity:1" fill="#95d1b6" d="M 160.5,50.5 C 163.652,47.2029 167.319,44.3696 171.5,42C 191.459,30.3438 212.459,21.5105 234.5,15.5C 326.445,10.3953 399.612,44.7286 454,118.5C 480.663,157.657 494.83,200.99 496.5,248.5C 491.5,248.5 486.5,248.5 481.5,248.5C 476.387,167.734 440.053,105.567 372.5,62C 303.683,23.2121 233.017,19.3788 160.5,50.5 Z"/></g>
<g><path style="opacity:1" fill="#56ba8f" d="M 234.5,15.5 C 212.459,21.5105 191.459,30.3438 171.5,42C 167.319,44.3696 163.652,47.2029 160.5,50.5C 91.8889,84.657 49.3889,139.324 33,214.5C 31.4006,225.794 30.2339,237.128 29.5,248.5C 24.5,248.5 19.5,248.5 14.5,248.5C 21.1576,150.633 68.1576,79.7996 155.5,36C 180.589,24.3588 206.923,17.5255 234.5,15.5 Z"/></g>
<g><path style="opacity:1" fill="#d9ebfd" d="M 256.5,172.5 C 255.833,172.5 255.167,172.5 254.5,172.5C 245.62,125.283 218.286,94.2833 172.5,79.5C 172.389,78.8826 172.056,78.3826 171.5,78C 191.367,64.2333 212.7,53.3999 235.5,45.5C 281.628,41.597 324.628,51.4304 364.5,75C 312.856,80.0658 278.023,106.899 260,155.5C 258.637,161.15 257.47,166.817 256.5,172.5 Z"/></g>
<g><path style="opacity:1" fill="#b0d5f7" d="M 235.5,45.5 C 212.7,53.3999 191.367,64.2333 171.5,78C 172.056,78.3826 172.389,78.8826 172.5,79.5C 163.945,77.463 155.279,75.963 146.5,75C 173.862,58.2683 203.529,48.435 235.5,45.5 Z"/></g>
<g><path style="opacity:1" fill="#1fb37e" d="M 163.5,92.5 C 151.02,139.224 163.02,178.391 199.5,210C 206.504,214.837 213.837,219.171 221.5,223C 220.552,223.483 219.552,223.649 218.5,223.5C 172.603,214.103 144.77,186.437 135,140.5C 133.864,127.049 134.53,113.716 137,100.5C 138.833,96 142,92.8333 146.5,91C 152.245,90.6063 157.911,91.1063 163.5,92.5 Z"/></g>
<g><path style="opacity:1" fill="#1fb27e" d="M 353.5,91.5 C 354.873,91.3433 356.207,91.51 357.5,92C 327.324,105.853 307.491,128.686 298,160.5C 295.849,168.693 294.682,177.026 294.5,185.5C 287.886,195.287 281.053,204.954 274,214.5C 264.258,172.395 276.091,137.561 309.5,110C 322.655,100.256 337.322,94.0896 353.5,91.5 Z"/></g>
<g><path style="opacity:1" fill="#56bd91" d="M 353.5,91.5 C 364.379,88.528 371.546,92.528 375,103.5C 379.375,128.375 375.875,152.041 364.5,174.5C 365.071,177.313 366.404,179.646 368.5,181.5C 365.221,187.047 361.221,192.047 356.5,196.5C 353.555,195.532 350.555,195.366 347.5,196C 330.449,212.866 310.116,222.033 286.5,223.5C 306.333,195.167 326.167,166.833 346,138.5C 349.451,129.961 346.618,125.794 337.5,126C 336,127.5 334.5,129 333,130.5C 320.144,148.9 307.311,167.233 294.5,185.5C 294.682,177.026 295.849,168.693 298,160.5C 307.491,128.686 327.324,105.853 357.5,92C 356.207,91.51 354.873,91.3433 353.5,91.5 Z"/></g>
<g><path style="opacity:1" fill="#b3dafc" d="M 119.5,131.5 C 95.1522,166.171 82.1522,204.837 80.5,247.5C 68.8333,247.5 57.1667,247.5 45.5,247.5C 45.5,243.833 45.5,240.167 45.5,236.5C 51.5276,176.765 77.6942,128.098 124,90.5C 120.085,103.767 118.585,117.434 119.5,131.5 Z"/></g>
<g><path style="opacity:1" fill="#56bc91" d="M 163.5,92.5 C 205.25,104.085 230.75,131.085 240,173.5C 240.667,183.5 240.667,193.5 240,203.5C 239.915,207.471 238.915,211.138 237,214.5C 216.944,186.777 197.278,158.777 178,130.5C 173.641,124.399 168.974,124.066 164,129.5C 163.21,132.634 163.543,135.634 165,138.5C 184.833,166.833 204.667,195.167 224.5,223.5C 222.364,224.793 220.364,224.793 218.5,223.5C 219.552,223.649 220.552,223.483 221.5,223C 213.837,219.171 206.504,214.837 199.5,210C 163.02,178.391 151.02,139.224 163.5,92.5 Z"/></g>
<g><path style="opacity:1" fill="#d9ebfd" d="M 465.5,236.5 C 465.5,240.167 465.5,243.833 465.5,247.5C 400.331,247.832 335.331,247.499 270.5,246.5C 272.448,243.379 274.615,240.379 277,237.5C 307.845,239.095 334.511,229.095 357,207.5C 359.035,203.719 358.868,200.052 356.5,196.5C 361.221,192.047 365.221,187.047 368.5,181.5C 372.007,182.006 375.174,181.34 378,179.5C 392.544,150.913 395.544,121.246 387,90.5C 433.306,128.098 459.472,176.765 465.5,236.5 Z"/></g>
<g><path style="opacity:1" fill="#daecfe" d="M 119.5,131.5 C 126.022,188.377 157.022,223.877 212.5,238C 219.587,240.033 226.587,239.866 233.5,237.5C 236.209,240.208 238.542,243.208 240.5,246.5C 187.336,247.499 134.003,247.832 80.5,247.5C 82.1522,204.837 95.1522,166.171 119.5,131.5 Z"/></g>
<g><path style="opacity:1" fill="#6b747d" d="M 254.5,172.5 C 255.167,172.5 255.833,172.5 256.5,172.5C 255.833,177.833 255.167,177.833 254.5,172.5 Z"/></g>
<g><path style="opacity:1" fill="#747d87" d="M 256.5,206.5 C 255.833,206.5 255.167,206.5 254.5,206.5C 255.167,201.167 255.833,201.167 256.5,206.5 Z"/></g>
<g><path style="opacity:1" fill="#d1e2f3" d="M 254.5,206.5 C 255.167,206.5 255.833,206.5 256.5,206.5C 256.804,214.907 259.471,222.407 264.5,229C 261.851,233.144 258.851,236.978 255.5,240.5C 252.149,236.978 249.149,233.144 246.5,229C 251.635,222.432 254.302,214.932 254.5,206.5 Z"/></g>
<g><path style="opacity:1" fill="#717c88" d="M 45.5,236.5 C 45.5,240.167 45.5,243.833 45.5,247.5C 57.1667,247.5 68.8333,247.5 80.5,247.5C 134.003,247.832 187.336,247.499 240.5,246.5C 241.043,246.56 241.376,246.893 241.5,247.5C 175.837,248.5 110.17,248.833 44.5,248.5C 44.1832,244.298 44.5166,240.298 45.5,236.5 Z"/></g>
<g><path style="opacity:1" fill="#757e88" d="M 465.5,236.5 C 466.483,240.298 466.817,244.298 466.5,248.5C 400.83,248.833 335.163,248.5 269.5,247.5C 269.624,246.893 269.957,246.56 270.5,246.5C 335.331,247.499 400.331,247.832 465.5,247.5C 465.5,243.833 465.5,240.167 465.5,236.5 Z"/></g>
<g><path style="opacity:1" fill="#275944" d="M 495.5,275.5 C 495.5,271.5 495.5,267.5 495.5,263.5C 347.167,263.5 198.833,263.5 50.5,263.5C 38.8333,263.5 27.1667,263.5 15.5,263.5C 15.5,266.167 15.5,268.833 15.5,271.5C 14.5233,268.713 14.19,265.713 14.5,262.5C 175.167,262.5 335.833,262.5 496.5,262.5C 496.818,267.032 496.485,271.366 495.5,275.5 Z"/></g>
<g><path style="opacity:1" fill="#1fb47f" d="M 50.5,263.5 C 52.4869,304.788 63.4869,343.455 83.5,379.5C 71.8143,379.832 60.1477,379.499 48.5,378.5C 28.848,345.542 17.848,309.875 15.5,271.5C 15.5,268.833 15.5,266.167 15.5,263.5C 27.1667,263.5 38.8333,263.5 50.5,263.5 Z"/></g>
<g><path style="opacity:1" fill="#57bd91" d="M 50.5,263.5 C 198.833,263.5 347.167,263.5 495.5,263.5C 495.5,267.5 495.5,271.5 495.5,275.5C 492.322,312.366 481.322,346.7 462.5,378.5C 336.168,379.5 209.835,379.833 83.5,379.5C 63.4869,343.455 52.4869,304.788 50.5,263.5 Z"/></g>
<g><path style="opacity:1" fill="#010302" d="M 94.5,278.5 C 97.6021,278.154 100.435,278.821 103,280.5C 110.196,298.421 117.196,316.421 124,334.5C 130.804,316.421 137.804,298.421 145,280.5C 154.26,276.464 158.26,279.464 157,289.5C 148.333,312.833 139.667,336.167 131,359.5C 127.588,365.15 123.421,365.817 118.5,361.5C 109.235,337.539 100.069,313.539 91,289.5C 89.6631,284.872 90.8298,281.205 94.5,278.5 Z"/></g>
<g><path style="opacity:1" fill="#010302" d="M 171.5,278.5 C 182.838,278.333 194.172,278.5 205.5,279C 209.212,281.513 210.378,285.013 209,289.5C 208.167,290.333 207.333,291.167 206.5,292C 198.611,293.435 190.611,293.935 182.5,293.5C 182.5,300.167 182.5,306.833 182.5,313.5C 189.508,313.334 196.508,313.5 203.5,314C 209.729,318.171 210.062,322.837 204.5,328C 197.174,328.5 189.841,328.666 182.5,328.5C 182.5,335.5 182.5,342.5 182.5,349.5C 190.174,349.334 197.841,349.5 205.5,350C 206.931,350.465 208.097,351.299 209,352.5C 210.724,357.731 209.224,361.565 204.5,364C 193.833,364.667 183.167,364.667 172.5,364C 171.069,363.535 169.903,362.701 169,361.5C 167.352,335.254 167.018,308.92 168,282.5C 169.376,281.295 170.542,279.962 171.5,278.5 Z"/></g>
<g><path style="opacity:1" fill="#020504" d="M 242.5,278.5 C 259.722,276.583 271.055,283.75 276.5,300C 274.836,308.023 270.502,310.023 263.5,306C 259.812,294.488 252.479,291.154 241.5,296C 239.383,297.731 237.883,299.898 237,302.5C 236.333,314.833 236.333,327.167 237,339.5C 243.004,351 250.671,352.334 260,343.5C 261.908,340.794 262.741,337.794 262.5,334.5C 252.096,335.603 248.596,331.27 252,321.5C 252.75,320.874 253.584,320.374 254.5,320C 273.639,314.479 281.139,321.312 277,340.5C 271.246,360.295 258.412,367.461 238.5,362C 229.624,357.453 224.124,350.287 222,340.5C 221.333,327.5 221.333,314.5 222,301.5C 224.844,290.162 231.678,282.495 242.5,278.5 Z"/></g>
<g><path style="opacity:1" fill="#010302" d="M 313.5,278.5 C 317.192,277.971 320.358,278.971 323,281.5C 332.333,305.5 341.667,329.5 351,353.5C 351.986,360.845 348.819,364.345 341.5,364C 340.069,363.535 338.903,362.701 338,361.5C 335.89,356.945 334.056,352.278 332.5,347.5C 322.167,346.167 311.833,346.167 301.5,347.5C 299.944,352.278 298.11,356.945 296,361.5C 290.396,366.112 286.063,365.112 283,358.5C 282.333,356.833 282.333,355.167 283,353.5C 291.196,332.578 299.196,311.578 307,290.5C 308.402,286.025 310.569,282.025 313.5,278.5 Z"/></g>
<g><path style="opacity:1" fill="#000101" d="M 404.5,329.5 C 404.783,330.289 405.283,330.956 406,331.5C 406.5,315.503 406.667,299.503 406.5,283.5C 409.202,278.426 413.202,277.259 418.5,280C 419.126,280.75 419.626,281.584 420,282.5C 420.667,308.5 420.667,334.5 420,360.5C 415.667,365.833 411.333,365.833 407,360.5C 396.085,344.337 385.418,328.004 375,311.5C 374.667,327.167 374.333,342.833 374,358.5C 373.89,360.848 372.723,362.348 370.5,363C 367.084,363.893 363.917,363.393 361,361.5C 359.352,335.254 359.018,308.92 360,282.5C 364.588,277.257 369.255,277.257 374,282.5C 384.177,298.195 394.344,313.862 404.5,329.5 Z"/></g>
<g><path style="opacity:1" fill="#24503d" d="M 406.5,283.5 C 406.667,299.503 406.5,315.503 406,331.5C 405.283,330.956 404.783,330.289 404.5,329.5C 405.167,314.167 405.833,298.833 406.5,283.5 Z"/></g>
<g><path style="opacity:1" fill="#54b88d" d="M 316.5,307.5 C 320.204,315.085 323.537,322.919 326.5,331C 320.167,331.667 313.833,331.667 307.5,331C 310.643,323.216 313.643,315.382 316.5,307.5 Z"/></g>
<g><path style="opacity:1" fill="#56bb90" d="M 158.5,459.5 C 164.517,464.697 171.183,469.197 178.5,473C 194.685,481.601 211.352,488.767 228.5,494.5C 157.639,485.916 101.305,452.916 59.5,395.5C 65.4724,394.336 71.4724,394.17 77.5,395C 99.6669,422.677 126.667,444.177 158.5,459.5 Z"/></g>
<g><path style="opacity:1" fill="#00a66a" d="M 131.5,394.5 C 142.686,409.519 156.02,422.352 171.5,433C 191.388,446.777 212.721,457.61 235.5,465.5C 180.228,459.699 134.228,436.199 97.5,395C 108.828,394.5 120.162,394.333 131.5,394.5 Z"/></g>
<g><path style="opacity:1" fill="#1eb47f" d="M 131.5,394.5 C 225.501,394.333 319.501,394.5 413.5,395C 375.435,437.532 327.768,461.199 270.5,466C 266.911,467.674 265.245,470.507 265.5,474.5C 258.833,474.5 252.167,474.5 245.5,474.5C 245.193,468.321 241.86,465.321 235.5,465.5C 212.721,457.61 191.388,446.777 171.5,433C 156.02,422.352 142.686,409.519 131.5,394.5 Z"/></g>
<g><path style="opacity:1" fill="#96d2b6" d="M 228.5,494.5 C 211.352,488.767 194.685,481.601 178.5,473C 171.183,469.197 164.517,464.697 158.5,459.5C 184.696,472.372 212.363,479.205 241.5,480C 243.439,478.568 244.772,476.735 245.5,474.5C 252.167,474.5 258.833,474.5 265.5,474.5C 266.228,476.735 267.561,478.568 269.5,480C 336.663,475.421 391.329,447.088 433.5,395C 439.528,394.17 445.528,394.336 451.5,395.5C 397.547,466.912 325.547,500.412 235.5,496C 233.08,495.71 230.746,495.21 228.5,494.5 Z"/></g>
</svg>
