<?xml version="1.0" encoding="UTF-8"?>
<!DOCTYPE svg PUBLIC "-//W3C//DTD SVG 1.1//EN" "http://www.w3.org/Graphics/SVG/1.1/DTD/svg11.dtd">
<svg xmlns="http://www.w3.org/2000/svg" version="1.1" width="512px" height="512px" style="shape-rendering:geometricPrecision; text-rendering:geometricPrecision; image-rendering:optimizeQuality; fill-rule:evenodd; clip-rule:evenodd" xmlns:xlink="http://www.w3.org/1999/xlink">
<g><path style="opacity:0.982" fill="#020201" d="M 141.5,7.5 C 168.069,4.28484 186.736,14.7848 197.5,39C 213.816,38.4932 227.149,44.4932 237.5,57C 252.679,62.1791 263.346,72.1791 269.5,87C 295.639,87.4817 312.139,100.315 319,125.5C 321.522,139.22 319.022,151.887 311.5,163.5C 318.281,174.959 321.448,187.292 321,200.5C 326.096,196.451 331.763,193.451 338,191.5C 336.431,175.225 335.764,158.892 336,142.5C 342.873,123.473 356.373,115.973 376.5,120C 388,123.5 395.5,131 399,142.5C 399.585,157.902 398.752,173.236 396.5,188.5C 396.833,189.5 397.167,190.5 397.5,191.5C 403.586,193.377 409.252,196.044 414.5,199.5C 418.905,195.964 423.905,193.464 429.5,192C 442.35,189.509 453.683,192.509 463.5,201C 485.403,219.97 498.57,243.803 503,272.5C 508.019,303.959 503.019,333.626 488,361.5C 485.217,365.951 482.05,370.117 478.5,374C 499.892,386.631 507.726,405.131 502,429.5C 496.337,445.163 485.504,455.329 469.5,460C 381.183,473.775 292.85,487.442 204.5,501C 160.758,510.651 125.592,497.817 99,462.5C 86.5202,465.412 74.0202,468.245 61.5,471C 47.7145,474.024 37.8811,469.19 32,456.5C 31.5006,450.843 31.3339,445.176 31.5,439.5C 12.9754,437.457 5.14204,427.124 8,408.5C 11.7961,397.198 19.6294,391.532 31.5,391.5C 28.3608,376.95 33.3608,366.45 46.5,360C 51.5,359.333 56.5,359.333 61.5,360C 74.0202,362.755 86.5202,365.588 99,368.5C 105.905,359.424 113.738,351.091 122.5,343.5C 116.636,327.91 110.97,312.243 105.5,296.5C 74.5627,288.434 60.896,268.601 64.5,237C 47.8604,221.609 43.1937,203.109 50.5,181.5C 21.354,156.56 15.5207,126.894 33,92.5C 41.2482,80.9244 51.9149,72.2577 65,66.5C 72.0796,45.0332 86.913,33.1999 109.5,31C 117.214,18.9924 127.88,11.159 141.5,7.5 Z"/></g>
<g><path style="opacity:1" fill="#8abf51" d="M 144.5,23.5 C 168.549,22.2151 181.882,33.5485 184.5,57.5C 189.267,56.4344 194.1,55.7678 199,55.5C 202.67,55.3826 206.17,56.0493 209.5,57.5C 197.878,61.121 188.878,68.121 182.5,78.5C 159.453,81.2586 144.287,93.5919 137,115.5C 105.351,130.125 92.0174,154.792 97,189.5C 100.99,205.999 109.824,219.166 123.5,229C 115.938,249.858 120.105,268.024 136,283.5C 133.264,301.57 138.098,317.237 150.5,330.5C 146.278,332.626 141.944,334.126 137.5,335C 130.74,316.888 124.073,298.722 117.5,280.5C 91.3256,279.829 78.8256,266.496 80,240.5C 80.97,237.256 82.1366,234.09 83.5,231C 78.3775,226.88 73.5442,222.38 69,217.5C 60.5326,202.106 62.0326,187.772 73.5,174.5C 45.9243,162.015 35.4243,141.015 42,111.5C 49.0891,94.7426 61.4224,84.076 79,79.5C 83.1268,56.5588 96.9601,45.5588 120.5,46.5C 124.645,34.6864 132.645,27.0197 144.5,23.5 Z"/></g>
<g><path style="opacity:1" fill="#b2db7d" d="M 216.5,71.5 C 240.549,70.2151 253.882,81.5485 256.5,105.5C 269.516,101.351 281.516,103.184 292.5,111C 304.092,122.392 306.592,135.558 300,150.5C 297.069,155.267 293.569,159.601 289.5,163.5C 294.291,167.788 298.125,172.788 301,178.5C 302.975,182.963 303.808,187.629 303.5,192.5C 293.631,190.068 284.631,191.901 276.5,198C 261.997,208.828 250.83,222.328 243,238.5C 240.279,230.059 237.279,221.726 234,213.5C 237.903,188.024 249.403,166.69 268.5,149.5C 265.261,146.017 262.261,142.35 259.5,138.5C 258.998,137.479 258.332,137.312 257.5,138C 242.829,151.836 231.495,168.003 223.5,186.5C 213.891,164.612 202.724,143.612 190,123.5C 185.354,125.9 181.187,128.9 177.5,132.5C 186.43,147.357 194.597,162.691 202,178.5C 202.749,179.635 202.583,180.635 201.5,181.5C 185.261,176.13 168.594,174.13 151.5,175.5C 151.5,180.833 151.5,186.167 151.5,191.5C 168.35,189.941 184.684,192.108 200.5,198C 205.59,199.958 210.09,202.792 214,206.5C 220.058,220.507 225.225,234.84 229.5,249.5C 229.167,250.167 228.833,250.833 228.5,251.5C 211.604,244.187 193.938,240.187 175.5,239.5C 175.5,244.833 175.5,250.167 175.5,255.5C 192.608,256.088 208.941,259.921 224.5,267C 227.266,268.467 229.766,270.3 232,272.5C 231.373,285.755 231.373,299.088 232,312.5C 232.752,320.022 234.252,327.355 236.5,334.5C 235.5,334.833 234.5,335.167 233.5,335.5C 214.201,332.338 194.867,329.505 175.5,327C 157.846,320.197 150.013,307.363 152,288.5C 153.445,284.85 154.445,281.183 155,277.5C 137.163,266.992 131.83,251.992 139,232.5C 141.416,229.337 143.582,226.004 145.5,222.5C 117.924,210.015 107.424,189.015 114,159.5C 121.089,142.743 133.422,132.076 151,127.5C 155.127,104.559 168.96,93.5588 192.5,94.5C 196.645,82.6864 204.645,75.0197 216.5,71.5 Z"/></g>
<g><path style="opacity:1" fill="#cc9b74" d="M 362.5,135.5 C 368.233,134.895 373.566,136.062 378.5,139C 380.43,141.258 381.93,143.758 383,146.5C 381.167,175.17 379,203.837 376.5,232.5C 382.373,233.117 387.373,235.45 391.5,239.5C 388.497,242.673 384.83,244.839 380.5,246C 370.728,248.248 361.061,247.915 351.5,245C 348.274,243.894 345.607,242.061 343.5,239.5C 347.638,235.679 352.471,233.012 358,231.5C 356.468,205.142 354.301,178.809 351.5,152.5C 351.433,144.275 355.1,138.609 362.5,135.5 Z"/></g>
<g><path style="opacity:1" fill="#f9d46e" d="M 291.5,207.5 C 298.474,206.29 304.474,208.123 309.5,213C 287.169,237.991 277.169,267.324 279.5,301C 279.376,314.884 280.043,328.718 281.5,342.5C 273.19,341.253 264.857,340.086 256.5,339C 255.584,338.626 254.75,338.126 254,337.5C 250.768,329.805 248.768,321.805 248,313.5C 241.925,275.397 252.425,242.897 279.5,216C 283.391,212.899 287.391,210.066 291.5,207.5 Z"/></g>
<g><path style="opacity:1" fill="#f9d46e" d="M 433.5,207.5 C 438.412,207.063 443.078,207.896 447.5,210C 469.256,226.12 482.423,247.62 487,274.5C 493.016,310.156 484.516,341.656 461.5,369C 456.12,369.596 450.787,369.262 445.5,368C 445.043,367.586 444.709,367.086 444.5,366.5C 449.4,356.7 452.566,346.367 454,335.5C 455.533,315.526 455.866,295.526 455,275.5C 451.444,251.728 441.944,230.728 426.5,212.5C 428.595,210.391 430.928,208.724 433.5,207.5 Z"/></g>
<g><path style="opacity:1" fill="#f9d46e" d="M 337.5,208.5 C 338.833,208.5 340.167,208.5 341.5,208.5C 341.826,212.884 341.492,217.217 340.5,221.5C 324.79,231.061 323.457,242.228 336.5,255C 339.005,256.753 341.671,258.253 344.5,259.5C 345.666,263.527 345.499,267.527 344,271.5C 342.782,298.585 343.615,325.585 346.5,352.5C 330.788,350.446 315.121,348.113 299.5,345.5C 296.088,331.081 294.754,316.414 295.5,301.5C 292.941,262.782 306.941,231.782 337.5,208.5 Z"/></g>
<g><path style="opacity:1" fill="#fad56f" d="M 393.5,208.5 C 396.425,208.46 399.091,209.293 401.5,211C 422.639,227.767 435.139,249.6 439,276.5C 439.866,296.526 439.533,316.526 438,336.5C 435.971,345.893 432.804,354.893 428.5,363.5C 425.554,364.655 422.554,364.821 419.5,364C 400.827,361.118 382.161,358.285 363.5,355.5C 361.363,346.978 360.196,338.311 360,329.5C 359.094,307.803 359.427,286.137 361,264.5C 371.413,264.333 381.58,262.5 391.5,259C 404.869,253.439 409.369,243.939 405,230.5C 401.942,226.938 398.442,223.938 394.5,221.5C 393.508,217.217 393.174,212.884 393.5,208.5 Z"/></g>
<g><path style="opacity:1" fill="#fe816d" d="M 164.5,343.5 C 172.507,343.334 180.507,343.5 188.5,344C 280.722,358.737 373.055,373.071 465.5,387C 481.923,392.67 489.089,404.17 487,421.5C 484.268,433.232 477.101,440.732 465.5,444C 372.155,458.169 278.821,472.502 185.5,487C 150.109,489.725 124.609,475.225 109,443.5C 96.4233,406.566 105.923,376.732 137.5,354C 146.178,349.315 155.178,345.815 164.5,343.5 Z"/></g>
<g><path style="opacity:1" fill="#000000" d="M 167.5,375.5 C 172.833,375.5 178.167,375.5 183.5,375.5C 183.5,402.167 183.5,428.833 183.5,455.5C 178.167,455.5 172.833,455.5 167.5,455.5C 167.5,428.833 167.5,402.167 167.5,375.5 Z"/></g>
<g><path style="opacity:1" fill="#000000" d="M 231.5,375.5 C 236.833,375.5 242.167,375.5 247.5,375.5C 247.5,402.167 247.5,428.833 247.5,455.5C 242.167,455.5 236.833,455.5 231.5,455.5C 231.5,428.833 231.5,402.167 231.5,375.5 Z"/></g>
<g><path style="opacity:1" fill="#000000" d="M 295.5,375.5 C 300.833,375.5 306.167,375.5 311.5,375.5C 311.5,402.167 311.5,428.833 311.5,455.5C 306.167,455.5 300.833,455.5 295.5,455.5C 295.5,428.833 295.5,402.167 295.5,375.5 Z"/></g>
<g><path style="opacity:1" fill="#b0d87c" d="M 51.5,375.5 C 65.6324,377.856 79.6324,380.856 93.5,384.5C 92.0541,386.618 91.3874,388.951 91.5,391.5C 78.1625,391.667 64.8292,391.5 51.5,391C 48.484,389.471 47.1506,386.971 47.5,383.5C 47.2824,379.934 48.6157,377.268 51.5,375.5 Z"/></g>
<g><path style="opacity:1" fill="#000000" d="M 359.5,391.5 C 364.833,391.5 370.167,391.5 375.5,391.5C 375.5,407.5 375.5,423.5 375.5,439.5C 370.167,439.5 364.833,439.5 359.5,439.5C 359.5,423.5 359.5,407.5 359.5,391.5 Z"/></g>
<g><path style="opacity:1" fill="#000000" d="M 423.5,399.5 C 428.833,399.5 434.167,399.5 439.5,399.5C 439.5,410.167 439.5,420.833 439.5,431.5C 434.167,431.5 428.833,431.5 423.5,431.5C 423.5,420.833 423.5,410.167 423.5,399.5 Z"/></g>
<g><path style="opacity:1" fill="#b3dc7e" d="M 28.5,407.5 C 48.1667,407.5 67.8333,407.5 87.5,407.5C 87.5,412.833 87.5,418.167 87.5,423.5C 67.8305,423.667 48.1638,423.5 28.5,423C 23.4648,419.987 22.2981,415.82 25,410.5C 26.1451,409.364 27.3117,408.364 28.5,407.5 Z"/></g>
<g><path style="opacity:1" fill="#b0d87c" d="M 51.5,439.5 C 64.8333,439.5 78.1667,439.5 91.5,439.5C 91.7563,441.937 92.4229,444.271 93.5,446.5C 80.5768,449.821 67.5768,452.821 54.5,455.5C 51.4256,455.55 49.2589,454.217 48,451.5C 46.5927,446.556 47.7593,442.556 51.5,439.5 Z"/></g>
</svg>
