<?xml version="1.0" encoding="UTF-8"?>
<!DOCTYPE svg PUBLIC "-//W3C//DTD SVG 1.1//EN" "http://www.w3.org/Graphics/SVG/1.1/DTD/svg11.dtd">
<svg xmlns="http://www.w3.org/2000/svg" version="1.1" width="512px" height="512px" style="shape-rendering:geometricPrecision; text-rendering:geometricPrecision; image-rendering:optimizeQuality; fill-rule:evenodd; clip-rule:evenodd" xmlns:xlink="http://www.w3.org/1999/xlink">
<g><path style="opacity:0.977" fill="#040201" d="M 440.5,15.5 C 452.61,13.6005 463.61,16.1005 473.5,23C 483.641,34.0031 485.474,46.1698 479,59.5C 473,66.1667 467,72.8333 461,79.5C 455.789,86.4642 452.956,94.2975 452.5,103C 453.994,121.541 453.661,140.041 451.5,158.5C 472.655,156.824 482.821,166.491 482,187.5C 479.574,196.76 473.741,202.427 464.5,204.5C 447.195,295.19 429.695,385.857 412,476.5C 409.903,486.188 404.07,492.355 394.5,495C 323.833,495.667 253.167,495.667 182.5,495C 174,491.833 168.167,486 165,477.5C 132.342,495.529 103.508,490.696 78.5,463C 46.4932,459.662 29.4932,441.995 27.5,410C 29.3924,385.056 38.5591,363.223 55,344.5C 60.5,339 66,333.5 71.5,328C 84.7263,318.442 98.2263,309.275 112,300.5C 120.607,289.679 124.607,277.346 124,263.5C 120.165,243.82 116.332,224.154 112.5,204.5C 98.8584,200.244 93.0251,190.91 95,176.5C 97.5264,167.307 103.36,161.474 112.5,159C 122.517,158.832 132.517,158.332 142.5,157.5C 140.983,148.079 138.15,139.079 134,130.5C 130.64,126.895 127.14,123.395 123.5,120C 116.167,115.333 108.833,110.667 101.5,106C 91.3712,93.6327 90.8712,80.7993 100,67.5C 111.378,55.6266 124.878,52.1266 140.5,57C 143.704,59.8688 146.537,63.0354 149,66.5C 152.553,75.2738 156.886,83.6071 162,91.5C 164.869,94.7041 168.035,97.5374 171.5,100C 184.144,104.33 196.81,108.663 209.5,113C 216.873,116.437 224.04,120.27 231,124.5C 233.738,117.356 237.738,111.022 243,105.5C 252.297,97.8713 261.297,89.8713 270,81.5C 272.29,78.4201 274.457,75.2534 276.5,72C 278.695,70.627 281.029,70.2937 283.5,71C 287.5,73.6667 290.833,77 293.5,81C 294.167,81.6667 294.833,81.6667 295.5,81C 312.511,63.9773 325.511,44.3106 334.5,22C 338.942,20.6217 342.442,21.7884 345,25.5C 353.098,40.1724 355.765,55.8391 353,72.5C 349.262,93.8176 339.429,111.651 323.5,126C 329.685,127.806 336.018,129.306 342.5,130.5C 355.621,112.216 371.621,96.7156 390.5,84C 404.113,79.3857 413.447,70.3857 418.5,57C 420.574,45.96 423.408,35.1266 427,24.5C 430.528,19.8341 435.028,16.8341 440.5,15.5 Z"/></g>
<g><path style="opacity:1" fill="#e89027" d="M 444.5,28.5 C 454.776,27.0903 462.943,30.4237 469,38.5C 470.041,43.4398 469.374,48.1065 467,52.5C 460.667,59.8333 454.333,67.1667 448,74.5C 442.46,82.6217 439.627,91.6217 439.5,101.5C 441.089,119.892 440.589,138.225 438,156.5C 430.903,157.815 423.569,158.481 416,158.5C 408.833,158.333 401.667,158.167 394.5,158C 390.456,152.289 385.456,147.622 379.5,144C 372.274,140.553 364.941,137.386 357.5,134.5C 372.646,113.094 391.979,96.5937 415.5,85C 421.896,79.5406 426.563,72.8739 429.5,65C 432.507,55.296 435.007,45.4626 437,35.5C 438.742,32.2543 441.242,29.921 444.5,28.5 Z"/></g>
<g><path style="opacity:1" fill="#f6ac40" d="M 337.5,44.5 C 343.477,71.4394 336.477,94.9394 316.5,115C 310.078,119.878 303.078,123.711 295.5,126.5C 293.335,131.371 294.668,134.871 299.5,137C 323.671,138.767 347.005,144.1 369.5,153C 372.167,154.667 374.833,156.333 377.5,158C 336.496,158.833 295.496,158.667 254.5,157.5C 246.836,148.024 244.003,137.358 246,125.5C 247.08,123.004 248.414,120.67 250,118.5C 260.678,108.655 271.178,98.6548 281.5,88.5C 285.037,91.5396 288.371,94.7062 291.5,98C 294.303,98.755 296.97,98.4217 299.5,97C 312.861,82.9789 324.694,67.8122 335,51.5C 336.411,49.3496 337.245,47.0163 337.5,44.5 Z"/></g>
<g><path style="opacity:1" fill="#e89027" d="M 121.5,68.5 C 128.331,67.0514 133.831,69.0514 138,74.5C 141.635,83.7724 146.301,92.439 152,100.5C 158.733,108.117 166.9,113.617 176.5,117C 196.71,120.944 215.044,128.944 231.5,141C 233.62,146.908 236.287,152.575 239.5,158C 211.502,158.5 183.502,158.667 155.5,158.5C 155.056,141.316 149.056,126.483 137.5,114C 129.175,107.836 120.508,102.169 111.5,97C 109.951,95.786 108.785,94.286 108,92.5C 105.524,80.4419 110.024,72.4419 121.5,68.5 Z"/></g>
<g><path style="opacity:1" fill="#c93a68" d="M 114.5,171.5 C 230.167,171.333 345.834,171.5 461.5,172C 469.698,175.329 471.532,180.829 467,188.5C 465.421,190.041 463.587,191.208 461.5,192C 346.167,192.667 230.833,192.667 115.5,192C 105.293,185.606 104.96,178.773 114.5,171.5 Z"/></g>
<g><path style="opacity:1" fill="#85292a" d="M 126.5,205.5 C 234.667,204.168 343.001,204.168 451.5,205.5C 451.376,206.107 451.043,206.44 450.5,206.5C 342.668,205.501 234.668,205.167 126.5,205.5 Z"/></g>
<g><path style="opacity:1" fill="#fa4d50" d="M 126.5,205.5 C 234.668,205.167 342.668,205.501 450.5,206.5C 443.314,243.133 436.314,279.8 429.5,316.5C 399.159,316.833 368.826,316.5 338.5,315.5C 323.224,291.674 301.557,282.507 273.5,288C 258.118,292.561 246.451,301.727 238.5,315.5C 212.5,316.833 186.5,316.833 160.5,315.5C 161.831,312.166 163.665,309.166 166,306.5C 173.04,299.129 179.706,291.462 186,283.5C 191.046,262.43 183.213,248.597 162.5,242C 156.167,241.333 149.833,241.333 143.5,242C 140.221,242.973 137.221,244.473 134.5,246.5C 131.318,232.925 128.652,219.258 126.5,205.5 Z"/></g>
<g><path style="opacity:1" fill="#e79027" d="M 143.5,342.5 C 143.789,348.591 143.455,354.591 142.5,360.5C 118.576,364.711 98.0758,375.378 81,392.5C 70.0184,404.779 65.0184,419.113 66,435.5C 66.7846,439.477 67.9513,443.311 69.5,447C 53.9988,443.829 44.8321,434.329 42,418.5C 39.8718,402.475 42.8718,387.475 51,373.5C 60.2986,357.394 72.4652,343.894 87.5,333C 96.3314,327.083 105.331,321.417 114.5,316C 124.086,308.677 130.586,299.177 134,287.5C 135.786,278.781 137.786,270.115 140,261.5C 142.998,255.999 147.665,253.332 154,253.5C 166.472,253.646 173.639,259.813 175.5,272C 175.316,275.553 174.15,278.719 172,281.5C 165.667,288.5 159.333,295.5 153,302.5C 144.688,314.552 141.521,327.886 143.5,342.5 Z"/></g>
<g><path style="opacity:1" fill="#f09b33" d="M 277.5,299.5 C 304.247,295.945 322.414,306.612 332,331.5C 336.836,358.313 326.669,376.813 301.5,387C 293.128,388.934 284.794,388.934 276.5,387C 287.679,379.174 292.512,368.341 291,354.5C 282.808,332.17 267.641,323.837 245.5,329.5C 251.581,314.484 262.248,304.484 277.5,299.5 Z"/></g>
<g><path style="opacity:1" fill="#90897f" d="M 344.5,329.5 C 372.003,328.171 399.67,328.171 427.5,329.5C 427.376,330.107 427.043,330.44 426.5,330.5C 399.338,329.502 372.005,329.169 344.5,329.5 Z"/></g>
<g><path style="opacity:1" fill="#ece2d1" d="M 156.5,328.5 C 181.833,328.5 207.167,328.5 232.5,328.5C 231.823,333.801 231.323,339.134 231,344.5C 222.391,353.803 211.725,358.47 199,358.5C 184.845,357.667 170.679,357.334 156.5,357.5C 156.5,347.833 156.5,338.167 156.5,328.5 Z"/></g>
<g><path style="opacity:1" fill="#f2e7d6" d="M 344.5,329.5 C 372.005,329.169 399.338,329.502 426.5,330.5C 424.576,339.787 422.909,349.12 421.5,358.5C 395.833,358.5 370.167,358.5 344.5,358.5C 347.127,348.82 347.127,339.154 344.5,329.5 Z"/></g>
<g><path style="opacity:1" fill="#f7ac40" d="M 254.5,340.5 C 268.243,340.241 276.243,346.907 278.5,360.5C 278.727,368.008 275.394,373.175 268.5,376C 256.177,378.273 244.177,381.606 232.5,386C 226.173,389.423 220.673,393.923 216,399.5C 204.621,420.071 190.454,438.571 173.5,455C 160.882,466.558 146.049,473.391 129,475.5C 104.394,472.549 87.7271,459.549 79,436.5C 78.1955,430.431 78.5288,424.431 80,418.5C 85.5856,404.912 94.7523,394.412 107.5,387C 126.782,375.096 147.782,369.596 170.5,370.5C 178.839,370.688 187.173,371.021 195.5,371.5C 208.742,372.025 220.742,368.525 231.5,361C 239.063,353.93 246.73,347.097 254.5,340.5 Z"/></g>
<g><path style="opacity:1" fill="#9c611a" d="M 143.5,342.5 C 144.165,345.314 144.498,348.314 144.5,351.5C 144.483,354.913 143.816,357.913 142.5,360.5C 143.455,354.591 143.789,348.591 143.5,342.5 Z"/></g>
<g><path style="opacity:1" fill="#f94d50" d="M 338.5,371.5 C 365.167,371.5 391.833,371.5 418.5,371.5C 412.195,405.859 405.695,440.192 399,474.5C 397.833,478.333 395.333,480.833 391.5,482C 322.5,482.667 253.5,482.667 184.5,482C 179.481,478.46 177.314,473.627 178,467.5C 197.253,450.646 212.919,430.979 225,408.5C 232.642,399.512 242.309,394.179 254,392.5C 262.32,395.736 270.82,398.57 279.5,401C 301.437,403.246 319.604,396.079 334,379.5C 335.777,376.941 337.277,374.274 338.5,371.5 Z"/></g>
<g><path style="opacity:1" fill="#080201" d="M 307.5,421.5 C 328.503,421.333 349.503,421.5 370.5,422C 374.292,424.053 375.458,427.219 374,431.5C 373.097,432.701 371.931,433.535 370.5,434C 349.833,434.667 329.167,434.667 308.5,434C 303.624,430.231 303.29,426.064 307.5,421.5 Z"/></g>
<g><path style="opacity:1" fill="#010000" d="M 292.5,451.5 C 323.835,451.333 355.168,451.5 386.5,452C 390.619,456.073 390.285,459.74 385.5,463C 354.833,463.667 324.167,463.667 293.5,463C 288.547,459.657 288.214,455.824 292.5,451.5 Z"/></g>
</svg>
