<svg id="svg" xmlns="http://www.w3.org/2000/svg" xmlns:xlink="http://www.w3.org/1999/xlink" width="400" height="400" viewBox="0, 0, 400,400"><g id="svgg"><path id="path0" d="M23.047 13.984 C 19.185 15.776,15.313 19.767,13.711 23.608 C 11.686 28.463,11.937 135.042,13.984 139.453 C 15.776 143.315,19.767 147.187,23.608 148.789 C 28.463 150.814,135.042 150.563,139.453 148.516 C 143.315 146.724,147.187 142.733,148.789 138.892 C 150.617 134.509,150.617 27.991,148.789 23.608 C 147.187 19.767,143.315 15.776,139.453 13.984 C 134.615 11.740,27.885 11.740,23.047 13.984 M185.547 13.984 C 181.685 15.776,177.813 19.767,176.211 23.608 C 174.186 28.463,174.437 135.042,176.484 139.453 C 180.255 147.580,185.466 150.000,199.194 150.000 C 211.060 150.000,212.500 149.323,212.500 143.750 C 212.500 138.542,210.762 137.500,202.070 137.500 C 192.907 137.500,190.026 136.565,188.588 133.122 C 186.979 129.271,186.979 33.229,188.588 29.378 C 190.430 24.969,190.021 25.000,245.820 25.000 C 303.730 25.000,300.000 25.430,300.000 18.750 C 300.000 12.047,304.134 12.498,242.773 12.517 C 191.736 12.533,188.495 12.616,185.547 13.984 M279.521 54.472 L 243.767 90.194 229.842 76.347 C 214.542 61.133,212.103 59.772,207.813 64.063 C 203.333 68.542,204.553 70.529,223.262 89.238 L 240.274 106.250 243.761 106.250 L 247.248 106.250 286.124 67.374 L 325.000 28.498 325.000 25.187 C 325.000 20.753,323.000 18.750,318.574 18.750 L 315.274 18.750 279.521 54.472 M133.122 26.088 C 137.520 27.925,137.500 27.677,137.500 81.250 C 137.500 134.823,137.520 134.575,133.122 136.412 C 129.684 137.849,33.800 138.035,29.720 136.613 C 24.935 134.945,25.000 135.709,25.000 81.392 C 25.000 28.034,25.007 27.949,29.207 26.121 C 32.850 24.535,129.332 24.504,133.122 26.088 M301.563 64.063 C 300.050 65.575,300.000 66.667,300.000 98.072 C 300.000 140.162,301.180 137.504,282.501 137.495 L 272.266 137.489 270.430 134.794 C 262.320 122.884,242.650 121.486,232.068 132.068 C 224.641 139.496,225.009 135.757,224.942 204.521 L 224.884 264.453 218.600 251.593 C 207.044 227.946,194.989 221.103,176.429 227.654 C 162.815 232.459,162.898 229.534,175.033 276.466 L 185.258 316.016 191.395 328.682 C 204.427 355.583,215.540 371.739,226.285 379.407 C 229.016 381.355,231.250 383.270,231.250 383.662 C 231.250 385.496,234.513 387.500,237.500 387.500 C 247.882 387.500,245.654 376.645,233.440 367.719 C 224.829 361.427,212.825 343.122,201.637 319.223 C 197.080 309.489,178.951 241.831,180.488 240.294 C 182.349 238.432,191.201 238.794,194.756 240.877 C 199.573 243.700,200.879 245.903,214.059 273.438 C 226.550 299.533,226.852 300.000,231.250 300.000 C 237.643 300.000,237.060 307.218,237.500 222.524 C 237.885 148.371,237.914 147.226,239.495 144.534 C 244.425 136.143,255.575 136.143,260.505 144.534 C 262.063 147.187,262.121 148.627,262.500 194.399 C 262.940 247.470,262.457 243.750,268.899 243.750 C 272.738 243.750,274.735 241.756,275.411 237.246 C 278.071 219.507,298.549 222.447,299.803 240.749 C 300.598 252.344,311.249 254.577,312.911 243.496 C 314.776 231.062,329.278 227.639,335.435 238.181 C 336.646 240.254,337.067 242.865,337.430 250.546 C 337.950 261.547,338.466 262.500,343.899 262.500 C 347.738 262.500,349.735 260.506,350.411 255.996 C 352.287 243.487,366.757 240.148,373.005 250.784 C 374.581 253.467,374.609 254.460,374.609 306.250 C 374.609 364.441,374.766 362.497,369.632 368.196 C 363.835 374.633,364.326 374.559,324.741 375.000 C 285.334 375.439,287.500 375.067,287.500 381.399 C 287.500 387.853,285.686 387.587,327.958 387.333 L 365.234 387.109 369.922 384.811 C 375.904 381.878,381.878 375.904,384.811 369.922 L 387.109 365.234 387.324 308.089 C 387.537 251.587,387.520 250.894,385.890 246.536 C 381.276 234.205,366.007 227.846,352.938 232.812 C 350.678 233.671,348.722 234.055,348.592 233.665 C 344.481 221.347,324.972 214.610,312.919 221.347 L 309.141 223.458 305.726 219.994 C 299.031 213.202,288.076 210.560,279.182 213.590 C 277.158 214.280,275.390 214.844,275.251 214.844 C 275.113 214.844,275.000 200.254,275.000 182.422 L 275.000 150.000 286.744 150.000 C 299.818 150.000,302.409 149.368,306.931 145.078 C 312.547 139.750,312.464 140.410,312.483 100.977 C 312.502 60.824,312.774 62.500,306.250 62.500 C 304.167 62.500,302.604 63.021,301.563 64.063 M23.047 176.484 C 19.185 178.276,15.313 182.267,13.711 186.108 C 11.686 190.963,11.937 297.542,13.984 301.953 C 15.776 305.815,19.767 309.687,23.608 311.289 C 28.463 313.314,135.042 313.063,139.453 311.016 C 143.315 309.224,147.187 305.233,148.789 301.392 C 150.617 297.009,150.617 190.491,148.789 186.108 C 147.187 182.267,143.315 178.276,139.453 176.484 C 134.615 174.240,27.885 174.240,23.047 176.484 M133.122 188.588 C 137.520 190.425,137.500 190.177,137.500 243.750 C 137.500 297.323,137.520 297.075,133.122 298.912 C 129.684 300.349,33.800 300.535,29.720 299.113 C 24.935 297.445,25.000 298.209,25.000 243.892 C 25.000 190.534,25.007 190.449,29.207 188.621 C 32.850 187.035,129.332 187.004,133.122 188.588 " stroke="none" fill="#000000" fill-rule="evenodd"></path></g></svg>