<?xml version="1.0" encoding="UTF-8" standalone="no" ?>
<!DOCTYPE svg PUBLIC "-//W3C//DTD SVG 1.1//EN" "http://www.w3.org/Graphics/SVG/1.1/DTD/svg11.dtd">
<svg xmlns="http://www.w3.org/2000/svg" xmlns:xlink="http://www.w3.org/1999/xlink" version="1.1" width="1080" height="1080" viewBox="0 0 1080 1080" xml:space="preserve">
<desc>Created with Fabric.js 5.2.4</desc>
<defs>
</defs>
<g transform="matrix(1 0 0 1 540 540)" id="3d2a2a32-f97f-446e-8c97-8f5906644d78"  >
<rect style="stroke: none; stroke-width: 1; stroke-dasharray: none; stroke-linecap: butt; stroke-dashoffset: 0; stroke-linejoin: miter; stroke-miterlimit: 4; fill: rgb(255,255,255); fill-rule: nonzero; opacity: 1; visibility: hidden;" vector-effect="non-scaling-stroke"  x="-540" y="-540" rx="0" ry="0" width="1080" height="1080" />
</g>
<g transform="matrix(1 0 0 1 540 540)" id="77900f52-9e1e-4f53-800d-7465638bd76c"  >
</g>
<g transform="matrix(1 0 0 1 540 540)"  >
<g style="" vector-effect="non-scaling-stroke"   >
		<g transform="matrix(0.13 0 0 -0.13 0 -5.65)"  >
<path style="stroke: none; stroke-width: 1; stroke-dasharray: none; stroke-linecap: butt; stroke-dashoffset: 0; stroke-linejoin: miter; stroke-miterlimit: 4; fill: rgb(0,0,0); fill-rule: nonzero; opacity: 1;" vector-effect="non-scaling-stroke"  transform=" translate(-2004.12, -1735.75)" d="M 1870 3049 C 1486 3003 1155 2811 942 2510 C 896 2444 837 2339 844 2333 C 847 2330 858 2346 869 2367 C 899 2426 999 2558 1066 2625 C 1404 2967 1890 3096 2340 2963 C 2741 2844 3060 2534 3188 2140 C 3381 1546 3116 910 2560 630 C 2232 465 1857 451 1515 590 C 1135 744 845 1083 750 1485 C 711 1649 708 1660 699 1654 C 674 1639 705 1443 755 1293 C 818 1104 894 979 1034 832 C 1150 711 1257 630 1388 563 C 1719 395 2102 370 2443 494 C 2984 691 3349 1230 3316 1785 C 3296 2124 3197 2371 2982 2618 C 2871 2746 2678 2885 2522 2949 C 2322 3031 2057 3072 1870 3049 z" stroke-linecap="round" />
</g>
		<g transform="matrix(0.13 0 0 -0.13 -54.29 -7.17)"  >
<path style="stroke: none; stroke-width: 1; stroke-dasharray: none; stroke-linecap: butt; stroke-dashoffset: 0; stroke-linejoin: miter; stroke-miterlimit: 4; fill: rgb(0,0,0); fill-rule: nonzero; opacity: 1;" vector-effect="non-scaling-stroke"  transform=" translate(-1596.91, -1747.18)" d="M 1820 2945 C 1555 2900 1336 2787 1150 2600 C 892 2340 766 1994 800 1640 C 829 1338 941 1100 1156 887 C 1467 580 1882 469 2322 576 C 2360 585 2393 597 2396 601 C 2403 613 2406 613 2327 590 C 2117 530 1841 542 1615 620 C 1335 717 1067 958 936 1233 C 797 1525 783 1880 900 2176 C 1018 2472 1239 2704 1529 2834 C 1637 2883 1680 2896 1814 2920 C 1944 2944 2066 2945 2209 2925 C 2321 2909 2355 2911 2268 2929 C 2112 2961 1949 2967 1820 2945 z" stroke-linecap="round" />
</g>
		<g transform="matrix(0.13 0 0 -0.13 127.31 -42.85)"  >
<path style="stroke: none; stroke-width: 1; stroke-dasharray: none; stroke-linecap: butt; stroke-dashoffset: 0; stroke-linejoin: miter; stroke-miterlimit: 4; fill: rgb(0,0,0); fill-rule: nonzero; opacity: 1;" vector-effect="non-scaling-stroke"  transform=" translate(-2958.94, -2014.76)" d="M 2710 2728 C 2710 2726 2752 2681 2804 2627 C 3003 2421 3117 2173 3142 1890 C 3156 1738 3143 1602 3100 1425 C 3084 1359 3073 1304 3075 1302 C 3092 1285 3145 1390 3173 1495 C 3200 1597 3213 1728 3206 1835 C 3185 2135 3080 2376 2876 2588 C 2810 2657 2710 2741 2710 2728 z" stroke-linecap="round" />
</g>
		<g transform="matrix(0.13 0 0 -0.13 0.22 0.34)"  >
<path style="stroke: none; stroke-width: 1; stroke-dasharray: none; stroke-linecap: butt; stroke-dashoffset: 0; stroke-linejoin: miter; stroke-miterlimit: 4; fill: rgb(0,0,0); fill-rule: nonzero; opacity: 1;" vector-effect="non-scaling-stroke"  transform=" translate(-2005.79, -1690.84)" d="M 1815 2352 C 1559 2266 1401 2059 1383 1789 C 1368 1567 1473 1362 1670 1231 L 1725 1195 L 1730 1100 L 1735 1005 L 1767 1002 C 1808 998 1822 1023 1819 1091 C 1817 1118 1820 1144 1826 1149 C 1831 1155 1867 1152 1915 1143 C 1981 1130 2010 1130 2078 1139 C 2123 1146 2167 1153 2175 1156 C 2186 1161 2190 1147 2192 1089 C 2195 1009 2208 992 2253 1004 C 2280 1010 2280 1012 2280 1096 C 2280 1192 2274 1183 2387 1264 C 2537 1373 2629 1560 2630 1756 C 2630 2038 2453 2273 2176 2359 C 2072 2391 1921 2388 1815 2352 z M 2173 2325 C 2356 2272 2520 2105 2576 1915 C 2600 1835 2600 1675 2577 1601 C 2537 1474 2464 1366 2367 1291 C 2284 1227 2280 1232 2280 1395 L 2280 1531 L 2326 1573 C 2379 1621 2402 1662 2420 1739 C 2458 1902 2362 2090 2240 2090 C 2131 2090 2050 1973 2050 1814 C 2050 1706 2093 1615 2173 1553 C 2193 1537 2205 1382 2193 1275 L 2185 1196 L 2140 1183 C 2056 1158 1844 1170 1824 1201 C 1821 1206 1819 1290 1819 1387 L 1819 1565 L 1857 1598 C 1878 1617 1910 1645 1928 1661 L 1960 1691 L 1958 1888 L 1955 2085 L 1930 2085 C 1903 2085 1904 2088 1870 1901 C 1842 1746 1836 1748 1820 1920 C 1805 2089 1804 2090 1775 2090 C 1740 2090 1734 2068 1727 1927 C 1718 1751 1703 1744 1676 1902 C 1648 2061 1640 2085 1610 2085 L 1585 2085 L 1588 1885 L 1592 1685 L 1628 1653 C 1648 1635 1680 1608 1698 1591 L 1731 1561 L 1728 1409 C 1726 1309 1721 1255 1714 1253 C 1695 1247 1584 1337 1540 1396 C 1483 1472 1442 1563 1422 1658 C 1394 1796 1428 1954 1513 2082 C 1604 2218 1746 2312 1910 2344 C 1958 2353 2116 2342 2173 2325 z" stroke-linecap="round" />
</g>
		<g transform="matrix(0.13 0 0 -0.13 29.41 147.02)"  >
<path style="stroke: none; stroke-width: 1; stroke-dasharray: none; stroke-linecap: butt; stroke-dashoffset: 0; stroke-linejoin: miter; stroke-miterlimit: 4; fill: rgb(0,0,0); fill-rule: nonzero; opacity: 1;" vector-effect="non-scaling-stroke"  transform=" translate(-2224.72, -590.74)" d="M 2970 779 C 2732 557 2477 433 2172 389 C 1983 363 1716 389 1497 456 C 1449 471 1407 480 1403 476 C 1393 466 1413 455 1504 419 C 1889 269 2336 314 2700 537 C 2787 591 2852 642 2933 719 C 2985 768 3057 851 3048 850 C 3047 849 3011 818 2970 779 z" stroke-linecap="round" />
</g>
</g>
</g>
</svg>