<svg id="svg" xmlns="http://www.w3.org/2000/svg" xmlns:xlink="http://www.w3.org/1999/xlink" width="400" height="400" viewBox="0, 0, 400,400"><g id="svgg"><path id="path0" d="M65.220 1.089 C 59.191 3.716,56.261 9.806,56.254 19.727 L 56.250 25.781 51.367 25.798 C 40.306 25.837,32.869 33.212,32.830 44.183 C 32.789 55.357,41.099 63.281,52.859 63.281 L 56.250 63.281 56.250 75.391 L 56.250 87.500 53.320 87.519 C 26.930 87.691,25.138 122.495,51.367 125.436 L 56.250 125.983 56.250 137.992 L 56.250 150.000 51.758 150.008 C 40.598 150.027,32.791 157.828,32.830 168.920 C 32.869 180.145,40.501 187.483,52.148 187.496 L 56.250 187.500 56.250 200.000 L 56.250 212.500 52.148 212.504 C 40.501 212.517,32.869 219.855,32.830 231.080 C 32.791 242.172,40.598 249.973,51.758 249.992 L 56.250 250.000 56.250 262.008 L 56.250 274.017 51.367 274.564 C 25.138 277.505,26.930 312.309,53.320 312.481 L 56.250 312.500 56.250 324.609 L 56.250 336.719 52.859 336.719 C 41.099 336.719,32.789 344.643,32.830 355.817 C 32.869 366.788,40.306 374.163,51.367 374.202 L 56.250 374.219 56.254 380.273 C 56.260 387.933,57.255 391.499,60.382 395.060 C 65.048 400.374,53.532 400.000,212.506 400.000 C 376.440 400.000,360.756 400.657,365.429 393.596 L 367.578 390.348 367.578 200.000 L 367.578 9.652 365.429 6.404 C 360.755 -0.658,376.470 -0.004,212.336 0.031 C 94.466 0.055,67.140 0.252,65.220 1.089 M354.531 13.437 C 355.896 14.802,355.896 385.198,354.531 386.562 C 352.663 388.430,70.561 387.863,69.559 385.989 C 68.428 383.876,68.428 16.124,69.559 14.011 C 70.561 12.137,352.663 11.570,354.531 13.437 M56.250 44.633 L 56.250 50.984 52.686 50.583 C 42.872 49.477,42.884 38.281,52.699 38.281 L 56.250 38.281 56.250 44.633 M200.000 59.523 C 194.541 62.326,192.821 66.362,193.123 75.661 L 193.359 82.962 187.109 84.782 C 152.199 94.945,126.100 126.859,123.233 162.891 C 123.053 165.162,122.903 165.247,118.359 165.644 C 109.597 166.410,108.203 168.547,108.203 181.212 C 108.203 191.551,109.069 193.830,113.736 195.780 C 117.718 197.444,309.690 197.054,312.214 195.377 C 315.708 193.055,316.406 190.589,316.406 180.570 L 316.406 171.146 313.646 168.385 C 311.115 165.855,310.505 165.625,306.315 165.625 L 301.745 165.625 301.184 160.352 C 297.489 125.603,272.587 95.776,238.404 85.157 C 230.529 82.710,230.386 82.623,230.838 80.566 C 232.847 71.419,231.152 64.293,226.039 60.392 C 221.869 57.210,205.565 56.666,200.000 59.523 M218.750 73.340 C 218.750 75.005,218.530 77.466,218.262 78.809 L 217.773 81.250 212.120 81.250 L 206.467 81.250 206.027 76.393 C 205.460 70.146,205.281 70.313,212.546 70.313 L 218.750 70.313 218.750 73.340 M230.078 95.999 C 261.144 103.703,284.572 129.938,288.594 161.523 L 289.116 165.625 229.380 165.625 L 169.645 165.625 168.025 167.683 C 165.424 170.990,166.395 175.595,170.045 177.258 C 171.392 177.871,191.237 178.125,237.927 178.125 L 303.906 178.125 303.906 181.250 L 303.906 184.375 212.109 184.375 L 120.313 184.375 120.313 181.250 L 120.313 178.125 133.166 178.125 C 146.896 178.125,149.261 177.634,150.695 174.486 C 153.319 168.728,150.320 165.625,142.131 165.625 L 135.938 165.625 135.938 163.320 C 135.938 157.892,139.380 145.407,142.919 138.000 C 158.570 105.243,195.532 87.431,230.078 95.999 M56.250 106.250 L 56.250 112.500 52.589 112.500 C 41.703 112.500,43.159 100.552,54.102 100.091 L 56.250 100.000 56.250 106.250 M56.250 168.750 L 56.250 175.000 52.699 175.000 C 49.970 175.000,48.704 174.556,47.230 173.082 C 42.809 168.662,46.317 162.581,53.320 162.524 L 56.250 162.500 56.250 168.750 M56.250 231.250 L 56.250 237.500 53.464 237.500 C 46.406 237.500,42.788 231.359,47.230 226.918 C 48.704 225.444,49.970 225.000,52.699 225.000 L 56.250 225.000 56.250 231.250 M110.419 240.216 C 106.936 242.656,107.533 248.910,111.418 250.680 C 115.577 252.575,311.908 251.862,314.348 249.943 C 317.097 247.780,317.221 243.226,314.598 240.761 L 312.790 239.063 212.428 239.063 C 125.187 239.063,111.851 239.213,110.419 240.216 M117.432 264.676 C 115.238 266.071,114.844 270.147,114.844 291.457 C 114.844 315.535,115.023 316.406,119.973 316.406 C 124.972 316.406,124.999 316.315,125.011 299.387 L 125.022 283.984 128.774 290.955 C 134.824 302.196,136.862 302.298,142.705 291.652 L 146.484 284.766 146.875 299.982 L 147.266 315.199 149.414 315.953 C 150.796 316.439,152.329 316.438,153.711 315.953 L 155.859 315.197 156.066 290.869 C 156.300 263.238,156.360 263.528,150.611 264.299 C 146.503 264.850,146.163 265.225,140.924 274.991 C 135.386 285.313,136.398 285.239,131.230 275.703 C 125.651 265.409,121.499 262.090,117.432 264.676 M173.168 265.491 C 171.095 267.782,171.219 313.227,173.304 315.113 C 175.643 317.230,202.732 317.037,203.879 314.895 C 206.929 309.195,204.693 307.813,192.422 307.813 L 182.031 307.813 182.031 301.172 L 182.031 294.531 187.161 294.531 C 193.740 294.531,195.313 293.702,195.313 290.234 C 195.313 286.767,193.740 285.938,187.161 285.938 L 182.031 285.938 182.031 279.297 L 182.031 272.656 192.422 272.656 C 204.693 272.656,206.929 271.274,203.879 265.574 C 202.672 263.318,175.201 263.244,173.168 265.491 M218.497 265.039 C 217.281 265.930,217.181 268.183,217.371 290.625 L 217.578 315.234 220.455 315.945 C 222.711 316.503,223.763 316.373,225.337 315.341 L 227.344 314.026 227.352 300.568 L 227.359 287.109 234.693 300.781 C 242.047 314.490,243.584 316.369,247.461 316.395 C 252.167 316.426,252.344 315.478,252.344 290.234 C 252.344 264.657,252.223 264.063,247.024 264.063 C 242.438 264.063,242.228 264.714,242.003 279.636 L 241.797 293.256 235.210 280.435 C 226.832 264.128,223.691 261.235,218.497 265.039 M268.887 265.272 L 267.071 266.577 267.324 286.218 C 267.564 304.749,267.676 306.043,269.312 309.101 C 274.293 318.416,292.227 319.268,298.913 310.507 L 301.172 307.546 301.172 286.410 L 301.172 265.274 299.023 264.518 C 297.641 264.031,296.109 264.030,294.727 264.515 L 292.578 265.269 292.188 284.002 C 291.722 306.312,291.206 307.855,284.231 307.788 C 277.943 307.727,277.346 305.721,277.332 284.622 C 277.325 274.818,277.033 266.345,276.683 265.793 C 275.619 264.116,270.931 263.803,268.887 265.272 M56.250 293.856 L 56.250 300.212 52.583 299.710 C 42.800 298.369,42.708 287.500,52.480 287.500 L 56.250 287.500 56.250 293.856 M110.419 330.841 C 106.861 333.333,107.570 339.688,111.590 341.352 C 113.067 341.964,133.839 342.153,183.077 342.005 L 252.482 341.797 253.975 339.953 C 256.048 337.392,255.905 333.495,253.661 331.386 L 251.852 329.688 181.959 329.688 C 121.587 329.688,111.842 329.845,110.419 330.841 M272.656 331.250 C 270.280 333.626,270.319 337.750,272.740 340.234 C 274.182 341.715,275.291 341.797,293.841 341.797 L 313.419 341.797 314.913 339.953 C 316.986 337.392,316.843 333.495,314.598 331.386 C 311.895 328.847,275.179 328.728,272.656 331.250 M56.250 355.469 L 56.250 361.719 52.699 361.719 C 42.221 361.719,43.213 349.535,53.711 349.280 L 56.250 349.219 56.250 355.469 " stroke="none" fill="#000000" fill-rule="evenodd"></path></g></svg>