<svg id="svg" xmlns="http://www.w3.org/2000/svg" xmlns:xlink="http://www.w3.org/1999/xlink" width="400" height="400" viewBox="0, 0, 400,400"><g id="svgg"><path id="path0" d="M133.984 12.459 C 106.379 15.658,73.888 30.460,46.484 52.321 C 35.134 61.376,34.492 62.925,38.739 71.022 C 48.773 90.152,62.070 108.295,76.520 122.572 L 87.109 133.034 78.452 141.777 C 36.146 184.501,30.214 251.058,64.168 302.037 C 83.608 331.223,129.687 360.270,129.687 343.337 C 129.688 339.920,128.691 338.991,120.804 335.062 C 116.452 332.894,110.605 329.717,107.813 328.003 L 102.734 324.886 102.983 317.046 C 103.362 305.115,100.502 293.592,94.704 283.686 C 92.192 279.396,92.657 277.240,98.920 264.137 C 113.012 234.657,111.815 227.302,91.797 220.377 C 87.930 219.039,84.025 217.566,83.120 217.103 C 81.456 216.253,77.181 209.488,71.077 198.047 C 69.243 194.609,66.691 190.258,65.406 188.378 L 63.070 184.958 66.365 178.612 C 71.808 168.127,78.063 159.485,86.680 150.545 C 96.986 139.853,96.655 140.024,101.409 142.949 C 111.996 149.463,127.768 155.410,137.772 156.660 L 142.326 157.229 138.293 160.756 C 113.681 182.286,119.434 221.263,147.995 226.495 C 155.033 227.784,161.635 227.527,175.781 225.414 C 193.087 222.829,192.967 222.640,192.971 252.408 C 192.973 272.988,194.085 287.449,196.188 294.271 C 202.596 315.053,227.496 312.460,246.201 289.063 C 255.512 277.414,257.421 269.271,255.070 251.222 C 252.332 230.198,255.445 223.460,273.363 211.621 C 283.239 205.095,282.384 205.070,283.541 211.914 C 295.431 282.278,241.097 345.223,168.078 345.673 C 154.179 345.758,152.865 345.886,151.867 347.251 C 140.209 363.195,193.341 360.932,226.923 344.055 C 311.095 301.753,321.218 184.387,245.538 128.229 L 239.903 124.048 245.538 119.738 C 248.636 117.368,251.917 114.751,252.828 113.924 C 256.769 110.343,281.762 135.424,293.632 154.870 C 344.247 237.796,299.943 346.691,205.644 371.137 C 108.132 396.416,15.007 316.229,24.976 215.571 C 26.270 202.503,25.403 200.000,19.581 200.000 C 11.160 200.000,9.722 239.786,17.093 268.864 C 47.366 388.291,197.213 428.038,282.833 339.350 C 325.972 294.665,338.979 224.954,314.534 169.448 C 314.084 168.427,315.334 167.725,321.248 165.679 C 384.831 143.679,403.536 97.364,373.852 35.426 C 367.233 21.616,367.044 21.539,351.953 26.611 C 300.789 43.806,278.028 75.203,284.619 119.498 L 285.253 123.761 277.918 116.665 C 273.885 112.763,267.653 107.397,264.072 104.741 C 258.008 100.246,257.210 99.309,252.504 91.167 C 235.891 62.424,226.105 53.138,221.976 62.199 C 220.562 65.303,220.770 65.782,227.571 75.105 C 238.608 90.235,242.562 96.918,240.430 96.839 C 237.537 96.732,193.601 87.655,193.039 87.048 C 191.779 85.685,146.875 24.194,146.875 23.831 C 146.875 23.403,152.517 24.019,158.594 25.110 C 172.059 27.528,188.006 35.450,200.336 45.848 C 208.622 52.836,216.143 43.874,208.008 36.707 C 187.754 18.862,159.265 9.530,133.984 12.459 M154.171 54.442 C 166.040 70.635,175.670 83.965,175.571 84.064 C 175.472 84.162,166.178 82.427,154.919 80.207 L 134.447 76.172 118.786 54.789 C 110.173 43.028,103.125 33.182,103.125 32.907 C 103.125 31.605,125.433 25.113,130.163 25.038 C 132.466 25.002,133.698 26.511,154.171 54.442 M104.323 55.341 C 111.038 64.509,116.398 72.143,116.235 72.306 C 115.997 72.545,77.262 65.269,59.575 61.664 L 55.478 60.829 57.622 59.047 C 65.270 52.689,89.177 38.023,91.174 38.464 C 91.691 38.578,97.608 46.173,104.323 55.341 M352.906 40.039 C 351.116 44.563,329.586 95.630,329.120 96.457 C 328.732 97.145,325.897 91.136,321.185 79.634 C 315.304 65.280,314.038 61.518,314.786 60.616 C 320.529 53.696,354.827 35.182,352.906 40.039 M369.650 56.250 C 374.274 69.631,377.024 85.278,374.900 86.124 C 374.311 86.358,366.479 89.581,357.497 93.285 C 348.515 96.989,341.097 99.927,341.012 99.815 C 340.928 99.702,346.168 86.898,352.656 71.363 L 364.453 43.116 365.904 46.363 C 366.703 48.148,368.388 52.598,369.650 56.250 M313.512 92.383 C 318.125 103.662,321.893 113.181,321.887 113.536 C 321.874 114.243,308.227 147.054,307.132 149.011 C 306.228 150.627,300.734 136.613,297.978 125.660 C 295.217 114.692,294.533 98.891,296.447 90.291 C 297.697 84.671,303.338 71.875,304.565 71.875 C 304.873 71.875,308.900 81.104,313.512 92.383 M85.878 78.864 C 101.529 81.901,114.408 84.471,114.498 84.576 C 114.731 84.845,82.173 108.588,80.901 109.076 C 79.467 109.627,69.555 97.451,60.885 84.489 C 53.420 73.331,52.933 72.250,55.664 72.915 C 56.631 73.150,70.227 75.828,85.878 78.864 M154.268 92.220 C 165.424 94.391,174.618 96.238,174.697 96.326 C 174.777 96.413,162.006 105.887,146.317 117.379 L 117.792 138.274 112.219 135.348 C 106.649 132.424,97.558 125.991,91.947 121.003 L 88.973 118.359 109.916 102.990 C 124.563 92.241,131.329 87.719,132.422 87.948 C 133.281 88.127,143.112 90.050,154.268 92.220 M216.406 104.327 C 229.082 106.761,239.542 108.835,239.651 108.936 C 239.760 109.037,237.123 111.081,233.792 113.478 C 205.104 134.116,176.522 145.382,152.344 145.581 C 143.489 145.654,130.567 144.173,131.542 143.197 C 134.442 140.297,191.337 99.414,192.188 99.619 C 192.832 99.775,203.730 101.893,216.406 104.327 M374.676 102.494 C 372.568 115.677,359.806 131.857,343.463 142.066 C 336.457 146.442,319.682 154.318,318.942 153.578 C 318.706 153.341,322.011 144.793,326.286 134.582 L 334.060 116.016 353.944 107.670 C 377.196 97.911,375.335 98.376,374.676 102.494 M236.719 136.627 C 248.531 144.955,262.027 159.908,269.519 172.968 C 273.013 179.060,278.906 191.946,278.906 193.497 C 278.906 193.909,274.794 196.684,269.768 199.662 C 245.761 213.890,239.637 226.360,243.429 253.293 C 245.824 270.310,240.503 282.269,226.375 291.620 C 208.744 303.290,205.676 298.334,205.040 257.144 C 204.533 224.284,202.890 217.641,194.203 213.332 L 190.368 211.429 175.457 213.540 C 149.269 217.248,142.623 215.610,136.945 204.048 C 130.748 191.428,136.715 175.944,151.903 165.234 C 154.340 163.516,157.898 160.950,159.809 159.534 C 162.441 157.583,164.756 156.699,169.351 155.891 C 186.480 152.880,208.873 144.078,223.828 134.480 C 229.163 131.056,228.710 130.980,236.719 136.627 M73.645 224.682 C 76.178 227.101,78.606 228.412,83.614 230.064 C 99.425 235.278,99.383 235.054,88.792 257.599 C 79.859 276.613,79.419 280.278,84.806 290.786 C 88.512 298.016,91.428 307.619,91.376 312.430 L 91.347 315.234 84.931 308.555 C 59.653 282.237,48.873 242.704,56.764 205.263 L 58.043 199.199 64.170 210.342 C 68.050 217.399,71.524 222.657,73.645 224.682 " stroke="none" fill="#000000" fill-rule="evenodd"></path></g></svg>